<svg version="1.1" xmlns="http://www.w3.org/2000/svg" xmlns:xlink="http://www.w3.org/1999/xlink" width="498.80494" height="515.39224" viewBox="0,0,498.80494,515.39224"><g transform="translate(-10.70107,51.85842)"><g data-paper-data="{&quot;isPaintingLayer&quot;:true}" fill-rule="nonzero" stroke="none" stroke-linecap="butt" stroke-linejoin="miter" stroke-miterlimit="10" stroke-dasharray="" stroke-dashoffset="0" style="mix-blend-mode: normal"><path d="" fill="#000000" stroke-width="0.5"/><path d="" data-paper-data="{&quot;noHover&quot;:false,&quot;origItem&quot;:[&quot;Path&quot;,{&quot;applyMatrix&quot;:true,&quot;segments&quot;:[[[300.09954,200.46772],[0,0],[-2.07968,-0.34555]],[[294.09954,198.46772],[2.08134,0.33539],[-1.45222,-0.23401]],[[289.98778,197.75313],[1.32106,0.26244],[0.59621,1.7968]],[[291.84472,203.13263],[-0.64866,-1.79016],[0.76295,2.10556]],[[295.62663,208.68566],[-1.14671,-1.92366],[1.38463,2.3228]],[[298.84472,216.13263],[-0.94323,-2.53435],[1.06813,2.8699]],[[300.84758,225.09831],[-0.97055,-2.90435],[0.46623,1.3952]],[[302.81243,229.04988],[-0.57569,-1.35371],[1.65177,3.88405]],[[306.87172,241.20943],[-1.33226,-4.00674],[0.3579,1.07638]],[[307.81379,244.45537],[-0.28085,-1.08621],[0.66048,-3.63336]],[[311.25422,233.90163],[-1.67889,3.36443],[1.61703,-3.24046]],[[317.06689,224.42563],[-1.0301,3.56026],[0.90307,-3.12121]],[[317.00001,213.00001],[-0.00001,3.28085],[0,-4.17388]],[[317.67303,200.50579],[-0.45472,4.14597],[-5.66915,0.07673]],[[300.09954,200.46774],[5.511,0.91568],[0,0]]],&quot;closed&quot;:true,&quot;fillColor&quot;:[0,0,0],&quot;strokeWidth&quot;:0.5}]}" fill="#904300" stroke-width="0.25"/><path d="" fill="#000000" stroke-width="0.5"/><path d="M354.00255,281.29434c-1.28352,4.93809 -5.70431,8.7176 -6.84528,13.69056c-1.12923,4.92179 0.15262,10.0982 0.2289,15.14731v17.11321c0,4.72568 -3.83093,8.55661 -8.5566,8.55661c-1.92627,0 -3.70388,-0.63651 -5.13396,-1.71071c-1.43009,1.07416 -3.2077,1.71071 -5.13396,1.71071c-2.22886,0 -4.25869,-0.85221 -5.78139,-2.24854c-1.24016,3.77822 -3.56722,6.79428 -7.50517,8.19048c-4.44968,1.57757 -9.01079,-0.57983 -13.57522,-2.84818c-2.58156,6.86602 -8.85492,23.54048 -9.55358,25.39757l-3.32167,9.96506c-1.07529,3.49644 -4.3308,6.03795 -8.17991,6.03795c-4.20601,0 -7.70324,-3.03468 -8.42151,-7.03394l-2.77552,-13.87765c-19.87258,6.67282 -17.92071,-8.8132 -24.10519,-18.01538c-2.34848,-3.49442 -6.76934,5.1431 -9.42021,8.41405c-3.15335,3.89093 -4.74395,9.52103 -8.95976,12.11899c0.25886,2.59237 0.87425,5.23429 0.52079,7.78535c-0.49516,3.57365 -2.96691,6.68904 -3.42264,10.26792c-1.41896,11.14302 1.1624,22.51931 0.06883,33.69895c-0.55622,5.68617 -2.63753,11.13999 -3.35885,16.80757c-1.31219,10.30982 -0.84038,21.59839 -0.41069,32.54294c-2.90668,-0.06245 -5.81293,-0.14802 -8.71861,-0.26195c-2.77821,-0.10892 -5.57302,-0.24857 -8.37974,-0.41341c-0.40502,-11.29574 -0.83145,-22.89545 0.48458,-33.60724c0.69449,-5.65301 2.78517,-11.08713 3.3535,-16.75421c1.56983,-15.6538 -1.92277,-18.54672 0.06883,-34.75389c0.44005,-3.58083 2.8987,-6.69838 3.42264,-10.26792c0.18746,-1.2772 0.20235,-2.57417 0.14618,-3.8782c-7.62208,-0.96686 -15.36438,-3.17477 -17.86277,-5.41818c-2.27226,-2.0403 -3.64501,-4.6935 -4.65435,-7.60562c-4.51344,-0.1162 -9.05669,-0.38477 -13.40259,-0.49899c-1.35338,3.61561 -2.69602,7.46769 -5.99979,8.90945c-17.00574,7.42118 -20.62189,0.55806 -24.6157,-9.46744c-5.37362,-1.53995 -10.28853,-4.52049 -15.60913,-6.28102c-1.65454,-0.54748 -3.32226,-1.06359 -4.99686,-1.56354c-2.03226,6.28921 -4.75018,12.15169 -13.56834,11.75671c-7.81051,-0.34983 -12.18916,-9.79433 -18.28375,-14.69148c-0.19724,-0.81959 -1.38429,-5.66174 -2.77984,-11.47174c-1.0717,-0.72984 -2.17974,-1.39154 -3.37082,-1.89977c-13.89172,-5.92753 -25.03697,-7.28882 -36.44922,-18.50831c-12.61117,-9.57009 -22.41642,-18.97965 -29.46138,-33.50855c-3.43678,-7.08778 -3.11464,-15.45182 -4.22861,-23.24973c-0.66522,-4.65671 -2.91072,-9.01455 -3.42265,-13.69057c-2.95569,-26.99828 -0.0641,-55.98867 -0.0641,-83.18889c0,-20.42226 -4.0726,-45.78913 4.07397,-64.88203c2.26103,-5.2991 4.64233,-10.60629 7.80906,-15.41924c1.45886,-2.21725 4.16508,-3.42144 5.85816,-5.43474c-0.10682,-2.90251 -0.62798,-6.16774 -0.62798,-10.09796c0,-11.38231 -0.31133,-22.84597 0,-34.22642c0.12356,-4.51768 -1.30591,-9.46887 0.65133,-13.5424c0.02564,-0.05336 17.48645,-19.28834 20.52001,-21.11739c6.17924,-3.72579 14.39084,-3.06334 20.53585,-6.84529c6.59958,-4.06175 12.59854,-10.15343 20.2411,-11.43538c4.20088,-0.70462 8.70402,1.44651 12.77714,0.20002c4.80398,-1.47016 8.42079,-5.48969 12.76324,-8.01614c10.93147,-6.36002 20.078,-9.29709 32.64454,-9.29709c21.34753,-7.11584 47.42015,-3.53312 69.82343,-3.53312c11.04179,0 24.64138,-1.6565 35.59705,0.11048c3.56174,0.57446 6.69832,2.89922 10.26793,3.42265c7.79445,1.14293 15.83105,-1.13441 23.63334,-0.04638c4.6589,0.64969 9.03642,2.7398 13.69057,3.42265c3.86064,0.56645 7.9956,-0.91669 11.70201,0.30304c4.33385,1.42621 7.45978,5.32211 11.54772,7.34821c3.48076,1.72515 7.67289,1.83666 11.00705,3.83052c2.7695,1.65618 4.07824,5.18507 6.84528,6.84529c3.09366,1.85616 7.17427,1.56647 10.26793,3.42264c2.76704,1.66022 4.07824,5.18506 6.84528,6.84528c3.09366,1.85616 7.17426,1.56648 10.26792,3.42264c1.88372,1.13023 3.31764,2.83655 4.76107,4.53072c3.94829,-4.83106 7.71576,-10.14536 12.6968,-14.13715c24.95538,-19.99928 51.31283,-23.17977 81.76839,-15.5659c9.70069,0.04248 14.75511,-1.06533 23.98885,4.63648c22.07122,13.62893 15.76476,53.77642 10.61676,74.50507c-0.7897,3.17981 -7.75105,23.09093 -9.0648,24.39006c-4.00638,3.96184 -22.50856,7.55079 -27.61661,9.01024c-16.24399,4.64113 -32.19094,9.5122 -48.59943,12.1182c-0.14594,2.08052 -0.27422,4.16341 -0.04018,6.2044c0.64938,5.66279 2.79089,11.09542 3.35483,16.76735c3.46618,34.86104 -4.08965,68.66464 -17.65508,100.29748c-3.08619,7.19659 -6.98479,14.01698 -10.48666,21.02073c-3.83778,7.67548 -5.92864,16.66769 -11.90406,22.8269c-8.28906,8.54408 -17.90507,14.39054 -27.86335,19.8887c0.03276,2.58612 -0.17199,4.94093 -0.66314,6.83057zM145.46194,217.42917c0.09337,-1.49891 0.93616,-8.26489 8.54496,-8.26489c8.5566,0 8.55661,8.5566 8.55661,8.5566c0,5.20447 0,10.4089 0,15.61337c4.0442,-2.16112 8.65617,-3.50284 11.97925,-3.63413c8.16112,-0.32248 14.65599,7.26494 21.61169,11.54584c7.29974,4.49263 18.07018,5.61484 26.3053,5.56737c4.02291,-0.02321 23.0042,-0.26162 25.03434,1.27792c3.68543,2.79482 6.08559,6.97007 7.9291,11.38329c1.14258,-3.3815 4.34111,-5.81592 8.10827,-5.81592c2.20579,0 4.21663,0.83464 5.73395,2.20534c2.72593,-4.58757 5.6592,-8.90065 7.63547,-12.0145l0.06513,-0.059l-0.01821,-0.01211l6.77166,-10.15752c1.52355,-2.35906 4.17597,-3.92067 7.19313,-3.92067c4.07209,0 7.47981,2.84453 8.34454,6.65499l0.0218,0.08721c0.16487,-0.88602 0.3922,-1.67863 0.73936,-2.25514c3.11765,-5.1774 19.22755,-26.24704 26.9889,-24.81648c6.40321,1.18023 13.19124,26.01259 13.46961,31.2632c0.15922,3.00323 -4.43023,6.42905 -2.44205,8.6856c2.09534,2.37815 7.41262,-3.09359 9.48332,-0.69394c1.48987,1.72655 2.86372,4.5488 4.00062,7.88915c6.60286,-3.94045 12.94745,-8.3177 18.90952,-14.04049c6.98253,-6.70228 4.43134,-9.84383 8.63181,-18.2448c3.34341,-6.68681 7.10585,-13.17864 10.04918,-20.05097c12.43158,-29.02619 19.70408,-59.98335 16.43844,-92.03512c-0.57867,-5.67953 -2.76084,-11.11677 -3.35755,-16.79442c-0.2119,-2.01601 0.15378,-4.08147 0.42663,-6.1295c-1.85832,0.08984 -3.72537,0.14176 -5.60222,0.15237c0,0 -5.25793,0 -7.5305,-4.12165c-12.10578,1.69726 -24.46679,0.69901 -36.96385,0.69901c-18.5106,0 -38.08699,1.64198 -56.81301,0.64325c-0.05777,0.22548 -0.09967,0.35126 -0.09967,0.35126c-2.13731,6.41198 -5.57706,12.50746 -6.51668,19.20061c-2.05499,14.63836 2.76936,26.04155 -4.42281,40.49427c-1.77745,3.57176 -5.49389,5.7866 -8.24083,8.67989l2.50619,0.79487c0,0 0,8.5566 -8.5566,8.5566c-8.5566,0 -8.5566,-8.5566 -8.5566,-8.5566l2.50619,-12.89569c12.22274,-11.23797 5.72389,-24.98077 7.87225,-39.81454c0.0894,-0.61717 4.0089,-12.39431 6.02785,-18.44126c-13.01607,-1.38939 -24.72256,-2.43532 -38.65343,-2.43532c-12.77416,0 -22.75896,-1.89101 -35.2719,-3.48675c-16.07481,-2.04999 -34.10166,0.06411 -50.29415,0.06411c-6.38853,0 -12.87006,-1.19841 -19.16526,-0.11049c-0.79833,0.13797 -1.57629,0.3576 -2.3431,0.62176c14.70979,25.57162 12.95172,57.81068 12.95172,86.76609v3.42264c0,0 0,8.55661 -8.5566,8.55661c-8.5566,0 -8.55661,-8.55661 -8.55661,-8.55661v-3.42264c0,-11.85429 1.55929,-24.87946 0.06411,-36.60358c-0.59506,-4.66619 -2.75738,-9.03386 -3.42264,-13.69057c-1.85531,-12.98704 -1.09453,-19.11244 -8.89496,-30.52555c0,0 -0.60965,-0.91446 -1.06421,-2.30642c-15.09128,0.38056 -30.74193,-2.96079 -45.53305,-0.79275c-10.04453,1.47232 -18.3368,2.81373 -27.79278,3.29676c-1.61572,1.51058 -3.39509,2.91869 -4.85135,4.52911c0,0 -1.84826,1.8483 -4.52326,2.48022c-1.61696,2.95046 -2.84391,6.18372 -3.34895,9.95318c-1.51027,11.2721 0.11048,24.91669 0.11048,36.27846c0,20.53585 0,41.07171 0,61.60756c0,11.06034 -1.3045,22.19039 -0.0641,33.18094c0.52753,4.6743 2.75738,9.03386 3.42264,13.69057c1.98243,13.87672 3.88579,25.40378 14.83671,36.23695c3.85684,3.81535 8.72058,6.45603 13.08089,9.68406c7.95912,8.11954 15.06503,9.78291 23.86547,12.69034c-0.16281,-0.82256 -0.27627,-1.46174 -0.32823,-1.86993c-0.47133,-3.70405 -0.53356,-7.49897 -0.0511,-11.20159c0.34631,-2.65775 4.25588,-5.60985 2.50616,-7.64013c-1.67952,-1.94885 -5.19752,3.01867 -7.49195,1.85483c-12.49873,-6.33979 -12.26616,-11.87157 -12.09942,-21.57428c-2.09421,-1.55973 -3.45064,-4.05491 -3.45064,-6.86685v-10.26792c-2.89145,-14.97019 2.52413,-29.92735 7.28437,-43.77755c1.38586,-4.03225 1.93598,-8.48678 4.26146,-12.06057c2.63995,-4.05703 7.55871,-6.25683 10.26793,-10.26792c4.64469,-6.8766 4.83807,-30.03159 25.26402,-16.59279c6.82735,4.49191 6.10678,15.27857 7.57434,23.31825c0.59753,3.27345 -2.54148,6.70082 -1.51688,9.86666c0.48335,1.49337 3.14011,-0.05381 4.70894,-0.00391c4.05922,0.1291 8.55116,-1.29899 12.17177,0.54085c10.82383,5.50026 12.09973,10.37239 12.13905,17.88149zM361.71223,2.52785c-3.09366,-1.85616 -7.17426,-1.56648 -10.26792,-3.42265c-2.76704,-1.66022 -4.07825,-5.18506 -6.84528,-6.84528c-3.09366,-1.85616 -7.17426,-1.56648 -10.26792,-3.42264c-2.76704,-1.66022 -4.08088,-5.18065 -6.84528,-6.84529c-2.85393,-1.71858 -6.55546,-1.51222 -9.52881,-3.01476c-3.27273,-1.65382 -5.51525,-5.16552 -8.98813,-6.34236c-2.79048,-0.94561 -5.91536,0.70726 -8.83384,0.30304c-4.65951,-0.64534 -9.03632,-2.74044 -13.69056,-3.42264c-8.00898,-1.17393 -16.26669,1.0719 -24.28364,-0.04638c-3.5732,-0.49844 -6.71283,-2.80824 -10.26792,-3.42264c-9.91283,-1.71313 -22.90118,0.11049 -32.85579,0.11049c-21.54663,0 -46.55023,-3.53187 -67.08224,3.31215c-19.50495,0 -25.61115,11.2709 -43.58091,16.9132c-4.64486,1.45846 -9.7663,-0.34624 -14.604,0.20002c-5.52675,0.62405 -9.1898,6.28319 -13.98533,9.10047c-11.72402,6.88762 -26.77218,6.0132 -34.24227,19.95431c-2.71946,5.07523 0.65133,11.50347 0.65133,17.26138c0,9.10047 0.19872,18.22896 0.1201,27.33818c1.72881,0.01677 3.46672,0.02707 5.21498,0.03341c-1.16168,1.43388 -2.24809,2.92027 -3.19038,4.50803c-0.62792,1.05804 -1.00924,2.22909 -1.31289,3.43564c6.57606,-0.63541 12.77005,-1.67627 20.36986,-2.73606c17.71101,-2.46975 36.86798,3.08271 54.43715,0.04638c3.55507,-0.6144 6.70616,-2.84819 10.26793,-3.42265c0.8865,-0.143 20.26355,-0.11048 21.90645,-0.11048c16.93458,0 35.56573,-1.99892 52.38511,0.0641c12.11667,1.48622 20.87695,3.35854 33.18093,3.35854c17.15244,0 31.58586,1.49827 48.44802,3.39985c20.87541,2.3542 43.46817,0.02279 64.49917,0.02279c14.21594,0 27.99088,1.38555 41.55567,-1.88471c-0.23589,-0.75455 -0.52644,-1.4855 -0.91734,-2.17341c-5.42119,-9.54004 -18.37945,-14.42945 -28.02357,-17.75567c-5.56043,-5.56042 -11.62438,-9.5646 -18.0354,-12.74496c3.09085,-4.80478 5.01243,-10.43303 5.36266,-16.48283c0.79008,0.36215 1.57554,0.73433 2.35607,1.11766c-0.58675,-1.69352 -0.58674,-3.12703 -0.58674,-3.12703l5.85076,-11.54016c0.95372,-0.25807 1.86445,-0.57801 2.73784,-0.95269c-0.35294,-0.27569 -0.72091,-0.53215 -1.10784,-0.76431zM395.30316,5.51708c0,8.55661 -8.5566,8.55661 -8.5566,8.55661l-6.11739,-0.4383c-0.76711,0.75825 -1.55784,1.46417 -2.37935,2.10431c-2.15835,1.68188 -4.80724,2.48456 -7.50274,3.20359c-0.77249,2.20661 -2.54353,4.84078 -6.60371,5.32118c3.47863,2.3378 6.8189,5.03074 9.9885,8.20034c12.57434,4.03033 26.31564,11.65085 33.58399,23.31603c1.79233,2.87656 2.05974,6.46242 3.24439,9.64185c1.15904,0.06678 5.94657,0.60604 7.67527,4.96149c15.01,-2.54466 29.67526,-7.25661 44.43955,-11.47495c4.52299,-1.29229 9.10687,-2.36586 13.69057,-3.42264c2.18546,-0.50388 5.04525,0.34924 6.6098,-1.25769c1.64047,-1.6849 0.72717,-4.65726 1.35554,-6.92336c0.91669,-3.30582 2.42812,-6.43268 3.27019,-9.75829c3.18607,-12.58283 3.06285,-22.77457 3.136,-35.45286c0.03977,-6.89067 1.11133,-15.97295 -6.2098,-20.10247c-5.80514,-3.27441 -10.61347,-2.23899 -17.08285,-2.2088c-26.16805,-6.542 -47.31854,-5.35708 -68.82786,11.81524c-2.50476,1.99972 -4.71106,4.49406 -6.78936,7.16284c1.67118,1.22664 3.0759,3.28888 3.0759,6.75585zM126.77393,215.35823c-9.55557,-1.51178 -15.15152,6.63705 -24.19099,-6.30834c-2.28365,-3.2704 -2.01371,-13.88822 -1.4154,-21.78559c-0.27093,1.4829 -0.67539,2.91113 -1.4895,4.15129c-2.65631,4.04635 -7.53066,6.27589 -10.26793,10.26793c-4.31119,6.2875 -8.27399,23.58053 -9.05412,30.77342c-0.34579,3.1884 0.45579,6.53529 0.72937,9.77605c1.6954,1.56349 2.75738,3.80358 2.75738,6.29168v10.26792c-0.01393,0.2225 -3.32205,11.32771 1.56315,12.63058c4.24339,1.13169 10.47767,-1.7091 13.0439,1.85483c3.87593,5.38289 1.94806,13.13138 2.50616,19.74101c0.68409,8.10167 1.83912,15.79416 3.23641,23.58748c0.06119,0.03159 0.1226,0.06284 0.18414,0.09381c3.40929,1.7155 6.97935,3.04115 10.62011,4.19602c2.1641,-3.74715 4.69638,-7.08073 8.54367,-8.4771c6.96422,-2.52772 15.41746,0.65376 21.7745,4.45871c5.03632,3.01446 7.34386,9.26896 9.94853,14.52887c0.25136,0.50758 0.48738,1.15805 0.71102,1.89799c2.35878,-0.01359 4.74071,-0.21929 7.12427,-0.43331c3.5067,-10.98065 9.13126,-22.27278 24.5695,-17.11414c11.94519,3.99145 11.78984,10.08889 12.14001,16.62976c4.40976,-0.44936 8.72531,-1.31809 12.83768,-2.89891c1.82416,-0.70119 3.61167,-1.44544 5.36817,-2.22667c0.90611,-2.38613 3.00528,-5.15012 7.86845,-5.15012c0.7703,0 1.47126,0.06934 2.1091,0.19553c11.65536,-6.34876 22.32859,-13.94579 33.99977,-20.69709c-21.71245,-0.01801 -43.25336,-0.44248 -64.53549,-3.52104c-1.11181,-0.16083 -28.9895,-7.16849 -29.79728,-7.51263c-3.47261,-1.47947 -5.70294,-5.29342 -9.2859,-6.48097c-3.24884,-1.0768 -7.03455,1.12235 -10.26792,0c-17.61483,-6.11445 -31.86566,-23.58854 -44.64259,-36.36544l-3.42264,-3.42264c0,0 -6.05044,-6.05044 0,-12.10085c6.05045,-6.05044 12.10086,0 12.10086,0l3.42264,3.42264c9.61091,9.61091 18.30651,18.601 29.49969,26.31204c0.55272,0.38077 1.0824,0.80535 1.60213,1.24838c-0.77115,-1.28496 -1.21452,-2.78911 -1.21452,-4.39679v-16.03015l-0.46466,-1.71721c-1.15648,3.35662 -4.34258,5.76811 -8.09195,5.76811c-4.72567,0 -8.5566,-3.83093 -8.5566,-8.5566v-10.26792c0.26477,-4.23405 2.62705,-11.96765 -1.56316,-12.63057zM238.49712,262.64864c-1.45456,-1.32826 -3.80591,1.12146 -5.76944,1.27791c-1.09491,0.08724 -21.64116,-0.0664 -21.90649,-0.11048c-1.39928,-0.2325 -22.72939,-7.46383 -23.6637,-8.01271c-4.45203,-2.61548 -7.48991,-8.35973 -12.61473,-8.99001c-8.282,-1.01858 -1.49874,4.87596 -6.41187,9.63244c-0.47366,0.45857 -0.96584,0.89286 -1.47372,1.30649l0.24547,0.24548l-6.84529,6.84528c-1.54844,1.54844 -3.68759,2.50616 -6.05044,2.50616c-0.95978,0 -1.88262,-0.15802 -2.74397,-0.44947c0.56847,0.33494 1.16452,0.61542 1.80089,0.81661c3.26345,1.03166 7.02262,-1.08734 10.26793,0c4.22323,1.41499 7.15999,5.44608 11.24995,7.20959c11.37001,4.90259 23.86612,4.28002 35.55807,6.22432c3.5589,0.59181 6.71283,2.80824 10.26793,3.42264c8.34714,1.44257 17.34291,1.65324 26.4714,1.41263c-7.48412,-4.96642 -2.38448,-17.86014 -8.38201,-23.33691zM336.98638,262.11429c-2.92178,-2.25607 -8.94381,2.33592 -11.05253,-0.69394c-3.59015,-5.15843 -1.3286,-12.51016 -2.44206,-18.69553c-0.44296,-2.46057 -1.43528,-4.8311 -2.18795,-7.23126c-2.36915,3.68561 -5.21505,7.09463 -8.44989,10.01209c-6.30352,5.68504 -12.32511,14.25951 -20.80275,14.68775c-2.02515,0.10231 -2.59778,-1.64732 -2.6816,-4.02017c-4.35062,7.10527 -8.05252,14.30466 -11.84385,21.51976l1.15217,0.28805l-1.65095,6.60371c2.3825,-0.07639 4.7327,-0.12239 7.04038,-0.12239c0,0 4.04816,0 6.57561,2.78442c12.10989,-5.50953 24.36548,-10.7678 36.19495,-16.85754c3.74142,-2.23153 7.45209,-4.27855 11.11329,-6.2772c-0.05428,-0.80138 -0.31663,-1.49737 -0.96477,-1.99783zM262.29245,341.31717c0.04032,0.07013 0.08139,0.1507 0.12328,0.23849l3.89072,-7.26267c1.4155,-2.77289 4.29895,-4.67156 7.62582,-4.67156c4.20601,0 7.70324,3.03468 8.42151,7.03394l0.66101,3.30515c2.08843,-5.5543 3.82902,-10.1825 3.83275,-10.18883c0.01526,-0.02584 0.03053,-0.05168 0.04579,-0.07752l-0.01322,-0.00527l6.28168,-15.70414c1.21339,-3.24973 4.34577,-5.56381 8.01864,-5.56381c2.2179,0 4.2387,0.84385 5.7589,2.22797c0.01814,-0.0383 0.03662,-0.0765 0.05541,-0.11463c0.21333,-0.43269 0.43399,-0.86096 0.66136,-1.2852l-0.24009,-0.09604l5.24356,-13.10889c-12.87943,5.81203 -25.84016,11.44501 -38.19008,18.17971c-6.85127,3.73616 -13.04927,8.5501 -19.45241,13.03082c4.13698,3.01535 4.66339,9.51901 7.27537,14.06247zM181.95329,331.88814c-0.28292,-0.3949 -0.74308,0.12324 -1.10263,0.71755c0.54023,0.01835 1.08131,0.03659 1.62309,0.05421c-0.16624,-0.26186 -0.33953,-0.51925 -0.52045,-0.7718zM258.37004,285.24882c-0.11466,0.09272 -0.2297,0.18372 -0.34511,0.27285c0.11559,-0.00606 0.23113,-0.01211 0.34668,-0.01817z" fill="#000000" stroke-width="0.5"/><path d="M337.22884,462.78051c1.14087,-3.42264 2.70193,-6.73285 3.42264,-10.26792c0.93102,-4.56662 -1.60621,-10.43009 1.50466,-13.90044c11.97082,-13.35412 17.17872,-5.59424 28.84794,-3.443c2.46731,0.45484 5.0178,-0.00417 7.5267,0c1.3311,0.00219 3.2204,0.99099 4.24418,0.45788l-0.90677,-3.62704l0.13122,-0.03279c-0.47291,-0.72985 -0.79169,-1.4358 -0.38669,-2.0425v-13.69057c0,-4.16943 2.98212,-7.64231 6.92979,-8.40214c-0.26231,-2.27362 -0.72933,-4.56208 0.02598,-6.65903c2.24439,-6.23106 3.40867,-15.92555 9.90286,-17.22502c7.26898,-1.45452 11.40335,0.02532 13.76135,2.91513c0.00031,-0.83457 0.065,-1.66238 0.2479,-2.4782c1.49477,-6.66713 1.10562,-15.39542 6.64931,-19.38943c18.28444,-13.17323 24.54386,4.38215 27.40252,15.64168c0.14286,0.56268 0.11059,20.54923 0.11049,21.90645c-0.00017,2.34999 0.04158,4.56659 0.07913,6.69393c6.61364,-3.65979 14.64573,-2.65231 22.26422,5.41613c3.51423,3.72178 1.33011,10.16025 1.61514,15.27104c0.49517,8.87937 0.50499,17.84943 0.38624,26.82502c-5.83949,0.13351 -11.67341,0.31628 -17.49959,0.55967c0,-4.55654 0,-9.11307 0,-13.66962c-0.01319,4.71443 -3.83905,8.53213 -8.55657,8.53213c-3.67284,0 -6.80521,-2.31408 -8.01864,-5.56381l-6.28164,-15.70418l0.22535,-0.09015c-0.22295,-0.42595 -0.43872,-0.85618 -0.64661,-1.29109c-3.47634,-7.2724 -1.69071,-21.39056 -0.94992,-31.57158c-0.8253,4.21022 -2.68356,8.22115 -3.21718,12.48327c-0.58041,4.63573 -0.03091,9.34378 -0.04638,14.01569l-0.81914,1.17171l0.49054,0.1635l-3.36025,10.08074c-1.07529,3.49644 -4.3308,6.03795 -8.17991,6.03795c-4.07209,0 -7.47984,-2.84452 -8.34454,-6.65495l-2.62681,-10.50724c-0.59866,2.84757 -1.0439,5.70708 -1.0079,8.60558v10.26792c0,4.72568 -3.83093,8.5566 -8.5566,8.5566c-1.90381,0 -3.66243,-0.62179 -5.08386,-1.67333c-6.70115,2.16283 -15.0408,2.34975 -20.24527,1.56285c-3.12905,-0.47311 -5.85121,-2.45421 -8.89729,-3.31216c-1.06811,-0.30085 -3.02719,-1.1994 -3.32646,-0.13085c-0.61169,2.18392 1.76033,4.38191 1.50466,6.63541c-0.31271,2.75583 -1.49313,5.32002 -2.54066,7.91356c-5.89064,0.25742 -11.8252,0.35914 -17.77969,0.36652zM455.10322,424.65991c0.0447,-0.94212 -2.23916,0.7512 -2.26644,1.69397c-0.06781,2.34026 0.4342,4.66233 0.65133,6.99345v10.21188c0.0077,-6.3223 1.31529,-12.58372 1.61511,-18.8993zM429.65602,381.66304c0.0177,-1.98205 0.03583,-4.39532 0.0054,-3.17892c-0.02645,1.058 -0.02362,2.118 -0.0054,3.17892z" fill="#000000" stroke-width="0.5"/><path d="M361.8824,2.50991c0.38693,0.23216 0.755,0.48964 1.10794,0.76533c-0.87339,0.37468 -1.78405,0.69545 -2.73777,0.95351l-5.85001,11.55402c0,0 0,1.43747 0.58674,3.13099c-0.78053,-0.38334 -1.566,-0.75691 -2.35608,-1.11906c-0.35024,6.04979 -2.27325,11.69995 -5.3641,16.50473c6.41102,3.18035 12.47303,7.19624 18.03346,12.75667c9.64412,3.32622 22.59978,8.22659 28.02097,17.76663c0.3909,0.68792 0.68097,1.42054 0.91686,2.17509c-13.56479,3.27027 -27.34469,1.89964 -41.56063,1.89964c-21.031,0 -43.64629,2.37223 -64.5217,0.01803c-16.86216,-1.90158 -31.36594,-3.34461 -48.51838,-3.34461c-12.30398,0 -21.17869,-1.86551 -33.29536,-3.35172c-16.81938,-2.06303 -35.54438,-0.13219 -52.47896,-0.13219c-1.6429,0 -21.03086,-0.05096 -21.91736,0.09204c-3.56177,0.57446 -6.71402,2.80595 -10.26909,3.42035c-17.56918,3.03633 -36.7358,-2.54022 -54.44681,-0.07047c-7.59981,1.05979 -13.79478,2.09742 -20.37085,2.73284c0.30366,-1.20655 0.68418,-2.38031 1.31211,-3.43835c0.94229,-1.58777 2.02781,-3.0775 3.18949,-4.51139c-1.74825,-0.00633 -3.48647,-0.01787 -5.21528,-0.03463c0.07862,-9.10923 -0.12441,-18.2636 -0.12441,-27.36406c0,-5.75791 -3.37144,-12.20316 -0.65198,-17.27839c7.47009,-13.9411 22.5203,-13.0913 34.24432,-19.97892c4.79553,-2.81728 8.46149,-8.49089 13.98823,-9.11494c4.8377,-0.54626 9.96054,1.25313 14.60541,-0.20532c17.96976,-5.64229 24.10146,-16.96635 43.60641,-16.96635c20.53202,-6.84402 45.67406,-3.38383 67.22069,-3.38383c9.95461,0 23.03531,-1.79706 32.94813,-0.08392c3.5551,0.6144 6.71707,2.94108 10.29027,3.43952c8.01696,1.11828 16.29996,-1.09938 24.30894,0.07455c4.65425,0.6822 9.0417,2.79418 13.70121,3.43952c2.91848,0.40422 6.04654,-1.24259 8.83702,-0.29698c3.47289,1.17684 5.72177,4.70289 8.9945,6.3567c2.97335,1.50254 6.67805,1.30505 9.53199,3.02363c2.7644,1.66463 4.08171,5.19704 6.84874,6.85726c3.09366,1.85616 7.17598,1.57408 10.26964,3.43025c2.76704,1.66022 4.08,5.19526 6.84703,6.85548c3.09366,1.85616 7.17495,1.5722 10.26861,3.42836z" data-paper-data="{&quot;noHover&quot;:false,&quot;origItem&quot;:[&quot;Path&quot;,{&quot;applyMatrix&quot;:true,&quot;segments&quot;:[[[290.18568,50.12663],[0,0],[-0.90388,-0.54232]],[[287.18568,49.12663],[0.90388,0.54232],[-0.80845,-0.48507]],[[285.18568,47.12663],[0.80845,0.48507],[-0.90388,-0.54232]],[[282.18568,46.12663],[0.90388,0.54232],[-0.80845,-0.48507]],[[280.18568,44.12663],[0.80768,0.48636],[-0.83384,-0.50212]],[[277.40163,43.2458],[0.86873,0.439],[-0.9562,-0.4832]],[[274.77555,41.39274],[1.01468,0.34384],[-0.8153,-0.27628]],[[272.19455,41.48127],[0.8527,0.1181],[-1.36138,-0.18855]],[[268.19455,40.48127],[1.35984,0.19932],[-2.34,-0.34299]],[[261.09954,40.46773],[2.34233,0.32673],[-1.04399,-0.14563]],[[258.09954,39.46773],[1.0387,0.17951],[-2.89625,-0.50053]],[[248.50001,39.50001],[2.90846,0],[-6.29532,0]],[[228.90046,40.46773],[5.99888,-1.99963],[-5.6988,0]],[[216.16734,45.40929],[5.25026,-1.64852],[-1.3571,0.42612]],[[211.90046,45.46773],[1.41344,-0.1596],[-1.61476,0.18233]],[[207.81434,48.12663],[1.40112,-0.82313],[-3.42543,2.01237]],[[197.80971,53.95672],[2.18255,-4.0732],[-0.79455,1.48284]],[[198.00001,59.00001],[0,-1.6823],[0,2.6589]],[[198.0351,66.98746],[0.02297,-2.66146],[0.50511,0.0049]],[[199.55877,66.99722],[-0.51079,-0.00185],[-0.33941,0.41894]],[[198.62663,68.31434],[0.27531,-0.4639],[-0.18346,0.30913]],[[198.24304,69.31814],[0.08872,-0.35252],[1.92134,-0.18565]],[[204.19454,68.51874],[-2.22045,0.30964],[5.17466,-0.72159]],[[220.09955,68.53229],[-5.13322,0.88713],[1.03869,-0.17951]],[[223.09955,67.53229],[-1.04065,0.16784],[0.25901,-0.04178]],[[229.5,67.50001],[-0.48001,0],[4.94781,0]],[[244.80546,67.51874],[-4.91415,-0.60276],[3.54015,0.43423]],[[254.5,68.50001],[-3.59488,0],[5.01146,0]],[[268.65515,69.49335],[-4.92665,-0.55559],[6.09921,0.68783]],[[287.5,69.50001],[-6.14467,0],[4.1535,0]],[[299.6414,68.94934],[-3.96325,0.95548],[-0.06892,-0.22046]],[[299.37338,68.31434],[0.11421,0.20099],[-1.58392,-2.78733]],[[291.18568,63.12663],[2.81774,0.97183],[-1.6246,-1.6246]],[[285.91623,59.40291],[1.87312,0.92921],[0.90306,-1.40382]],[[287.48305,54.58709],[-0.10233,1.76758],[0.23084,0.10581]],[[288.17143,54.91364],[-0.22805,-0.112],[-0.17143,-0.4948]],[288.00001,54.00001],[[289.70944,50.6283],[0,0],[0.27865,-0.0754]],[[290.50936,50.34995],[-0.25518,0.10947],[-0.10312,-0.08055]],[[290.18568,50.12664],[0.11305,0.06783],[0,0]]],&quot;closed&quot;:true,&quot;fillColor&quot;:[0,0,0],&quot;strokeWidth&quot;:0.5}]}" fill="#904300" stroke-width="0.25"/><path d="M395.15308,5.43483c0,-3.46696 -1.39544,-5.54427 -3.06662,-6.77091c2.0783,-2.66877 4.31054,-5.19272 6.8153,-7.19244c21.50932,-17.17232 42.89084,-18.35608 69.05889,-11.81408c6.46938,-0.03019 11.3004,-1.03997 17.10555,2.23444c7.32114,4.12952 6.27308,13.25774 6.23332,20.14841c-0.07314,12.67829 0.05425,22.9636 -3.13182,35.54643c-0.84208,3.32561 -2.36235,6.47948 -3.27903,9.7853c-0.62837,2.26609 0.27678,5.25516 -1.36369,6.94006c-1.56456,1.60693 -4.43084,0.76455 -6.6163,1.26843c-4.58371,1.05677 -9.19007,2.15787 -13.71305,3.45016c-14.76428,4.21834 -29.58235,8.97691 -44.59234,11.52157c-1.72871,-4.35545 -6.54703,-4.90369 -7.70607,-4.97046c-1.18464,-3.17943 -1.47848,-6.77851 -3.27081,-9.65507c-7.26835,-11.66518 -21.08882,-19.40252 -33.66316,-23.43284c-3.1696,-3.16961 -6.51233,-5.88883 -9.99097,-8.22663c4.06018,-0.4804 5.8317,-3.13022 6.60419,-5.33683c2.6955,-0.71903 5.34583,-1.53451 7.50418,-3.21639c0.82151,-0.64014 1.61374,-1.35461 2.38085,-2.11286l6.11807,0.43512c0,0 8.57348,-0.04477 8.57348,-8.60138z" data-paper-data="{&quot;noHover&quot;:false,&quot;origItem&quot;:[&quot;Path&quot;,{&quot;applyMatrix&quot;:true,&quot;segments&quot;:[[[300.00001,51],[0,0],[0,2.5]],[297.50001,53.5],[[295.71268,53.37194],[0,0],[-0.22413,0.22154]],[[295.0175,53.98676],[0.24002,-0.18703],[-0.63061,0.4914]],[[292.82541,54.92276],[0.78755,-0.21008],[-0.2257,0.64471]],[[290.89599,56.47746],[1.18627,-0.14036],[1.01636,0.68304]],[[293.81435,58.87337],[-0.92607,-0.92607],[3.67387,1.17755]],[[303.62665,65.68566],[-2.12361,-3.40824],[0.52367,0.84045]],[[304.57457,68.50274],[-0.34612,-0.92894],[0.33864,0.01951]],[[306.81707,69.95234],[-0.50508,-1.27254],[4.3855,-0.74348]],[[319.80106,66.59968],[-4.31371,1.23248],[1.32149,-0.37757]],[[323.80106,65.59968],[-1.33923,0.30876],[0.63853,-0.14722]],[[325.73226,65.23223],[-0.45712,0.4695],[0.4793,-0.49228]],[[326.12831,63.20942],[-0.18359,0.66209],[0.26783,-0.96587]],[[327.08377,60.35832],[-0.24603,0.97165],[0.93088,-3.67635]],[[328.00002,49.99999],[-0.02137,3.70424],[0.01162,-2.01326]],[[326.18568,44.12661],[2.13903,1.20653],[-1.6961,-0.95669]],[[321.19455,43.48126],[1.89017,-0.00882],[-7.64557,-1.91139]],[[301.08499,46.93334],[6.28442,-5.01727],[-0.73182,0.58426]],[[299.10132,49.02612],[0.60722,-0.77974],[0.48827,0.35839]],[[300.00002,50.99999],[0,-1.01295],[0,0]]],&quot;closed&quot;:true,&quot;fillColor&quot;:[0,0,0],&quot;strokeWidth&quot;:0.5}]}" fill="#904300" stroke-width="0.25"/><path d="M262.17413,341.44077c-2.61199,-4.54345 -3.18429,-11.12259 -7.32127,-14.13795c6.40314,-4.48072 12.61158,-9.41795 19.46285,-13.1541c12.34992,-6.7347 25.59873,-12.39862 38.47816,-18.21065l-5.21949,13.15013l0.24054,0.09714c-0.22737,0.42424 -0.44569,0.85867 -0.65903,1.29136c-0.01879,0.03813 -0.35982,0.19081 -0.37796,0.22911c-1.5202,-1.38412 -3.52645,-2.19703 -5.74436,-2.19703c-3.67287,0 -6.50634,2.14767 -7.71973,5.3974l-6.38768,15.94749l0.01339,0.00524c-0.01526,0.02584 -0.03149,0.05196 -0.04676,0.0778c-0.00373,0.00633 -1.79623,4.64048 -3.88466,10.19478l-0.66854,-3.30559c-0.71828,-3.99926 -4.31688,-7.07826 -8.52289,-7.07826c-3.32687,0 -5.96652,1.65912 -7.38202,4.43201l-3.90164,7.25138c-0.0419,-0.08779 -0.31858,0.07988 -0.3589,0.00975z" data-paper-data="{&quot;noHover&quot;:false,&quot;origItem&quot;:[&quot;Path&quot;,{&quot;applyMatrix&quot;:true,&quot;segments&quot;:[[[261.13801,149.11137],[0,0],[0.01178,0.02049]],[[261.17402,149.18105],[-0.01224,-0.02565],[0,0]],[[262.31079,147.0591],[0,0],[0.41357,-0.81016]],[[264.53884,145.6942],[-0.97202,0],[1.22888,0]],[[266.99937,147.74932],[-0.20986,-1.16847],[0,0]],[[267.1925,148.71499],[0,0],[0.61018,-1.62281]],[[268.31232,145.73809],[-0.00109,0.00185],[0.00446,-0.00755]],[[268.3257,145.71544],[-0.00446,0.00755],[0,0]],[268.32184,145.71391],[[270.15717,141.1256],[0,0],[0.35452,-0.94948]],[[272.49998,139.5],[-1.07311,0],[0.64801,0]],[[274.18258,140.15096],[-0.44416,-0.4044],[0.0053,-0.01119]],[[274.19876,140.11747],[-0.00549,0.01114],[0.06233,-0.12642]],[[274.392,139.74197],[-0.06643,0.12395],[0,0]],[274.32185,139.71391],[[275.85387,135.88386],[0,0],[-3.76301,1.69811]],[[264.69579,141.19546],[3.6083,-1.96769],[-2.00175,1.0916]],[[259.01235,145.00269],[1.87082,-1.30914],[1.20871,0.881]],[[261.13801,149.11136],[-0.76315,-1.32747],[0,0]]],&quot;closed&quot;:true,&quot;fillColor&quot;:[0,0,0],&quot;strokeWidth&quot;:0.5}]}" fill="#904300" stroke-width="0.25"/><path d="M337.15747,262.11854c0.64814,0.50046 0.90984,1.20747 0.96413,2.00885c-3.6612,1.99865 -7.38719,4.10262 -11.12862,6.33415c-11.82947,6.08974 -24.33355,11.41913 -36.44344,16.92866c-2.52745,-2.78442 -6.60412,-2.80769 -6.60412,-2.80769c-2.30768,0 -4.67211,0.02957 -7.05461,0.10596l1.6388,-6.62195l-1.15418,-0.29165c3.79133,-7.2151 7.47902,-14.54352 11.82964,-21.6488c0.08382,2.37285 0.65033,4.15663 2.67548,4.05433c8.47764,-0.42824 14.72469,-9.1518 21.0282,-14.83684c3.23484,-2.91746 6.1065,-6.31532 8.47565,-10.00092c0.75268,2.40016 1.77587,4.7918 2.21884,7.25237c1.11345,6.18536 -1.0884,13.66743 2.50175,18.82587c2.10872,3.02986 7.78856,-1.56692 10.71033,0.68915z" data-paper-data="{&quot;noHover&quot;:false,&quot;origItem&quot;:[&quot;Path&quot;,{&quot;applyMatrix&quot;:true,&quot;segments&quot;:[[[282.96148,125.97051],[0,0],[-0.85366,-0.65916]],[[279.73224,125.76776],[0.61611,0.88524],[-1.04894,-1.50715]],[[279.01874,120.30545],[0.32532,1.80719],[-0.12942,-0.71891]],[[278.37948,118.19268],[0.21991,0.70126],[-0.6922,1.07683]],[[275.91066,121.11793],[0.94513,-0.8524],[-1.84171,1.66101]],[[269.83268,125.40928],[2.47693,-0.12512],[-0.59169,0.02989]],[[269.04919,124.2347],[0.02449,0.69328],[-1.27113,2.07596]],[[265.58875,130.52217],[1.10772,-2.10805],[0,0]],[265.92537,130.60633],[[265.44302,132.53575],[0,0],[0.6961,-0.02232]],[[267.50002,132.49999],[-0.67424,0],[0,0]],[[269.42123,133.31352],[-0.73845,-0.81353],[3.53817,-1.60973]],[[279.99638,128.38822],[-3.45624,1.77925],[1.09314,-0.65199]],[[283.24337,126.5542],[-1.0697,0.58395],[-0.01586,-0.23414]],[[282.96149,125.97049],[0.18937,0.14622],[0,0]]],&quot;closed&quot;:true,&quot;fillColor&quot;:[0,0,0],&quot;strokeWidth&quot;:0.5}]}" fill="#904300" stroke-width="0.25"/><path d="M238.66743,262.63245c5.99753,5.47677 0.88588,18.45153 8.37,23.41796c-9.12849,0.24061 -18.15235,0.07605 -26.49949,-1.36652c-3.5551,-0.6144 -6.73662,-2.80493 -10.29552,-3.39674c-11.69195,-1.9443 -24.45228,-1.40229 -35.82229,-6.30488c-4.08996,-1.76352 -7.03613,-5.84457 -11.25936,-7.25956c-3.24532,-1.08734 -7.00451,1.03022 -10.26796,-0.00144c-0.63637,-0.20119 -1.23249,-0.48478 -1.80096,-0.81973c0.86134,0.29144 1.78422,0.45128 2.744,0.45128c2.36285,0 4.50211,-0.96813 6.05055,-2.51657l6.85069,-6.8817l-0.24523,-0.24633c0.50788,-0.41363 1.00249,-0.8562 1.47615,-1.31477c4.91314,-4.75648 -1.84097,-10.70541 6.44103,-9.68683c5.12482,0.63028 8.16852,6.36762 12.62055,8.9831c0.93431,0.54889 22.55955,7.85733 23.95883,8.08983c0.26532,0.04408 20.47373,0.24674 21.56864,0.15949c1.96354,-0.15645 4.65592,-2.63479 6.11048,-1.30653z" data-paper-data="{&quot;noHover&quot;:false,&quot;origItem&quot;:[&quot;Path&quot;,{&quot;applyMatrix&quot;:true,&quot;segments&quot;:[[[254.18568,126.12663],[0,0],[-0.42498,-0.38808]],[[252.50001,126.5],[0.57369,-0.04571],[-0.3199,0.02549]],[[246.09955,126.46772],[0.07752,0.01288],[-0.40883,-0.06793]],[[239.18568,124.12663],[0.27298,0.16037],[-1.30076,-0.76417]],[[235.50001,121.5],[1.49733,0.18415],[-2.41977,-0.2976]],[[233.62664,124.31433],[1.43548,-1.38971],[-0.13839,0.13398]],[[233.19606,124.69605],[0.14839,-0.12085],[0,0]],[233.26778,124.76777],[[231.26778,126.76777],[0,0],[-0.45241,0.45241]],[[229.50001,127.5],[0.69036,0],[-0.28042,0]],[[228.6983,127.36868],[0.25166,0.08515],[0.16609,0.09786]],[[229.22447,127.60727],[-0.18593,-0.05878],[0.95349,0.30142]],[[232.22447,127.60727],[-0.94819,-0.31769],[1.23391,0.41342]],[[235.51139,129.71371],[-1.19497,-0.51525],[3.322,1.4324]],[[245.90046,131.53228],[-3.41606,-0.56807],[1.03981,0.17291]],[[248.90046,132.53228],[-1.0387,-0.17951],[2.4388,0.42148]],[[256.63466,132.94501],[-2.66709,0.0703],[-2.18665,-1.45105]],[[254.18567,126.12662],[1.75231,1.60016],[0,0]]],&quot;closed&quot;:true,&quot;fillColor&quot;:[0,0,0],&quot;strokeWidth&quot;:0.5}]}" fill="#904300" stroke-width="0.25"/><path d="M126.8941,215.47998c4.1902,0.66293 1.84429,8.37784 1.57951,12.61189l0.01558,10.24315c0,4.72568 3.51953,8.41563 8.24521,8.41563c3.74937,0 6.9569,-2.45027 8.11338,-5.80689l0.74384,1.91507l0.02946,15.94362c0,1.60769 0.44248,3.08175 1.21364,4.36671c-0.51973,-0.44302 -1.39014,-0.83656 -1.94286,-1.21733c-11.19317,-7.71104 -19.87439,-16.78139 -29.48531,-26.3923l-3.42073,-3.42678c0,0 -5.73673,-5.91402 -11.78717,0.13643c-6.05044,6.05041 0.00781,12.07553 0.00781,12.07553l3.42394,3.41634c12.77693,12.7769 26.97847,30.09677 44.5933,36.21121c3.23337,1.12236 6.98095,-1.10462 10.22979,-0.02783c3.58296,1.18755 5.75196,4.98234 9.22457,6.46181c0.80778,0.34415 28.56818,7.38138 29.67999,7.5422c21.28213,3.07857 43.07662,3.71432 64.78908,3.73232c-11.67118,6.7513 -22.38456,14.40364 -34.03992,20.7524c-0.63784,-0.12619 -1.34099,-0.19355 -2.11129,-0.19355c-4.86317,0 -6.97767,2.77607 -7.88378,5.1622c-1.7565,0.78122 -3.5541,1.53201 -5.37827,2.2332c-4.11238,1.58081 -8.4527,2.4618 -12.86246,2.91116c-0.35017,-6.54088 -0.20916,-12.63332 -12.15435,-16.62477c-15.43823,-5.15864 -21.1305,6.13958 -24.6372,17.12023c-2.38356,0.21402 -4.78143,0.41718 -7.14021,0.43077c-0.22364,-0.73994 -0.46216,-1.39095 -0.71352,-1.89854c-2.60467,-5.25991 -4.94595,-11.52575 -9.98227,-14.54021c-6.35704,-3.80495 -14.85465,-7.01573 -21.81887,-4.48801c-3.84729,1.39637 -6.38049,4.72913 -8.54459,8.47628c-3.64077,-1.15487 -7.22523,-2.49562 -10.63452,-4.21112c-0.06154,-0.03098 -0.12319,-0.0625 -0.18438,-0.09409c-1.39729,-7.79332 -2.57646,-15.52364 -3.26054,-23.6253c-0.5581,-6.60964 1.35639,-14.40035 -2.51955,-19.78324c-2.56623,-3.56393 -8.80173,-0.73122 -13.04512,-1.86291c-4.8852,-1.30286 -1.57849,-12.43306 -1.56456,-12.65556l0.00151,-10.28785c0,-2.48809 -1.06016,-4.73896 -2.75557,-6.30245c-0.27357,-3.24077 -1.07098,-6.6042 -0.72519,-9.79259c0.78012,-7.19289 4.76747,-24.53548 9.07866,-30.82298c2.73726,-3.99203 7.62746,-6.24061 10.28377,-10.28696c0.81411,-1.24016 1.46017,-2.42607 1.7311,-3.90896c-0.59831,7.89737 -0.84956,18.49408 1.43409,21.76448c9.03947,12.94539 14.37811,4.57234 23.93368,6.08412z" data-paper-data="{&quot;noHover&quot;:false,&quot;origItem&quot;:[&quot;Path&quot;,{&quot;applyMatrix&quot;:true,&quot;segments&quot;:[[[221.5433,112.3097],[0,0],[-2.79187,-0.4417]],[[214.47537,110.46658],[2.64108,3.78228],[-0.66722,-0.95552]],[[214.06183,104.10144],[-0.17481,2.30739],[-0.07916,0.43326]],[[213.62664,105.31433],[0.23786,-0.36234],[-0.7761,1.18223]],[[210.62664,108.31433],[0.79975,-1.16636],[-1.25961,1.83703]],[[207.98128,117.30546],[0.22793,-2.10156],[-0.10103,0.93156]],[[208.19438,120.16175],[-0.07993,-0.94686],[0.49535,0.45681]],[[209.00001,122],[0,-0.72695],[0,0]],[[209.00001,125],[0,0],[-0.00407,0.06501]],[[209.45672,128.6903],[-1.42732,-0.38066],[1.2398,0.33065]],[[213.26778,129.23223],[-0.74978,-1.04128],[1.13244,1.57273]],[[214.00001,135],[-0.16306,-1.93115],[0.19987,2.36708]],[[214.9456,141.8916],[-0.40825,-2.27699],[0.01788,0.00923]],[[214.9994,141.91901],[-0.01798,-0.00905],[0.9961,0.50122]],[[218.1023,143.14497],[-1.06373,-0.33742],[0.63229,-1.09481]],[[220.59852,140.6682],[-1.12407,0.40798],[2.03475,-0.73853]],[[226.96042,141.9709],[-1.85735,-1.1117],[1.47147,0.88074]],[[229.8671,146.21584],[-0.76101,-1.5368],[0.07344,0.1483]],[[230.07484,146.77038],[-0.06534,-0.21619],[0.68917,-0.00397]],[[232.15635,146.64378],[-0.69641,0.06253],[1.02456,-3.20824]],[[239.33487,141.64351],[-4.51062,-1.50721],[3.49005,1.16619]],[[242.88184,146.50226],[-0.10231,-1.91106],[1.28841,-0.13129]],[[246.63265,145.65527],[-1.20152,0.46187],[0.53297,-0.20487]],[[248.20108,145.00471],[-0.5132,0.22825],[0.26474,-0.69716]],[[250.50002,143.49999],[-1.42088,0],[0.22506,0]],[[251.11624,143.55712],[-0.18636,-0.03687],[3.40537,-1.85493]],[[261.05001,137.51001],[-3.40999,1.97254],[-6.34377,-0.00526]],[[242.19456,136.48126],[6.21804,0.89947],[-0.32484,-0.04699]],[[233.48863,134.28627],[0.23601,0.10055],[-1.0146,-0.43226]],[[230.77555,132.39272],[1.04684,0.34697],[-0.94922,-0.31461]],[[227.77555,132.39272],[0.9447,0.32792],[-5.14656,-1.78647]],[[214.73224,121.76776],[3.73306,3.73305],[0,0]],[213.73224,120.76776],[[213.73224,117.23223],[-1.76777,1.76776],[1.76777,-1.76777]],[217.26777,117.23223],[[218.26777,118.23223],[0,0],[2.80804,2.80804]],[[226.88675,125.91987],[-3.27033,-2.25295],[0.16149,0.11125]],[[227.35485,126.28461],[-0.15185,-0.12944],[-0.22531,-0.37543]],[[227,124.99999],[0,0.46972],[0,0]],[227,120.31643],[[226.86424,119.81471],[0,0],[-0.33789,0.98071]],[[224.5,121.49999],[1.09546,0],[-1.38071,0]],[[222,118.99999],[0,1.38071],[0,0]],[[222,115.99999],[0,0],[0.07736,-1.23707]],[[221.54329,112.30969],[1.22426,0.19369],[0,0]]],&quot;closed&quot;:true,&quot;fillColor&quot;:[0,0,0],&quot;strokeWidth&quot;:0.5}]}" fill="#904300" stroke-width="0.25"/><path d="M385.01877,430.78727c0.25567,-2.2535 -2.11739,-4.47466 -1.50569,-6.65858c0.29928,-1.06855 2.60056,-0.16241 3.66866,0.13844c3.04609,0.85796 5.76797,2.82495 8.89702,3.29806c5.20447,0.7869 13.54429,0.60321 20.24544,-1.55963c1.42142,1.05154 2.84103,1.713 4.74484,1.713c4.72568,0 8.63259,-4.00767 8.63259,-8.73335l0.0523,-10.2901c-0.036,-2.8985 0.42923,-5.76154 1.02788,-8.60911l2.64324,10.50611c0.86469,3.81043 4.39837,6.70659 8.47046,6.70659c3.84911,0 6.85207,-2.31079 7.92736,-5.80723l3.38198,-10.05952l-0.48845,-0.16182l0.81948,-1.17143c0.01547,-4.6719 -0.50566,-9.36185 0.07475,-13.99758c0.53362,-4.26211 2.53929,-8.58183 3.3646,-12.79206c-0.74079,10.18102 -2.46519,24.34542 1.01115,31.61782c0.20789,0.43491 0.42848,0.87116 0.65143,1.29711l-0.22555,0.08988l6.31615,15.79098c1.21343,3.24973 4.00476,5.57063 7.6776,5.57063c4.72568,0 8.5577,-3.79835 8.5577,-8.52403l0.00801,-10.23394c-0.21713,-2.33112 -0.71044,-4.63258 -0.64264,-6.97285c0.02728,-0.94277 2.61651,-2.79065 2.57181,-1.84854c-0.30072,6.33425 -1.59776,12.67001 -1.59776,19.01138c0,4.55915 -0.00354,9.132 -0.00826,13.70941c-13.31723,0.55373 -26.59415,1.42346 -39.80484,2.74453c-17.14531,0 -34.25962,1.53173 -51.36486,2.70343c-2.53248,0.17348 -5.07509,0.31288 -7.6259,0.42319c1.04185,-2.58864 2.20836,-5.15876 2.51951,-7.90079z" data-paper-data="{&quot;noHover&quot;:false,&quot;origItem&quot;:[&quot;Path&quot;,{&quot;applyMatrix&quot;:true,&quot;segments&quot;:[[[291.90047,193.53228],[0,0],[0.98726,0.15909]],[[294.90047,193.53228],[-0.98561,-0.16905],[2.07785,0.35638]],[[300.90047,195.53228],[-2.07927,-0.34793],[5.43976,0.91025]],[[318.34055,195.50026],[-5.54893,0.01765],[0.00278,-0.01765]],[[318.3489,195.44731],[-0.00279,0.01765],[0,0]],[317.73224,195.23224],[[318.46576,194.72406],[-0.45145,0.22611],[0.07309,-0.44257]],[[318.69354,193.39786],[-0.07878,0.44156],[-1.69354,-0.46954]],[[317.00001,191.00001],[0,0],[0,-4]],[[317.00001,179.00001],[0,4],[0,-1.85277]],[[317.47191,173.46178],[-0.08786,1.85069],[0.01306,-0.27526]],[[316.80972,173.95671],[0.00797,-0.27545],[-0.01981,0.68376]],[[317.00002,176],[-0.06344,-0.68109],[0,0]],[[317.00002,179],[0,0],[0,1.38071]],[[314.50002,181.5],[1.38071,0],[-1.0731,0]],[[312.1572,179.87441],[0.35453,0.94948],[0,0]],[310.32187,175.28609],[[310.38772,175.25975],[0,0],[-0.06514,-0.12445]],[[310.1988,174.88253],[0.06074,0.12707],[-1.01569,-2.12479]],[[309.92125,165.6582],[-0.21644,2.97461],[-0.24113,1.23011]],[[308.98129,169.30546],[0.15591,-1.24527],[-0.16958,1.35443]],[[308.96774,173.40045],[0.00452,-1.365],[0,0]],[308.72841,173.74279],[308.87173,173.79056],[[307.88996,176.73587],[0,0],[-0.31417,1.02156]],[[305.50002,178.49999],[1.1246,0],[-1.18975,0]],[[303.06198,176.5556],[0.25264,1.1133],[0,0]],[[302.2945,173.48568],[0,0],[-0.17491,0.83198]],[[302.00002,175.99999],[-0.01052,-0.84686],[0,0]],[[302.00002,178.99999],[0,0],[0,1.38071]],[[299.50002,181.49999],[1.38071,0],[-0.55624,0]],[[298.01466,181.01109],[0.4153,0.30723],[-1.95789,0.63192]],[[292.09956,181.46771],[1.5206,0.22991],[-0.91422,-0.13823]],[[289.50002,180.49999],[0.88998,0.25067],[-0.31207,-0.0879]],[[288.52812,180.46176],[0.08744,-0.3122],[-0.17872,0.63808]],[[288.96774,182.40044],[0.0747,-0.65841],[-0.11885,1.04737]],[[287.96774,185.40044],[0.33333,-1],[0,0]],[288.00002,188.99999],[[287.5977,190.41431],[0.40232,-0.67467],[0.21247,0.65095]],[[288.23132,192.36461],[-0.21027,-0.64928],[1.19994,0.48272]],[[291.90047,193.53227],[-1.26907,-0.2045],[0,0]]],&quot;closed&quot;:true,&quot;fillColor&quot;:[0,0,0],&quot;strokeWidth&quot;:0.5}]}" fill="#ff7900" stroke-width="0.25"/><path d="M196.78993,221.14352c0,-8.5566 8.5566,-8.5566 8.5566,-8.5566h3.42265c1.75493,0 5.62884,-0.56805 9.75942,-0.81479c-2.06553,-3.88758 -0.43335,-9.09687 -1.13871,-13.54165c-0.90861,-5.72539 -3.55841,-11.60727 -7.82587,-15.53089c0,0 -6.05044,-6.05044 0,-12.10085c6.05044,-6.05044 12.10085,0 12.10085,0c6.54755,6.89642 11.52174,16.10583 12.70998,25.54082c0.27067,2.14905 -3.0009,4.70106 -1.551,6.31025c2.15832,2.39544 7.76389,-0.41658 9.37687,2.37534c3.62742,6.27863 7.65104,14.88398 4.31369,21.32149c-3.09609,5.97217 -31.24848,3.55346 -37.74527,3.55346h-3.42265c0,0 -8.5566,0 -8.5566,-8.5566z" fill="#000000" stroke-width="0.5"/></g></g></svg>