<svg version="1.1" xmlns="http://www.w3.org/2000/svg" xmlns:xlink="http://www.w3.org/1999/xlink" width="145.73681" height="185.53074" viewBox="0,0,145.73681,185.53074"><g transform="translate(-187.63006,-34.23649)"><g data-paper-data="{&quot;isPaintingLayer&quot;:true}" fill-rule="nonzero" stroke="none" stroke-linecap="butt" stroke-linejoin="miter" stroke-miterlimit="10" stroke-dasharray="" stroke-dashoffset="0" style="mix-blend-mode: normal"><path d="M287.93313,131.57438c-0.37501,1.44277 -1.66664,2.54704 -2,4c-0.32993,1.43801 0.04459,2.95041 0.06688,4.42562v5c0,1.38071 -1.11929,2.5 -2.5,2.5c-0.5628,0 -1.08217,-0.18597 -1.5,-0.49982c-0.41783,0.31384 -0.9372,0.49982 -1.5,0.49982c-0.65121,0 -1.24427,-0.24899 -1.68916,-0.65696c-0.36234,1.10389 -1.04224,1.9851 -2.1928,2.39303c-1.30007,0.46092 -2.6327,-0.16941 -3.9663,-0.83216c-0.75426,2.00606 -2.58716,6.87787 -2.79129,7.42046l-0.9705,2.91151c-0.31417,1.02156 -1.26534,1.76412 -2.38994,1.76412c-1.22888,0 -2.25067,-0.88665 -2.46053,-2.05512l-0.81093,-4.05466c-5.80621,1.94961 -5.23593,-2.57497 -7.04286,-5.26359c-0.68616,-1.02097 -1.97781,1.50267 -2.75232,2.45835c-0.92132,1.13682 -1.38605,2.78178 -2.61779,3.54083c0.07563,0.75742 0.25543,1.52931 0.15216,2.27466c-0.14467,1.04412 -0.86685,1.95435 -1,3c-0.41458,3.25568 0.33962,6.57951 0.02011,9.84589c-0.16251,1.66134 -0.77061,3.25479 -0.98136,4.9107c-0.56073,4.40565 -0.00647,9.42302 -0.00647,13.84295c0,6.52327 0,13.04653 0,19.56979c7.21672,0.59622 13.74408,4.79193 20.90046,5.96249c7.65106,1.25147 15.52201,0.99784 23.38492,0.96999c-0.53761,-1.44578 -1.11729,-2.87387 -1.912,-4.18794c-1.32897,-2.19747 -3.29352,-4.05109 -4.21809,-6.44697c-1.11296,-2.88405 -2.06526,-5.81957 -3.00122,-8.76945c-0.64641,-0.40145 -1.56111,-1.28246 -1.02577,-2.88849c0.01869,-0.05605 0.03825,-0.11034 0.05865,-0.16292c-0.346,-1.08571 -0.6965,-2.17164 -1.05865,-3.25594c0,0 -0.62039,-1.86117 0.88671,-2.83563l0.01728,-2.35539c0.33333,-1 0.78943,-1.96715 1,-3c0.27202,-1.33424 -0.46929,-3.04738 0.43962,-4.06132c3.49754,-3.9017 5.01914,-1.63448 8.42856,-1.00595c0.72088,0.13289 1.46606,-0.00122 2.19909,0c0.38891,0.00064 0.94091,0.28954 1.24003,0.13378l-0.26493,-1.05972l0.03834,-0.00958c-0.13817,-0.21324 -0.23131,-0.4195 -0.11298,-0.59676v-4c0,-1.21819 0.87129,-2.23287 2.02469,-2.45487c-0.07664,-0.66429 -0.21309,-1.33291 0.00759,-1.94558c0.65575,-1.82054 0.99592,-4.653 2.89334,-5.03267c2.12379,-0.42497 3.33174,0.0074 4.02068,0.85172c0.00009,-0.24384 0.01899,-0.4857 0.07243,-0.72406c0.43673,-1.94795 0.32303,-4.49811 1.94274,-5.66505c5.3422,-3.84885 7.17103,1.28034 8.00625,4.57006c0.04174,0.1644 0.03231,6.00391 0.03228,6.40045c-0.00005,0.6866 0.01215,1.33423 0.02312,1.95578c1.93232,-1.06929 4.27907,-0.77493 6.50498,1.58244c1.02676,1.0874 0.38862,2.96854 0.4719,4.46177c0.26837,4.81238 0.04878,9.71591 0.00665,14.55186c2.43291,0.49791 1.9448,2.93843 1.9448,2.93843c-1.36239,6.7267 -1.95146,13.63775 -1.95145,20.50971c0,0.67742 0.03139,1.4097 0.07651,2.17578c-1.65222,0.10904 -3.30379,0.22641 -4.95492,0.35045c-0.06917,-0.90577 -0.12164,-1.76313 -0.12164,-2.52621c0,-4.17388 0.2183,-8.34825 0.67302,-12.49422c-5.66915,0.07673 -12.06248,0.87763 -17.57348,-0.03805v-0.00002c-2.07968,-0.34555 -3.91866,-1.66461 -6,-2c-1.45222,-0.23401 -2.79071,-0.45215 -4.11177,-0.71459c0.59621,1.7968 1.20828,3.58934 1.85694,5.3795c0.76295,2.10556 2.6352,3.62937 3.78191,5.55303c1.38463,2.3228 2.27486,4.91262 3.21809,7.44697c0.11385,0.3059 0.21516,0.61545 0.30648,0.92792c-9.16543,0.83554 -18.33948,1.69006 -27.55619,2.2781c-0.80795,0.05155 -1.61663,0.09839 -2.42598,0.14079c-0.02315,-0.00389 -0.04629,-0.0078 -0.06943,-0.01172c-6.71981,-1.13881 -13.30837,-5.4137 -20.09954,-5.91991c0,0.48406 0,0.96813 0,1.45219c0,1.58907 0,3.17815 0,4.76722c-1.66617,-0.02706 -3.33301,-0.06366 -4.99999,-0.10759c0,-1.5532 0,-3.10641 0,-4.65962c0,-8.66666 0,-17.33334 0,-26c0,-4.60894 -0.53178,-9.75933 0.03237,-14.35124c0.20291,-1.65165 0.81375,-3.23935 0.9798,-4.89511c0.45866,-4.5736 -0.56178,-5.41883 0.02011,-10.15411c0.12857,-1.04622 0.84692,-1.95708 1,-3c0.05477,-0.37316 0.05912,-0.7521 0.04271,-1.1331c-2.22696,-0.28249 -4.48904,-0.92758 -5.219,-1.58304c-0.66389,-0.59612 -1.06497,-1.37131 -1.35987,-2.22215c-1.3187,-0.03395 -2.64611,-0.11242 -3.91586,-0.14579c-0.39542,1.05638 -0.7877,2.18185 -1.75297,2.60309c-4.9686,2.16826 -6.02514,0.16305 -7.19202,-2.76612c-1.57002,-0.44993 -3.00602,-1.32076 -4.56055,-1.83514c-0.48341,-0.15996 -0.97067,-0.31075 -1.45994,-0.45682c-0.59377,1.83753 -1.38787,3.55038 -3.96429,3.43498c-2.28201,-0.10221 -3.56133,-2.86163 -5.342,-4.29244c-0.05763,-0.23946 -0.40445,-1.6542 -0.81219,-3.35172c-0.31312,-0.21324 -0.63686,-0.40657 -0.98486,-0.55506c-4.05877,-1.73186 -7.3151,-2.12959 -10.64944,-5.40761c-3.68463,-2.79611 -6.54945,-5.54532 -8.60779,-9.79026c-1.00413,-2.07085 -0.91001,-4.51459 -1.23548,-6.79292c-0.19436,-1.36056 -0.85043,-2.6338 -1,-4c-0.86357,-7.88814 -0.01873,-16.35832 -0.01873,-24.30546c0,-5.96681 -1.1899,-13.3783 1.1903,-18.95671c0.66061,-1.54825 1.35636,-3.09886 2.28159,-4.50507c0.42624,-0.64782 1.21692,-0.99965 1.71159,-1.58788c-0.03121,-0.84803 -0.18348,-1.80204 -0.18348,-2.95034c0,-3.32559 -0.09096,-6.67495 0,-10c0.0361,-1.31994 -0.38155,-2.76654 0.1903,-3.95671c0.00749,-0.01559 5.10905,-5.63551 5.99537,-6.16991c1.8054,-1.08857 4.2046,-0.89502 6,-2c1.92821,-1.18673 3.68094,-2.96655 5.91388,-3.3411c1.22738,-0.20587 2.54307,0.42263 3.73312,0.05844c1.40359,-0.42954 2.46032,-1.60393 3.72906,-2.34209c3.19387,-1.85822 5.86623,-2.71635 9.53782,-2.71635c6.23715,-2.07905 13.85484,-1.03228 20.40045,-1.03228c3.2261,0 7.19952,-0.48398 10.40046,0.03228c1.04064,0.16784 1.95706,0.84707 3,1c2.27732,0.33393 4.62539,-0.33144 6.905,-0.01355c1.3612,0.18982 2.64019,0.80049 4,1c1.12797,0.1655 2.33609,-0.26783 3.419,0.08854c1.26623,0.4167 2.17954,1.55497 3.37392,2.14694c1.01698,0.50404 2.2418,0.53662 3.21595,1.11917c0.80917,0.48389 1.19155,1.51493 2,2c0.90388,0.54232 2.09612,0.45768 3,1c0.80845,0.48507 1.19155,1.51493 2,2c0.90388,0.54232 2.09612,0.45768 3,1c0.55037,0.33022 0.96932,0.82876 1.39105,1.32375c1.15358,-1.4115 2.25433,-2.96419 3.70965,-4.13048c7.29126,-5.84323 14.99217,-6.77248 23.89043,-4.54792c2.83427,0.01241 4.31103,-0.31126 7.00887,1.35465c6.44859,3.98199 4.60602,15.71196 3.10192,21.76829c-0.23073,0.92905 -2.26464,6.74652 -2.64848,7.12609c-1.17055,1.15754 -6.57637,2.20613 -8.0688,2.63254c-4.74604,1.35601 -9.40529,2.7792 -14.19939,3.5406c-0.04264,0.60787 -0.08012,1.21643 -0.01174,1.81275c0.18973,1.65451 0.81542,3.24177 0.98019,4.89895c1.01272,10.18542 -1.19488,20.06188 -5.15832,29.30411c-0.9017,2.10264 -2.04076,4.09537 -3.06391,6.14167c-1.12129,2.24256 -1.73218,4.86983 -3.47803,6.66938c-2.42183,2.49634 -5.23136,4.20451 -8.14089,5.81092c0.00957,0.75559 -0.05025,1.4436 -0.19375,1.9957zM227.00341,112.91477c0.02728,-0.43794 0.27352,-2.41477 2.4966,-2.41477c2.5,0 2.5,2.5 2.5,2.5c0,1.5206 0,3.04119 0,4.56179c1.1816,-0.63142 2.52909,-1.02343 3.5,-1.06179c2.38445,-0.09422 4.28207,2.12261 6.31433,3.37337c2.13278,1.31262 5.2796,1.6405 7.68567,1.62663c1.17538,-0.00678 6.72118,-0.07644 7.31433,0.37337c1.07678,0.81657 1.77804,2.03646 2.31666,3.32588c0.33383,-0.98798 1.26835,-1.69925 2.36901,-1.69925c0.64447,0 1.23198,0.24386 1.6753,0.64434c0.79644,-1.34036 1.65346,-2.60052 2.23087,-3.5103l0.01903,-0.01724l-0.00532,-0.00354l1.97849,-2.96774c0.44514,-0.68925 1.2201,-1.14551 2.10163,-1.14551c1.18975,0 2.18539,0.83109 2.43804,1.9444l0.00637,0.02548c0.04817,-0.25887 0.11459,-0.49045 0.21602,-0.65889c0.91089,-1.51269 5.61775,-7.66865 7.8854,-7.25068c1.87084,0.34483 3.85411,7.60015 3.93544,9.13423c0.04652,0.87746 -1.29439,1.87839 -0.7135,2.53769c0.6122,0.69483 2.16576,-0.90386 2.77076,-0.20275c0.4353,0.50445 0.8367,1.32903 1.16887,2.30499c1.92917,-1.15129 3.78288,-2.4302 5.52483,-4.10224c2.0401,-1.95822 1.29471,-2.87609 2.52197,-5.33062c0.97685,-1.9537 2.07613,-3.85043 2.93609,-5.85833c3.63216,-8.48064 5.75698,-17.52545 4.80285,-26.89008c-0.16907,-1.6594 -0.80664,-3.24801 -0.98098,-4.90686c-0.06191,-0.58902 0.04493,-1.19249 0.12465,-1.79087c-0.54295,0.02625 -1.08845,0.04142 -1.63681,0.04452c0,0 -1.53622,0 -2.2002,-1.20423c-3.53697,0.49589 -7.14851,0.20423 -10.7998,0.20423c-5.40828,0 -11.12795,0.47974 -16.59917,0.18794c-0.01688,0.06588 -0.02912,0.10263 -0.02912,0.10263c-0.62446,1.8734 -1.62946,3.65433 -1.90399,5.60988c-0.60041,4.27692 0.80913,7.60861 -1.29222,11.83129c-0.51932,1.04357 -1.60516,1.69068 -2.40774,2.53602l0.73224,0.23224c0,0 0,2.5 -2.5,2.5c-2.5,0 -2.5,-2.5 -2.5,-2.5l0.73224,-3.76776c3.57114,-3.28342 1.67236,-7.29868 2.30005,-11.63269c0.02612,-0.18032 1.17129,-3.62127 1.76117,-5.38802c-3.80293,-0.40594 -7.22324,-0.71153 -11.29345,-0.71153c-3.73225,0 -6.64953,-0.5525 -10.30546,-1.01873c-4.69661,-0.59895 -9.96355,0.01873 -14.69454,0.01873c-1.86655,0 -3.76027,-0.35014 -5.59955,-0.03228c-0.23325,0.04031 -0.46055,0.10448 -0.68459,0.18166c4.29779,7.47131 3.78413,16.89066 3.78413,25.35062v1c0,0 0,2.5 -2.5,2.5c-2.5,0 -2.5,-2.5 -2.5,-2.5v-1c0,-3.46349 0.45558,-7.26908 0.01873,-10.69454c-0.17386,-1.36333 -0.80563,-2.63944 -1,-4c-0.54207,-3.79445 -0.31979,-5.58412 -2.59886,-8.91871c0,0 -0.17812,-0.26718 -0.31093,-0.67387c-4.40925,0.11119 -8.98193,-0.86506 -13.30348,-0.23162c-2.93473,0.43017 -5.3575,0.82209 -8.12027,0.96322c-0.47207,0.44135 -0.99195,0.85276 -1.41743,1.32328c0,0 -0.54001,0.54002 -1.32157,0.72465c-0.47243,0.86204 -0.83091,1.80671 -0.97847,2.90804c-0.44126,3.29339 0.03228,7.27996 0.03228,10.59955c0,6 0,12 0,18c0,3.23152 -0.38114,6.48341 -0.01873,9.69454c0.15413,1.3657 0.80563,2.63944 1,4c0.57921,4.05439 1.13532,7.42227 4.33487,10.58742c1.12686,1.11474 2.54791,1.88627 3.82187,2.82941c2.32543,2.3723 4.40158,2.85829 6.97282,3.70776c-0.04757,-0.24033 -0.08072,-0.42708 -0.0959,-0.54634c-0.13771,-1.08222 -0.15589,-2.19099 -0.01493,-3.27279c0.10118,-0.77652 1.24345,-1.63904 0.73223,-2.23223c-0.49071,-0.5694 -1.51857,0.88197 -2.18894,0.54193c-3.65178,-1.85231 -3.58383,-3.46854 -3.53511,-6.3034c-0.61187,-0.45571 -1.00818,-1.18473 -1.00818,-2.0063v-3c-0.8448,-4.37387 0.73748,-8.74393 2.12829,-12.79057c0.40491,-1.17811 0.56564,-2.4796 1.24508,-3.52376c0.77132,-1.18535 2.20844,-1.82807 3,-3c1.35705,-2.00915 1.41355,-8.77439 7.38144,-4.84795c1.99476,1.31241 1.78423,4.46397 2.21301,6.81294c0.17458,0.95641 -0.74255,1.95779 -0.44319,2.88276c0.14122,0.43632 0.91745,-0.01572 1.37582,-0.00114c1.18599,0.03772 2.49841,-0.37953 3.55625,0.15802c3.16242,1.60702 3.5352,3.03052 3.54669,5.22447zM290.18568,50.12663c-0.90388,-0.54232 -2.09612,-0.45768 -3,-1c-0.80845,-0.48507 -1.19155,-1.51493 -2,-2c-0.90388,-0.54232 -2.09612,-0.45768 -3,-1c-0.80845,-0.48507 -1.19232,-1.51364 -2,-2c-0.83384,-0.50212 -1.91532,-0.44183 -2.78405,-0.88083c-0.9562,-0.4832 -1.6114,-1.50922 -2.62608,-1.85306c-0.8153,-0.27628 -1.7283,0.20664 -2.581,0.08854c-1.36138,-0.18855 -2.64016,-0.80068 -4,-1c-2.34,-0.34299 -4.75267,0.31318 -7.095,-0.01355c-1.04399,-0.14563 -1.9613,-0.82049 -3,-1c-2.89625,-0.50053 -6.69108,0.03228 -9.59954,0.03228c-6.29532,0 -13.60067,-1.03191 -19.59955,0.96772c-5.6988,0 -7.48286,3.29304 -12.73312,4.94156c-1.3571,0.42612 -2.85344,-0.10116 -4.26688,0.05844c-1.61476,0.18233 -2.685,1.83577 -4.08612,2.6589c-3.42543,2.01237 -7.82208,1.75689 -10.00463,5.83009c-0.79455,1.48284 0.1903,3.36099 0.1903,5.04329c0,2.6589 0.05806,5.32599 0.03509,7.98745c0.50511,0.0049 1.01288,0.00791 1.52367,0.00976c-0.33941,0.41894 -0.65683,0.85322 -0.93214,1.31712c-0.18346,0.30913 -0.29487,0.65128 -0.38359,1.0038c1.92134,-0.18565 3.73105,-0.48976 5.9515,-0.7994c5.17466,-0.72159 10.77179,0.90068 15.90501,0.01355c1.03869,-0.17951 1.95935,-0.83216 3,-1c0.25901,-0.04178 5.92044,-0.03228 6.40045,-0.03228c4.94781,0 10.39131,-0.58403 15.30546,0.01873c3.54015,0.43423 6.09966,0.98127 9.69454,0.98127c5.01146,0 9.2285,0.43775 14.15515,0.99334c6.09921,0.68783 12.70018,0.00666 18.84485,0.00666c4.1535,0 8.17815,0.40482 12.1414,-0.55066c-0.06892,-0.22046 -0.15381,-0.43402 -0.26802,-0.63501c-1.58392,-2.78733 -5.36996,-4.21588 -8.1877,-5.18771c-1.6246,-1.6246 -3.39632,-2.79451 -5.26944,-3.72372c0.90306,-1.40382 1.46449,-3.04824 1.56682,-4.81582c0.23084,0.10581 0.46033,0.21455 0.68838,0.32655c-0.17143,-0.4948 -0.17143,-0.91363 -0.17143,-0.91363l1.70943,-3.37171c0.27865,-0.0754 0.54474,-0.16888 0.79992,-0.27835c-0.10312,-0.08055 -0.21063,-0.15548 -0.32368,-0.22331zM300.00001,51c0,2.5 -2.5,2.5 -2.5,2.5l-1.78733,-0.12806c-0.22413,0.22154 -0.45516,0.42779 -0.69518,0.61482c-0.63061,0.4914 -1.40454,0.72592 -2.19209,0.936c-0.2257,0.64471 -0.74315,1.41434 -1.92942,1.5547c1.01636,0.68304 1.99229,1.46984 2.91836,2.39591c3.67387,1.17755 7.68869,3.40405 9.8123,6.81229c0.52367,0.84045 0.6018,1.88814 0.94792,2.81708c0.33864,0.01951 1.73742,0.17707 2.2425,1.44961c4.3855,-0.74348 8.67028,-2.12018 12.98399,-3.35266c1.32149,-0.37757 2.66077,-0.69124 4,-1c0.63853,-0.14722 1.47408,0.10204 1.9312,-0.36746c0.4793,-0.49228 0.21246,-1.36072 0.39605,-2.02281c0.26783,-0.96587 0.70943,-1.87945 0.95546,-2.8511c0.93088,-3.67635 0.89488,-6.65409 0.91625,-10.35833c0.01162,-2.01326 0.3247,-4.66685 -1.81433,-5.87338c-1.6961,-0.95669 -3.10096,-0.65417 -4.99113,-0.64535c-7.64557,-1.91139 -13.82515,-1.56519 -20.10957,3.45208c-0.73182,0.58426 -1.37644,1.31304 -1.98366,2.09278c0.48827,0.35839 0.89869,0.96092 0.89869,1.97387zM221.5433,112.3097c-2.79187,-0.4417 -4.42685,1.93916 -7.06793,-1.84312c-0.66722,-0.95552 -0.58835,-4.05775 -0.41354,-6.36514c-0.07916,0.43326 -0.19733,0.85055 -0.43519,1.21289c-0.7761,1.18223 -2.20025,1.83364 -3,3c-1.25961,1.83703 -2.41743,6.88957 -2.64536,8.99113c-0.10103,0.93156 0.13317,1.90943 0.2131,2.85629c0.49535,0.45681 0.80563,1.1113 0.80563,1.83825v3c-0.00407,0.06501 -0.97061,3.30964 0.45671,3.6903c1.2398,0.33065 3.06128,-0.49935 3.81106,0.54193c1.13244,1.57273 0.56917,3.83662 0.73223,5.76777c0.19987,2.36708 0.53734,4.61461 0.94559,6.8916c0.01788,0.00923 0.03582,0.01836 0.0538,0.02741c0.9961,0.50122 2.03917,0.88854 3.1029,1.22596c0.63229,-1.09481 1.37215,-2.06879 2.49622,-2.47677c2.03475,-0.73853 4.50455,0.19101 6.3619,1.30271c1.47147,0.88074 2.14567,2.70813 2.90668,4.24493c0.07344,0.1483 0.1424,0.33835 0.20774,0.55454c0.68917,-0.00397 1.3851,-0.06407 2.08151,-0.1266c1.02456,-3.20824 2.6679,-6.50748 7.17852,-5.00027c3.49005,1.16619 3.44466,2.94769 3.54697,4.85875c1.28841,-0.13129 2.54929,-0.38511 3.75081,-0.84698c0.53297,-0.20487 1.05523,-0.42232 1.56843,-0.65057c0.26474,-0.69716 0.87806,-1.50472 2.29894,-1.50472c0.22506,0 0.42986,0.02026 0.61622,0.05713c3.40537,-1.85493 6.52379,-4.07457 9.93378,-6.04711c-6.34377,-0.00526 -12.63742,-0.12928 -18.85546,-1.02875c-0.32484,-0.04699 -8.46992,-2.09443 -8.70593,-2.19498c-1.0146,-0.43226 -1.66624,-1.54659 -2.71308,-1.89356c-0.94922,-0.31461 -2.0553,0.32792 -3,0c-5.14656,-1.78647 -9.31025,-6.89191 -13.04331,-10.62496l-1,-1c0,0 -1.76777,-1.76777 0,-3.53553c1.76777,-1.76777 3.53553,0 3.53553,0l1,1c2.80804,2.80804 5.34865,5.43469 8.61898,7.68764c0.16149,0.11125 0.31625,0.2353 0.4681,0.36474c-0.22531,-0.37543 -0.35485,-0.8149 -0.35485,-1.28462v-4.68356l-0.13576,-0.50172c-0.33789,0.98071 -1.26878,1.68528 -2.36424,1.68528c-1.38071,0 -2.5,-1.11929 -2.5,-2.5v-3c0.07736,-1.23707 0.76755,-3.49661 -0.45671,-3.6903zM291.90047,193.53228c0.98726,0.15909 2.01439,-0.16905 3,0c2.07785,0.35638 3.92073,1.65207 6,2c5.43976,0.91025 11.89115,-0.01437 17.44008,-0.03202c0.00278,-0.01765 0.00556,-0.0353 0.00835,-0.05295l-0.61665,-0.21507c0,0 0.28206,-0.28207 0.73351,-0.50818c0.07309,-0.44257 0.14901,-0.88464 0.22779,-1.3262c-1.69354,-0.46954 -1.69354,-2.39785 -1.69354,-2.39785c0,-3.99762 0,-7.99524 0,-11.99286c-0.00385,1.37742 -1.12166,2.49285 -2.49999,2.49285c-1.0731,0 -1.98829,-0.67611 -2.34282,-1.62559l-1.83532,-4.58832l0.06584,-0.02634c-0.06514,-0.12445 -0.12818,-0.25015 -0.18892,-0.37722c-1.01569,-2.12479 -0.49398,-6.24972 -0.27754,-9.22433c-0.24113,1.23011 -0.78406,2.40199 -0.93997,3.64726c-0.16958,1.35443 -0.00903,2.72999 -0.01355,4.09499l-0.23933,0.34234l0.14332,0.04777l-0.98177,2.94531c-0.31417,1.02156 -1.26534,1.76412 -2.38994,1.76412c-1.18975,0 -2.1854,-0.83109 -2.43804,-1.94439l-0.76748,-3.06992c-0.17491,0.83198 -0.305,1.66745 -0.29448,2.51431v3c0,1.38071 -1.11929,2.5 -2.5,2.5c-0.55624,0 -1.07006,-0.18167 -1.48536,-0.4889c-1.95789,0.63192 -4.3945,0.68653 -5.9151,0.45662c-0.91422,-0.13823 -1.70956,-0.71705 -2.59954,-0.96772c-0.31207,-0.0879 -0.88446,-0.35043 -0.9719,-0.03823c-0.17872,0.63808 0.51432,1.28027 0.43962,1.93868c-0.11885,1.04737 -0.66667,2 -1,3l0.03228,3.59955c0,0 0,0.73965 -0.40232,1.41432c0.21247,0.65095 0.42335,1.30102 0.63362,1.9503c1.19994,0.48272 2.40009,0.96316 3.66916,1.16766zM254.18568,126.12663c-0.42498,-0.38808 -1.11198,0.32766 -1.68567,0.37337c-0.3199,0.02549 -6.32294,-0.0194 -6.40046,-0.03228c-0.40883,-0.06793 -6.64089,-2.18072 -6.91387,-2.34109c-1.30076,-0.76417 -2.18834,-2.44248 -3.68567,-2.62663c-2.41977,-0.2976 -0.43789,1.42462 -1.87337,2.81433c-0.13839,0.13398 -0.28219,0.26087 -0.43058,0.38172l0.07172,0.07172l-2,2c-0.45241,0.45241 -1.07741,0.73223 -1.76777,0.73223c-0.28042,0 -0.55005,-0.04617 -0.80171,-0.13132c0.16609,0.09786 0.34024,0.17981 0.52617,0.23859c0.95349,0.30142 2.05181,-0.31769 3,0c1.23391,0.41342 2.09195,1.59119 3.28692,2.10644c3.322,1.4324 6.97301,1.2505 10.38907,1.81857c1.03981,0.17291 1.9613,0.82049 3,1c2.4388,0.42148 5.06711,0.48303 7.7342,0.41273c-2.18665,-1.45105 -0.69668,-5.21823 -2.44899,-6.81839zM282.96148,125.97051c-0.85366,-0.65916 -2.61313,0.68249 -3.22924,-0.20275c-1.04894,-1.50715 -0.38818,-3.65512 -0.7135,-5.46231c-0.12942,-0.71891 -0.41935,-1.41151 -0.63926,-2.11277c-0.6922,1.07683 -1.52369,2.07285 -2.46882,2.92525c-1.84171,1.66101 -3.60105,4.16623 -6.07798,4.29135c-0.59169,0.02989 -0.759,-0.4813 -0.78349,-1.17458c-1.27113,2.07596 -2.35272,4.17942 -3.46044,6.28747l0.33663,0.08416l-0.48236,1.92942c0.6961,-0.02232 1.38276,-0.03576 2.057,-0.03576c0,0 1.18276,0 1.92121,0.81353c3.53817,-1.60973 7.11891,-3.14605 10.57515,-4.9253c1.09314,-0.65199 2.17729,-1.25007 3.24699,-1.83402c-0.01586,-0.23414 -0.09251,-0.43749 -0.28188,-0.58371zM261.13801,149.11137c0.01178,0.02049 0.02378,0.04403 0.03602,0.06968l1.13676,-2.12195c0.41357,-0.81016 1.25603,-1.3649 2.22805,-1.3649c1.22888,0 2.25067,0.88665 2.46053,2.05512l0.19313,0.96567c0.61018,-1.62281 1.11873,-2.97504 1.11982,-2.97689c0.00446,-0.00755 0.00892,-0.0151 0.01338,-0.02265l-0.00386,-0.00154l1.83533,-4.58831c0.35452,-0.94948 1.26971,-1.62559 2.34282,-1.62559c0.64801,0 1.23843,0.24655 1.68259,0.65095c0.0053,-0.01119 0.0107,-0.02235 0.01619,-0.03349c0.06233,-0.12642 0.1268,-0.25155 0.19323,-0.3755l-0.07015,-0.02806l1.53202,-3.83005c-3.76301,1.69811 -7.54977,3.34391 -11.15807,5.3116c-2.00175,1.0916 -3.81263,2.4981 -5.68345,3.80724c1.20871,0.881 1.36251,2.78119 2.12566,4.10866zM317.47191,173.46178c0.01306,-0.27526 -0.65422,0.21948 -0.66219,0.49493c-0.01981,0.68376 0.12686,1.3622 0.1903,2.04329v2.98362c0.00225,-1.8472 0.38429,-3.67661 0.47189,-5.52184zM237.66516,146.35647c-0.08266,-0.11538 -0.21711,0.03601 -0.32216,0.20965c0.15784,0.00536 0.31593,0.01069 0.47422,0.01584c-0.04857,-0.07651 -0.0992,-0.15171 -0.15206,-0.2255zM310.03695,160.8993c0.00517,-0.5791 0.01047,-1.28419 0.00158,-0.92879c-0.00773,0.30912 -0.0069,0.61882 -0.00158,0.92879zM259.99199,132.72977c-0.0335,0.02709 -0.06711,0.05368 -0.10083,0.07972c0.03377,-0.00177 0.06753,-0.00354 0.10129,-0.00531z" fill="#000000" stroke-width="0.5"/><path d="" fill="#000000" stroke-width="0.5"/><path d="" fill="#000000" stroke-width="0.5"/><path d="" fill="#000000" stroke-width="0.5"/><path d="M290.2354,50.12139c0.11305,0.06783 0.22059,0.14306 0.32371,0.22361c-0.25518,0.10947 -0.52125,0.20319 -0.7999,0.27859l-1.70921,3.37576c0,0 0,0.41999 0.17143,0.91479c-0.22805,-0.112 -0.45754,-0.22115 -0.68838,-0.32696c-0.10233,1.76758 -0.66418,3.4184 -1.56724,4.82222c1.87312,0.92921 3.64427,2.10254 5.26887,3.72714c2.81774,0.97183 6.60302,2.40358 8.18694,5.19091c0.11421,0.20099 0.19896,0.41504 0.26788,0.6355c-3.96325,0.95548 -7.98935,0.55502 -12.14285,0.55502c-6.14467,0 -12.75222,0.6931 -18.85143,0.00527c-4.92665,-0.55559 -9.16425,-0.9772 -14.17571,-0.9772c-3.59488,0 -6.18782,-0.54505 -9.72797,-0.97928c-4.91415,-0.60276 -10.38507,-0.03862 -15.33288,-0.03862c-0.48001,0 -6.14463,-0.01489 -6.40364,0.02689c-1.04065,0.16784 -1.96165,0.81982 -3.00034,0.99933c-5.13322,0.88713 -10.73317,-0.74218 -15.90783,-0.02059c-2.22045,0.30964 -4.03045,0.61281 -5.95179,0.79846c0.08872,-0.35252 0.1999,-0.69546 0.38336,-1.00459c0.27531,-0.4639 0.59247,-0.89916 0.93188,-1.3181c-0.51079,-0.00185 -1.01865,-0.00522 -1.52376,-0.01012c0.02297,-2.66146 -0.03635,-5.33611 -0.03635,-7.99501c0,-1.6823 -0.98504,-3.56542 -0.19049,-5.04826c2.18255,-4.0732 6.5798,-3.82491 10.00523,-5.83728c1.40112,-0.82313 2.47221,-2.4808 4.08697,-2.66313c1.41344,-0.1596 2.91019,0.36613 4.26729,-0.05999c5.25026,-1.64852 7.04177,-4.95709 12.74057,-4.95709c5.99888,-1.99963 13.34468,-0.98866 19.64,-0.98866c2.90846,0 6.73027,-0.52505 9.62652,-0.02452c1.0387,0.17951 1.96254,0.8593 3.00653,1.00493c2.34233,0.32673 4.76239,-0.32121 7.10239,0.02178c1.35984,0.19932 2.64173,0.81638 4.00311,1.00493c0.8527,0.1181 1.76663,-0.36305 2.58193,-0.08677c1.01468,0.34384 1.67174,1.37405 2.62794,1.85725c0.86873,0.439 1.95114,0.3813 2.78498,0.88342c0.80768,0.48636 1.19256,1.51843 2.00101,2.0035c0.90388,0.54232 2.09662,0.4599 3.0005,1.00222c0.80845,0.48507 1.19206,1.51791 2.00051,2.00298c0.90388,0.54232 2.09632,0.45935 3.0002,1.00167z" data-paper-data="{&quot;noHover&quot;:false,&quot;origItem&quot;:[&quot;Path&quot;,{&quot;applyMatrix&quot;:true,&quot;segments&quot;:[[[290.18568,50.12663],[0,0],[-0.90388,-0.54232]],[[287.18568,49.12663],[0.90388,0.54232],[-0.80845,-0.48507]],[[285.18568,47.12663],[0.80845,0.48507],[-0.90388,-0.54232]],[[282.18568,46.12663],[0.90388,0.54232],[-0.80845,-0.48507]],[[280.18568,44.12663],[0.80768,0.48636],[-0.83384,-0.50212]],[[277.40163,43.2458],[0.86873,0.439],[-0.9562,-0.4832]],[[274.77555,41.39274],[1.01468,0.34384],[-0.8153,-0.27628]],[[272.19455,41.48127],[0.8527,0.1181],[-1.36138,-0.18855]],[[268.19455,40.48127],[1.35984,0.19932],[-2.34,-0.34299]],[[261.09954,40.46773],[2.34233,0.32673],[-1.04399,-0.14563]],[[258.09954,39.46773],[1.0387,0.17951],[-2.89625,-0.50053]],[[248.50001,39.50001],[2.90846,0],[-6.29532,0]],[[228.90046,40.46773],[5.99888,-1.99963],[-5.6988,0]],[[216.16734,45.40929],[5.25026,-1.64852],[-1.3571,0.42612]],[[211.90046,45.46773],[1.41344,-0.1596],[-1.61476,0.18233]],[[207.81434,48.12663],[1.40112,-0.82313],[-3.42543,2.01237]],[[197.80971,53.95672],[2.18255,-4.0732],[-0.79455,1.48284]],[[198.00001,59.00001],[0,-1.6823],[0,2.6589]],[[198.0351,66.98746],[0.02297,-2.66146],[0.50511,0.0049]],[[199.55877,66.99722],[-0.51079,-0.00185],[-0.33941,0.41894]],[[198.62663,68.31434],[0.27531,-0.4639],[-0.18346,0.30913]],[[198.24304,69.31814],[0.08872,-0.35252],[1.92134,-0.18565]],[[204.19454,68.51874],[-2.22045,0.30964],[5.17466,-0.72159]],[[220.09955,68.53229],[-5.13322,0.88713],[1.03869,-0.17951]],[[223.09955,67.53229],[-1.04065,0.16784],[0.25901,-0.04178]],[[229.5,67.50001],[-0.48001,0],[4.94781,0]],[[244.80546,67.51874],[-4.91415,-0.60276],[3.54015,0.43423]],[[254.5,68.50001],[-3.59488,0],[5.01146,0]],[[268.65515,69.49335],[-4.92665,-0.55559],[6.09921,0.68783]],[[287.5,69.50001],[-6.14467,0],[4.1535,0]],[[299.6414,68.94934],[-3.96325,0.95548],[-0.06892,-0.22046]],[[299.37338,68.31434],[0.11421,0.20099],[-1.58392,-2.78733]],[[291.18568,63.12663],[2.81774,0.97183],[-1.6246,-1.6246]],[[285.91623,59.40291],[1.87312,0.92921],[0.90306,-1.40382]],[[287.48305,54.58709],[-0.10233,1.76758],[0.23084,0.10581]],[[288.17143,54.91364],[-0.22805,-0.112],[-0.17143,-0.4948]],[288.00001,54.00001],[[289.70944,50.6283],[0,0],[0.27865,-0.0754]],[[290.50936,50.34995],[-0.25518,0.10947],[-0.10312,-0.08055]],[[290.18568,50.12664],[0.11305,0.06783],[0,0]]],&quot;closed&quot;:true,&quot;fillColor&quot;:[0,0,0],&quot;strokeWidth&quot;:0.5}]}" fill="#904300" stroke-width="0.25"/><path d="M299.95616,50.97597c0,-1.01295 -0.40771,-1.61988 -0.89598,-1.97827c0.60722,-0.77974 1.25942,-1.51717 1.99124,-2.10143c6.28442,-5.01727 12.5315,-5.36313 20.17707,-3.45174c1.89017,-0.00882 3.30166,-0.30385 4.99776,0.65284c2.13903,1.20653 1.83282,3.87354 1.8212,5.8868c-0.02137,3.70424 0.01585,6.70932 -0.91503,10.38567c-0.24603,0.97165 -0.69021,1.89312 -0.95804,2.85899c-0.18359,0.66209 0.08087,1.53541 -0.39843,2.02769c-0.45712,0.4695 -1.29457,0.22338 -1.9331,0.3706c-1.33923,0.30876 -2.68508,0.63047 -4.00657,1.00804c-4.31371,1.23248 -8.64313,2.6228 -13.02863,3.36628c-0.50508,-1.27254 -1.91286,-1.43272 -2.2515,-1.45223c-0.34612,-0.92894 -0.43197,-1.98049 -0.95564,-2.82094c-2.12361,-3.40824 -6.16156,-5.66887 -9.83543,-6.84642c-0.92607,-0.92607 -1.90272,-1.72055 -2.91908,-2.40359c1.18627,-0.14036 1.70386,-0.91456 1.92956,-1.55927c0.78755,-0.21008 1.5619,-0.44834 2.19251,-0.93974c0.24002,-0.18703 0.47149,-0.39578 0.69562,-0.61732l1.78753,0.12713c0,0 2.50493,-0.01308 2.50493,-2.51308z" data-paper-data="{&quot;noHover&quot;:false,&quot;origItem&quot;:[&quot;Path&quot;,{&quot;applyMatrix&quot;:true,&quot;segments&quot;:[[[300.00001,51],[0,0],[0,2.5]],[297.50001,53.5],[[295.71268,53.37194],[0,0],[-0.22413,0.22154]],[[295.0175,53.98676],[0.24002,-0.18703],[-0.63061,0.4914]],[[292.82541,54.92276],[0.78755,-0.21008],[-0.2257,0.64471]],[[290.89599,56.47746],[1.18627,-0.14036],[1.01636,0.68304]],[[293.81435,58.87337],[-0.92607,-0.92607],[3.67387,1.17755]],[[303.62665,65.68566],[-2.12361,-3.40824],[0.52367,0.84045]],[[304.57457,68.50274],[-0.34612,-0.92894],[0.33864,0.01951]],[[306.81707,69.95234],[-0.50508,-1.27254],[4.3855,-0.74348]],[[319.80106,66.59968],[-4.31371,1.23248],[1.32149,-0.37757]],[[323.80106,65.59968],[-1.33923,0.30876],[0.63853,-0.14722]],[[325.73226,65.23223],[-0.45712,0.4695],[0.4793,-0.49228]],[[326.12831,63.20942],[-0.18359,0.66209],[0.26783,-0.96587]],[[327.08377,60.35832],[-0.24603,0.97165],[0.93088,-3.67635]],[[328.00002,49.99999],[-0.02137,3.70424],[0.01162,-2.01326]],[[326.18568,44.12661],[2.13903,1.20653],[-1.6961,-0.95669]],[[321.19455,43.48126],[1.89017,-0.00882],[-7.64557,-1.91139]],[[301.08499,46.93334],[6.28442,-5.01727],[-0.73182,0.58426]],[[299.10132,49.02612],[0.60722,-0.77974],[0.48827,0.35839]],[[300.00002,50.99999],[0,-1.01295],[0,0]]],&quot;closed&quot;:true,&quot;fillColor&quot;:[0,0,0],&quot;strokeWidth&quot;:0.5}]}" fill="#904300" stroke-width="0.25"/><path d="M261.10344,149.14748c-0.76315,-1.32747 -0.93036,-3.24971 -2.13907,-4.13071c1.87082,-1.30914 3.68475,-2.75166 5.6865,-3.84326c3.6083,-1.96769 7.47923,-3.62253 11.24224,-5.32064l-1.52499,3.8421l0.07028,0.02838c-0.06643,0.12395 -0.13022,0.25088 -0.19255,0.3773c-0.00549,0.01114 -0.10513,0.05575 -0.11043,0.06694c-0.44416,-0.4044 -1.03033,-0.64191 -1.67834,-0.64191c-1.07311,0 -1.90097,0.62749 -2.25549,1.57697l-1.8663,4.65941l0.00391,0.00153c-0.00446,0.00755 -0.0092,0.01518 -0.01366,0.02273c-0.00109,0.00185 -0.52481,1.35582 -1.13499,2.97863l-0.19533,-0.9658c-0.20986,-1.16847 -1.26127,-2.06807 -2.49015,-2.06807c-0.97202,0 -1.74325,0.48475 -2.15682,1.29491l-1.13995,2.11865c-0.01224,-0.02565 -0.09308,0.02334 -0.10486,0.00285z" data-paper-data="{&quot;noHover&quot;:false,&quot;origItem&quot;:[&quot;Path&quot;,{&quot;applyMatrix&quot;:true,&quot;segments&quot;:[[[261.13801,149.11137],[0,0],[0.01178,0.02049]],[[261.17402,149.18105],[-0.01224,-0.02565],[0,0]],[[262.31079,147.0591],[0,0],[0.41357,-0.81016]],[[264.53884,145.6942],[-0.97202,0],[1.22888,0]],[[266.99937,147.74932],[-0.20986,-1.16847],[0,0]],[[267.1925,148.71499],[0,0],[0.61018,-1.62281]],[[268.31232,145.73809],[-0.00109,0.00185],[0.00446,-0.00755]],[[268.3257,145.71544],[-0.00446,0.00755],[0,0]],[268.32184,145.71391],[[270.15717,141.1256],[0,0],[0.35452,-0.94948]],[[272.49998,139.5],[-1.07311,0],[0.64801,0]],[[274.18258,140.15096],[-0.44416,-0.4044],[0.0053,-0.01119]],[[274.19876,140.11747],[-0.00549,0.01114],[0.06233,-0.12642]],[[274.392,139.74197],[-0.06643,0.12395],[0,0]],[274.32185,139.71391],[[275.85387,135.88386],[0,0],[-3.76301,1.69811]],[[264.69579,141.19546],[3.6083,-1.96769],[-2.00175,1.0916]],[[259.01235,145.00269],[1.87082,-1.30914],[1.20871,0.881]],[[261.13801,149.11136],[-0.76315,-1.32747],[0,0]]],&quot;closed&quot;:true,&quot;fillColor&quot;:[0,0,0],&quot;strokeWidth&quot;:0.5}]}" fill="#904300" stroke-width="0.25"/><path d="M283.01147,125.97175c0.18937,0.14622 0.26583,0.35279 0.28169,0.58693c-1.0697,0.58395 -2.15833,1.19867 -3.25147,1.85066c-3.45624,1.77925 -7.10958,3.33635 -10.64775,4.94608c-0.73845,-0.81353 -1.92954,-0.82033 -1.92954,-0.82033c-0.67424,0 -1.36506,0.00864 -2.06116,0.03096l0.47881,-1.93475l-0.33722,-0.08521c1.10772,-2.10805 2.18516,-4.24921 3.45629,-6.32517c0.02449,0.69328 0.19001,1.21445 0.7817,1.18456c2.47693,-0.12512 4.30214,-2.6739 6.14385,-4.33491c0.94513,-0.8524 1.78415,-1.84516 2.47635,-2.92199c0.21991,0.70126 0.51886,1.40003 0.64828,2.11894c0.32532,1.80719 -0.318,3.99324 0.73094,5.50039c0.61611,0.88524 2.2756,-0.45781 3.12926,0.20135z" data-paper-data="{&quot;noHover&quot;:false,&quot;origItem&quot;:[&quot;Path&quot;,{&quot;applyMatrix&quot;:true,&quot;segments&quot;:[[[282.96148,125.97051],[0,0],[-0.85366,-0.65916]],[[279.73224,125.76776],[0.61611,0.88524],[-1.04894,-1.50715]],[[279.01874,120.30545],[0.32532,1.80719],[-0.12942,-0.71891]],[[278.37948,118.19268],[0.21991,0.70126],[-0.6922,1.07683]],[[275.91066,121.11793],[0.94513,-0.8524],[-1.84171,1.66101]],[[269.83268,125.40928],[2.47693,-0.12512],[-0.59169,0.02989]],[[269.04919,124.2347],[0.02449,0.69328],[-1.27113,2.07596]],[[265.58875,130.52217],[1.10772,-2.10805],[0,0]],[265.92537,130.60633],[[265.44302,132.53575],[0,0],[0.6961,-0.02232]],[[267.50002,132.49999],[-0.67424,0],[0,0]],[[269.42123,133.31352],[-0.73845,-0.81353],[3.53817,-1.60973]],[[279.99638,128.38822],[-3.45624,1.77925],[1.09314,-0.65199]],[[283.24337,126.5542],[-1.0697,0.58395],[-0.01586,-0.23414]],[[282.96149,125.97049],[0.18937,0.14622],[0,0]]],&quot;closed&quot;:true,&quot;fillColor&quot;:[0,0,0],&quot;strokeWidth&quot;:0.5}]}" fill="#904300" stroke-width="0.25"/><path d="M254.23544,126.1219c1.75231,1.60016 0.25883,5.39102 2.44548,6.84207c-2.66709,0.0703 -5.30361,0.02222 -7.74241,-0.39926c-1.0387,-0.17951 -1.96825,-0.81952 -3.00806,-0.99243c-3.41606,-0.56807 -7.14427,-0.40971 -10.46627,-1.84211c-1.19497,-0.51525 -2.05576,-1.70762 -3.28967,-2.12104c-0.94819,-0.31769 -2.04652,0.301 -3.00001,-0.00042c-0.18593,-0.05878 -0.3601,-0.14164 -0.52619,-0.2395c0.25166,0.08515 0.5213,0.13185 0.80172,0.13185c0.69036,0 1.31539,-0.28286 1.7678,-0.73527l2.00158,-2.01064l-0.07165,-0.07197c0.14839,-0.12085 0.2929,-0.25016 0.43129,-0.38414c1.43548,-1.38971 -0.53788,-3.12782 1.88189,-2.83022c1.49733,0.18415 2.38661,1.86044 3.68737,2.62461c0.27298,0.16037 6.59127,2.29569 7.0001,2.36362c0.07752,0.01288 5.98185,0.07209 6.30175,0.0466c0.57369,-0.04571 1.36033,-0.76981 1.78531,-0.38173z" data-paper-data="{&quot;noHover&quot;:false,&quot;origItem&quot;:[&quot;Path&quot;,{&quot;applyMatrix&quot;:true,&quot;segments&quot;:[[[254.18568,126.12663],[0,0],[-0.42498,-0.38808]],[[252.50001,126.5],[0.57369,-0.04571],[-0.3199,0.02549]],[[246.09955,126.46772],[0.07752,0.01288],[-0.40883,-0.06793]],[[239.18568,124.12663],[0.27298,0.16037],[-1.30076,-0.76417]],[[235.50001,121.5],[1.49733,0.18415],[-2.41977,-0.2976]],[[233.62664,124.31433],[1.43548,-1.38971],[-0.13839,0.13398]],[[233.19606,124.69605],[0.14839,-0.12085],[0,0]],[233.26778,124.76777],[[231.26778,126.76777],[0,0],[-0.45241,0.45241]],[[229.50001,127.5],[0.69036,0],[-0.28042,0]],[[228.6983,127.36868],[0.25166,0.08515],[0.16609,0.09786]],[[229.22447,127.60727],[-0.18593,-0.05878],[0.95349,0.30142]],[[232.22447,127.60727],[-0.94819,-0.31769],[1.23391,0.41342]],[[235.51139,129.71371],[-1.19497,-0.51525],[3.322,1.4324]],[[245.90046,131.53228],[-3.41606,-0.56807],[1.03981,0.17291]],[[248.90046,132.53228],[-1.0387,-0.17951],[2.4388,0.42148]],[[256.63466,132.94501],[-2.66709,0.0703],[-2.18665,-1.45105]],[[254.18567,126.12662],[1.75231,1.60016],[0,0]]],&quot;closed&quot;:true,&quot;fillColor&quot;:[0,0,0],&quot;strokeWidth&quot;:0.5}]}" fill="#904300" stroke-width="0.25"/><path d="M221.57841,112.34527c1.22426,0.19369 0.53885,2.44777 0.46149,3.68484l0.00455,2.99276c0,1.38071 1.02831,2.45881 2.40902,2.45881c1.09546,0 2.03261,-0.7159 2.3705,-1.69661l0.21733,0.55953l0.00861,4.65828c0,0.46972 0.12928,0.9004 0.35459,1.27583c-0.15185,-0.12944 -0.40616,-0.24442 -0.56765,-0.35567c-3.27033,-2.25295 -5.80674,-4.90305 -8.61478,-7.71109l-0.99944,-1.00121c0,0 -1.67611,-1.72791 -3.44388,0.03986c-1.76777,1.76776 0.00228,3.52813 0.00228,3.52813l1.00038,0.99816c3.73306,3.73305 7.88235,8.79343 13.02891,10.5799c0.9447,0.32792 2.03964,-0.32274 2.98886,-0.00813c1.04684,0.34697 1.68056,1.4557 2.69516,1.88796c0.23601,0.10055 8.34682,2.15663 8.67166,2.20362c6.21804,0.89947 12.58578,1.08522 18.92955,1.09048c-3.40999,1.97254 -6.54014,4.20834 -9.94551,6.06327c-0.18636,-0.03687 -0.3918,-0.05655 -0.61686,-0.05655c-1.42088,0 -2.03868,0.81109 -2.30342,1.50825c-0.5132,0.22825 -1.03841,0.44761 -1.57138,0.65248c-1.20152,0.46187 -2.46964,0.71927 -3.75805,0.85056c-0.10231,-1.91106 -0.06111,-3.6911 -3.55116,-4.85729c-4.51062,-1.50721 -6.17374,1.79381 -7.1983,5.00205c-0.69641,0.06253 -1.397,0.12189 -2.08617,0.12586c-0.06534,-0.21619 -0.13503,-0.4064 -0.20847,-0.5547c-0.76101,-1.5368 -1.44507,-3.3675 -2.91654,-4.24824c-1.85735,-1.1117 -4.34011,-2.0498 -6.37486,-1.31127c-1.12407,0.40798 -1.8642,1.38172 -2.49649,2.47653c-1.06373,-0.33742 -2.11101,-0.72915 -3.10711,-1.23037c-0.01798,-0.00905 -0.03599,-0.01826 -0.05387,-0.02749c-0.40825,-2.27699 -0.75277,-4.53557 -0.95264,-6.90265c-0.16306,-1.93115 0.3963,-4.20738 -0.73614,-5.78011c-0.74978,-1.04128 -2.57162,-0.21364 -3.81142,-0.54429c-1.42732,-0.38066 -0.46119,-3.63259 -0.45712,-3.6976l0.00044,-3.00582c0,-0.72695 -0.30975,-1.38459 -0.8051,-1.8414c-0.07993,-0.94686 -0.31291,-1.92956 -0.21188,-2.86112c0.22793,-2.10156 1.39292,-7.16858 2.65253,-9.00561c0.79975,-1.16636 2.22853,-1.82333 3.00463,-3.00556c0.23786,-0.36234 0.42662,-0.70883 0.50578,-1.14209c-0.17481,2.30739 -0.24822,5.40345 0.419,6.35897c2.64108,3.78228 4.20088,1.33591 6.99275,1.77761z" data-paper-data="{&quot;noHover&quot;:false,&quot;origItem&quot;:[&quot;Path&quot;,{&quot;applyMatrix&quot;:true,&quot;segments&quot;:[[[221.5433,112.3097],[0,0],[-2.79187,-0.4417]],[[214.47537,110.46658],[2.64108,3.78228],[-0.66722,-0.95552]],[[214.06183,104.10144],[-0.17481,2.30739],[-0.07916,0.43326]],[[213.62664,105.31433],[0.23786,-0.36234],[-0.7761,1.18223]],[[210.62664,108.31433],[0.79975,-1.16636],[-1.25961,1.83703]],[[207.98128,117.30546],[0.22793,-2.10156],[-0.10103,0.93156]],[[208.19438,120.16175],[-0.07993,-0.94686],[0.49535,0.45681]],[[209.00001,122],[0,-0.72695],[0,0]],[[209.00001,125],[0,0],[-0.00407,0.06501]],[[209.45672,128.6903],[-1.42732,-0.38066],[1.2398,0.33065]],[[213.26778,129.23223],[-0.74978,-1.04128],[1.13244,1.57273]],[[214.00001,135],[-0.16306,-1.93115],[0.19987,2.36708]],[[214.9456,141.8916],[-0.40825,-2.27699],[0.01788,0.00923]],[[214.9994,141.91901],[-0.01798,-0.00905],[0.9961,0.50122]],[[218.1023,143.14497],[-1.06373,-0.33742],[0.63229,-1.09481]],[[220.59852,140.6682],[-1.12407,0.40798],[2.03475,-0.73853]],[[226.96042,141.9709],[-1.85735,-1.1117],[1.47147,0.88074]],[[229.8671,146.21584],[-0.76101,-1.5368],[0.07344,0.1483]],[[230.07484,146.77038],[-0.06534,-0.21619],[0.68917,-0.00397]],[[232.15635,146.64378],[-0.69641,0.06253],[1.02456,-3.20824]],[[239.33487,141.64351],[-4.51062,-1.50721],[3.49005,1.16619]],[[242.88184,146.50226],[-0.10231,-1.91106],[1.28841,-0.13129]],[[246.63265,145.65527],[-1.20152,0.46187],[0.53297,-0.20487]],[[248.20108,145.00471],[-0.5132,0.22825],[0.26474,-0.69716]],[[250.50002,143.49999],[-1.42088,0],[0.22506,0]],[[251.11624,143.55712],[-0.18636,-0.03687],[3.40537,-1.85493]],[[261.05001,137.51001],[-3.40999,1.97254],[-6.34377,-0.00526]],[[242.19456,136.48126],[6.21804,0.89947],[-0.32484,-0.04699]],[[233.48863,134.28627],[0.23601,0.10055],[-1.0146,-0.43226]],[[230.77555,132.39272],[1.04684,0.34697],[-0.94922,-0.31461]],[[227.77555,132.39272],[0.9447,0.32792],[-5.14656,-1.78647]],[[214.73224,121.76776],[3.73306,3.73305],[0,0]],[213.73224,120.76776],[[213.73224,117.23223],[-1.76777,1.76776],[1.76777,-1.76777]],[217.26777,117.23223],[[218.26777,118.23223],[0,0],[2.80804,2.80804]],[[226.88675,125.91987],[-3.27033,-2.25295],[0.16149,0.11125]],[[227.35485,126.28461],[-0.15185,-0.12944],[-0.22531,-0.37543]],[[227,124.99999],[0,0.46972],[0,0]],[227,120.31643],[[226.86424,119.81471],[0,0],[-0.33789,0.98071]],[[224.5,121.49999],[1.09546,0],[-1.38071,0]],[[222,118.99999],[0,1.38071],[0,0]],[[222,115.99999],[0,0],[0.07736,-1.23707]],[[221.54329,112.30969],[1.22426,0.19369],[0,0]]],&quot;closed&quot;:true,&quot;fillColor&quot;:[0,0,0],&quot;strokeWidth&quot;:0.5}]}" fill="#904300" stroke-width="0.25"/><path d="M300.09065,200.41853c5.511,0.91568 11.94111,0.12248 17.61026,0.04575c-0.45472,4.14597 -0.65833,8.33564 -0.65833,12.50952c0,0.768 0.05347,1.6336 0.1238,2.54906c-6.01609,0.4515 -12.02629,0.99171 -18.04022,1.53997c-0.09408,-0.326 -0.19876,-0.64818 -0.31686,-0.96551c-0.94323,-2.53435 -1.82561,-5.13058 -3.21024,-7.45338c-1.14671,-1.92366 -3.01914,-3.44735 -3.78209,-5.55291c-0.64866,-1.79016 -1.25848,-3.58411 -1.85469,-5.38091c1.32106,0.26244 2.6653,0.47766 4.11752,0.71167c2.08134,0.33539 3.93117,1.65118 6.01085,1.99673z" data-paper-data="{&quot;noHover&quot;:false,&quot;origItem&quot;:[&quot;Path&quot;,{&quot;applyMatrix&quot;:true,&quot;segments&quot;:[[[300.09954,200.46772],[0,0],[-2.07968,-0.34555]],[[294.09954,198.46772],[2.08134,0.33539],[-1.45222,-0.23401]],[[289.98778,197.75313],[1.32106,0.26244],[0.59621,1.7968]],[[291.84472,203.13263],[-0.64866,-1.79016],[0.76295,2.10556]],[[295.62663,208.68566],[-1.14671,-1.92366],[1.38463,2.3228]],[[298.84472,216.13263],[-0.94323,-2.53435],[1.06813,2.8699]],[[300.84758,225.09831],[-0.97055,-2.90435],[0.46623,1.3952]],[[302.81243,229.04988],[-0.57569,-1.35371],[1.65177,3.88405]],[[306.87172,241.20943],[-1.33226,-4.00674],[0.3579,1.07638]],[[307.81379,244.45537],[-0.28085,-1.08621],[0.66048,-3.63336]],[[311.25422,233.90163],[-1.67889,3.36443],[1.61703,-3.24046]],[[317.06689,224.42563],[-1.0301,3.56026],[0.90307,-3.12121]],[[317.00001,213.00001],[-0.00001,3.28085],[0,-4.17388]],[[317.67303,200.50579],[-0.45472,4.14597],[-5.66915,0.07673]],[[300.09954,200.46774],[5.511,0.91568],[0,0]]],&quot;closed&quot;:true,&quot;fillColor&quot;:[0,0,0],&quot;strokeWidth&quot;:0.5}]}" fill="#904300" stroke-width="0.25"/><path d="" data-paper-data="{&quot;noHover&quot;:false,&quot;origItem&quot;:[&quot;Path&quot;,{&quot;applyMatrix&quot;:true,&quot;segments&quot;:[[[300.09954,200.46772],[0,0],[-2.07968,-0.34555]],[[294.09954,198.46772],[2.08134,0.33539],[-1.45222,-0.23401]],[[289.98778,197.75313],[1.32106,0.26244],[0.59621,1.7968]],[[291.84472,203.13263],[-0.64866,-1.79016],[0.76295,2.10556]],[[295.62663,208.68566],[-1.14671,-1.92366],[1.38463,2.3228]],[[298.84472,216.13263],[-0.94323,-2.53435],[1.06813,2.8699]],[[300.84758,225.09831],[-0.97055,-2.90435],[0.46623,1.3952]],[[302.81243,229.04988],[-0.57569,-1.35371],[1.65177,3.88405]],[[306.87172,241.20943],[-1.33226,-4.00674],[0.3579,1.07638]],[[307.81379,244.45537],[-0.28085,-1.08621],[0.66048,-3.63336]],[[311.25422,233.90163],[-1.67889,3.36443],[1.61703,-3.24046]],[[317.06689,224.42563],[-1.0301,3.56026],[0.90307,-3.12121]],[[317.00001,213.00001],[-0.00001,3.28085],[0,-4.17388]],[[317.67303,200.50579],[-0.45472,4.14597],[-5.66915,0.07673]],[[300.09954,200.46774],[5.511,0.91568],[0,0]]],&quot;closed&quot;:true,&quot;fillColor&quot;:[0,0,0],&quot;strokeWidth&quot;:0.5}]}" fill="#904300" stroke-width="0.25"/><path d="M291.86738,193.56975c-1.26907,-0.2045 -2.47563,-0.69178 -3.67557,-1.1745c-0.21027,-0.64928 -0.42416,-1.30369 -0.63663,-1.95464c0.40232,-0.67467 0.40088,-1.41681 0.40088,-1.41681l-0.03616,-3.60885c0.33333,-1 0.87931,-1.96152 0.99816,-3.00889c0.0747,-0.65841 -0.61864,-1.30737 -0.43992,-1.94545c0.08744,-0.3122 0.75981,-0.04745 1.07188,0.04045c0.88998,0.25067 1.68524,0.82537 2.59946,0.9636c1.5206,0.22991 3.95726,0.17624 5.91515,-0.45568c0.4153,0.30723 0.83007,0.50049 1.38631,0.50049c1.38071,0 2.5222,-1.17093 2.5222,-2.55164l0.01528,-3.00648c-0.01052,-0.84686 0.12541,-1.68336 0.30032,-2.51534l0.77228,3.06959c0.25264,1.1133 1.28508,1.95948 2.47483,1.95948c1.1246,0 2.00198,-0.67515 2.31615,-1.69671l0.98812,-2.93911l-0.14271,-0.04728l0.23943,-0.34226c0.00452,-1.365 -0.14774,-2.73527 0.02184,-4.0897c0.15591,-1.24527 0.74191,-2.50737 0.98304,-3.73748c-0.21644,2.97461 -0.72026,7.11305 0.29543,9.23784c0.06074,0.12707 0.12519,0.25453 0.19033,0.37898l-0.0659,0.02626l1.8454,4.61368c0.35453,0.94948 1.17008,1.62758 2.24318,1.62758c1.38071,0 2.50032,-1.10977 2.50032,-2.49048l0.00234,-2.99007c-0.06344,-0.68109 -0.20757,-1.35351 -0.18776,-2.03727c0.00797,-0.27545 0.76447,-0.81535 0.75141,-0.54009c-0.08786,1.85069 -0.46682,3.70182 -0.46682,5.55459c0,4 -0.00933,8.03608 -0.00933,12.03608c0,0 -0.00142,1.93014 1.69212,2.39968c-0.07878,0.44156 -0.15655,0.88578 -0.22964,1.32835c-0.45145,0.22611 -0.73497,0.50972 -0.73497,0.50972l0.54511,0.1452c-0.00279,0.01765 0.06636,0.10477 0.06358,0.12242c-5.54893,0.01765 -12.04378,0.95693 -17.48354,0.04668c-2.07927,-0.34793 -3.94179,-1.65108 -6.01964,-2.00746c-0.98561,-0.16905 -2.01866,0.1546 -3.00592,-0.00449z" data-paper-data="{&quot;noHover&quot;:false,&quot;origItem&quot;:[&quot;Path&quot;,{&quot;applyMatrix&quot;:true,&quot;segments&quot;:[[[291.90047,193.53228],[0,0],[0.98726,0.15909]],[[294.90047,193.53228],[-0.98561,-0.16905],[2.07785,0.35638]],[[300.90047,195.53228],[-2.07927,-0.34793],[5.43976,0.91025]],[[318.34055,195.50026],[-5.54893,0.01765],[0.00278,-0.01765]],[[318.3489,195.44731],[-0.00279,0.01765],[0,0]],[317.73224,195.23224],[[318.46576,194.72406],[-0.45145,0.22611],[0.07309,-0.44257]],[[318.69354,193.39786],[-0.07878,0.44156],[-1.69354,-0.46954]],[[317.00001,191.00001],[0,0],[0,-4]],[[317.00001,179.00001],[0,4],[0,-1.85277]],[[317.47191,173.46178],[-0.08786,1.85069],[0.01306,-0.27526]],[[316.80972,173.95671],[0.00797,-0.27545],[-0.01981,0.68376]],[[317.00002,176],[-0.06344,-0.68109],[0,0]],[[317.00002,179],[0,0],[0,1.38071]],[[314.50002,181.5],[1.38071,0],[-1.0731,0]],[[312.1572,179.87441],[0.35453,0.94948],[0,0]],[310.32187,175.28609],[[310.38772,175.25975],[0,0],[-0.06514,-0.12445]],[[310.1988,174.88253],[0.06074,0.12707],[-1.01569,-2.12479]],[[309.92125,165.6582],[-0.21644,2.97461],[-0.24113,1.23011]],[[308.98129,169.30546],[0.15591,-1.24527],[-0.16958,1.35443]],[[308.96774,173.40045],[0.00452,-1.365],[0,0]],[308.72841,173.74279],[308.87173,173.79056],[[307.88996,176.73587],[0,0],[-0.31417,1.02156]],[[305.50002,178.49999],[1.1246,0],[-1.18975,0]],[[303.06198,176.5556],[0.25264,1.1133],[0,0]],[[302.2945,173.48568],[0,0],[-0.17491,0.83198]],[[302.00002,175.99999],[-0.01052,-0.84686],[0,0]],[[302.00002,178.99999],[0,0],[0,1.38071]],[[299.50002,181.49999],[1.38071,0],[-0.55624,0]],[[298.01466,181.01109],[0.4153,0.30723],[-1.95789,0.63192]],[[292.09956,181.46771],[1.5206,0.22991],[-0.91422,-0.13823]],[[289.50002,180.49999],[0.88998,0.25067],[-0.31207,-0.0879]],[[288.52812,180.46176],[0.08744,-0.3122],[-0.17872,0.63808]],[[288.96774,182.40044],[0.0747,-0.65841],[-0.11885,1.04737]],[[287.96774,185.40044],[0.33333,-1],[0,0]],[288.00002,188.99999],[[287.5977,190.41431],[0.40232,-0.67467],[0.21247,0.65095]],[[288.23132,192.36461],[-0.21027,-0.64928],[1.19994,0.48272]],[[291.90047,193.53227],[-1.26907,-0.2045],[0,0]]],&quot;closed&quot;:true,&quot;fillColor&quot;:[0,0,0],&quot;strokeWidth&quot;:0.5}]}" fill="#ff7900" stroke-width="0.25"/><path d="M207.65318,215.66622c1.45729,-0.80175 3.17565,-1.05112 4.63341,-1.852c6.0251,-3.31015 10.76402,-8.25737 17.63904,-10.24734c2.60613,-0.75435 6.83456,-0.06688 9.57438,-0.06688c0,0 2.5,0 2.5,2.5c0,2.5 -2.5,2.5 -2.5,2.5c-2.29715,0 -6.24402,-0.7481 -8.42562,-0.06688c-6.33723,1.97883 -10.74574,6.63668 -16.36096,9.75266c-0.24543,0.13619 -0.49841,0.25649 -0.75641,0.36619c-0.06852,-0.00215 -0.13704,-0.00429 -0.20555,-0.00642c-3.5326,-0.10975 -7.07325,0.12553 -10.60746,0.15623c1.49185,-1.0272 2.92926,-2.16636 4.50917,-3.03556z" fill="#000000" stroke-width="0.5"/><path d="M242.00001,114c0,-2.5 2.5,-2.5 2.5,-2.5h1c0.51274,0 1.64459,-0.16597 2.85143,-0.23806c-0.60349,-1.13584 -0.12661,-2.65785 -0.3327,-3.95649c-0.26547,-1.6728 -1.03967,-3.39132 -2.2865,-4.53769c0,0 -1.76777,-1.76777 0,-3.53553c1.76777,-1.76777 3.53553,0 3.53553,0c1.91301,2.01494 3.36633,4.70567 3.7135,7.46231c0.07908,0.62789 -0.87678,1.37352 -0.45316,1.84368c0.6306,0.69988 2.26839,-0.12171 2.73966,0.69401c1.05983,1.83444 2.23542,4.34868 1.26034,6.22954c-0.90459,1.7449 -9.12993,1.03822 -11.02811,1.03822h-1c0,0 -2.5,0 -2.5,-2.5z" fill="#000000" stroke-width="0.5"/></g></g></svg>