<svg version="1.1" xmlns="http://www.w3.org/2000/svg" xmlns:xlink="http://www.w3.org/1999/xlink" width="1024.94463" height="504.36075" viewBox="0,0,1024.94463,504.36075"><g transform="translate(258.5,51.03029)"><g data-paper-data="{&quot;isPaintingLayer&quot;:true}" fill="#000000" fill-rule="nonzero" stroke="none" stroke-width="0.5" stroke-linecap="butt" stroke-linejoin="miter" stroke-miterlimit="10" stroke-dasharray="" stroke-dashoffset="0" style="mix-blend-mode: normal"><path d="M355.87171,242.79057c-0.79057,2.37171 -3.16228,1.58114 -3.16228,1.58114l-2.60989,-0.90399c-1.108,-0.025 -2.27209,0.27397 -3.324,-0.07499c-2.90251,-0.96286 -3.74674,-2.1393 -5.76107,-2.64426c0.02424,0.75202 0.06318,1.50479 -0.01447,2.25153c-0.05547,0.53345 -0.84501,1.15296 -0.47189,1.53822c0.53584,0.55328 1.63381,-0.07424 2.28622,0.33515c1.14921,0.72114 2.20953,1.70488 2.86117,2.89488c0.57541,1.05078 -0.01313,2.5413 0.65881,3.53312c0.37081,0.54735 1.30418,0.21794 1.95626,0.32692l1.9772,1.60394c0,0 1.76777,1.76777 0,3.53553c-1.76777,1.76777 -3.53553,0 -3.53553,0l-0.0228,-0.39606c-1.34791,-0.55769 -3.0819,-0.57638 -4.04374,-1.67308c-1.34049,-1.52845 -0.71443,-4.56416 -2.48002,-5.572c-0.74837,-0.42719 -1.73565,-0.53145 -2.55251,-0.83774c-0.18686,0.30034 -0.3654,0.47888 -0.3654,0.47888c-3.21262,3.18729 -6.7641,5.7641 -10,9l-0.5317,1.35027c0,0 -0.01867,0.03735 -0.05602,0.09997l1.7262,0.17262l0.42179,0.13421l2.30108,0.16837l2.83227,1.46497l2.59337,0.82517l0.5477,-0.1391l0.993,0.15576h0.40454l3.90625,0.39063l1.77026,0.56327l0.29395,0.04611h1.02954l1.93443,0.19344l0.2446,-0.01545l0.86118,0.12602l0.86604,0.08661l0.23355,0.07431l1.92359,0.2815l0.46571,0.11643l0.07336,-0.01863l0.993,0.15576h0.40454l3.90625,0.39063l1.77026,0.56327l0.26439,0.04147l0.11383,-0.02846l1.8666,-1.12864l1.89833,-1.19894l4,-2l0.63148,-0.24057l0.77778,-0.63637l1.90357,-1.56364l3,-2l0.52673,-0.27983l0.47838,-0.35624l4.14387,-2.48633l5.63316,-4.02368l4.46798,-3.57439l0.91099,-0.59046l0.83888,-0.68908l0.94027,-0.62685l3.57422,-3.57422l-0.48881,-1.53628l-1.46497,-2.83227l-0.10227,-1.39772l-0.04393,-0.08492l-1.4742,-2.38821l-0.54192,-1.50962l-0.83769,-1.61953l-0.04583,-0.62641l-1.57461,-1.57461l-3.94027,-2.62685l-1.90357,-1.56364l-1.33582,-1.09295l-1.89311,-1.14467l-7.44487,-5.58365l-2.72968,-1.81978l-1.19531,-0.53583l-1.89749,-0.52604l-3.68989,-2.95191l-3.81878,-2.78318l-0.36403,-0.61189l-0.72745,-0.38646l-3,-2l-1.90357,-1.56364l-1.9066,-1.55994l-0.24957,-0.24957l-2.64523,-1.76349l-1.01875,-0.50938l-1.31448,-0.43816l-2.21895,-0.9947l-0.27598,-0.07934l-0.53477,-0.2841l-0.55256,-0.2477l-0.23207,-0.16914l-2.14747,-1.14085l-3,-2l-1.90357,-1.56364l-0.98863,-0.80889l-1.34744,-0.42873h-6.82346l-2.14216,1.4281l-0.24957,0.24957l-1.37219,1.1227l-1.30548,1.19962l-2.57864,1.93399l-1.99325,1.99325l-0.62685,0.94027l-1.56364,1.90357l-1.52894,1.8687l-0.17398,0.62758l-1.0876,1.3595l-1.18273,1.87266l-1.53228,1.57484l-1.27909,2.07214l-1.2894,2.49284l-1.01567,1.24138l-0.95775,1.55155l-0.90255,0.63546l-1.35364,1.35364l-0.58143,0.77524l-0.16129,0.32258l-0.67675,3.38373l-1.14911,3.75378l-0.3654,0.66028v0.68303l-0.19344,1.93443l0.01545,0.2446l-0.12602,0.86118l-0.08661,0.86604l-0.07431,0.23355l-0.2815,1.92359l-0.25356,1.01425v2.41702l0.59656,1.33079l0.2047,0.30705l0.72931,1.37283l0.83011,1.31433l0.18568,0.37136l1.13131,1.13131l1.55995,1.9066l0.10565,0.12862l1.45634,0.86642l1.87811,2.57693l2.28543,2.22367l0.45083,1.08201l0.2637,0.21575l0.13131,0.13131l0.37136,0.18568l3.31916,2.09632l0.06243,0.06075l0.07738,0.04003l0.60462,0.49469l1.24402,0.55766l1.50131,1.09417l1.65006,0.85348l0.4937,0.40393l1.04733,0.39898l2.32504,1.16252c0.06496,-0.53269 0.25855,-0.91988 0.25855,-0.91988l1.4683,-2.64973c3.22259,-3.22259 6.83786,-5.80792 10,-9c0,0 0.99964,-0.99964 2.24721,-0.74378c0.02336,-0.50472 0.05087,-1.00906 0.02056,-1.48846c-0.1066,-1.68557 -0.04989,-3.36934 0.00025,-5.04354c0.00052,-0.04391 0.00181,-0.08703 0.00386,-0.12939c0.00342,-0.11517 0.00679,-0.23029 0.01005,-0.34536c-2.91944,0.05592 -4.60722,3.14688 -6.7464,5.28606l-3.76777,0.73223c0,0 -2.5,0 -2.5,-2.5c0,-2.5 2.5,-2.5 2.5,-2.5l0.23223,0.73223c1.72942,-1.72942 4.59252,-5.64628 6.81106,-6.54193c1.04611,-0.42233 2.23018,-0.21561 3.3754,-0.18601c-0.12742,-1.24949 -0.36603,-2.48854 -0.7904,-3.71372c0,0 -0.08543,-0.2563 -0.11588,-0.62847c-0.36085,0.14704 -0.72712,0.26823 -1.11196,0.30563c-1.52206,0.14788 -3.25713,0.50345 -4.5801,-0.26354c-4.02992,-2.33632 -4.29798,-8.25581 -4.32036,-12.20418c0.03575,-1.24149 0.07152,-2.48297 0.10727,-3.72446l2.3126,-3.66229c0,0 0.59857,-0.89786 1.59909,-1.12055c0.00135,-0.87754 0.11538,-1.69596 0.71328,-2.26047c2.06279,-1.94761 7.39261,-0.2171 9.46673,0.36747c6.77857,1.91044 11.23806,4.58428 10.80103,12.4003c-0.0835,1.49322 0.37176,3.2269 -0.4719,4.46177c-0.76529,1.12016 -2.57186,0.93242 -3.71377,1.66485c-0.79359,0.50902 -1.17913,1.53625 -2,2c-1.19656,0.67601 -2.56804,0.88787 -3.96414,1.02477c0.01456,0.03717 0.02152,0.05803 0.02152,0.05803c0.91026,2.81556 1.11233,5.50277 1.1433,8.28115c1.44062,0.01737 2.3928,0.19848 4.58337,1.26363c0.96349,0.46849 1.61033,1.51242 2.62608,1.85306c0.84604,0.28372 1.784,-0.04999 2.676,-0.07499l3.39011,1.09601c0,0 2.37171,0.79057 1.58114,3.16228zM330.82646,212.43088l-0.93373,1.29359c0.03575,0.75851 0.07152,1.51703 0.10727,2.27554c-0.01355,1.94982 -0.26682,6.49692 1.67964,7.79582c1.27459,0.85055 2.90843,-1.01163 4.4199,-1.26354c2.12966,-0.35494 3.21291,0.56003 5.08613,-0.6589c0.79023,-0.51422 1.17208,-1.54895 2,-2c0.67636,-0.36848 1.75038,0.21813 2.28623,-0.33515c0.37312,-0.38527 -0.41523,-1.0049 -0.4719,-1.53823c-0.09156,-0.86173 0.14715,-1.74061 0.03228,-2.59955c-0.50418,-3.77007 -4.16318,-4.10989 -7.23125,-5.00016c-1.19144,-0.34572 -2.43929,-0.49869 -3.60649,-0.91903c-0.36681,-0.13209 -0.78987,-1.07855 -0.92678,-0.7135c-0.16778,0.44736 0.48816,0.82149 0.73224,1.23224c0,0 0,2.5 -2.5,2.5c-0.24837,0 -0.47206,-0.02468 -0.67354,-0.06913zM-123.5,182l-3.90625,-0.39062l-8.59375,-2.73437l-8.59375,-7.42187l-3.90625,-14.45312l1.8031,-6.67145l-11.17067,-0.32855h-18.02303l-40.22057,1.96198l-13.3563,0.83477l-2.03252,0.20325h-2l-1.70248,-0.17025l-0.66107,-0.02463l-0.27519,-0.06899l-1.2675,-0.12675l-2.83037,-0.90057l-4.37452,-1.09668l-0.66803,-0.50777l-0.72084,-0.22936l-3.07703,-2.65743l-4.57408,-3.4768l-0.22651,-0.66916l-0.71614,-0.61848l-2.00783,-7.42897l-1.84974,-5.4647l0.1605,-0.7855l-0.20918,-0.77396l1.50525,-5.56945l1.54051,-7.53974l0.67616,-0.66195l0.18432,-0.68199l4.3483,-3.75535l2.90527,-2.8442l0.70514,-0.27388l0.63504,-0.54845l4.29759,-1.36741l2.76867,-1.07537l1.25713,-0.20557l0.27035,-0.08602l0.65824,-0.06583l0.4253,-0.06954l5.91701,-1.97234l3.82932,-0.86469l0.08711,-0.00119l0.08301,-0.02642l3.90625,-0.39062h44.8184l0.7659,-2.39603l1.81717,-1.43062l0.33998,-0.53395l2.56401,-1.75229l4.20074,-3.30715l1.75392,-0.47152l2.5562,-1.0541l10,-3l1.14872,-0.22306l0.04133,-0.01716l1.3327,-0.24964l1.33101,-0.25845l0.04475,0.00075l1.15017,-0.21545l19.78251,-1.69564l-0.64748,-2.39569l3.90625,-14.45312l4.97817,-4.29933l-66.35603,-1.252l-0.38728,-0.04612l-0.38954,0.01938l-20,-1l-1.84524,-0.27817l-0.81258,-0.08126l-0.24633,-0.07838l-0.97773,-0.1474l-2.92572,-1.09461l-4.44396,-1.41399l-0.50797,-0.4387l-0.56882,-0.21282l-3.05199,-2.91424l-4.46498,-3.85612l-0.14839,-0.54904l-0.54704,-0.52236l-1.6663,-7.66701l-1.54451,-5.71471l0.16768,-0.62042l-0.13649,-0.62802l1.82797,-5.63045l2.04709,-7.57424l0.57245,-0.49439l0.17562,-0.54096l4.65197,-3.62833l3.19371,-2.7582l0.57874,-0.18414l0.52923,-0.41279l4.50903,-1.1903l2.97674,-0.94715l0.98388,-0.09839l0.24992,-0.06597l0.81563,-0.04058l0.3469,-0.03469l2.60422,-0.86807l1.23466,-0.2788l0.07102,-0.03161l1.26345,-0.26972l1.26018,-0.28456l0.07774,-0.00106l1.23785,-0.26426l27,-3l0.65042,-0.00714l0.64231,-0.10262l65.21462,-3.83615l0.24499,-1.22497l0.7185,-0.70926l0.19618,-0.72588l4.30943,-3.72178l2.8569,-2.82016l0.74999,-0.29488l0.67742,-0.58505l4.24883,-1.3519l2.71658,-1.06813l1.35483,-0.22732l0.27351,-0.08703l0.60684,-0.06068l1.63644,-0.27457l15,-1l0.51295,0.01699l0.50921,-0.06414l39,-1l0.13687,0.01015l0.13634,-0.01566l47.49407,-0.69845l32.56299,-8.49469l1.80034,-0.28226l1.78268,-0.37807l82,-9l0.23418,-0.00226l0.22995,-0.0443l88,-8l0.35429,0.00319l0.34965,-0.05718l96,-6l0.42935,0.016l0.42616,-0.05477l71,-2l0.12908,0.00924l0.12851,-0.01517l55.79235,-0.99629l28.79244,-0.99284l0.43139,0.02816l0.43016,-0.04301h8l1.26171,0.12617l1.61062,-0.15646l10.82252,3.43653l1.8694,2.36515l5.5295,4.77548l0.91195,3.3742l0.97293,1.23095l0.70739,4.98625l1.31399,4.86173l-0.40937,1.51468l0.49095,3.46061l-3.06114,6.28007l94.44245,1.74893l0.1091,0.01295l0.10958,-0.00795l110,3l0.48886,0.06239l0.49255,-0.01631l30,2l3.87162,0.6496l0.5433,0.21362l2.10826,0.25385l3.11067,1.79817l2.6306,1.03432l1.18889,1.1736l2.90054,1.67671l1.10733,2.27962l2.88426,2.84716l1.05073,5.25363l1.4993,3.08655l-0.2426,3.19692l0.62877,3.14386l-1.11365,3.24569l-0.40541,5.34231l-2.51743,3.17613l-0.8225,2.39715l-2.67564,2.01631l-1.03768,1.3092l-2.48564,1.34591l-2.86946,2.16237l-2.06187,0.50782l-0.51337,0.27797l-3.76416,1.11463l-21,4l-0.57843,0.05136l-0.56384,0.13892l-56,8l-0.94921,0.04011l-0.93704,0.15669l-121,8l-0.55428,-0.01866l-0.32605,0.48907l-0.63079,1.54192l-0.90885,0.6059l-0.97807,1.1907l-0.76069,1.17154l23.67098,1.10098l0.45488,0.06695l0.45972,-0.0076l48,4l3.86032,0.71368l5.6577,2.33352l2.85897,0.77269l3.75113,4.34341l4.0169,4.09888l0.5326,2.91326l1.85562,5.83195l0.39063,3.90625v2l-0.39062,3.90625l-1.12868,3.54729l-0.36841,3.48546l-1.19053,1.41406l-0.04675,0.14695l-3.06038,3.54359l-3.01558,3.58179l-0.13771,0.06938l-1.20821,1.39898l-3.38347,0.91445l-3.32442,1.67494l-3.79547,1.00287l-25,4l-0.52001,0.03071l-0.50873,0.11204l-68,8l-0.88708,0.01547l-0.87778,0.12902l-0.80061,0.03706l0.47896,1.50531l1.87078,4.54332l-0.02402,1.75376l0.31873,3.1873v2l-0.05935,0.59349l0.03106,0.59564l-1,21l-0.31825,2.14561l-0.26321,2.15306l-4.39025,19.51219v7.78378l0.45313,0.12247l2.53602,2.93644l2.14843,1.19877l1.56498,3.10098l1.17244,1.35756l0.83144,2.61308l1.54713,3.06561l0.14158,2.24178l0.21423,0.67328l0.39063,3.90625v3l-0.39062,3.90625l-0.07024,0.22078l-0.00584,0.23161l-0.90864,3.81913l-2.33885,6.7567l-2.03223,8.12893l-0.38769,1.07998l-0.26941,1.11539l-7,20l-0.19246,0.41273l-0.12293,0.43849l-9,23l-0.5165,1.01015l-0.40389,1.06021l-11,22l-0.37136,0.58799l-0.28324,0.63515l-0.86996,1.52241l-7.80649,17.88989l32.68203,2.24289l0.40292,0.06841l0.40869,0.00059l69,7l0.87235,0.17754l0.8879,0.0645l22.6269,3.93511l6.6251,0.94644l0.24107,0.05939l1.16445,-0.01595l1.83112,0.75399l0.5751,0.14169l1.33535,0.64496l6.75819,2.78278l1.28944,1.94378l6.19548,7.11333l0.33506,2.7312l0.45629,0.68786l0.33191,5.7372l0.69975,5.70403l-0.32589,0.75839l0.15892,2.74709l-4.82308,8.10686l-0.92093,2.1431l-6.15138,3.94683l-1.19843,0.87344l-0.54048,0.24228l-1.66671,1.06939l-1.14852,0.19261l-0.22656,0.10156l-3,1l-1.52992,0.34547l-0.15393,0.06563l-1.07585,0.21206l-1.06962,0.24153l-0.16732,0.00229l-1.53883,0.30332l-21,2l-1.18805,-0.0056l-1.18217,0.11822h-132l-0.33732,-0.03373l-0.33811,0.02461l-0.37053,-0.01002l-5.97278,17.17174l-1.7277,6.91079l-0.47625,1.32669l-0.01909,0.12171l-0.42637,1.11922l-0.40465,1.12725l-0.06471,0.10483l-0.5018,1.31724l-1,2l-1.0908,1.7271l-1.57795,3.40412l-2.87754,1.73374l-2.83897,2.91783l-6.49642,2.70684l-0.61097,0.36812l-0.28222,0.00405l-3.09195,1.28832l-5.7401,-1.16169l-5.85588,0.08396l-2.80158,-1.83606l-0.27664,-0.05599l-0.53267,-0.47441l-5.88631,-3.8577l-2.25262,-3.39104l-2.50874,-2.23435l-0.92359,-3.63662l-0.75383,-1.89854l-0.73176,-2.56118l-0.24489,-0.32651l-40.00524,-23.67658l-22.65884,-2.34402l-30.71169,-0.95974h-86.31189l-41.64304,0.9915l-34.46562,0.98474l-29.52594,1.9684l-0.83333,-0.0276l-0.82964,0.08297h-82l-1.45699,-0.1457l-1.46403,-0.02554l-16.78349,-1.97453l-29.78307,-2.97831l-3.848,-0.77738l-0.56654,-0.2447l-0.60966,-0.09564l-0.14015,-0.05338l-0.95766,-0.00358l-1.20195,-0.81914l-1.36879,-0.52144l-2,-1l-1.0946,-0.69133l-0.33967,-0.14671l-0.16027,-0.16904l-1.72463,-1.08924l-3.22552,-3.13833l-1.25639,-0.85625l-0.32531,-0.68271l-1.65642,-1.61165l-1.24565,-2.98955l-39.42126,-0.99382l-0.04702,-0.0059l-0.04727,0.00335l-69,-2l-0.41598,-0.05381l-0.41915,0.01562l-31.87729,-1.99233l-18.87722,-0.99354l-0.47196,-0.07241l-0.47746,0.0043l-11,-1l-3.85484,-0.74268l-1.88039,-0.79217l-1.28614,-0.15058l-1.18475,-0.89035l-3.95962,-1.6681l-4.59848,-4.76344l-2.2258,-1.67272l-0.33918,-0.98427l-0.72306,-0.749l-0.48012,-2.74257l-2.15705,-6.25968l0.31104,-4.28537l-0.25556,-1.45981l0.44965,-1.21435l0.14771,-2.03508l1.08806,-3.77193l0.60609,-1.51524l-0.0653,-0.9212l1.41139,-2.44402l0.04782,-0.11955l1.81343,-3.48179l0.73254,-0.89018l1.67334,-2.89762l1.8533,-1.38792l1.47125,-1.78785l2.97115,-1.53901l0.92276,-0.69105l3.56112,-1.65223l0.12161,-0.0423l2.50604,-1.29809l0.91725,0.10739l19.4551,-6.767l2.18213,-0.52261l2.17147,-0.56527l31.36419,-4.90065l0.19837,-0.99187l5.10475,-7.43444l0.99171,-0.94392l1.28989,-2.04619l2.12867,-0.93497l5.52058,-4.29379l0.25003,-0.33839l0.75083,-0.44007l0.91187,-0.70923l3.32322,-2.08986l1.4559,-0.53638l1.33859,-0.78455l3.72428,-1.24142l1.12684,-0.25445l0.81663,-0.30086l0.4202,0.02158l28.63634,-6.46627l1.30319,-0.16033l1.2823,-0.28241l63.62009,-7.48472l-0.39131,-1.44782l-0.66844,-1.05836l-1,-2l-1.39754,-3.66855l-0.49996,-3.18723l-1.28869,-3.23082l0.45498,-2.08411l-0.06387,-0.40718l1.08802,-4.28409l0.94275,-4.31838l0.23922,-0.33563l0.5251,-2.06756l2.59751,-2.31341l1.87255,-2.62715l2.89063,-2.65625l4,-3l3.35938,-2.03125l0.08226,-0.02868l0.0704,-0.05131l3.58226,-1.60584l6.87643,-2.29214l-1.48252,-0.23256l-3.66855,-1.39754l-0.36183,-0.18091l-0.95782,-0.30477l-0.47892,-0.4136l-0.20143,-0.10072l-3.31916,-2.09632l-6.46363,-6.28894l-4.36733,-10.48157l2.96978,-14.67419l9.95749,-11.18034l10.07144,-2.55783l0.07038,-0.08149z"/></g></g></svg>