<svg version="1.1" xmlns="http://www.w3.org/2000/svg" xmlns:xlink="http://www.w3.org/1999/xlink" width="575.70337" height="471.99202" viewBox="0,0,575.70337,471.99202"><g transform="translate(48.40576,67.50676)"><g data-paper-data="{&quot;isPaintingLayer&quot;:true}" fill-rule="nonzero" stroke="none" stroke-width="0.5" stroke-linecap="butt" stroke-linejoin="miter" stroke-miterlimit="10" stroke-dasharray="" stroke-dashoffset="0" style="mix-blend-mode: normal"><path d="M-36.24999,-2c0,-4.59847 1.24155,-8.90697 3.40772,-12.60856l0.49853,-1.84456l2.13544,-1.84425c1.6159,-1.87802 3.50609,-3.51328 5.60838,-4.8436l0.84993,-0.73403l0.94747,-0.30147c3.45536,-1.80371 7.38485,-2.82353 11.55253,-2.82353h1.24257l0.21906,-0.06636l0.59988,0.06636h1.93849l3.90625,0.39063l1.23296,0.39231l1.28603,0.14226l3.72822,1.22952l1.25458,0.55759l1.50092,-2.168l15.95043,-27.20956l0.2656,-0.83474l1.30362,-1.50946l1.31639,-1.8059l1.08995,-0.98039l3.71191,-4.298l1.52447,-0.41202l0.37863,-0.34057l10.74886,-3.66042l8.12462,2.21581l8.12967,2.19721l7.42188,8.59375l0.15441,0.48529l1.10679,1.1264l1.02867,5.58506l0.4445,1.39699l0.22237,2.22367l0.36127,1.96147l-0.19301,0.85444v3.29878l0.58632,12.89908l6.32902,-7.47975l0.74796,-0.72364l0.65902,-0.80547l8,-8l0.28287,-0.23144l0.8475,-1.08964l1.49644,-0.82813l0.41154,-0.33672l3.01381,-1.55887l2.96882,-1.64294l0.50845,-0.15565l1.51912,-0.78575l1.37674,-0.10074l0.34948,-0.10698l5,-1l2.45169,-0.24036l2.45122,-0.24512h3.03228l0.09539,-0.03029l0.3118,0.03029h2.56053l3.90625,0.39063l1.07482,0.34199l1.12263,0.10906l3.74428,1.17971l2.3535,1.00864l0.29852,0.09498l0.07574,0.06541l3.99205,1.71088l19.03486,7.61394l0.43493,0.14498l3.15452,-0.26288l1.52313,-0.60925l3.77194,-1.08806l0.8216,-0.05963l0.78498,-0.24977l3.90625,-0.39062h4l2.05208,0.20521l2.05789,0.13494l3.3529,0.55882l0.27057,-0.03382l0.65309,0.18776l1.72345,0.28724l3.78888,1.02749l1.20294,0.6159l1.29883,0.37341l3.46688,1.84178l1.45377,0.96918l0.60487,0.3097l0.17426,0.20972l3.841,2.56067l2.1529,-0.96509l9,-3l3.82932,-0.86469l0.08711,-0.00119l0.08302,-0.02641l3.90625,-0.39062h6l1.24556,0.12456l2.2483,-0.45501l5.98941,2.49559l3.01673,0.95987l0.23349,0.20165l3.26651,-0.32665h2.56053l0.3118,-0.03029l0.09539,0.03029h9.03228l3.90625,0.39063l0.78498,0.24977l0.8216,0.05963l1.6581,0.4783l2.2818,-1.2122l0.36693,-0.3268l0.40097,-0.08115l0.37874,-0.20121l8.66719,-2.49182l2.63393,0.32924l2.59336,-0.52485l2.91091,1.21288l3.12914,0.39114l1.99127,1.74236l2.45024,1.02094l6.28894,6.46363l0.22901,0.36261l0.30788,0.26939l0.15645,0.46579l0.42142,0.66725l8.58979,-8.58979l11.661,-12.63275l2.18708,-1.94042l0.172,-0.19519l0.2988,-0.22251l0.27868,-0.24725l0.22612,-0.12867l2.34501,-1.74628l4.527,-2.7162l0.8354,-0.72148l1.73751,-0.55284l1.45065,-0.68427l2.73114,-0.6463l2.67445,-0.85096l1.59598,-0.1596l1.77434,-0.41988l1.08754,0.18885h2.44839l3.90625,0.39063l1.25348,0.39884l2.94239,-0.04218l2.90167,1.90166l1.4962,0.47606l2.42233,2.09202l2.67699,1.75441l0.55156,0.83031l2.9125,-0.0553l3.10154,1.73057l5.28819,1.42924l2.53602,2.93644l2.14844,1.19876l1.56498,3.10098l1.17244,1.35756l0.83143,2.61308l1.54713,3.06561l0.04605,0.7292l7.15803,-5.85657l4.56094,-5.3211l1.01929,-0.97365l0.0715,-0.10032l0.88189,-0.81038l0.86606,-0.82728l0.10476,-0.06482l1.03792,-0.95376l4,-3l1.07118,-0.64769l1.52563,-1.71299l6.28888,-1.59718l2.98931,-1.04214l0.8762,0.06043l0.85126,-0.21619l3.12751,0.49059l6.47315,0.44642l1.80745,1.41245l1.16976,0.44562l1.43623,0.71812l1.86746,0.32692l7.54517,7.28387l2.62705,-2.85885l7.34375,-5.23437l11.09375,-2.42187l3.02578,1.20691l1.00547,-3.16004l7.42188,-8.59375l14.45313,-3.90625l14.45313,3.90625l7.42188,8.59375l2.73438,8.59375l0.39063,3.90625v8l-0.24512,2.45122l-0.24036,2.45169l-3,15l-0.53257,1.73971l-0.4384,1.76579l-5,14l-0.80758,1.7035l-0.72419,1.74059l-0.85025,1.57904l-0.42346,1.69385l-0.06306,0.73575l0.20559,0.71955l1.09484,0.45618l2.55597,2.62697l1.14627,0.6585l0.72881,1.26868l1.85788,1.90949l2.09631,3.31916l0.10071,0.20143l0.41361,0.47891l0.30476,0.95783l0.18092,0.36183l1.39754,3.66855l0.03442,0.21945l0.34279,0.59671l-0.07733,1.05683l0.55127,1.73255l0.39063,3.90625v0.40454l0.15576,0.993l-0.15576,0.61332v10.98913l-0.08296,0.82965l0.02759,0.83333l-1,15l-0.5634,3.35785l-0.00992,0.16754l-0.04692,0.17118l-0.02937,0.17504l-0.06141,0.15619l-0.89998,3.28369l-4.96229,12.90196l-1.50145,4.00386l0.74748,0.59798l0.98924,0.96773l1.07106,0.87632l7,7l0.60868,0.74394l0.69507,0.66394l6,7l1.44897,2.07776l0.37088,0.32452l0.13433,0.39992l0.2914,0.41786l3.51665,8.30437l-0.00965,2.58663l0.83423,2.48374l-0.85501,3.08414l-0.01194,3.20044l-1.47554,2.16511l-0.69103,2.49264l-5.63367,7.04209l-0.39365,0.32336l-0.21656,0.31777l0.70166,0.43853l0.27488,0.07621l0.54627,0.43701l1.43636,0.89772l3.10546,2.40156l0.88569,1.04273l1.06831,0.85465l2.49182,3.03352l0.68279,1.02418l1.60971,1.3902l0.62509,2.31284l0.92419,1.73966l2.49182,8.66719l-0.1908,1.52642l0.05595,0.20702l-0.15224,0.56328l-1.12133,8.97063l-1.88559,2.15496l-0.7471,2.76426l-6.84202,5.90902l-0.38423,0.43912l-0.20328,0.06828l-1.16422,1.00546l-4.28395,1.36307l5.46918,6.15283l1.86918,2.58l1.32059,1.5291l1.18736,3.73171l1.59177,3.57795l0.02886,2.02021l0.31701,3.17013v2l-0.21276,2.1276l0.02908,2.03593l-0.56129,0.85635l-2.38004,7.48012l-0.36879,0.42702l-0.37364,1.38248l0.08221,0.25838l0.67147,0.89718l1.24327,5.1206l0.47985,1.5081l0.07961,0.79613l0.87641,3.60963l-0.5654,1.5192v1.9813l-0.39062,3.90625l-0.86294,2.7121l-0.22782,3.41728l-1.45453,1.87011l-0.18908,0.59426l-2.74724,3.18101l-1.3767,1.77004l0.22256,3.33844l1.35683,6.70436l-4.36732,10.48157l-1.85739,1.80719l-1.25611,2.52666l-2.77252,1.56894l1.1348,2.83701l0.31521,1.09272l0.18996,0.28635l0.02693,0.46553l0.55596,1.92734l0.65284,8.99462l-0.49401,1.43361l0.12297,2.12562l-0.44218,0.74324l2.52481,2.52481l4.16319,2.60199l0.67241,0.21395l1.05271,0.90916l2.80273,2.16744l0.80689,0.94995l3.93143,3.39532l0.48883,1.80867l0.61113,0.71948l3.3539,10.84842l-2.34602,7.73069l-2.10784,7.799l-8.59375,7.42188l-0.89956,0.28622l-1.37312,1.27467l-5.13336,0.79558l-1.18771,0.37791l-3.52545,0.35254l-1.37455,0.21303l-0.6836,-0.17495h-1.32265l-2.2341,-0.22341l-2.23803,-0.17984l-0.47921,-0.08713l0.08678,1.18601l-2.6524,4.61715l-1.38928,5.14035l-3.10335,2.68017l-0.31273,0.54437l-0.94856,0.54492l-4.22911,3.65241l-4.77171,1.51827l-3.03266,1.74216l-3.49366,-0.25563l-1.20197,0.1202h-2l-3.90625,-0.39062l-0.08302,-0.02641l-0.08711,-0.00119l-3.82932,-0.86469l-2.08915,-0.69638l-6.60422,-1.65105l-2.90094,2.50536l-1.33597,0.42508l-1.63012,1.42635l-4.69857,0.58732l-0.92909,0.29562l-3.90625,0.39063h-0.65462l-1.07882,0.13485l-0.46905,-0.13485h-0.79751l-3.90625,-0.39062l-0.52594,-0.16734l-0.55121,-0.02798l-3.79469,-1.00582l-7.34574,-2.75465l-15.33305,-4.79158l-0.89414,-0.38073l-0.93375,-0.26935l-2.2876,-0.91504l-0.46909,0.8407l-4.98277,2.51467l-0.79543,0.70843l-1.01557,0.20553l-3.34345,1.68735l-7.25957,0.4585l-3.0556,0.6184l-2.60707,-1.08628l-3.96247,-0.99062l-2.47639,-0.88896l-0.27832,-0.05964l-0.46302,-0.20648l-0.47716,-0.17129l-0.24221,-0.14951l-2.403,-1.07161l-7,-4l-0.9335,-0.66477l-0.99958,-0.56051l-5.84779,-4.09346l-0.43378,1.05347l-4.43723,2.94351l-3.54145,3.97636l-3.97433,1.00935l-0.52316,0.34705l-1.09211,0.06318l-5.41604,1.3755l-4.94694,-0.77599l-3.49161,0.20199l-3.0105,-1.79106l-1.12883,-0.43003l-2,-1l-3.31916,-2.09631l-0.06244,-0.06075l-0.07738,-0.04002l-3.03835,-2.48592l-5,-5l-0.60868,-0.74394l-0.69507,-0.66394l-1.55739,-1.81696l-4.00807,4.64092l-5.74494,1.55269l-0.29996,1.13165l-2.8375,7.56666l-0.85365,2.56095l-1.60584,3.58227l-2.22236,3.04928l-1.45821,3.18702l-1.55504,0.94744l-0.07603,0.10432l-4.04573,2.40695l-4.02018,2.44938l-0.12776,0.01838l-1.56492,0.93103l-3.49893,-0.20242l-3.73473,0.53737l-3.91732,-0.25687l-6,-1l-1.88779,-0.51194l-1.90793,-0.43082l-9,-3l-2.02319,-0.90695l-2.04242,-0.86275l-11,-6l-0.42532,-0.29036l-0.46577,-0.2197l-10,-6l-0.70618,-0.52588l-0.76798,-0.43064l-2.11068,-1.47747l-4.09554,6.82589l-1.07536,2.61159l-2.59791,1.72337l-5.4575,4.80908l-3.55732,1.17104l-0.86345,0.57278l-1.06339,0.06152l-5.30149,1.74521l-4.21145,-1.19488l-4.37037,0.25283l-4.51807,-2.68797l-1.90283,0.60545l-1.73555,1.10755l-3.62956,0.59952l-1.26673,0.40305l-0.35703,0.0357l-0.85359,0.49036l-2.18128,-0.15961l-2.91504,0.4815l-1.38337,-0.63574l-2.12219,-0.21222l-0.4218,-0.13421l-2.30108,-0.16837l-2.83227,-1.46497l-3.0386,-0.96683l-1.74617,-1.50805l-0.39315,-0.20336l-3.03835,-2.48592l-2,-2l-0.00437,-0.00534l-1.41171,-1.21921l-0.20419,-0.75549l-1.50332,-1.83013l-3.33829,-5.00743l-0.10223,0.65172l-1.39754,3.66855l-0.18092,0.36183l-0.30476,0.95783l-0.41361,0.47891l-0.10071,0.20143l-0.13258,0.20992l-0.3531,1.10974l-1.29435,1.49872l-0.31628,0.50078l-1.03414,1.06286l-4.7771,5.53138l-2.25179,0.60859l-8.70748,3.62811l-2.69701,-0.54582l-0.79685,0.21537l-5.54774,-1.49939l-5.6326,-1.13993l-0.61641,-0.54899l-2.65637,-0.71794l-6.16566,-7.13919l-1.74189,-1.55137l-0.52148,-2.05333l-4.25992,5.5379l-2.70138,4.72742l-0.28154,0.88483l-1.35466,1.56856l-1.09146,1.53269l-1.12892,1.03827l-3.84684,4.45423l-1.41086,0.38131l-0.25118,0.23102l-10.70769,3.77918l-1.97376,-0.51489l-0.10964,0.02963l-6.19451,-1.67419l-6.20897,-1.61973l-0.08049,-0.08012l-1.96916,-0.53221l-7.37334,-8.53755l-0.13152,0.0926l-4.25333,3.53402l-0.89153,0.08838l-0.99155,0.69813l-7.4838,0.1421l-5.53178,0.54841l-0.93042,-0.42571l-1.023,0.01942l-4.85437,-2.7086l-6.80651,-3.1143l-0.63096,-1.03559l-0.78235,-0.43653l-2.4915,-4.93686l-2.00328,-3.28799l-0.13716,-0.95324l-0.48405,-0.95914l-0.27073,-4.28661l-0.39243,-2.72736l0.11215,-1.71031l-0.01744,-0.27606l0.06439,-0.44l0.09777,-1.49094l0.55832,-3.3499l-5.35159,-1.44638l-7.42187,-8.59375l-0.69647,-2.18892l-1.64728,-2.10795l-0.04888,-0.70873l-8.23237,-2.61939l-0.42702,-0.36879l-1.52611,-0.41246l-3.07736,-3.56326l-3.56326,-3.07736l-0.41246,-1.52611l-0.36879,-0.42702l-2.73437,-8.59375l-0.39062,-3.90625v-2l0.1377,-1.377l0.01521,-1.38379l1,-9l0.25296,-1.18491l0.13039,-1.20457l4,-19l0.39146,-1.23409l0.27157,-1.26588l5.19132,-16.15079l-0.18201,-0.07584l-5.42589,-1.86973l-1.77922,-2.36751l-1.77602,-1.82536l-0.51843,-0.22278l-0.58414,-0.91042l-1.38925,-1.42784l-2.09631,-3.31916l-1,-2l-0.22881,-0.60063l-0.83342,-1.29894l-0.26627,-1.58775l-0.06904,-0.18123l-0.55931,-3.5656l-0.59693,-3.55949l0.00819,-0.19377l-0.24949,-1.59048l0.37989,-1.49583l0.02713,-0.64216l1,-7l0.53711,-2.18005l0.49454,-2.19011l3,-9l0.37413,-0.83461l0.26603,-0.87508l5,-12l0.62063,-1.15117l0.5089,-1.20474l6,-11l0.62559,-0.91635l0.52054,-0.97985l3.44841,-5.17261l0.38971,-0.93531l1.24782,-1.2141l1.40587,-1.7115l1.98656,-1.58925l1.82338,-1.7741l1.0262,-0.64813l1.02018,-1.18126l0.00318,-0.00086l-0.80028,-0.80028l-1.47404,-0.67444l-1.93267,-3.17211l-0.50665,-0.61924l-0.72708,-1.40569l-2.74168,-4.49993l-0.1596,-1.10921l-0.51484,-0.99536l-0.38454,-5.25532l-0.22539,-1.56646l0.05235,-0.79838l-0.27107,-3.70459l0.80746,-1.40558l0.66813,-4.00876l0.87295,-3.219l0.02868,-0.18282l0.07254,-0.19041l0.05333,-0.19666l0.08434,-0.16472l1.18734,-3.11676l0.86861,-1.73722l0.066,-0.35525l0.44649,-0.66974l0.61889,-1.23778l2.09631,-3.31916l1.02524,-1.05371l0.81551,-1.22326l2.80625,-2.74524l1.08063,-0.86451l0.56132,-0.57691l0.33354,-0.13897l3.02451,-2.41961l0.31564,-0.20458l-5.69826,-4.2737l-0.79028,-0.72621l-0.00782,-0.00465l-1.04563,-0.96339l-1.04689,-0.96201l-0.00528,-0.00741l-0.78933,-0.72725l-8,-9l-1.23108,-1.69924l-1.28364,-1.65989l-3.49066,-5.58505l-1.40314,-1.2118l-0.58956,-2.18136l-1.25571,-2.54132l-2.23593,-8.7367l1.73906,-11.22107l1.69292,-1.82367l0.64922,-2.40213l3.0335,-2.61984l-2.34339,-3.67212l-0.95704,-1.07457l-0.12599,-0.62255l-1.12013,-1.75525l-1.85053,-11.20323l0.24168,-0.5259l-0.1148,-0.56727l3.97183,-9.53239l-0.3715,-0.30571l-0.03491,-0.0674l-1.32871,-1.14752l-0.80117,-2.96433l-3.05789,-5.90343l0.442,-3.77538l-0.48919,-1.80998l1.23686,-4.57636l0.55123,-4.7084l1.12641,-1.49885l0.98438,-3.64221c-1.22353,-2.9489 -1.89887,-6.18267 -1.89887,-9.57418zM53.26862,56.03563l-3.44619,4.43081l0.36838,0.15169l1.72337,2.59791l4.80908,5.4575l1.17104,3.55732l0.57278,0.86345l0.06152,1.06339l1.74521,5.30149l-1.19488,4.21145l0.25283,4.37037l-2.85371,4.79666l-0.29074,1.02473l-0.74645,0.71864l-1.91485,3.21857l-5.87846,4.2843l-1.2908,1.24269l4.55816,2.80502l13.01541,6.50771l0.20992,0.13258l1.10974,0.3531l1.49872,1.29435l0.50078,0.31628l1.06286,1.03414l5.53138,4.7771l0.60859,2.25179l3.62811,8.70748l-0.54582,2.69701l0.21537,0.79685l-1.49939,5.54774l-1.13993,5.6326l-0.54899,0.61641l-0.71794,2.65637l-1.65953,1.43323l0.28224,1.11132l0.71944,0.775l0.81824,5.2796l0.90163,3.55018l-0.03654,0.23296l0.99905,1.15679l1.65776,1.20819l1.36017,2.28625l1.7388,2.01335l0.62197,1.95475l2.0848,3.50424l-0.1492,2.57907l0.17681,0.55569l0.39063,3.90625v8l-0.39062,3.90625l-0.288,0.90513l-0.07832,0.94661l-1.1261,3.76075l-7,17l-1.09186,2.04567l-1.064,2.0603l-13,20l-0.92812,1.15705l1.69162,0.97178l3.69729,1.15492l1.86183,2.03862l2.39396,1.37525l1.92947,3.35871l3.91112,4.2825l0.49744,3.39167l1.11973,1.94916l-0.27754,3.79304l0.30814,2.10097l-0.63841,2.41269l-0.22083,3.01805l-1.18289,2.28691l-0.26476,1.00058l-1.76761,3.50527l-6.74056,10.5923l-4.72112,8.09335l2.4098,1.10745l3.99597,0.2664l4.93366,3.83729l1.03532,0.47579l0.50949,0.72573l2.48465,1.93251l4.19938,7.58834l0.2139,0.30468l1.72047,-1.14698l0.32277,-0.17147l1.04473,-0.90227l1.62979,-0.51857l0.46958,-0.24947l3.26101,-0.93754l3.23337,-1.0288l0.5291,-0.05291l1.64371,-0.47257l1.36976,0.17122l0.36368,-0.03637h2l3.88045,0.38804l2.24592,-0.21357l4.0518,2.21176l2.32183,0.73876l1.66368,1.43681l1.92948,1.05325l0.59696,0.75844l0.60612,-0.43913l0.20426,-0.19874l0.54627,-0.34501l0.52322,-0.37907l0.26038,-0.11584l1.98929,-1.25639l4.20143,-2.10071l0.47891,-0.41361l0.95783,-0.30476l0.36183,-0.18092l3.66855,-1.39754l1.83527,-0.28789l1.77027,-0.56327l0.35703,-0.0357l0.85359,-0.49036l2.33873,0.17113l0.3569,-0.03569h0.40454l0.993,-0.15576l0.62038,0.15756l3.88833,0.38883l0.4218,0.13421l2.30108,0.16837l2.83227,1.46497l3.0386,0.96683l1.74617,1.50805l0.39315,0.20336l3.03835,2.48592l2,2l0.00437,0.00534l1.41171,1.21921l0.2043,0.75593l0.86554,1.05788l0.04002,0.07738l0.06075,0.06244l2.09631,3.31916l3,6l0.307,0.80587l0.40924,0.75908l0.68981,1.65556l2.60414,-1.34697l0.56272,-0.04117l1.37077,-0.78747l4.69563,0.34358l4.69563,-0.34358l1.37077,0.78747l0.56272,0.04117l0.29446,0.15231l0.45904,-0.36723l0.32883,-0.21313l0.28854,-0.26515l4,-3l3.35938,-2.03125l0.08226,-0.02868l0.0704,-0.05131l3.58227,-1.60584l3,-1l3.82932,-0.86469l0.08711,-0.00119l0.08302,-0.02641l3.90625,-0.39062h2.00561l0.99439,-0.19456l1.70236,0.36479l2.20389,0.22039l2.42428,0.77136l2.48757,0.53305l2.02286,0.90208l1.65905,0.52788l0.76685,0.66228l6.13662,3.50664l0.9335,0.66477l0.99958,0.56051l9.27974,6.49582l4.88154,2.92892l0.84232,-5.05391l0.87295,-3.219l0.02868,-0.18282l0.07254,-0.19041l0.05333,-0.19666l0.08434,-0.16472l1.18734,-3.11676l2,-4l0.13369,-0.21168l0.97358,-2.82528l2.65803,-1.99755l4.61995,-4.74829l3.81164,-1.58818l0.87902,-0.6606l0.41194,-0.04823l1.07157,-1.60736l1.01847,-1.23988l1.00676,-1.69222l3.81878,-2.78318l3.6899,-2.95192l1.89748,-0.52604l0.03456,-0.01549l0.61509,-0.64988l2.51872,-0.55905l1.2958,-0.43193l3.82932,-0.86469l0.76377,-0.01046l2.67765,-0.59432l2.76391,0.51978l2.8121,-0.03852l2.53622,1.04433l0.75068,0.14117l3.62454,1.50802l1.20263,0.64757l2.38569,0.98234l0.31193,0.47022l4.96936,2.67581l1.27916,-2.31146l2.09528,-1.62966l1.46266,-2.20491l2.91596,-1.20069l2.48921,-1.93606l2.64008,-0.17601l2.4545,-1.01067l9.01743,0.12353l0.41834,0.09446l0.40819,-0.02721l0.43999,0.21874l2.5628,0.5787l0.06904,0.02301l0.02285,0.00015l0.07306,0.03182l2.83505,0.94502l3.58227,1.60584l0.83284,0.60699l0.94483,0.41153l3.19698,2.27831l2.249,1.96788l0.0644,0.04694l0.01168,0.01964l5.67491,4.96554l1.51188,1.61543l0.88149,0.90108l8.50906,-1.88865l1.77156,0.33316l2.35725,-0.47706l4.02598,1.67749l0.70812,0.13317l3.62454,1.50802l1.34724,0.72543l0.77569,0.32321l0.19308,0.19844l10.68399,5.75292l0.35487,0.23946l0.38941,0.17784l8.01015,4.67259l5.43851,-4.6969l1.55137,-1.74189l0.58108,-0.14758l1.19108,-2.91154l1.82977,-5.44771l0.62121,-0.54356l1.04188,-2.54681l7.84881,-5.23254l1.75545,-1.53602l7.25225,-0.90653l1.45799,-0.27088l0.59212,0.01462l1.96499,-0.24562l1.11923,0.32178l0.24821,0.00613l8,1l1.87485,0.42718l1.22109,0.22047l0.96722,-2.32134l-0.8417,-0.8417l-2.48592,-3.03835l-2.1542,-4.1648l-0.89412,-1.18976l-0.08154,-0.69653l-1.01333,-1.95911l-0.82864,-11.32476l0.23824,-0.41471l-0.05561,-0.47503l3.49172,-6.74096l-0.25599,-0.76798l-0.86469,-3.82932l-0.00119,-0.08711l-0.02641,-0.08302l-0.39062,-3.90625v-3l0.39063,-3.90625l0.02641,-0.08302l0.00119,-0.08711l0.86469,-3.82932l1,-3l0.31899,-0.71159l0.21527,-2.1714l1.38058,-1.66159l-0.3781,-0.18905l-0.20992,-0.13258l-1.10974,-0.3531l-1.49872,-1.29435l-0.50078,-0.31628l-1.06286,-1.03414l-5.53138,-4.7771l-0.60859,-2.25179l-3.62811,-8.70748l0.54582,-2.69701l-0.21537,-0.79685l1.49939,-5.54774l1.13993,-5.6326l0.54899,-0.61641l0.71794,-2.65637l5.51893,-4.76635l-2.10285,-2.10285l-0.71843,-0.87808l-0.80943,-0.79498l-5,-6l-0.9274,-1.37002l-0.13144,-0.13509l-0.55704,-0.88198l-0.10683,-0.15782l-1.16551,-1.00658l-0.43466,-1.60825l-0.83227,-1.66454l-1.39754,-3.66855l-1.09055,-6.95224l-0.15123,-0.55955l0.04015,-0.14857l-0.19592,-1.24898l2.79508,-11.00565l0.93889,-0.8362l0.32804,-1.21373l3.64626,-3.14904l-0.53827,-0.46673l-0.63162,-0.40938l-5,-4l-2.80625,-2.74524l-0.02724,-0.04086l-2.64289,-2.28249l-0.76447,-2.82854l-1.56784,-2.35176l-2.07418,-11.16398l2.66514,-6.11895l1.74135,-6.443l8.18586,-7.0696l-1.18586,-1.02415l-0.82917,-3.06793l-1.00428,-1.62693l-1.32637,-3.69488l-1,-4l-0.2815,-1.92359l-0.07431,-0.23355l-0.0866,-0.86604l-0.12603,-0.86118l0.01545,-0.2446l-0.19344,-1.93443v-19l0.20521,-2.05208l0.13494,-2.05789l2.72923,-16.37539l-4.46096,-1.91184l-5.47645,-1.5647l-0.93629,-0.37176l-0.97377,-0.25811l-2.43099,-0.91162l-1.44259,-0.25051l-0.49421,-0.47579l-2.29894,-0.8621l-3.63283,-0.90821h-10.26959l-2.5764,0.58177l-0.08711,0.00119l-0.08302,0.02641l-0.96776,0.09678l-0.03279,0.01093l-3.82932,0.86469l-0.08711,0.00119l-0.08302,0.02641l-0.51354,0.05135l-0.86918,0.33112l-1.61784,0.72524l-4.31448,1.43816l-2.41088,1.20544l-1.65681,0.63116l-1.61784,0.72524l-3,1l-0.93761,0.21172l-0.90469,0.32476l-4,1l-1.92359,0.2815l-0.23355,0.07431l-0.86604,0.0866l-0.86118,0.12603l-0.2446,-0.01545l-1.93443,0.19344h-7l-1.76416,-0.17642l-1.77138,-0.07485l-7,-1l-2.18005,-0.53711l-2.19011,-0.49454l-12,-4l-2.21895,-0.9947l-0.27599,-0.07935l-0.53477,-0.28409l-0.55257,-0.2477l-0.23207,-0.16914l-2.14747,-1.14084l-11.82667,-7.88445l-4.60526,-2.96052l-0.21261,0.15495l-0.55257,0.2477l-0.53477,0.28409l-0.27599,0.07935l-2.21895,0.9947l-15,5l-3.82932,0.86469l-0.08711,0.00119l-0.08302,0.02641l-3.90625,0.39063h-3l-3.90625,-0.39062l-0.08302,-0.02641l-0.08711,-0.00119l-3.82932,-0.86469l-1.09232,-0.36411l-0.63111,-0.04618l-0.89279,-0.46179l-0.38378,-0.12793l-3.58227,-1.60584l-0.84207,-0.61371l-4.66997,3.50247l-3.35937,2.03125l-0.08226,0.02868l-0.0704,0.05131l-3.58227,1.60584l-6,2l-3.82932,0.86469l-0.08711,0.00119l-0.08302,0.02641l-3.90625,0.39063h-2l-1.24556,-0.12456l-2.2483,0.45501l-5.98941,-2.49559l-3.01673,-0.95987l-0.6647,-0.57406l-0.81072,-0.3378l-2.20766,-2.26898l-0.9089,-0.78496l-0.90802,0.0908h-2.84467l-1.85096,0.13544l-0.23576,-0.13544h-0.06861l-3.90625,-0.39062l-0.78498,-0.24977l-0.8216,-0.05963l-3.77194,-1.08806l-2.24455,-0.89782l-0.09981,-0.0073l-0.27825,-0.14392l-2.37739,-0.95096l-2.24906,-1.17139l-5.76898,3.05417l-0.27017,0.11018l-0.24669,0.1558l-12,6l-3.66855,1.39754l-0.30394,0.04768l-0.27934,0.12893l-3.82763,0.87212l-8,1l-1.55405,0.03837l-1.54681,0.15468h-7.98913l-0.61332,0.15576l-0.993,-0.15576h-0.40454l-3.90625,-0.39062l-1.77027,-0.56327l-1.83527,-0.28789l-3.66855,-1.39754l-0.36183,-0.18092l-0.95783,-0.30476l-0.47891,-0.41361l-4.20143,-2.10071l-1.31434,-0.83011l-1.37283,-0.72932l-4.70496,-3.13664l-5.01875,-2.50937l-5.17591,-1.7253l-3.00957,-0.42994l-4.15424,0l-7.45963,1.24327l-5.65916,2.1766l-9.45177,10.39695l-2.88698,2.60088l-0.01028,0.01118l-0.01015,0.00723l-0.00926,0.00834l-0.01314,0.00761l-3.16522,2.25402l-6.13662,3.50664l-0.76685,0.66228l-1.65905,0.52788l-2.02286,0.90208l-2.48757,0.53305l-2.42428,0.77136l-2.20389,0.22039l-1.05171,0.22537z" fill="#797979"/><path d="M58.25001,198.875l-4.22911,-3.65241l-0.94856,-0.54492l-0.31273,-0.54437l-3.10335,-2.68017l-1.38928,-5.14035l-2.6524,-4.61715l0.29924,-4.08957l-0.1638,-0.60606l0.28542,-1.05605l0.40779,-5.57308l2.30053,-4.44769l0.91252,-3.37631l2.65115,-2.28963l0.76493,-0.93491l1.00851,-1.00851l0.09059,-0.17084l0.41565,-0.33539l1.48525,-1.48525l2.65909,-2.17562l3.52374,-9.69028l0.17259,-0.35871l0.11033,-0.38248l2.68609,-6.71523h-0.47418l-1.24556,-0.12456l-2.2483,0.45501l-5.98941,-2.49559l-3.01673,-0.95987l-0.6647,-0.57406l-0.81072,-0.3378l-2.20766,-2.26898l-4.91067,-4.24103l-0.59849,-2.21443l-0.66844,-1.05836l-2,-4l-0.50181,-1.31724l-0.06471,-0.10483l-0.40466,-1.12726l-0.42637,-1.11922l-0.01909,-0.12171l-0.47625,-1.32669l-1,-4l-0.2815,-1.92359l-0.07431,-0.23355l-0.0866,-0.86604l-0.12603,-0.86118l0.01545,-0.2446l-0.19344,-1.93443l0,-0.02954l-0.84877,-5.4109l-0.15123,-0.55955l0.04015,-0.14857l-0.19592,-1.24898l2.79508,-11.00565l0.93889,-0.8362l0.32804,-1.21373l8.42116,-7.27282l-0.32741,-3.27406v-0.65462l-0.13485,-1.07882l0.13485,-0.46905v-4.79751c0,-4.16768 1.01982,-8.09717 2.82353,-11.55253l0.30147,-0.94747l0.73403,-0.84993c1.33033,-2.1023 2.96558,-3.99248 4.8436,-5.60838l1.84425,-2.13544l0.85987,-0.2324c0.57823,-1.28731 1.43075,-2.83082 1.60139,-3.7552c1.93018,-10.45597 5.77655,-27.61517 17.05024,-32.31254c1.46022,-0.88522 3.01832,-1.62515 4.65424,-2.19975c2.2233,-0.99546 4.58413,-1.7792 6.67818,-1.3554c0.53205,-0.0338 1.06863,-0.05096 1.60921,-0.05096c8.93772,0 16.78,4.69018 21.19985,11.74358c0.13035,0.05655 0.26093,0.11264 0.39173,0.16826c0.73626,0.31308 6.3685,-1.12127 6.80596,-1.0676c2.63171,0.32285 5.12259,1.37685 7.70955,1.95798c0.79201,0.17792 2.52032,0.16143 3.29609,0.8371c3.85568,3.35817 7.7273,6.5629 9.95749,11.18034c0.31787,0.65812 0.55242,1.47564 0.76236,2.34284l3.05967,-1.27486l0.9116,-0.60472l0.62676,-0.03626l3.78508,-1.57712l4.9528,1.00235c1.64652,-0.7731 3.29765,-1.5295 5.0472,-2.00235c3.76543,-1.01768 8.35589,3.21984 12.11538,2.45192c2.08201,-0.42527 3.82091,-1.94521 5.88462,-2.45192c0.74257,-0.18233 1.48707,0.38301 2.2483,0.45501c6.78247,0.6415 13.73499,1.09408 20.43785,-0.12456c4.57304,-0.83142 7.42011,-5.61911 11.35458,-8.09375c3.35161,-2.10804 14.61523,-5.26696 19.14876,-4.04169c1.71345,0.46309 2.97733,1.97317 4.61715,2.6524c1.63982,0.67924 3.6013,0.50515 5.14035,1.38928c1.28145,0.73615 1.58025,3.73811 2.98475,3.27833c10.58075,-3.46379 20.63012,-6.24924 32.05598,-3.51503c2.0421,0.48868 3.9789,1.85942 6.01148,2.33046c2.5137,0.58253 5.62175,-0.1029 8.12379,0.6932c2.08409,0.66312 3.1866,2.21108 5.47802,2.3068c10.57307,0.44164 16.88439,-0.32886 26.51586,-0.8623c16.10106,-0.89176 32.25174,-0.26144 48.377,-0.1377c3.7569,0.02883 6.49244,1.26043 10.08608,2.10861c3.82887,0.9037 8.03038,0.71973 11.91392,0.89139c4.49796,0.19882 11.11035,1.01931 14.45313,3.90625c2.98596,2.57879 5.14454,5.16748 6.70115,7.84369l1.33393,-0.50817l6.95224,-1.09055l0.55955,-0.15123l0.14857,0.04015l1.24898,-0.19592l11.00565,2.79508l0.8362,0.93889l1.21373,0.32804l7.42188,8.59375l0.38332,1.20474l0.10235,0.11492l0.11498,0.56811l2.13372,6.70598l0.39063,3.90625v1.86101l0.33046,1.63285l-0.26966,0.64717l0.07405,0.59241l-0.47257,1.64371l-0.05291,0.5291l-1.0288,3.23337l-0.93754,3.26101l-0.24947,0.46958l-0.51857,1.62979l-0.90227,1.04473l-0.17147,0.32277l-3.67001,5.50501l-1.47601,2.46002l-0.12054,0.43481l-0.56138,0.70172l-0.47438,0.79064l3.7973,1.56359l2.1569,0.58295l0.40903,0.47361l0.57865,0.23827l1.2351,1.86187l5.19909,6.02l1.11131,3.4927l0.73077,1.10161l0.0845,1.46067l0.80779,2.53877l0.39063,3.90625v2l-0.24196,2.41963l0.012,0.28691l-0.10041,0.59716l-0.06025,0.60254l-0.07891,0.248l0.0513,0.88676l-0.28472,0.47857l-0.17795,1.05836l-3,11l-0.3696,0.96457l-0.25466,1.00107l-4,11l-0.10014,0.20814l-0.06105,0.22276l-4.36907,11.35958l-2.60479,11.28744l-0.15865,0.46858l-0.08203,0.48786l-2.1191,7.77002v0.36834l1.23761,1.51264l1.56364,1.90357l2.07182,3.10773l2.52446,-0.39599l2.88782,0.73341l2.75565,-0.15942l2.52007,1.49928l2.84211,0.72181l1.83581,2.06126l2.5606,1.52339l5.31164,7.28806l0.02486,0.05546l0.22458,0.25216l0.0918,0.45362l1.2646,2.82103l2,6l0.52014,2.3035l0.54347,2.2981l2,15l0.05446,1.65571l0.16484,1.64838l0,14.03988l0.92636,12.04271l-0.02201,0.96097l0.09564,0.95645v11l-0.39062,3.90625l-1.88634,5.92849l1.85873,3.12425l-0.08891,1.53691l0.8376,2.01024l-1.33572,6.60001l-0.27766,4.79954l-0.99821,1.50477l-0.35819,1.76988l-3.19746,3.59013l-3.72242,5.6114l-2.01373,0.82918l-1.02389,1.14963l-4.61371,1.17174l-2.84842,1.17288l-1.67921,-0.023l-1.8643,0.47347l-3.48559,-0.54676l-1.98832,-0.02724l-3.82932,-0.86469l-3,-1l-1.61718,-0.72494l-0.20758,-0.05312l-0.87099,-0.43037l-0.88652,-0.39741l-0.17316,-0.1262l-1.58885,-0.78508l-1.88811,-1.18007l-2.88301,1.4415l-0.47891,0.41361l-0.95783,0.30476l-0.36183,0.18092l-3.66855,1.39754l-0.80456,0.12621l-0.83223,2.61557l-0.36879,0.42702l-0.41246,1.52611l-3.56326,3.07736l-3.07736,3.56326l-1.52611,0.41246l-0.42702,0.36879l-8.59375,2.73438l-3.90625,0.39063h-7l-1.09694,0.66327l-1.40306,1.21173l-4.7089,1.49829l-4.6661,1.62671l-1.84949,-0.12755l-1.25759,0.12576l-0.62038,0.15756l-0.993,-0.15576h-0.40454l-3.90625,-0.39062l-0.9318,-0.29648l-1.36507,-0.09414l-0.40866,-0.31935l-0.90001,-0.14118l-0.60374,-0.22999l-0.92548,0.05354l-1.89782,-1.12909l-0.24151,-0.092l-0.36183,-0.18092l-0.95783,-0.30476l-0.47891,-0.41361l-0.20143,-0.10071l-3.31916,-2.09631l-0.31725,-0.30867l-1.98285,-1.17967l-1.87811,-2.57694l-2.28543,-2.22366l-0.8874,-2.12975l-0.2607,-0.35771l-1.11529,-2.48796h-0.38436l-9.98564,5.70608l-0.63515,0.28324l-0.58799,0.37136l-2.20143,1.10071l-0.47891,0.41361l-0.95783,0.30476l-0.36183,0.18092l-3.66855,1.39754l-1.83527,0.28789l-1.77027,0.56327l-3.28595,0.32859l-1.52655,0.60891l-3.69792,-0.80729l-1.30208,-0.13021l-1.54247,-0.49079l-4.55128,-0.99359l-1.15196,-0.82108l-1.34804,-0.42892l-3.52564,-3.04487l-1.31811,-0.9395l-0.88542,-0.96354l-1.45715,-1.25845l-0.70951,0.07095l-3.69792,0.80729l-1.186,-0.47307l-0.32271,0.08196l-0.993,-0.15576h-0.40454l-3.90625,-0.39062l-1.77027,-0.56327l-1.83527,-0.28789l-3.66855,-1.39754l-0.36183,-0.18092l-0.95783,-0.30476l-0.47891,-0.41361l-2.20143,-1.10071l-2.35285,-1.48601l-2.60442,1.56265l-0.86936,0.41007l-0.8127,0.51328l-2,1l-0.15155,0.05773l-1.49488,1.30802l-8.95739,1.11967l-1.97406,0.30966l-0.10586,-0.02689l-0.44845,0.37371l0.0873,1.19304l-0.49036,0.85359l-0.0357,0.35703l-2.73437,8.59375l-0.36879,0.42702l-0.41246,1.52611l-3.56326,3.07736l-3.07736,3.56326l-1.52611,0.41246l-0.42702,0.36879l-8.59375,2.73438l-3.90625,0.39063h-2l-3.90625,-0.39062l-0.08302,-0.02641l-0.08711,-0.00119l-2.2251,-0.50244l-0.30098,0.07644l-0.993,-0.15576h-0.40454l-3.90625,-0.39062l-1.77027,-0.56327l-1.83527,-0.28789l-0.64612,-0.24614l-0.16711,0.05613l-3.3895,-0.93966l-0.19173,-0.01917l-0.82969,-0.26399l-6.53141,-1.81069l-0.55516,-0.44413l-0.67749,-0.21556l-5.12956,-4.43007l-0.67988,-0.54391l-0.1223,-0.14889l-1.25902,-1.08734l-1.05255,0.52008l-1.97192,1.02704l-2.58313,1.03325l-0.83413,0.55609l-0.32277,0.17147l-1.04473,0.90227l-1.62979,0.51857l-0.46958,0.24947l-2.43577,0.70028l-1.51174,1.75043l-14.45312,3.90625l-14.45312,-3.90625l-5.16401,-5.97938l-3.27289,0.54548l-2.05789,0.13494l-2.05208,0.20521h-4l-0.36368,-0.03637l-1.36976,0.17122l-1.64371,-0.47257l-0.5291,-0.05291l-3.23337,-1.0288l-1.4442,-0.41521l-0.35278,0.0882l-1.92359,0.2815l-0.23355,0.07431l-0.86604,0.0866l-0.86118,0.12603l-0.2446,-0.01545l-1.93443,0.19344l-2.69458,0l-1.84623,0.52381l-10.78565,-3.55056l-0.07645,-0.06736l-0.09709,-0.03089l-6.60694,-5.706l-6.2906,0.98676l-0.54686,-0.13889l-1.54945,0.31358l-4.34602,-1.81084l-4.56332,-1.15894l-1.05141,-1.18053l-0.52082,-0.21701l-1.21087,-1.24451l-2.8137,0.28137h-2.84467l-1.85096,0.13544l-0.23576,-0.13544h-3.06861l-3.90625,-0.39062l-8.59375,-2.73437l-0.42702,-0.36879l-1.52611,-0.41246l-3.07736,-3.56326l-3.56326,-3.07736l-0.41246,-1.52611l-0.36879,-0.42702l-2.05152,-6.44764l-4.04388,-0.50548l-1.13958,0.11298l-0.76808,-0.35143l-4.65586,-0.58198l-3.7089,-3.24529l-4.48145,-2.05048l-2.44132,-4.00695l-0.63567,-0.55621l-0.36462,-1.08556l-2.46648,-4.04824l-0.82944,-5.76461l-1.10642,-3.29411l0.8647,-3.1191l0.04366,-0.66585l1,-6l0.55553,-2.04853l0.02951,-0.26674l0.24103,-0.73086l0.20143,-0.74276l0.1223,-0.23887l0.66476,-2.01573l4,-9l0.2819,-0.49476l0.20271,-0.53212l5,-10l0.98119,-1.55354l0.8987,-1.60268l6.62626,-9.46608l4.65458,-7.44733l2.40156,-3.10546l0.21691,-0.18424l0.15787,-0.2368l2.80625,-2.74524l3.91879,-3.13503l1.02092,-1.02092l3.03835,-2.48592l0.51795,-0.26791l1.71818,-1.92918l3.95205,-1.0037l0.51099,-0.26431zM319.75001,208.79751v-1.79751l0.03502,-0.35016l-2.96863,2.35016l2.87539,0zM412.80895,243.29471l1.43258,0.01962l0.21055,-0.05837l-0.49883,-0.44427l-2.33648,-0.63148l0.23655,1.50799z" fill="#b8b8b8"/></g></g></svg>