<svg version="1.1" xmlns="http://www.w3.org/2000/svg" xmlns:xlink="http://www.w3.org/1999/xlink" width="2536.90526" height="460.82136" viewBox="0,0,2536.90526,460.82136"><g transform="translate(1198.84775,27.81662)"><g data-paper-data="{&quot;isPaintingLayer&quot;:true}" fill-rule="nonzero" stroke="none" stroke-width="0.5" stroke-linecap="butt" stroke-linejoin="miter" stroke-miterlimit="10" stroke-dasharray="" stroke-dashoffset="0" style="mix-blend-mode: normal"><path d="M418.61629,-22.00041c2.8255,-1.52944 5.97889,-2.53045 9.32767,-2.87053c14.29706,-2.6 31.63924,0.6665 41.12522,0.87726c34.248,0.7609 78.39835,1.06011 112.13477,2.00359c23.5495,0.65859 47.09041,1.77132 70.6481,1.99009c47.88059,0.44465 95.76547,-0.12676 143.64796,0c14.11561,0.03737 25,10.46461 25,25c0,14.53531 -10.88439,24.96272 -25,25c-23.93478,0.06321 -47.86964,0.06629 -71.80452,0.05204c-0.11803,0.18437 -0.23044,0.37133 -0.33443,0.5621c-0.13691,0.25114 -0.49172,0.72799 -0.22388,0.82837c3.81708,1.4305 8.20574,1.10107 11.89675,2.83105c1.52215,0.71344 2.2838,3.06562 3.96405,3.11766c38.34821,1.18761 76.71412,1.71181 115.07007,2.61523c30.78168,0.72502 61.28712,6.00454 91.91956,9.11762c6.18932,0.629 21.18387,2.95661 27.10961,6.08681c0.95192,0.50284 1.38181,1.67415 2.23275,2.33362c3.05764,2.36968 8.86274,6.61065 9.89682,10.92242c0.47795,1.9929 -0.00828,4.11266 0.27839,6.14193c0.28667,2.02926 1.34107,3.93139 1.43386,5.9787c0.12357,2.72634 -5.12052,10.24329 -4.77832,11.45411c0.24041,0.85067 4.21335,1.84754 4.43487,1.99598c3.75183,2.51413 8.27722,7.45726 9.60342,11.4859c0.97678,2.9672 2.30112,5.85602 2.82483,8.93565c0.16709,0.98256 -0.76231,1.88125 -0.81611,2.87647c-0.0538,0.99521 0.77331,1.98886 0.50127,2.94768c-0.85265,3.00523 -2.48069,5.73444 -3.77165,8.57905c-0.66256,1.45995 -4.4137,2.8589 -3.05705,3.71326c4.11788,2.59329 10.30522,1.46655 14.55448,3.81017c2.05967,1.13598 3.79388,2.80216 5.4975,4.424c0.97562,0.92879 0.98308,3.20505 2.32645,3.30423c90.52792,6.68371 181.20293,11.19961 271.79592,16.93433c4.51599,0.28587 11.47801,2.04257 14.81347,5.30665c13.98983,13.69043 10.38204,37.94772 -9.56916,43.70271c-15.30969,4.41613 -30.6527,8.71641 -46,13c-1.73317,0.48375 -3.83942,0.81226 -5.63559,0.91518c-4.45412,0.25523 -17.82731,0.43689 -13.36977,0.62282c28.22879,1.17743 56.48364,1.61463 84.72731,2.35354c3.57946,0.09365 8.30415,0.42728 11.70645,1.61484c0.67669,0.23619 0.97945,1.06535 1.57584,1.46286c3.50372,2.33529 7.33662,4.61541 9.68377,8.11119c1.43883,2.14295 1.13495,5.03775 1.81201,7.52855c0.67707,2.4908 2.40462,4.83339 2.24866,7.40985c-0.88018,14.54024 -16.36286,25.73136 -29.74618,28.63273c-19.68522,4.26757 -45.87506,6.82796 -65.08564,8.15367c-55.69512,3.84351 -112.00288,5.13041 -167.71579,5.13703c-105.33333,0.01251 -210.66667,0.0007 -316,0c-12.75032,-0.00008 -25.7221,-0.97907 -38.43959,-0.06457c-1.07269,0.07714 1.35223,1.70687 1.76851,2.6985c1.06961,2.54793 2.00952,8.23874 2.23244,11.04128c0.18559,2.33324 -1.24974,4.51273 -1.9684,6.74028c-0.20391,0.63203 -1.21498,1.81208 -0.5585,1.91243c23.59623,3.60689 47.38904,5.78709 71.06016,8.86436c4.2718,0.55534 8.49138,2.27267 12.01704,4.64828c5.74832,3.87325 8.75731,10.41169 9.71026,17.18082c0.45293,3.2173 -0.4945,6.3955 -1.36486,9.37724c-0.2491,0.8534 -1.08012,2.0861 -0.38414,2.63924c5.38798,4.28211 13.60707,4.93378 18.86247,9.73687c0.61848,0.56525 0.62036,1.57496 1.10839,2.25603c2.56527,3.57995 5.30848,7.36587 6.16519,11.68591c0.47174,2.37879 -0.92974,4.76467 -1.2197,7.17239c-0.28996,2.40772 0.50499,5.05811 -0.51802,7.25689c-1.85786,3.99312 -5.42148,7.0195 -8.76335,9.88805c-0.63577,0.54572 -0.87733,1.52612 -1.61232,1.92837c-2.99377,1.63844 -7.78346,2.47725 -11.08244,3.1163c-13.07244,2.53225 -26.06518,5.52838 -39.22596,7.55197c-21.23515,3.26509 -42.70497,5.81404 -64.15005,7.22645c-117.36539,7.72986 -294.98814,-0.73932 -403.17057,-0.05145c-9.56543,0.06082 -28.95255,5.4574 -42.96249,5.18946c-84.00117,-1.60653 -168.00037,-3.31477 -252,-5c-11.29506,-0.22661 -17.26582,-2.36424 -33.47915,-2.14024c-108.76769,1.5027 -217.52553,6.90338 -326.29148,5.28001c-9.28131,-0.13853 -17.13426,-3.09237 -23.04053,-10.99813c-1.18727,-1.58921 0.51594,-5.70534 -1.46681,-5.7676c-223.88098,-7.03078 -447.86656,-10.2009 -671.79813,-15.37566c-3.55133,-0.08207 -7.39507,-1.32069 -10.66832,-2.44528c-1.61204,-0.55385 -3.59092,-2.70742 -4.61477,-3.54958c-1.93122,-1.58848 -4.77564,-2.65879 -5.5638,-5.03191c-0.78674,-2.36883 -1.11003,-4.86935 -1.78782,-7.27162c-0.50343,-1.78432 -1.31044,-3.47807 -1.75308,-5.27843c-0.47784,-1.94353 1.35476,-6.57022 1.54001,-7.32335c0.21302,-0.86603 0.7673,-7.19124 2.6623,-9.02529c1.32529,-1.28266 2.8852,-2.30064 4.26918,-3.51974c0.9948,-0.87628 2.89975,-3.09553 4.49214,-3.70356c28.08422,-10.72351 105.68852,-7.5035 100.49952,-7.90811c-64.57221,-5.03488 -153.25729,-3.16484 -218.00946,-4.60615c-11.14789,-0.24814 -17.09268,-3.63826 -24.90401,-11.35032c-3.11409,-3.07451 -2.87935,-8.2931 -3.74561,-12.5826c-1.06789,-5.28794 2.56378,-12.19232 4.85805,-16.7038c9.05057,-17.79714 13.6726,-40.45558 34.80386,-46.0242c0.96208,-0.25353 1.97118,0.36038 2.96581,0.33603c7.86974,-0.19262 15.75997,0.07655 23.61101,-0.49882c0.82183,-0.06023 3.12506,-3.13196 3.43002,-3.37929c3.08874,-2.50503 7.9721,-4.29341 11.92776,-4.8728c48.64845,-7.12553 97.326,-14.05121 146,-21c32.46876,-4.6353 65.61196,-0.36802 98.37654,-1.84729c0.50572,-0.02283 -1.02808,-2.39906 -0.81698,-3.2833c1.11275,-4.66093 2.26001,-9.31427 3.48729,-13.94635c0.58242,-2.19819 3.33084,-3.09736 5.02886,-4.60998c4.00237,-3.56537 6.51535,-4.32395 11.85042,-6.05068c56.41538,-18.25916 118.53298,-3.78121 177.79994,-5.65709c0.39355,-0.01246 -5.23701,-2.71721 -6.26057,-5.40685c-1.48778,-3.9095 -2.69079,-7.9274 -3.78218,-11.96553c-0.58232,-2.1546 0.94408,-6.09649 1.26371,-7.62238c0.49514,-2.36379 0.5549,-4.81626 1.18501,-7.1477c0.49203,-1.82051 4.8226,-5.14668 5.33264,-5.62448c1.24959,-1.17059 2.85831,-3.2181 4.59457,-3.96803c9.69586,-4.18788 19.70523,-3.30333 29.99844,-4.1577c3.58894,-0.29789 19.71114,-2.75516 28.97351,-2.96173c29.25245,-0.65238 58.55494,-0.05967 87.7596,-1.85408c18.03665,-1.10822 38.09721,-5.86194 57.17172,-7.10046c26.79229,-1.73964 53.64484,-2.69604 80.38167,-5.14443c1.16617,-0.10679 -2.10445,-1.1114 -2.92311,-1.94874c-1.08956,-1.11443 -2.17778,-2.32584 -2.76789,-3.76836c-3.2972,-8.05982 -3.57925,-16.65606 -0.81748,-24.91468c0.30007,-0.89731 1.3926,-1.30978 1.90151,-2.10741c7.04783,-11.04624 19.4847,-10.95141 31.66985,-12.71796c1.33851,-0.19405 -1.31952,-2.41208 -1.57122,-3.74096c-0.34922,-1.84375 -0.41842,-3.76181 -0.20295,-5.62592c0.53502,-4.6288 1.94008,-10.54392 5.00325,-14.11096c8.62303,-10.04144 26.60656,-11.00811 38.0057,-11.89799c25.99771,-2.02953 51.99832,-4.02199 78,-6c10.63917,-0.80935 21.60095,1.60792 32.00021,-0.78c2.27052,-0.52136 0.52388,-4.81332 1.82345,-6.74677c1.588,-2.36257 9.29371,-5.27854 6.46326,-5.5819c-22.39009,-2.3997 -45.02998,-0.86168 -67.54807,-0.96497c-47.60665,-0.21837 -95.21446,0.12674 -142.82144,0c-25.79624,-0.06868 -34.80311,-33.69589 -12.5,-46.875c6.05617,-3.57865 12.57616,-2.97437 19.16222,-3.125c3.49787,-0.08 25.08649,-0.99929 37.33778,-1c193.4563,-0.01119 389.79444,-1.84773 583.24168,0.02417c73.31599,0.70944 136.43289,1.64415 203.6125,5.10077c0.08708,-0.04219 0.17445,-0.08397 0.26211,-0.12535z" fill="#8f8f8f"/><path d="M273.18567,188.87337c4.75804,-1.6812 9.36704,-2.77364 14.15535,-3.60251c-0.58615,-0.77019 -1.88572,-0.79159 -2.59188,-1.48634c-0.6742,-0.6633 -0.80935,-1.79907 -1.4399,-2.47316l-4.25412,-0.85082c-1.16847,-0.20987 -2.05512,-1.23166 -2.05512,-2.46053c0,-0.88153 0.45626,-1.6565 1.14551,-2.10163l2.96774,-1.97849l0.02452,0.03678l0.10742,-0.11893c4.22147,-2.11611 8.7605,-3.90463 12.85888,-6.23749c6.72995,-3.83078 12.90338,-8.69352 19.63957,-12.45766c-0.12216,0.05759 -0.25416,0.1081 -0.33547,0.10641c-1.29744,-0.02696 -2.6183,-0.03052 -3.87812,-0.34186c-3.15117,-0.77876 -6.22095,-1.93491 -9.42755,-2.43892c-7.87493,-1.23777 -14.91878,-2.84713 -21.30871,-7.3966c-0.51574,1.64231 -1.51685,3.11766 -2.3528,4.62955c-2.2255,4.025 -5.07119,8.60552 -8.26202,11.93561c-3.31568,3.46039 -5.77615,5.0235 -8.67895,8.86324c-0.50884,0.67308 -3.95096,4.28153 -3.52723,6.13204c0.53363,2.33045 2.88363,4.52371 4.99534,6.43624c0.08311,-0.21382 0.1653,-0.42818 0.24642,-0.64321c0.14908,-1.66764 0.18579,-3.39867 0.83785,-4.93414c0.01318,-0.03102 0.0265,-0.06197 0.03997,-0.09284l-0.0177,-0.00443l0.98732,-3.94927c0.25265,-1.1133 1.24829,-1.9444 2.43804,-1.9444c1.38071,0 2.5,1.11929 2.5,2.5c0,0.09334 -0.00512,0.18549 -0.01508,0.27618l-0.45641,4.66807l-0.07289,-0.00713l0.04405,0.21312c-0.1722,0.63552 -0.35725,1.25932 -0.55268,1.87406c-0.23271,2.06203 -0.88174,4.40503 -1.17811,6.57472c1.34361,1.21821 2.68478,2.38022 3.95414,3.57043c0.70499,-0.63921 1.68374,-0.6681 1.77075,-0.6694zM297.54329,184.6903c0.63379,-0.26178 0.79717,-1.1337 1.3187,-1.57894c2.49324,-2.12849 5.53171,-3.51996 8.32368,-5.23799c1.58051,-0.97256 2.78604,-2.59375 4.52376,-3.24508c1.37061,-0.51373 2.94115,0.11133 4.39011,-0.09601c2.07418,-0.2968 3.92761,-1.49115 5.96281,-1.98945c3.34684,-0.81945 6.83799,-1.03678 10.28366,-1.04961c2.70729,-0.54335 5.49066,-0.61901 8.21292,-1.08152c3.27509,-0.55644 6.26839,-2.30883 9.54103,-2.87949c5.90757,-1.03012 14.64484,-0.07175 20.21137,2.1031c1.90272,0.7434 4.06653,1.43369 5.31529,3.05036c0.8824,1.14238 0.29978,2.87272 0.37337,4.31433c0.13595,2.6632 0,5.33333 0,8c0,1 0.06125,2.00188 0,3c-0.03765,0.61359 -0.64145,1.31198 -0.29581,1.82036c0.50363,0.74076 1.66927,0.70212 2.38079,1.24629c0.56279,0.43042 0.68701,1.44161 1.37174,1.62366c1.29641,0.34468 2.67912,-0.14586 4.01984,-0.19019c6.24704,-0.20657 12.40346,-0.45903 18.63758,-0.97015c4.30144,-1.00188 8.59871,-2.1197 12.92847,-2.98776c5.64472,-1.1317 11.60495,-1.07612 17.19461,-2.43455c8.12766,-1.97523 15.64845,-6.06486 23.95797,-7.58102c0.21273,-0.03882 10.41002,-1.02199 10.5276,-1.00405c2.44339,0.37286 5.73005,0.27252 7.02301,2.37904c1.09179,1.77877 -1.31281,3.96325 -1.90108,5.96574c-0.40825,1.38971 -0.4362,2.91325 -1.08737,4.20706c-0.82346,1.63616 -2.17156,2.95038 -3.25734,4.42557c0,0 -1.5,2 -3.5,0.5c-2,-1.5 -0.5,-3.5 -0.5,-3.5c0.91422,-1.19148 2.07518,-2.22911 2.74266,-3.57443c0.57796,-1.1649 0.31559,-2.6377 0.91263,-3.79294c0.44733,-0.86556 2.47857,-1.13694 2.09892,-2.03426c-0.36549,-0.86386 -1.85156,0.30543 -2.78279,0.41788c-4.8461,0.5852 -9.27232,0.90569 -14.00139,2.18845c-6.4318,1.74463 -12.60139,4.69384 -19.05207,6.26152c-5.68307,1.38113 -11.72599,1.337 -17.46056,2.49157c-4.37691,0.88123 -8.71852,2.01609 -13.07153,3.01224c-6.45439,0.54596 -12.87639,1.10359 -19.36242,1.02985c-1.99427,-0.02267 -4.0689,0.37964 -5.98016,-0.19019c-1.13186,-0.33745 -1.71547,-1.62682 -2.62826,-2.37634c-1.17154,-0.962 -2.87386,-1.43371 -3.61921,-2.75371c-0.68675,-1.2162 -0.23832,-2.78413 -0.29581,-4.17964c-0.10978,-2.66441 0,-5.33333 0,-8c0,-1 -0.07943,-2.00316 0,-3c0.04571,-0.57369 0.75285,-1.253 0.37337,-1.68567c-1.64774,-1.8787 -4.81561,-1.3562 -7.26657,-1.84346c-4.09493,-0.81408 -9.00176,-1.75803 -13.20678,-1.00308c-3.28924,0.59053 -6.3077,2.31714 -9.60028,2.88873c-2.79957,0.486 -5.66493,0.55602 -8.45157,1.11142c-3.19092,0.01243 -6.43307,0.14172 -9.52906,0.91436c-0.49107,0.12255 -6.1079,2.04109 -6.41866,2.08541c-1.19166,0.16996 -2.48289,-0.51889 -3.60989,-0.09601c-1.38427,0.51941 -2.22868,1.96146 -3.47624,2.75492c-2.5408,1.61596 -5.34248,2.85934 -7.67632,4.76201c-0.93334,0.76091 -1.56069,1.98022 -2.6813,2.42106c-1.6758,0.65925 -4.55432,-0.0541 -6.45464,0.1469c0.03905,1.24969 0.01613,2.46625 -0.00208,3.53748c-0.02812,1.65519 0.35862,3.40086 -0.19029,4.96263c-0.41889,1.19183 -1.66735,1.89944 -2.54193,2.81106c-2.25484,2.35032 -5.01863,4.16678 -7.3374,6.45322c1.70483,1.42465 3.36534,3.01497 4.80187,4.47572c2.97402,3.02414 5.78338,4.63154 5.25284,9.57609c-0.54392,5.06928 -7.38285,10.50966 -10.52415,14.27795c-0.83107,0.94991 -1.92686,1.72178 -2.4932,2.84972c-0.52798,1.05154 1.54704,1.89519 2.63066,2.35376c1.27551,0.53977 2.63386,0.85788 3.94877,1.29294c4.20334,1.39074 8.41798,2.67184 12.76679,3.55331c0.30069,0.06095 9.77668,1.53964 9.91979,1.58525c2.28927,0.7297 5.35064,0.85245 6.59595,2.9073c0.90523,1.4937 -0.89786,3.44281 -1.86695,4.89589c-2.78695,4.17881 -8.10909,6.58707 -11.7645,9.84577c-2.11117,1.88205 -3.58778,4.38601 -5.59354,6.38002c-1.12825,1.12164 -2.52934,1.95263 -3.61818,3.11256c-0.79322,0.84501 -1.93074,1.69759 -1.98399,2.85535c-0.05661,1.23078 1.09145,2.21088 1.70176,3.28118c1.79592,3.14946 3.21972,5.16217 5.23941,8.18531c4.62591,6.92726 9.81103,13.44904 14.50893,20.32255c2.78485,4.07452 5.11553,8.51379 8.02486,12.49877c4.08813,5.59962 9.76499,10.78113 14.71824,15.62599c3.64286,3.56315 8.55439,10.35321 13.87868,11.47047c1.44393,0.303 2.95041,-0.04459 4.42562,-0.06688c0,0 2.5,0 2.5,2.5c0,2.5 -2.5,2.5 -2.5,2.5c-1.85813,-0.02229 -3.76395,0.35202 -5.57438,-0.06688c-6.50627,-1.50541 -11.70818,-8.34163 -16.22645,-12.76261c-5.12282,-5.01251 -10.92818,-10.35795 -15.17663,-16.14093c-2.97971,-4.05596 -5.35779,-8.58126 -8.19787,-12.73658c-4.70791,-6.88815 -9.90162,-13.42547 -14.53883,-20.3668c-1.1563,-1.73159 -4.63806,-6.81825 -5.52342,-8.66679c-0.90987,-1.8997 -2.40935,-3.80501 -2.24911,-5.90526c0.37907,-4.96847 7.24848,-9.40773 10.24921,-12.81802c3.14453,-3.57371 6.92013,-5.93291 10.49509,-9.04063c1.06976,-0.92995 1.93764,-2.09739 3.05877,-2.95868c-2.35382,0.1712 -2.91469,-0.16539 -6.45547,-0.72954c-7.41135,-1.18085 -16.18601,-2.63744 -22.95928,-6.06149c-2.76611,-1.39834 -6.16066,-3.71349 -5.36934,-7.64624c0.40969,-2.03613 2.33787,-3.43352 3.5068,-5.15028c1.70418,-2.04568 3.29693,-4.18981 5.11486,-6.13511c1.34416,-1.43833 3.99555,-3.31255 4.36098,-5.58695c0.39982,-2.48844 -2.53699,-4.24004 -3.81823,-5.49498c-1.34339,-1.3158 -2.82719,-2.76026 -4.3582,-4.06265c-4.34938,3.9261 -10.64528,5.50598 -16.33066,5.33041c-1.73114,-0.05346 -3.6818,0.56014 -5.18748,-0.2958c-3.99989,-2.27385 -3.28391,-5.63071 -3.32036,-9.20419c-0.04099,-4.01891 0.28072,-7.37095 1.14625,-10.87168c-0.95646,-0.89392 -2.01121,-1.70112 -2.74818,-2.77486c-1.6868,-2.4576 -2.01565,-5.61431 -3.18966,-8.35417c-1.17426,-2.74044 -2.7846,-5.27756 -4,-8c-1.5581,-3.49008 -2.53364,-7.05866 -4.39832,-10.41773c-0.6976,-1.25668 -1.28649,-2.57613 -2.05469,-3.79094c-0.20083,-0.31759 -0.48791,-0.92799 -0.82699,-0.76606c-1.15043,0.54941 -1.82035,1.80379 -2.86779,2.53057c-0.20207,0.1402 -8.17468,4.66327 -8.58423,4.89592c-7.65402,6.73273 -16.07171,14.74733 -25.45897,18.95664c-3.66643,1.64405 -10.25546,4.88606 -14.47413,2.902c-4.6181,-2.17192 -3.47799,-5.02311 -3.54329,-9.3097c-0.12117,-7.95375 2.44672,-15.46154 5.1632,-22.88845c0.48681,-1.33096 0.83954,-2.92929 1.42462,-4.29812c-5.17286,2.7775 -10.03634,5.8378 -14.99566,9.03951c-6.50791,4.17405 -11.77782,10.43886 -19.13545,13.45676c-2.96908,1.21784 -8.13534,2.25088 -10.80387,-0.70111c-2.05929,-2.27803 -1.65002,-8.78545 -1.65284,-11.60859c-0.00918,-9.19501 0.81564,-18.46292 2.24137,-27.54885c0.29254,-1.86434 0.36083,-3.77427 1.08439,-5.43188c-0.87254,0.44608 -1.82286,0.76989 -2.69828,1.21205c-2.21396,1.11824 -4.41837,2.2553 -6.62774,3.38261c-3.78163,2.26465 -7.43886,3.50041 -11.27369,5.56479c-7.23353,3.89396 -13.22469,9.91147 -20.56999,13.78711c-2.53432,1.3372 -8.51111,5.16843 -11.62657,1.57271c-0.52493,-0.60584 0.96063,-8.60005 1.21159,-10.05659c2.27112,-13.18121 6.68362,-26.16683 10.9166,-38.83511c2.6309,-7.87159 5.73225,-15.53521 8.11482,-23.4808c0.47794,-1.59388 2.08035,-4.31349 0.54785,-4.96184c-1.75176,-0.74111 -3.69079,0.92507 -5.51831,1.45241c-0.17778,0.0513 -9.64998,2.75785 -9.74612,2.78081c-2.6986,0.64438 -5.51209,0.73348 -8.20377,1.40621c-4.0755,1.01858 -7.59108,3.06882 -11.5042,4.50819c-2.84288,1.0457 -5.82555,1.66556 -8.71401,2.57787c-3.2689,1.03247 -6.28467,2.9328 -9.66117,3.52522c-1.53708,0.26969 -3.11621,-0.17504 -4.67431,-0.26256c-6.70987,-9.3438 -8.39912,-20.2809 -11.76703,-31.04807c-2.25937,-7.22319 -5.38556,-14.17783 -7.44072,-21.47693c-0.86919,-3.08701 -2.07147,-6.1875 -2.07579,-9.39454c-0.00128,-0.95158 -0.1178,-2.10327 -0.01061,-3.12603c-6.17491,-2.45254 -12.16284,-5.30893 -17.87824,-9.05834c-6.20211,-4.06871 -11.99298,-10.9759 -19.23241,-12.66306c0,0 -2.42536,-0.60634 -1.81902,-3.0317c0.60634,-2.42536 3.0317,-1.81902 3.0317,-1.81902c8.04968,2.11836 13.85671,8.80286 20.76234,13.33309c10.7682,7.06415 22.56118,10.74046 34.67596,14.82098l0.19882,0.19884l0.04277,-0.07129l4.24817,2.5489c0.74893,0.43183 1.25305,1.24069 1.25305,2.16731c0,1.38071 -1.11929,2.5 -2.5,2.5c-0.08707,0 -0.1731,-0.00445 -0.25788,-0.01314l-4.94821,-0.45054l0.00426,-0.04678c-0.12958,-0.00368 -0.25926,-0.0099 -0.38905,-0.01886c-0.60555,-0.04179 -6.0803,-2.65429 -7.58329,-3.2057c-1.16859,-0.42873 -2.9389,-0.71269 -4.2075,-1.27435c0.2577,1.07572 0.37771,2.19493 0.61932,3.27549c1.0244,4.58129 2.52472,8.90476 4.00887,13.35765c1.3366,4.0102 3.00848,7.92407 4.26944,11.95534c2.98918,9.55638 4.98479,19.06961 9.39811,28.15607c1.93847,-0.38393 3.72473,-1.32203 5.57699,-2.01064c4.38221,-1.62914 8.99995,-2.53794 13.37351,-4.14884c2.36865,-0.87244 4.58752,-2.12167 6.9595,-2.985c5.87464,-2.1382 12.01505,-2.72558 18.00927,-4.44061c5.11245,-1.46275 15.70941,-6.75231 17.3469,2.37696c0.35544,1.98165 -0.88043,3.92958 -1.3714,5.88207c-2.04197,8.12065 -5.54568,15.81483 -8.19637,23.7498c-4.15201,12.42594 -8.50702,25.16916 -10.73137,38.09888c-0.24003,1.39524 -0.24456,2.85264 -0.72233,4.18532c-0.27472,0.7663 -1.45976,1.13196 -1.47574,1.94585c-0.01117,0.56926 0.95521,-0.62203 1.4551,-0.89459c1.27362,-0.69443 2.59121,-1.30633 3.86259,-2.00484c2.14422,-1.17804 4.32374,-2.30733 6.35926,-3.66458c4.73407,-3.15659 9.12761,-7.37089 14.12648,-10.07618c3.88877,-2.10453 7.48539,-3.28615 11.30123,-5.58017c2.94,-1.50227 7.73855,-4.67201 10.9681,-5.55081c1.80908,-0.49227 4.39978,-2.02366 5.59471,-0.57894c1.32297,1.59953 -0.6012,9.84691 -0.95708,12.11488c-1.38632,8.83476 -2.17137,17.83446 -2.18092,26.77375c-0.00292,2.73434 -1.22567,5.93371 0.30833,8.19722c0.73653,1.0868 5.00369,-0.4005 5.23497,-0.50692c6.97034,-3.20748 12.03986,-8.94891 18.337,-13.03805c5.76282,-3.72024 11.40998,-7.23849 17.51783,-10.37767l0.14001,-0.02213l-0.01179,-0.0309l4.029,-1.53691c0.29145,-0.11904 0.6104,-0.18464 0.94467,-0.18464c1.38071,0 2.5,1.11929 2.5,2.5c0,0.29691 -0.05176,0.58173 -0.14675,0.84593l-0.98155,2.94464l-0.45389,-0.1513c-2.39472,10.79043 -8.74867,20.69078 -7.60812,32.40402c0.11428,1.17363 2.29616,0.49244 2.4841,0.46523c2.99287,-0.43335 5.91656,-1.41767 8.6732,-2.66106c9.07421,-4.09292 17.17074,-11.99192 24.60815,-18.46861c2.9241,-1.68046 5.89365,-3.28348 8.77976,-5.02838c1.7701,-1.07018 3.1908,-3.07805 5.24563,-3.31514c4.82729,-0.55698 7.67182,6.56931 9.16244,9.90218c1.12635,2.51841 2.25142,5.06307 3.36768,7.61294c0.65863,-2.71032 2.79292,-4.93413 4.36933,-7.05044c4.36071,-5.8542 10.02852,-9.89834 13.97764,-16.13971c1.43704,-2.27116 3.57235,-5.37173 4.58924,-7.93467c0.18208,-0.45892 0.38997,-1.06264 0.12039,-1.47626c-0.67976,-1.04297 -1.99419,-1.54178 -2.73804,-2.54006c-0.99426,-1.33434 -1.42153,-3.03353 -2.4116,-4.37098c-2.3718,-3.20397 -4.95592,-4.37018 -8.44407,-5.70843c-3.94956,-1.51527 -7.87556,-2.3979 -12.0227,-3.34091c-2.62067,-0.87183 -5.29891,-1.58697 -7.86143,-2.61726c-1.43752,-0.57797 -3.42574,-0.59028 -4.23754,-1.90993c-3.40287,-5.53171 4.18761,-10.34376 7.47702,-13.21932c3.58145,-3.13086 7.62736,-5.69615 11.64871,-8.21596c1.42596,-0.89352 2.88408,-1.73467 4.32867,-2.59775c0.95525,-0.57072 1.8645,-1.23252 2.8277,-1.78803c-2.55664,-0.22063 -5.56689,-2.10178 -7.28993,-3.1223c-1.30264,-0.77153 -2.46341,-1.83557 -3.88818,-2.34756c-1.56429,-0.56213 -3.328,-0.33681 -4.91924,-0.81739c-2.39812,-0.72427 -4.83661,-2.30237 -7.1155,-4.0378l-4.11074,-2.05537c-0.84561,-0.40086 -1.43041,-1.26228 -1.43041,-2.26029c0,-1.1246 0.74256,-2.07576 1.76412,-2.38994l2.94531,-0.98177l0.04279,0.12838l0.34732,-0.22439c1.4052,-0.01031 2.85149,-0.36074 4.22077,-0.07379c-2.58627,-6.82377 -4.25858,-13.90163 -6.0982,-20.99115c-4.61187,-17.77322 -8.16904,-35.9433 -11.18809,-54.05634c0,0 -0.411,-2.46598 2.05499,-2.87698c2.46598,-0.411 2.87698,2.05499 2.87698,2.05499c2.99439,17.9676 6.52115,35.9921 11.09585,53.62252c1.88121,7.25001 3.58251,14.60642 6.14956,21.64621l1.59067,1.00769c0.71844,0.43918 1.19793,1.23088 1.19793,2.13457c0,1.38071 -1.11929,2.5 -2.5,2.5l-3.74866,0c1.14275,0.84507 2.25053,1.76708 3.59201,2.14654c1.60801,0.45486 3.37699,0.24791 4.9447,0.8266c2.57992,0.95232 4.49742,3.32074 7.10579,4.19211c2.91413,0.97351 8.64487,0.42012 9.59271,5.07572c0.59505,2.92281 -6.16429,6.17794 -7.48777,6.97524c-6.81241,4.10396 -12.93979,8.25365 -18.77551,13.65941c-0.95439,0.88407 -1.99341,1.67657 -2.91802,2.59175c-0.15033,0.1488 -0.4704,0.48486 -0.27715,0.57085c0.53745,0.23915 1.18904,-0.04118 1.76246,0.09007c2.61208,0.59787 5.08381,1.69605 7.62541,2.54501c5.21008,1.17822 10.86901,2.13294 15.6824,4.58091c5.00893,2.54741 6.78377,6.3997 9.85621,10.66224c0.74217,1.02965 1.9476,1.72822 2.75862,2.68692c0.13912,-0.30757 0.30847,-0.59981 0.51903,-0.87114c1.77667,-2.2895 8.18103,-2.72095 10.76777,-2.73223c1.33332,-0.00582 2.66904,-0.0796 4,0c0.58881,0.03522 1.22641,0.6401 1.73603,0.34306c0.51125,-0.29799 0.2261,-1.19735 0.56359,-1.68344c0.93764,-1.35048 2.30164,-2.37491 3.20696,-3.74727c1.77183,-2.68587 2.85769,-5.76639 4.23419,-8.67475c4.59472,-9.70805 9.01001,-19.56584 14.78132,-28.64318c0.79085,-1.24389 5.45345,-8.72251 6.27489,-9.28594c0.53903,-0.36973 3.42861,-0.346 5.68704,-0.27186c-0.26975,-0.91444 -0.55104,-1.82352 -0.84849,-2.72468c-1.35891,-4.11704 -4.05478,-8.02516 -5.04347,-12.23668l-1.88237,-4.57147c-0.13485,-0.30723 -0.20968,-0.64677 -0.20968,-1.0038c0,-1.38071 1.11929,-2.5 2.5,-2.5c0.69036,0 1.31536,0.27982 1.76777,0.73223l1.90642,1.90642c2.06933,1.55917 4.2912,2.98105 6.69474,3.94736c4.26659,1.76535 8.23932,2.25118 12.69153,3.31485c16.18654,3.8671 32.36893,5.09914 48.98917,5.09913c2.66465,0 5.32931,-0.00051 7.99396,-0.00113c-11.29964,-2.57648 -22.68298,-6.45276 -33.0028,-11.80984l-0.08794,0.26382l-4.68873,-1.56291c-1.02156,-0.31417 -1.76412,-1.26534 -1.76412,-2.38994c0,-1.1246 0.74256,-2.07576 1.76412,-2.38994l2.94531,-0.98177l0.02671,0.08012l0.21073,-0.14646c15.77096,-2.03122 31.84969,-3.7122 47.03504,-8.45678c6.18912,-1.93376 12.55034,-3.90197 18.53687,-6.40457c2.33803,-0.97738 4.24884,-2.1901 6.36154,-3.02779c-4.17146,-1.15938 -8.27275,-2.83758 -12.58652,-3.18134c-4.84738,-0.38628 -9.92946,0.01736 -14.7938,0.00852c-1.76849,-0.00321 -3.62252,0.52467 -5.30546,-0.01873c-0.09744,-0.03146 -0.19407,-0.06472 -0.28995,-0.09965l-0.01093,0.04374l-3.94927,-0.98732c-1.1133,-0.25265 -1.9444,-1.24829 -1.9444,-2.43804c0,-1.32388 1.02904,-2.40741 2.33088,-2.49437l2.59478,-0.19885c5.21774,-0.37381 8.86743,-2.07587 13.80328,-3.68491c10.15004,-3.30882 20.28739,-5.81956 29.78567,-10.95335c9.66461,-5.22369 17.7996,-14.50188 28.19481,-18.04023c0,0 2.37171,-0.79057 3.16228,1.58114c0.79057,2.37171 -1.58114,3.16228 -1.58114,3.16228c-4.06438,1.31959 -7.07394,3.85978 -10.50093,6.37642c-5.36603,3.94061 -11.03142,8.14836 -16.89759,11.319c-9.76363,5.27721 -20.18514,7.90831 -30.62099,11.31099c-0.12434,0.04054 -0.24799,0.08108 -0.37098,0.12161c2.93822,0.00022 6.72473,0.00183 6.80612,0.00878c5.10044,0.43594 9.69775,2.49511 14.63705,3.6606l4.32843,0.33668c1.30063,0.08821 2.32832,1.17119 2.32832,2.4942c0,0.82831 -0.40283,1.56254 -1.02328,2.01746l-3.97672,2.98254l-0.01451,-0.01934c-0.05659,0.04913 -0.11364,0.09779 -0.17116,0.14597c-1.33509,1.11821 -3.11124,1.56575 -4.66843,2.34551c-4.289,2.1477 -8.70846,3.63369 -13.22248,5.24558c-6.23254,2.22555 -12.72432,4.70449 -19.17902,6.19251c-10.05207,2.31734 -20.69289,3.55022 -31.07861,4.75179c2.94796,1.0908 5.80505,2.83535 8.76295,4.0169c9.33966,3.73077 18.57294,5.63852 28.32641,7.82328c4.74983,1.06395 7.86915,2.01699 12.74484,1.9978h4c1.38071,0 2.5,1.11929 2.5,2.5c0,1.30615 -1.00167,2.37835 -2.27874,2.49034l-4.94768,0.49477c-2.28576,0.67084 -7.90386,0.5101 -10.22312,0.51157c-5.00027,0.00317 -10.00055,0.0033 -15.00082,0.0033c-18.71775,0.00002 -36.89209,-0.86163 -55.15253,-5.23635c-4.71275,-1.12905 -8.87866,-1.71064 -13.42115,-3.54981c-0.91248,-0.37864 -1.80315,-0.80967 -2.67383,-1.28109c0.09774,0.29194 0.20115,0.58064 0.31707,0.86216c1.7582,4.26992 3.22015,8.45383 4.54091,12.77454c4.45492,0.84579 9.18235,2.27863 12.81236,4.91019c0.26627,0.19303 6.65182,7.24027 7.01402,7.63897c6.50604,7.16176 12.64761,15.3587 17.22842,23.8772c2.71806,5.05451 4.89627,8.79522 5.80251,14.52393c0.29534,1.867 1.04876,3.73349 0.82464,5.61038c-1.01186,8.47378 -8.3655,13.0558 -16.09571,13.85771c-1.33901,0.1389 -2.79312,0.39887 -4.03691,-0.11613c-1.90135,-0.78725 -3.33175,-2.41641 -4.99763,-3.62461c-7.48683,-10.3197 -12.10157,-21.81569 -15.62109,-34.07976c-2.03015,-7.07423 -3.01183,-14.44532 -4.98485,-21.54546c-0.59838,-2.15332 -1.15347,-4.33632 -1.72558,-6.51561c-0.97558,-0.0204 -1.95179,-0.02967 -2.92417,-0.10665c-0.59147,-0.04682 -1.30475,-0.69671 -1.75309,-0.3081c-0.95954,0.83171 -1.13447,2.27444 -1.77825,3.36898c-2.22716,3.78659 -4.45459,7.09096 -6.42478,11.02967c-1.34776,2.69439 -3.12168,5.15512 -4.58922,7.78618c-3.19676,5.73127 -5.46188,12.12467 -8.36805,18.02076c-1.51821,3.08018 -3.5377,5.90584 -5.64057,8.62068c-0.77529,1.00091 -1.02601,2.53421 -2.1382,3.13915c-1.25262,0.68131 -2.83928,0.28392 -4.26397,0.34306c-3.60774,0.14977 -5.80806,-0.0828 -9.20943,0.87171c-0.82152,0.23054 -1.83572,0.20072 -2.42589,0.81695c3.57237,1.18891 6.97924,2.90729 10.6374,3.84394c4.4254,1.13309 9.16682,1.12402 13.5712,2.25352c1.60506,0.41162 3.0431,1.34939 4.64718,1.76478c2.41944,0.62653 8.54779,-0.21221 8.27954,4.94911c-0.14624,2.81363 -6.19364,6.56599 -8.11557,7.94052c-7.78788,5.56978 -16.3083,9.83603 -24.85037,14.08696c1.04646,0.66493 1.3036,2.28807 2.2168,3.18799c0.97294,0.9588 2.65967,1.20119 3.32637,2.39342c0.3199,0.57206 0.57074,1.21086 0.76692,1.89215c1.72577,-0.16823 3.59684,0.85107 5.19915,0.18925zM267.12829,209.79057c-0.33358,-1.00073 -0.10415,-1.71995 0.27255,-2.21707c-0.2343,-0.05151 -0.4651,-0.11786 -0.69141,-0.20179c-3.18078,-1.17961 -4.87757,-3.32994 -6.44395,-5.69404c-0.17133,1.65477 -0.24127,3.38031 -0.26548,5.32233c-0.02013,1.61445 -0.84891,4.27582 0.67964,4.79581c0.89245,0.3036 1.87118,-0.24556 2.81252,-0.2958c1.48538,-0.07928 3.01765,-0.1867 4.53061,-0.41197c-0.3606,-0.25768 -0.68372,-0.66521 -0.89448,-1.29747zM271.21371,200.01138c-0.32193,-0.8012 -0.64763,-1.34916 -1.00231,-1.76746l-2.50198,1.12778c-1.24585,-0.46437 -2.73364,-0.52137 -3.73756,-1.39312c-0.34093,-0.29605 -0.64854,-0.60869 -0.92572,-0.93593c1.41015,2.27442 2.99095,4.72456 5.24442,5.58563c1.26698,0.48412 2.44677,0.47482 3.54946,0.15044c-0.19912,-0.92612 -0.27396,-1.89043 -0.62631,-2.76735zM283.62663,199.31433c-0.63151,0.65683 -1.39012,1.56447 -2.20944,2.51406c1.76661,-1.53678 3.61444,-2.98693 5.31505,-4.59616c0.45551,-0.43104 1.27788,-0.58826 1.45807,-1.18894c0.29147,-0.97167 -0.1613,-2.02334 -0.19029,-3.03737c-0.01495,-0.52269 0.01362,-1.57909 0.00897,-2.7552c-0.72036,0.12717 -1.43671,0.2596 -2.15066,0.39836c0.18823,2.44832 -1.63946,6.98418 -2.23169,8.66525zM257.60194,190.64654c0.06047,0.08505 0.12333,0.16803 0.18827,0.2492c0.3732,-0.99131 0.76545,-1.96122 1.16283,-2.92164c-1.12466,-1.11619 -2.43054,-2.31165 -3.65804,-3.59036c0.67241,2.14595 1.01653,4.44801 2.30694,6.2628zM279.37337,196.68567c0.24211,-0.79488 0.34303,-1.64739 0.72633,-2.38464c0.34896,-0.67121 1.60571,-1.02673 1.42979,-1.7625c-0.14537,-0.608 -1.05525,0.68105 -1.62903,0.92919c-0.47426,0.2051 -5.32196,1.80801 -5.60989,1.90399l-0.66357,0.03051c1.02064,1.3596 1.89164,2.84207 2.54363,4.53178c1.16496,-1.11579 2.22528,-2.32719 3.20274,-3.24832zM261.69761,194.85701c-0.00504,0.01572 -0.01006,0.03143 -0.01507,0.04713c0.03507,0.05094 0.07014,0.1024 0.10522,0.15433c-0.03084,-0.06681 -0.06088,-0.13397 -0.09015,-0.20146zM336.72949,89.48811c4.09352,14.88971 6.4916,30.09519 12.83558,44.28802c1.03929,2.3251 1.77568,4.80857 3.10429,6.98136c1.38596,2.26657 3.09444,4.31953 4.61883,6.49542c1.00079,0.7918 1.84082,1.84689 3.00237,2.37539c0.59665,0.27147 1.31529,-0.01591 1.96309,-0.11613c5.24821,-0.81194 11.01474,-3.1351 11.61819,-9.42706c0.13783,-1.43709 -0.54682,-2.83535 -0.78892,-4.25858c-0.87841,-5.16394 -2.79999,-8.35318 -5.27307,-12.9652c-4.37664,-8.16197 -10.28836,-16.02617 -16.52308,-22.87934c-2.09998,-2.30828 -3.73165,-5.13153 -6.25925,-6.96162c-2.32988,-1.68694 -5.32501,-2.79958 -8.29804,-3.53225z" fill="#000000"/><path d="M163.35046,198.75471c-0.30847,1.15366 -0.63389,2.32777 -0.95623,3.51273c1.50904,-0.32023 3.03241,-0.58067 4.58329,-0.70838c4.97096,-0.40934 10.12281,-0.18872 15.16794,-0.09469c0.7482,-0.11493 1.49003,-0.15425 2.21292,0.03082c0.38145,0.00309 0.76203,0.0048 1.14162,0.0048l4,0c1.38071,0 2.5,1.11929 2.5,2.5c0,1.38071 -1.11929,2.5 -2.5,2.5h-5l0,-0.00394c-0.70746,-0.00539 -1.41808,-0.01596 -2.13101,-0.0294c-2.36803,0.40076 -4.79969,0.67372 -7.60158,0.92843c-4.77272,0.43388 -9.12167,1.12798 -13.77585,0.42869c-0.46865,2.11848 -0.82989,4.22433 -0.97215,6.26415c-0.07599,1.08963 -0.2212,2.32951 0.35479,3.25757c0.32385,0.5218 1.21652,0.16947 1.82477,0.25421c2.59603,0.67063 5.07697,1.81459 7.39941,3.15451c1.34336,0.77505 3.33266,0.80214 4.13769,2.12775c0.56948,0.93774 -1.00591,2.06353 -0.92781,3.15786c0.02731,0.38263 0.78434,-0.24812 1.14485,-0.11702c1.62573,0.59123 3.1886,1.36519 4.68306,2.23647c1.47632,0.8607 2.76814,2.00696 4.19875,2.94167c5.65528,3.69494 13.44941,7.20328 16.03679,14.10848c0.12268,0.3274 0.23889,7.97529 -0.06201,8.74728c-0.42893,1.10045 -1.63851,1.706 -2.37634,2.62826c-0.88782,1.10975 -1.31887,2.65817 -2.49323,3.45857c-1.05333,0.71791 -2.64522,0.14032 -3.7415,0.79077c-0.45382,0.26926 -0.21063,1.03885 -0.23091,1.56615c-0.0461,1.19901 0.02978,2.39965 0.03228,3.59954c0.01007,4.83145 0.86535,8.61978 1.90929,13.33267c2.87934,8.60023 6.28509,16.58636 9.96624,24.86434c3.86527,8.69203 7.26004,17.65899 11.68433,26.09503c2.33957,4.46099 5.40908,8.16063 8.04598,12.36058c0.65529,1.04372 0.5518,2.56261 1.45848,3.39728c0.6959,0.64063 4.65378,0.45554 5.43568,0.4501c0,0 2.5,0 2.5,2.5c0,2.5 -2.5,2.5 -2.5,2.5c-2.71308,-0.01537 -6.25433,0.26658 -8.56432,-1.5499c-1.37767,-1.08334 -1.57008,-3.14399 -2.54152,-4.60272c-1.86198,-2.796 -4.00243,-5.41279 -5.69358,-8.31531c-4.87639,-8.36929 -8.62625,-17.34494 -12.43763,-26.23873c-4.31019,-10.05775 -8.71905,-19.72506 -12.17223,-30.12601c-1.14445,-5.13434 -2.10019,-9.38729 -2.09071,-14.66733c0.00468,-2.60765 -0.46871,-6.70903 1.80138,-8.83431c1.07721,-1.0085 3.0216,-0.40455 4.2585,-1.20923c0.82552,-0.53705 0.89155,-1.77239 1.50677,-2.54143c0.4426,-0.55326 1.34945,-0.71843 1.62366,-1.37174c0.26473,-0.63074 -0.18223,-1.35929 -0.1903,-2.04329c-0.01264,-1.07059 0.50463,-2.20709 0.12829,-3.20943c-2.06941,-5.51176 -9.56162,-8.58235 -14.02924,-11.50453c-1.35946,-0.8892 -2.58015,-1.98894 -3.98285,-2.80823c-1.00472,-0.58684 -7.22407,-3.03475 -7.92446,-4.51764c-0.43243,-0.91557 1.35519,-1.86994 1.07219,-2.84214c-0.1739,-0.59743 -1.28136,0.3506 -1.86231,0.12775c-1.09262,-0.41911 -1.83837,-1.49623 -2.91301,-1.9595c-1.1609,-0.50046 -2.45839,-0.59066 -3.68759,-0.88599c-1.39174,-0.58193 -3.31258,-0.50828 -4.17523,-1.74579c-1.28522,-1.84372 -1.49351,-4.30361 -1.60637,-6.54824c-0.08851,-1.76043 0.55544,-3.47839 0.94717,-5.20222c-1.0349,0.22762 -2.07329,0.42689 -3.11985,0.57179c-2.98529,0.41334 -6.05174,-0.37582 -9.04129,0.00543c-1.36333,0.17386 -2.63177,0.87026 -4,1c-0.63314,0.06004 -1.39128,-0.87963 -1.85537,-0.44479c-0.62813,0.58855 -0.26247,1.70142 -0.3937,2.55214c-2.83487,7.09002 -6.03216,14.0955 -8.69985,21.24609c-2.05012,5.49523 -3.17,11.38019 -4.98588,16.95901c-2.90511,8.92517 -6.6661,17.66805 -10.16655,26.37208c-1.85186,4.60472 -3.86175,9.18379 -5.56883,13.84385c-0.40359,1.10173 -0.52294,2.34212 -0.91437,3.44233c-0.11423,0.44332 -0.22967,0.88667 -0.34639,1.33009l-0.10354,0.12631l0.05021,0.02008l-1.83533,4.58831c-0.35452,0.94948 -1.26971,1.62559 -2.34282,1.62559c-1.38071,0 -2.5,-1.11929 -2.5,-2.5c0,-0.29529 0.05119,-0.57862 0.14519,-0.8416l1.55403,-4.69092c0.09798,-0.75189 0.69585,-2.46079 1.37813,-4.24833c0.53234,-2.18744 1.03972,-4.37456 1.52913,-6.56404c-5.1459,11.08912 -11.0334,21.8669 -16.8003,32.57028c-5.10823,11.36137 -11.15784,22.56379 -15.80278,34.10526c-1.85204,4.60183 -2.59606,9.61673 -4.43059,14.21255c-0.80608,2.01937 -1.17802,4.45272 -2.81429,5.88458c-1.10939,0.97079 -2.92933,0.35451 -4.40157,0.42983c-0.76052,0.03891 -8.46211,-0.01092 -8.79057,-0.12829c-1.66248,-0.59407 -2.70289,-2.32869 -4.28386,-3.11436c-1.21042,-0.60153 -2.69727,-0.43241 -3.93695,-0.97106c-1.23279,-0.53565 -2.25024,-1.47077 -3.37537,-2.20616c0,0 -2.08013,-1.38675 -0.69338,-3.46688c1.38675,-2.08013 3.46688,-0.69338 3.46688,-0.69338c1.99767,1.36533 4.52625,1.73512 6.68768,2.82278c1.40094,0.70497 2.25906,2.30551 3.71614,2.88564c0.99472,0.39604 2.13894,-0.10924 3.20943,-0.12829c1.33312,-0.02372 2.67058,-0.10207 4,0c0.55012,0.04224 1.24331,0.85209 1.59843,0.42983c0.7546,-0.89727 0.5764,-2.27323 0.89961,-3.40019c1.36998,-4.77674 2.65511,-9.80895 4.50956,-14.42237c4.68652,-11.65892 10.79149,-22.98084 15.95775,-34.45191c10.14428,-18.85629 20.76943,-37.93581 26.82388,-58.59401l0.79632,-2.71213c0.28639,-1.06516 1.25886,-1.84922 2.41446,-1.84922c1.38071,0 2.5,1.11929 2.5,2.5c0,0.18573 -0.02025,0.36673 -0.05867,0.54091l-0.97046,4.85228c-0.00808,0.95581 -0.11903,1.90099 -0.28861,2.84012c1.57196,-3.97987 3.13376,-7.98683 4.44708,-12.02704c1.82343,-5.60946 2.95899,-11.51318 5.01412,-17.04099c2.66884,-7.17853 5.88125,-14.20956 8.72796,-21.32344c0.72616,-1.62611 0.8161,-3.7314 2.17849,-4.87833c1.06296,-0.89485 2.77651,-0.2021 4.14463,-0.44479c1.35324,-0.24005 2.63585,-0.83268 4,-1c2.96402,-0.36356 6.00206,0.42479 8.95871,0.00543c0.24013,-0.03406 0.47986,-0.0708 0.71925,-0.10992c-0.47629,-0.57278 -0.78934,-1.23937 -0.84022,-2.01379c-0.27499,-4.18547 3.56455,-7.38225 7.04053,-10.00185c0.26923,-1.09022 1.25381,-1.8986 2.42719,-1.8986c0.02858,0 0.05705,0.00048 0.0854,0.00143c0.34255,-0.2686 0.66549,-0.53103 0.96213,-0.78792c2.53814,-2.19803 5.10195,-4.36754 7.71121,-6.48066c0.28463,-0.23051 3.71181,-2.67849 3.77794,-3.65953c0.09244,-1.37126 -1.30464,-2.65982 -1,-4c0.40112,-1.7646 1.62291,-3.32536 2.94584,-4.56009c0.78668,-0.73424 2.22278,-0.36001 3.05571,-1.04134c1.09812,-0.89825 1.64118,-2.3146 2.46178,-3.47189l-0.5,0.5c0,0 0,-2.5 2.5,-2.5c2.5,0 2.5,2.5 2.5,2.5l-0.5,2.5c-1.17941,1.50937 -2.07612,3.29059 -3.53822,4.52811c-0.65629,0.55548 -3.9792,0.46435 -3.99846,2.39858c-0.01368,1.3743 1.26354,2.65113 1,4c-0.3191,1.63324 -1.54992,2.97355 -2.61267,4.25412c-1.86671,2.24932 -4.54064,3.6827 -6.77834,5.56331c-0.12465,0.10476 -3.37155,2.92014 -5.57231,4.82692v1.92897c0,0 0,1.01793 -0.64954,1.75471zM156.96772,201.59954c-0.05796,0.20884 0.27353,0.20942 0.56414,0.22976c0.13573,-0.58553 0.27304,-1.17068 0.41199,-1.7553c-0.47643,0.51474 -0.84029,1.0361 -0.97613,1.52554z" fill="#000000"/></g></g></svg>