<svg version="1.1" xmlns="http://www.w3.org/2000/svg" xmlns:xlink="http://www.w3.org/1999/xlink" width="919.58911" height="458.52725" viewBox="0,0,919.58911,458.52725"><g transform="translate(70.5891,24.55348)"><g data-paper-data="{&quot;isPaintingLayer&quot;:true}" fill-rule="nonzero" stroke-linejoin="miter" stroke-miterlimit="10" stroke-dasharray="" stroke-dashoffset="0" style="mix-blend-mode: normal"><path d="M473.5,181l-115.27746,-1.32185l129.27746,1.32185" fill="none" stroke="#000000" stroke-width="2" stroke-linecap="round"/><path d="M73.5,369l56,-142l237,-2l52,146" fill="none" stroke="#000000" stroke-width="2" stroke-linecap="round"/><path d="M174.1795,94.51925c7.52509,-5.83499 16.04836,-9.47415 25.07021,-11.70996c3.25865,-1.10671 6.63408,-1.87716 9.94483,-2.29055c1.07862,-0.13469 2.16769,-0.09547 3.25811,-0.03773c8.89011,-1.02016 18.0137,-1.1202 26.94599,-0.97395c1.69486,-0.00656 3.39461,-0.00705 5.10136,-0.00705c4.31967,0 8.96894,-0.51093 13.24635,0.01216c1.02915,0.12586 2.05189,0.29308 3.07152,0.48071c0.22778,0.00261 0.45517,0.00499 0.68214,0.00713c3.65301,0.03438 8.13038,0.80383 12.16207,2.1042c2.91655,0.1376 5.77958,0.04519 8.91401,0.42265c1.1384,0.13709 2.15976,0.81442 3.29122,1.00029c2.31338,0.38004 4.71124,-0.31873 7.03315,0.00515c1.04399,0.14562 1.96082,0.82336 3,1c1.09261,0.18573 2.27528,-0.28342 3.324,0.07499c3.55696,1.2156 7.48363,4.95492 10.77528,6.7788c2.23503,1.23842 4.69236,2.08328 6.82357,3.49288c7.30784,4.83351 12.87233,10.48262 17.74917,17.72288c1.98003,2.93959 3.9284,4.70659 5.05415,8.08384c3.74678,3.58632 4.54099,7.71983 7.03565,12.05951c1.41027,2.45328 3.18566,4.73907 4.18244,7.38745c0.54159,1.439 0.75953,2.97484 0.98551,4.50802c0.38238,0.5458 0.74613,1.09562 1.08619,1.65115c3.32623,5.43381 4.0571,11.4974 5.34389,17.5564c0.23534,0.43266 0.44903,0.8743 0.60439,1.34046c0.9842,2.9531 1.18955,6.11822 2.036,9.11371c1.00979,3.57355 3.49973,6.59548 4.06703,10.29718c0.20198,1.31795 -0.16337,2.67672 0,4c0.26081,2.11241 2.34062,3.62935 2.92501,5.676c0.40994,1.43567 0.06341,2.98541 0.09511,4.47812c1.13662,5.67864 0.04785,11.27595 0.97988,16.84589c0.34793,2.07927 1.65445,3.92032 2,6c0.04177,0.25142 0.03228,5.92714 0.03228,6.40045v1c0,0 0,2.5 -2.5,2.5c-2.5,0 -2.5,-2.5 -2.5,-2.5v-1c0,-1.86655 0.34033,-3.7586 0.03228,-5.59955c-0.34793,-2.07927 -1.65445,-3.92032 -2,-6c-0.20074,-1.20812 -0.31032,-2.41458 -0.36935,-3.62087c-0.1956,0.36052 -0.40927,0.69049 -0.64212,0.98083c-13.06045,16.28457 -30.7871,10.19067 -51.43878,10.23959c-1.13358,0.00269 -6.25567,2.79319 -9.08204,3c-16.64299,1.21778 -33.07649,-0.71619 -49.4853,-2c-21.58058,-1.68845 -43.25124,-0.17434 -64.86997,0c-2.16818,0.01748 -5.458,1.51406 -7.64473,2c-2.97848,0.66189 -6.10677,-0.16564 -9.15341,0c-11.39829,0.61971 -24.81712,4.56258 -36.07119,1.74906c-4.01109,-1.00277 -7.33686,-4.37996 -9.48028,-8.48041c0.04749,2.26046 0.20489,4.54099 0.20489,6.73136c0,0 0,2.5 -2.5,2.5c-2.5,0 -2.5,-2.5 -2.5,-2.5c0,-4.01106 -0.48915,-8.33339 0.01873,-12.30546c0.31155,-2.43657 1.5219,-4.6619 2.34505,-6.98658c0.0392,-0.23941 0.08456,-0.47552 0.13622,-0.70795c0.13904,-0.62566 0.31421,-1.26623 0.51033,-1.91617c0.06667,-1.19239 -0.21668,-2.42886 0.04287,-3.59681c0.36155,-1.62698 1.49541,-3.0154 1.85695,-4.64238c0.31527,-1.41871 -0.17405,-2.93931 0.14305,-4.35762c0.2238,-1.001 0.65433,-1.93702 1.08419,-2.87451c0.0556,-0.32052 0.12092,-0.63939 0.19853,-0.95619c0.90538,-3.6958 -0.15234,-4.02432 0.16408,-10.65632c0.34633,-7.25889 3.78638,-14.1855 4.58481,-21.33926c0.28128,-2.52021 0.69414,-6.4077 1.83111,-8.63822c2.48613,-4.8773 5.04996,-9.21358 7.79426,-13.17335c0.04688,-0.82541 0.13768,-1.64201 0.35851,-2.43118c0.37677,-1.3465 1.3274,-2.47018 1.88258,-3.75174c-0.29474,-1.17332 -0.45127,-2.40151 -0.45127,-3.66626c0,-1.08965 0.11619,-2.15216 0.33685,-3.17583c0.64214,-3.35743 2.12287,-5.65812 4.05357,-7.4278c1.35805,-1.35881 2.97549,-2.45834 4.7717,-3.21794c0.48154,-0.25815 0.96994,-0.5102 1.462,-0.7605c0.50793,-0.7837 0.99878,-1.582 1.65784,-2.23407c0.17354,-0.1717 5.9307,-3.99693 6.33129,-4.26399c1.77599,-1.18399 3.53755,-2.33289 5.31136,-3.44956c2.14563,-2.07728 4.3428,-4.08074 6.75489,-5.95108zM290.47748,88.41593c3.4233,0.85582 6.38237,3.56887 9.67679,4.93346c3.40783,1.41157 12.28936,4.12277 15.73098,7.07274c0.0179,0.01534 1.56507,2.05987 2.35876,2.62074c0.82756,0.58479 1.72489,0.95047 2.63891,1.25785c-2.04849,-1.84083 -4.2647,-3.55352 -6.70623,-5.17966c-2.05532,-1.36891 -4.44214,-2.16412 -6.60151,-3.36216c-2.53417,-1.40599 -5.06902,-3.0266 -7.46193,-4.67876c-0.79084,-0.54603 -1.42283,-1.39317 -2.33771,-1.68739c-0.8495,-0.2732 -1.79526,0.21852 -2.676,0.07499c-1.04037,-0.16955 -1.95706,-0.84707 -3,-1c-0.58834,-0.08627 -1.18169,-0.1048 -1.77742,-0.09058c0.05177,0.01291 0.10355,0.02584 0.15536,0.03879z" fill="#000000" stroke="none" stroke-width="0.5" stroke-linecap="butt"/><path d="M142.6529,222.88758c3.9296,-0.75326 7.89411,-1.32205 11.86173,-1.83892c4.74107,-0.61763 9.22914,-2.41797 14,-3c4.10351,-0.50062 7.68967,0.30872 11.5872,1.08046c1.96191,0.38847 4.0217,-0.29385 6,0c1.04265,0.15487 1.95647,0.85119 3,1c1.24914,0.17812 2.54435,-0.2614 3.78519,-0.03247c5.21494,0.96215 10.15745,3.15141 15.38181,4.06103c2.93061,0.51025 5.93671,0.48521 8.87037,0.97759c5.83558,0.97943 11.4872,2.85948 17.28314,4.05124c1.14835,0.23612 3.13235,-0.2027 4.45693,-0.17226c5.91707,-1.23313 11.80312,-2.64891 17.7134,-3.83067c3.95884,-0.79157 7.90424,-1.73874 11.92196,-2.13492c2.35376,-0.2321 4.82754,0.80693 7.0943,0.13177c1.72037,-0.51242 3.24703,-1.61357 5,-2c5.14225,-1.13358 11.62613,-0.18043 16.89108,-0.18043c10.66667,0 21.33333,0 32,0c5.66667,0 11.33333,0 17,0c1.10192,0 7.26791,-0.02805 7.60182,0.12912c3.84767,1.81116 9.60768,2.91786 10.63698,7.04404c0.78368,3.14157 -0.06696,6.43264 -1.50753,9.54797c1.53033,0.30638 3.04348,0.72101 4.53284,1.27886h1.7359c5.52285,0 10,4.47716 10,10c0,1.18399 -0.20576,2.31991 -0.58348,3.37396c0.1373,0.12204 0.27407,0.25099 0.41032,0.38724c0.13166,-0.22876 0.26333,-0.45752 0.395,-0.68628l1.05542,0.81605l0.1481,-0.5924l3.79706,0.94926c4.45321,1.01058 7.77758,4.99315 7.77758,9.75216c0,3.99203 -2.33918,7.43771 -5.72163,9.04116l-1.53843,0.76921c2.57622,1.80896 4.26006,4.80266 4.26006,8.18963c0,2.43171 -0.86796,4.6607 -2.31097,6.39406c0.62183,0.55516 1.1256,1.08599 1.38205,1.53487c1.89657,3.3197 6.13509,6.801 4.84045,10.3984c-0.23075,0.64119 -0.51734,1.25 -0.85127,1.83038c0.85517,0.82598 1.43237,1.79833 1.5303,3.01006c0.22724,2.81176 -0.79631,5.43976 -2.28291,7.95701c3.14844,0.9357 5.94858,2.23141 6.50911,4.15664c0.49203,1.68998 0.53092,3.69658 0.18878,5.75409c8.87865,3.80728 13.55004,3.27617 4.78897,19.30171c-0.0564,0.10316 -0.1321,0.20589 -0.2256,0.30811c0.45493,0.3009 0.91275,0.59631 1.37538,0.88254c-0.03481,0.15665 -0.06787,0.31404 -0.09935,0.47213h0.15508c5.52285,0 10,4.47715 10,10c0,5.52285 -4.47715,10 -10,10h-3v-0.4578c-0.14141,-0.04442 -0.28148,-0.09189 -0.4201,-0.14234l0.4201,0.60014c-0.56808,0 -1.1676,-0.02324 -1.78674,-0.05797c-0.42429,0.13335 -0.86082,0.07149 -1.3038,-0.08432c-2.49475,-0.17525 -5.16352,-0.40212 -7.30764,0.01317c-6.1848,1.19793 -12.17768,2.89738 -18.50754,3.04402c-0.99846,0.35543 -2.00819,0.66805 -3.04681,0.87325c-3.29613,0.65121 -6.67121,0.7665 -10.02826,1.001c-0.13725,0.03515 -0.27619,0.06319 -0.41739,0.08173c-0.60987,0.08006 -1.25095,0.10961 -1.91163,0.10823c-12.69045,1.19013 -25.51044,2.4352 -38.23704,3.01063c-13.88354,0.62773 -27.92194,0.15632 -41.85778,0.03616c-1.26728,0.14956 -2.78696,0.86583 -3.59211,-0.02229c-0.66805,-0.00236 -1.33581,-0.00361 -2.00326,-0.00361h-3c-3.68959,0 -6.91249,-1.99818 -8.64557,-4.9714c-4.21224,0.53828 -8.35766,1.61638 -12.59192,1.94229c-4.42337,0.34047 -8.87679,-0.16693 -13.30936,0.01884c-3.67856,0.15418 -7.32229,0.82681 -11,1c-20.71402,0.97546 -41.7136,0.01027 -62.45315,0.01027c-3.25949,0 -6.53128,-0.36126 -9.77817,-0.07493c-3.28335,0.28955 -6.43419,1.46053 -9.69263,1.95731c-7.27778,1.10958 -14.20481,1.11762 -21.5292,1.11762c-1.91714,0 -7.51136,0.02305 -8.60182,-0.12912c-4.2138,-0.58803 -9.08163,-2.09838 -13.19405,-3.26968c-2.49961,-0.71193 -5.26421,-2.29427 -7.80595,-2.73032c-1.9712,-0.33817 -4.02482,0.31411 -6,0c-3.31274,-0.52682 -6.89811,-1.80252 -10.1878,-2.92216c-2.36203,-0.24611 -9.21038,-1.67323 -9.21038,-9.94871c0,-10 10,-10 10,-10l3.09466,0.38154c-0.0624,-0.45158 -0.09466,-0.91279 -0.09466,-1.38154c0,-5.09308 3.80749,-9.29688 8.73133,-9.92028l6.85446,-0.97921l0.03573,0.25009c0.22195,-0.1107 0.44513,-0.21921 0.6696,-0.32544c0.20814,-0.0985 0.517,-0.16631 0.90454,-0.20871c-4.0379,-3.30372 -6.92664,-8.55964 -8.06653,-13.21464c-0.28741,-1.17372 -0.37078,-2.36128 -0.32183,-3.55714l-0.22032,-0.66096c-0.37995,-1.0568 -0.58698,-2.19608 -0.58698,-3.38372c0,-5.52285 4.47715,-10 10,-10c1.04905,0 2.06037,0.16154 3.01044,0.46109c-0.00693,-0.15283 -0.01044,-0.30655 -0.01044,-0.46109c0,-4.4984 2.97023,-8.30305 7.05648,-9.55975l4.13938,-1.37979c-0.66629,-0.14247 -1.33054,-0.29404 -1.99173,-0.45925c-2.51378,-1.2689 -5.96107,-1.47605 -7.54135,-3.80671c-6.79976,-10.02858 -2.75586,-21.70322 8.43938,-25.36541c0.82934,-0.2713 1.68288,-0.40645 2.55025,-0.44593c-0.40973,-1.11025 -0.65241,-2.42536 -0.65241,-3.98315c0,-6.62008 4.38254,-8.85762 7.34507,-9.61389c0.4014,-1.48625 1.13683,-2.83535 2.12079,-3.96179c-0.29578,-0.98615 -0.46586,-2.1202 -0.46586,-3.42432c0,-10 10,-10 10,-10c3.17049,0.08897 6.3383,0.56888 9.49933,1.14794zM258.33649,302.00032c2.39503,0.01473 4.78622,-0.00032 7.16351,-0.00032c8.30704,0 16.76852,0.04523 24.93588,-1.78465c3.24283,-0.72655 6.32726,-2.04607 9.54106,-2.89182c0.77591,-0.20419 1.5557,-0.39212 2.33837,-0.56806c-2.28163,-0.04372 -4.56013,-0.01956 -6.82993,0.19586c-4.9583,0.47057 -9.7121,2.27756 -14.6459,2.95855c-7.45739,1.02931 -15.04936,1.0976 -22.50298,2.09043z" fill="#828282" stroke="none" stroke-width="0.5" stroke-linecap="butt"/><path d="M28.20724,-0.77877c16.96713,-4.12342 34.24326,-8.36836 51.6666,-9.66238c107.08747,-7.95338 214.17948,-14.05276 321.62617,-14.05884c141.66666,-0.00802 283.33338,-0.11623 425,0c12.70408,0.01043 22.5,9.43958 22.5,22.5c0,9.69014 -3.45681,15.08243 -11.25,19.6875c-5.18935,3.06643 -12.2283,2.70291 -18.00377,3.58182c-25.79569,3.92558 -52.15392,2.36859 -78.24623,2.23068c-3.71565,-0.01964 -8.54625,-2.99722 -11.4671,-3c-65.65021,-0.06243 -131.31697,-1.47165 -196.95071,0c-1.4713,0.03299 -0.09494,2.95343 0.08382,4.4142c0.34303,2.80316 0.93931,5.66757 0.1622,8.54285c-2.75307,10.18637 -11.12652,16.85016 -21.82821,17.04295c-30.13176,0.54281 -60.26885,-2.65533 -90.38781,-3c-92.13375,-1.05434 -183.77107,0.03471 -275.42743,8.89368c-30.073,2.90668 -32.2157,0.99679 -61.20833,2.10632c-5.30651,0.20307 -16.1868,1.98285 -23.97642,2c-14.3967,0.03169 -28.79355,-0.04614 -43.19022,0c-2.8201,0.00904 -5.8203,-0.27545 -8.57039,-1.1176c-8.28681,-2.53766 -14.75117,-5.10961 -21.22376,-11.37458c-3.06527,-2.96695 -4.09891,-9.15964 -3.37951,-13.51141c1.60836,-9.72931 5.33326,-17.9284 13.8921,-23.77765c0.01287,-0.02218 0.02579,-0.04432 0.03874,-0.06645c1.01696,-3.76276 4.28673,-6.34573 8.09361,-8.09018c3.32959,-1.94657 7.20424,-3.06211 11.33945,-3.06211c3.54113,-0.45536 7.23793,0.56435 10.70724,-0.27877z" fill="#555555" stroke="none" stroke-width="0.5" stroke-linecap="butt"/><path d="M48.25,60c0,-10.25 10.25,-10.25 10.25,-10.25h3c3.68143,0 7.60923,0.37238 11.27339,0.02578c9.56987,-0.90521 19.06003,-2.94145 28.60537,-3.96428c5.07252,-0.54355 10.18729,-0.59095 15.27026,-1.02613c6.78874,-0.58122 13.53569,-1.67511 20.34039,-2.02266c0.33427,-0.01707 39.49829,-0.01273 39.51059,-0.01273c9.80866,0 19.62503,-0.38003 29.42597,0.00885c7.66788,0.30425 15.32609,1 23,1c18.3487,1.52264 36.45101,4.36033 54.89387,4.99614c20.30301,0.69994 40.67518,-0.632 60.98124,-0.00057c5.67372,0.17643 11.32634,0.8218 17,1c11.22744,0.35263 22.46594,-0.00442 33.69892,-0.00442c31,0 62,0 93,0c0,0 10.25,0 10.25,10.25c0,10.25 -10.25,10.25 -10.25,10.25c-31,0 -62,0 -93,0c-11.43369,0 -22.87291,0.35094 -34.30108,-0.00442c-5.67372,-0.17643 -11.32634,-0.8218 -17,-1c-20.31807,-0.63814 -40.70254,0.70015 -61.01876,-0.00057c-18.52341,-0.63889 -36.68479,-3.46148 -55.10613,-5.00386c-7.67391,0 -15.33232,-0.69074 -23,-1c-9.51693,-0.38385 -19.04935,0.00885 -28.57403,0.00885c-12.8298,0 -25.67658,-0.67257 -38.48941,-0.01273c-6.57755,0.33873 -13.09746,1.41419 -19.65961,1.97734c-4.90261,0.42073 -9.83711,0.44972 -14.72974,0.97388c-9.80753,1.05069 -19.55351,3.1697 -29.39463,4.03572c-4.15384,0.36554 -8.55276,0.02578 -12.72661,0.02578h-3c0,0 -10.25,0 -10.25,-10.25z" fill="#555555" stroke="none" stroke-width="0.5" stroke-linecap="butt"/><path d="M254.51091,82.5c-9.24893,0.16585 -18.77815,2.91264 -28.04978,3.8398c-5.1704,0.51704 -10.4211,0.49309 -15.58979,1.1602c-5.04,0.65049 -9.97044,3.05185 -15.09287,3.77215c-11.53131,1.62152 -16.03398,7.10953 -25.70231,13.02143c-2.40238,1.46898 -11.60641,5.10104 -12.94257,8.43265c-1.95274,4.86906 -4.7339,7.74469 -8.14186,11.60184c-2.36973,2.68207 -3.35733,7.1604 -5.50735,9.67973c-1.33528,1.56464 -3.47844,2.36538 -4.65138,4.05514c-1.04229,1.50157 -2.0863,3.00491 -3.17172,4.47404c-0.57958,1.19678 -2.04011,3.5941 -1.93122,4.31442c0.17851,1.18087 1.36126,2.02254 1.64605,3.18238c0.11397,0.46415 1.05559,9.04597 0.74578,10.19228c-0.41679,1.5421 -1.77585,2.6796 -2.38716,4.15543c-0.61131,1.47583 -0.45464,3.24117 -1.25036,4.62632c-2.10536,3.66487 -11.28381,8.82268 -14.7583,9.61408c-6.87068,1.56497 -14.68693,-0.74468 -21.65643,-1.12189c-13.85494,-0.74989 -28.36468,-1.3033 -42.13929,-1c-13.59859,0.29943 -26.28396,5.63439 -39.73138,7.69386c-12.4219,1.90241 -25.13278,0.4239 -37.69898,0.30614c-5.68378,-0.05327 -14.76555,-1.1626 -19.25,-3.8125c-11.56202,-6.8321 -14.3811,-21.06353 -7.73437,-32.69531c1.6901,-2.95768 4.82525,-4.90731 7.73438,-6.67969c2.01926,-1.23024 5.09529,-0.47122 6.75961,-2.15079c0.77317,-0.78025 -2.08923,-1.13274 -2.49399,-2.1539c-1.65502,-4.17547 -3.51562,-8.5163 -3.51562,-13.00781c0,-4.87186 1.98675,-9.74339 4.54006,-13.89256c1.51205,-2.45712 -5.65282,-1.16276 -8.49594,-1.65304c-3.88184,-0.66939 -7.16571,-0.89014 -10.79412,-2.76691c-8.2567,-4.27071 -15.81849,-16.94271 -13.37189,-25.91357c1.18179,-4.33325 3.53601,-8.50786 6.71199,-11.68383c12.83589,-12.83589 19.94154,-4.10411 33.06074,-2.40552c4.73032,0.61245 14.16908,1.37663 19.36435,1.95472c0.04829,0.00538 0.09662,0.01075 0.14498,0.01613c-0.5093,-0.77849 -0.89154,-1.5615 -1.09322,-2.30772l-3.06695,-11.34771c0.69563,-2.57384 0.8845,-5.38751 1.46906,-8.01391c0.4002,-1.79809 0.98586,-3.5084 2.04657,-4.9939c1.0005,-1.40118 2.34038,-2.49294 3.7341,-3.5356c0.99902,-0.92139 2.08169,-1.75344 3.23534,-2.48347c6.60755,-5.70652 18.2816,-3.48347 26.13006,-1.3185c1.19506,0.32966 3.56207,1.65664 4.96179,1.84537c6.36468,0.8582 13.58202,1.4342 19.56096,2.15463c5.64964,0.68075 11.43448,1.09524 17.23831,1.35666c2.51987,-0.976 5.25934,-1.51129 8.12382,-1.51129c3.26724,0 6.37183,0.6964 9.17343,1.94885c1.61746,0.01941 3.22719,0.03561 4.82657,0.05115c2.8714,0.0279 5.77428,0.95441 8.59902,1c14.17776,0.22879 28.36653,0.45551 42.53882,0c4.53225,-0.14567 9.21189,-1.94778 13.86216,-2c12.49717,-0.14034 24.7114,-1.27915 37.13785,-2c3.35362,-0.19454 6.55531,-1.50523 9.90103,-1.8398c9.3057,-0.93057 18.83,-0.88385 28.09897,-2.1602c3.99439,-0.55003 9.36847,-1.97321 13.86216,-2c34.69657,-0.20681 66.49264,-1.07446 102,-1c6.3741,0.01337 12.75391,1.64603 19.1222,2c11.84546,0.65841 23.57792,1.81808 35.39299,3.1393c10.04526,1.12331 17.88671,1.02738 27.44075,3.37633c5.28426,1.29919 11.31149,0.78873 16.74303,1.7905c9.24473,1.70507 18.39655,4.22192 27.63203,6.08415c5.12703,1.0338 10.43971,1.06493 15.54993,2.14551c5.856,1.23828 10.03949,2.67703 15.5594,4.06058c10.3374,2.59103 24.09854,3.17948 30.54404,12.89582c0.75167,1.13312 0.5586,2.67578 1.06433,3.938c1.10613,2.76075 2.26891,5.91708 2.4513,9.06982c0.49492,8.55512 -4.49737,14.99782 -11.25,19.6875c-3.1607,2.19509 -5.72086,1.93465 -8.42526,4.87727c-1.16207,1.26444 -2.54846,2.38967 -3.36744,3.89914c-0.05899,0.10873 0.39839,2.17351 0.17382,2.71249c-0.77069,1.84966 -4.19471,4.32828 -2.53485,5.45081c3.60784,2.4399 7.11387,3.1829 9.88811,7.36497c1.52994,2.30633 3.35685,10.26325 3.51563,13.00781c0.15663,2.70749 -1.2741,3.12018 -0.48241,6.51508c0.31213,1.33846 0.35796,2.80827 1.07576,3.98031c0.66502,1.08586 2.12043,1.48314 2.89103,2.49679c2.13324,2.80611 2.89336,6.46052 3.81304,9.86334c0.72206,2.67162 -1.01103,5.444 -1.64686,8.13744c-0.63584,2.69344 -0.32556,5.9482 -2.16617,8.01485c-1.88215,2.11329 -4.33213,3.64454 -6.42526,5.54909c-0.51759,0.47095 -0.74878,1.30221 -1.39624,1.5677c-4.98928,2.04592 -12.28453,3.30338 -17.67849,2.02383c-4.66285,-1.10611 -10.23453,-3.60533 -15.25425,-3.64844c-12.30194,-0.10564 -24.60708,-0.23768 -36.90717,0c-4.35303,0.08411 -8.83294,1.98364 -13.32295,2c-13.99991,0.051 -28.00042,0.10814 -42,0c-4.31529,-0.03333 -8.00946,-1.90524 -12.10886,-2.8585c-4.1494,-0.96489 -8.60474,-1.0198 -12.65175,-2.2591c-1.49252,-0.45705 -6.94637,-2.28788 -8.2472,-3.39802c-5.79183,-4.94281 -7.23316,-9.43552 -9.70174,-16.27404c-1.68509,-4.66809 -5.87345,-9.25694 -8.41506,-13.64803c-1.79233,-3.09655 -2.62249,-6.61658 -4.37354,-9.74708c-3.26414,-5.83557 -7.23368,-11.99628 -9.37796,-18.34901c-0.47223,-1.39904 -0.31832,-2.98213 -0.90869,-4.33556c-1.5751,-3.61096 -5.61972,-6.06817 -8.08202,-9.05278c-1.87946,-2.27813 -2.0894,-6.52368 -4.35289,-8.37037c-1.439,-1.17402 -5.73607,-1.27946 -7.5409,-1.8251c-5.06242,-1.53047 -12.05387,-2.34187 -16.2472,-5.39803c-0.29359,-0.21398 -0.59831,-0.46066 -0.90952,-0.7333c-1.18691,-0.32683 -2.33715,-0.65909 -3.44159,-0.98696c-3.56735,-1.05902 -7.45654,-0.63954 -11.09812,-1.43591c-0.7226,-0.15802 -1.71665,-0.48681 -2.79642,-0.84916c-5.52655,0.20475 -11.03092,0.41867 -16.73562,0.52096z" fill="#555555" stroke="none" stroke-width="0.5" stroke-linecap="butt"/><path d="M136.40166,177.41003l-137.90166,-1.41003l128,1" fill="none" stroke="#000000" stroke-width="2" stroke-linecap="round"/><path d="M-15.48437,185.99219c2.13404,-2.98867 5.21805,-5.3618 8.65907,-6.98841c3.09238,-1.60003 6.6033,-2.50378 10.32531,-2.50378c34.32471,-0.7692 68.66686,-0.11332 103,0c6.7363,0.02223 15.46457,3.33253 18.98438,9.49219c6.86109,12.0069 2.58478,13.39199 0.23095,25.1611c-0.48364,2.41822 0.36591,5.78679 -0.06689,8.36234c-0.47177,2.80745 -2.22778,5.40603 -2.64844,8.13562c-1.4986,9.72416 -3.74939,19.8355 -8.85908,28.32753c-1.80279,2.99614 -4.27643,11.05445 -5.23396,14.95159c-0.24533,0.9985 -0.18823,3.95904 -0.53085,5.03586c-0.8123,2.55296 -3.27454,5.0775 -3.91955,7.44222c-3.57375,13.10192 -7.80639,25.73561 -12.08045,38.55778c-2.91442,8.74328 -10.31075,18.13594 -17.29824,23.90061c-2.55444,2.10742 -5.29923,2.84377 -6.91216,6.28726c-4.49844,9.60381 -9.98643,19.24719 -16.00776,27.84152c-4.31985,6.16579 -8.517,14.51965 -15.49509,18.129c-3.95096,2.0436 -10.99448,3.18661 -15.38894,2.49728c-0.83684,-0.13127 -1.39704,-1.2303 -2.24332,-1.19381c-1.48424,0.06399 -3.28123,16.50962 -3.98926,18.80757c-5.07004,16.45496 -20.05371,18.67868 -34.54915,12.74872c-4.51893,-1.84866 -7.49325,-9.10724 -8.53877,-13.5772c-4.37798,-18.71742 2.95167,-41.60748 3.00952,-59.97614c0.0192,-6.09857 -1.8597,-12.05491 -2.71401,-18.09337c-0.38132,-2.6952 0.14449,-5.60244 -0.24893,-8.2377c-0.38104,-2.55229 -4.57338,-2.41074 -6.72382,-3.83727c-0.37185,-0.24667 -1.0307,-1.93337 -1.42697,-2.11181c-5.10402,-2.29825 -10.94137,-3.80984 -13.0367,-9.90089c-2.6045,-7.57117 -3.72403,-14.67322 -2.37557,-22.66262c0.40788,-2.41663 0.95449,-5.26734 1.71769,-7.70251c0.63049,-2.0117 1.31016,-4.00788 2,-6c0.09105,-0.26295 0.5389,-0.56566 0.34149,-0.76179c-1.93396,-1.92129 -5.32558,-3.62056 -6.98049,-6.11527c-2.43411,-3.66933 -4.28807,-15.09395 -3.13921,-19.34472c4.30345,-15.92279 25.63476,-16.70176 37.64284,-24.38422c1.53359,-0.98115 6.78428,-2.50034 7.49567,-3.51808c0.39623,-0.56686 -0.99395,-0.99807 -1.29614,-1.62017c-0.4671,-0.96161 -0.77855,-1.99528 -1.06415,-3.02549c-0.62541,-2.25594 -1.42196,-4.49434 -1.66601,-6.82261c-0.10429,-0.9949 0.83934,-1.97911 0.57834,-2.94482c-1.94955,-3.33143 -3.06695,-7.20908 -3.06695,-11.3477c0,-2.82289 0.51985,-5.52437 1.46906,-8.01391c0.4002,-1.79808 0.98586,-3.5084 2.04657,-4.9939z" fill="#37c75e" stroke="none" stroke-width="0.5" stroke-linecap="butt"/><path d="M364.51563,195.99219c2.40169,-3.3635 5.413,-5.61819 8.81219,-7.06689c3.05495,-1.55106 6.51148,-2.4253 10.17219,-2.4253c0.92572,0 1.83837,0.05591 2.73478,0.16452c10.26627,0.0076 21.41151,3.03796 29.67983,3.9622c3.19531,0.35718 6.39096,0.84194 9.60602,0.87328c26.65852,0.25986 53.31982,-0.11225 79.97938,0c10.19217,0.04291 19.00584,6.59353 21.63429,16.31877c1.96122,7.25651 0.39896,17.00502 -5.40857,22.02062c-0.83853,0.72419 -6.78101,4.37475 -6.85467,4.52835c-0.98532,2.0548 -5.01936,6.0357 -6.79317,7.49909c-3.97117,3.27622 -10.55573,3.17939 -14.32354,6.64228c-0.7645,0.70263 1.64182,1.45638 1.91242,2.45883c0.22653,0.83917 0.3501,11.61783 1.5967,12.25803c12.36963,6.35248 23.32225,12.08909 24.22874,27.75841c0.05347,0.92426 -0.88071,1.66591 -1.02901,2.57976c-0.14829,0.91385 0.50341,1.91285 0.16041,2.77277c-2.60334,6.5267 -8.20773,12.88633 -14.74078,15.45997c-1.34132,0.52841 -6.13103,0.2141 -7.26443,1.41377c-0.79836,0.84505 -1.43972,1.82719 -2.20848,2.69925c-0.44996,0.51043 -1.57879,0.77659 -1.44344,1.44344c0.18597,0.91628 4.94871,2.04864 6.0143,2.92552c3.85834,3.17509 9.30965,8.35731 9.97678,13.6943c3.36041,26.88322 -26.63522,35.38413 -47.04491,39.0899c-7.98645,1.45009 -21.66314,1.76049 -28.66262,-2.37556c-2.93275,-1.73299 -5.45319,-4.14976 -7.73437,-6.67969c-0.62675,-0.69509 -0.05797,-2.06179 -0.73257,-2.71053c-1.9658,-1.89041 -4.87655,-1.81796 -6.86093,-3.43046c-3.53277,-2.87072 -8.70641,-6.15425 -11.4065,-9.85901c-0.23888,-0.32776 -1.16087,-3.40831 -1.54984,-4.08319c-5.3098,-9.21261 -10.82198,-17.74355 -12.61422,-28.409c-0.89986,-5.35494 0.44822,-10.07767 -0.35156,-15.65362c-0.0892,-0.62183 -1.21258,-0.48512 -1.61964,-0.96359c-1.75311,-2.06065 -3.32797,-4.27675 -4.78048,-6.55926c-1.18561,-1.86311 -3.08129,-7.98651 -3.44526,-9.22404c-1.8082,-6.14817 -1.76704,-12.43425 -2.80306,-18.5995c-0.29039,-1.72809 0.70114,-3.85871 -0.3723,-5.24376c-2.16672,-2.79572 -1.96759,-4.27883 -3.28388,-7.56956c-2.42381,-6.05953 -6.3314,-11.48459 -8.54076,-17.58718c-0.11044,-0.30506 -2.08526,-9.50107 -2.79282,-10.51289c-0.03814,-0.05453 -0.07735,-0.10856 -0.11747,-0.16215c-0.14551,-0.17371 -0.28846,-0.34964 -0.42877,-0.52775c-3.01607,-3.82853 -4.81556,-8.66029 -4.81556,-13.91234c0,-2.82289 0.51986,-5.52437 1.46906,-8.01391c0.4002,-1.79808 0.98586,-3.5084 2.04657,-4.9939z" fill="#37c75e" stroke="none" stroke-width="0.5" stroke-linecap="butt"/><path d="M363.51563,188.99219c3.91329,-5.48045 8.42379,-7.93838 13.29343,-8.76626c1.8177,-0.47376 3.72487,-0.72593 5.69095,-0.72593c2.7078,0 5.30389,0.47833 7.70836,1.3551c1.11689,0.20091 2.24048,0.42018 3.36855,0.6449c6.15366,1.22584 12.81031,0.44724 19.03821,2.15463c3.13746,0.86014 7.70861,2.66379 10.96179,2.84537c8.41659,0.46978 12.7811,-0.94255 19.92309,-1c13.1783,-0.106 27.56348,-0.14019 40.74221,-0.14019c3.88703,0 7.45251,1.23174 11.07394,2.4218c11.77459,3.86934 19.68385,7.09649 19.68385,22.21838c0,4.49151 -1.28721,9.10809 -3.51562,13.00781c-1.6901,2.95768 -4.80162,4.9467 -7.73437,6.67969c-10.71302,6.33042 -14.23252,1.01353 -22.90125,0.8125c-11.30309,-0.26212 -22.6139,-0.19219 -33.9184,0c-2.80107,0.04762 -3.38948,0.95454 -6.43035,1c-13.50807,0.20195 -26.35903,0.61896 -39.07691,-4c-1.70756,-0.62016 -3.64714,-0.0505 -5.43871,-0.35156c-6.00174,-1.00854 -11.56886,-0.89887 -17.49849,-3.00547c-1.06909,-0.37981 -3.08705,-0.81884 -4.94732,-1.49836c-2.47714,-1.07677 -4.72269,-2.58632 -6.64118,-4.43321c-4.2519,-4.09321 -6.89739,-9.84336 -6.89739,-16.2114c0,-2.8229 0.51986,-5.52437 1.46905,-8.01392c0.4002,-1.79809 0.98586,-3.5084 2.04657,-4.9939z" fill="#37c75e" stroke="none" stroke-width="0.5" stroke-linecap="butt"/><text transform="translate(82.08296,56.65811) rotate(-1.23326) scale(1.09404,1.09404)" font-size="40" xml:space="preserve" fill="#ffffff" fill-rule="nonzero" stroke="none" stroke-width="1" stroke-linecap="butt" stroke-linejoin="miter" stroke-miterlimit="10" stroke-dasharray="" stroke-dashoffset="0" font-family="Sans Serif" font-weight="normal" text-anchor="start" style="mix-blend-mode: normal"><tspan x="0" dy="0">The Book Cave</tspan></text><text transform="translate(390.5,197.75) scale(0.34832,0.34832)" font-size="40" xml:space="preserve" fill="#ffffff" fill-rule="nonzero" stroke="none" stroke-width="1" stroke-linecap="butt" stroke-linejoin="miter" stroke-miterlimit="10" stroke-dasharray="" stroke-dashoffset="0" font-family="Sans Serif" font-weight="normal" text-anchor="start" style="mix-blend-mode: normal"><tspan x="0" dy="0">Troy Penning</tspan></text><text transform="translate(152.5,210) scale(0.5,0.5)" font-size="40" xml:space="preserve" fill="#ffffff" fill-rule="nonzero" stroke="none" stroke-width="1" stroke-linecap="butt" stroke-linejoin="miter" stroke-miterlimit="10" stroke-dasharray="" stroke-dashoffset="0" font-family="Sans Serif" font-weight="normal" text-anchor="start" style="mix-blend-mode: normal"><tspan x="0" dy="0">Press Space to enter</tspan></text></g></g></svg>