<svg version="1.1" xmlns="http://www.w3.org/2000/svg" xmlns:xlink="http://www.w3.org/1999/xlink" width="2833.81442" height="546.87954" viewBox="0,0,2833.81442,546.87954"><g transform="translate(1555.38599,141.88599)"><g data-paper-data="{&quot;isPaintingLayer&quot;:true}" fill-rule="nonzero" stroke="none" stroke-linecap="butt" stroke-linejoin="miter" stroke-miterlimit="10" stroke-dasharray="" stroke-dashoffset="0" style="mix-blend-mode: normal"><path d="M70.09034,-27.51787l63.67772,-4.42206l0.01578,0.00048l0.01556,-0.00264l88,-6l0.33149,0.01048l0.32835,-0.04671l96,-4l0.09484,0.00551l0.09415,-0.01267l88,-3l0.24528,0.01611l0.24421,-0.028l69,-1l0.18126,0.01548l0.18102,-0.0181h87l2.2341,0.22341l2.23803,0.17984l11,2l3.77336,1.0831l2.84976,1.51237l3.35787,0.90753l1.3943,1.61445l0.36407,0.19321l2.77445,3.44087l2.88905,3.34522l0.12497,0.39276l1.33899,1.66061l0.29222,3.46605l0.9782,3.07433l0.38807,3.88067l0.56796,1.52607l-0.87641,3.60963l-0.07961,0.79613l-0.47985,1.5081l-1.24327,5.1206l-0.67147,0.89718l-0.33978,1.06788l-3.44416,3.98798l-0.94828,1.26703l-0.60156,0.52752l-2.42787,2.81122l-1.56486,0.42293l-2.43575,1.73982l34.26911,2.80084l123.23204,6.94265h161.04633l0.73251,0.07325l0.73554,-0.03011l49.91372,2.9361l3.87657,0.61933l1.93509,0.74345l3.51613,0.82972l1.47131,1.08643l1.49583,0.57469l2.2699,2.20596l3.89755,2.87799l0.49107,1.38701l1.48457,1.44275l1.38902,6.67355l1.63215,4.60993l-0.3209,1.68999l0.35052,1.6841l-1.55095,4.63788l-1.27162,6.69691l-1.45901,1.46859l-0.46664,1.39542l-3.84642,2.94598l-2.23082,2.24548l-1.48551,0.60087l-1.45201,1.1121l-3.50101,0.89133l-1.92174,0.77732l-3.8651,0.68731l-13.91372,1.0639l-0.84072,-0.01964l-0.83597,0.09135l-109,1l-0.81649,-0.07409l-0.81908,0.03556l-88.04745,-4.96042l-71.32446,0l-50.19326,0.891l5.49211,0.11442l0.37866,0.04585l0.38098,-0.01847l39,2l3.88112,0.59017l0.42327,0.15898l1.98305,0.18694l3.31083,1.8014l2.72528,1.0236l1.11129,1.06386l2.82683,1.53806l1.20077,2.31763l3.06347,2.93271l1.10391,5.11084l1.51922,2.93227l-0.16637,3.33107l0.403,1.8658l47.60785,5.8737l35.34433,2.2926l0.92231,0.15305l0.93418,0.03717l57,8l2.34638,0.57198l1.81798,0.17683l5.13534,2.81388l2.64463,1.26934l0.30239,0.34547l1.87573,1.0278l1.3909,2.70423l3.90976,4.46678l0.51857,4.14289l1.02866,1.99994l-0.23128,4.37036l0.54357,4.34259l-0.88284,2.06845l-0.22064,4.16938l-3.57994,4.73522l-1.19373,2.79686l-1.79733,1.15945l-0.27688,0.36623l-2.54697,1.45541l-4.92071,3.17431l-1.80066,0.30652l-2.29941,0.7385l-14,3l-1.92369,0.21524l-1.91225,0.30034l-54.73789,3.07516l0.82297,2.01937l2.44997,2.60947l0.79961,4.97357l36.55641,6.22237l0.10418,-0.01634l0.40684,0.10333l2.3906,0.40691l3.78532,1.04055l0.46123,0.23816l3.96166,1.00613l1.71409,1.92459l1.87609,0.96874l7.22651,8.75867l0.68456,7.15636l1.42601,7.04618l-2.03134,4.87522l150.16001,9.48379l1.14243,-0.42004l3.5356,0.87325l2.31252,0.3797l1.34668,0.52407l3.82897,0.94571l1.48959,1.12406l1.73907,0.67678l2.81651,2.76092l1.15349,0.87044l1.53814,1.76806l2.60071,2.54938l0.24288,1.19272l1.63358,2.30623l259.29749,32.79341l1.81692,0.41675l0.80215,0.14212l0.24011,0.09695l0.96719,0.22184l2.83259,1.31233l4.32251,1.74522l0.47485,0.47737l0.5528,0.25611l2.82108,3.13566l4.15923,4.18128l0.10678,0.56044l0.50752,0.56411l1.0803,7.76932l1.10763,5.81324l-0.21479,0.60789l0.08879,0.63857l-2.24861,5.47398l-2.61329,7.39595l-0.61014,0.45113l-0.21678,0.52773l-4.91188,3.26433l-3.39154,2.50765l-0.59287,0.1403l-0.56078,0.37268l-4.58433,0.84487l-3.03792,0.7189l-0.99202,0.0238l-0.25465,0.04693l-0.81437,-0.02129l-1.86356,0.0447l-517.58646,-39.24826l1.08614,3.41358l0.39063,3.90625v10l-0.39062,3.90625l-0.74723,2.34845l40.50809,3.85791l0.05812,0.01146h0.05924l30,3l0.94681,0.19127l1.50666,-0.02064l10.49975,4.32343l1.61383,2.43279l5.37256,5.66658l0.19551,1.17927l83.8181,8.22266l3.84945,0.77014l1.75325,0.75336l3.33431,0.87795l1.58854,1.23738l1.60962,0.69165l2.06811,2.17309l3.6918,2.87569l0.4961,1.52479l1.57208,1.65188l1.10085,6.56351l1.4631,4.49692l-0.39957,1.84411l0.31212,1.86091l-1.67364,4.42288l-1.40929,6.50426l-1.64826,1.57587l-0.56749,1.49968l-3.82336,2.69831l-2.16833,2.07309l-1.64046,0.61493l-1.64516,1.16106l-3.37202,0.71965l-1.78684,0.6698l-3.8815,0.58766l-79,4l-1.09093,-0.05358l-1.09008,0.06875l-109,-4l-0.18337,-0.02516l-0.18488,0.00893l-73.46914,-3.7815l-0.80023,0.6911l-0.6078,1.41442l-4.00642,2.57059l-2.33135,2.01344l-1.60032,0.50919l-1.61891,1.03872l-3.47962,0.58354l-1.8949,0.60292l-3.90625,0.39063h-16l-0.20815,-0.02081l-0.20846,0.01734l-60,-1l-1.39029,-0.16247l-1.39917,-0.04049l-19.43108,-2.51264l-5.74961,-0.31942l-0.68289,-0.10682l-0.69115,-0.0076l-33.86762,-3.76307l-0.08143,0.27133l-1.87347,7.61476l-0.56495,0.51078l-0.16458,0.54841l-4.56631,3.72883l-3.12706,2.8272l-0.57832,0.19859l-0.52346,0.42745l-4.47719,1.28973l-2.95044,1.01316l-0.98893,0.12165l-0.24933,0.07182l-0.81024,0.05851l-1.84787,0.2273l-88,2l-0.79779,-0.06151l-0.79879,0.04679l-170,-7l-0.53963,-0.0765l-0.54496,0.0082l-34.62892,-2.93753l-341.40246,-1.97342l-1.16065,-0.12285l-1.16714,0.00072l-161,-16l-0.27759,-0.0559l-0.2831,-0.00622l-89.06732,-10.88601l-1.02469,0.07067l-1.66081,-0.579l-2.07718,-0.46731l-2.3435,-1.07385l-2.43413,-0.8486l-1.82194,-1.10164l-1.59897,-0.73269l-0.69016,-0.7607l-1.49555,-1.12166l-23.09578,-0.31692l-0.6946,-0.0791l-0.69877,0.02108l-243.97351,-16.98636l-1.76258,-0.30107l-0.73394,-0.08326l-0.25983,-0.08649l-1.11334,-0.19017l-2.83198,-1.12314l-4.35151,-1.44852l-0.56522,-0.50141l-0.63437,-0.25159l-2.93942,-2.91875l-4.35536,-3.86367l-0.15831,-0.61826l-0.60441,-0.60016l-1.50145,-7.6239l-1.44968,-5.66144l0.19781,-0.69511l-0.13965,-0.70909l1.18685,-3.42611l-0.77881,-0.09584l-0.89821,-0.07134l-0.22676,-0.06709l-0.83548,-0.10281l-3.03346,-1.04183l-4.55205,-1.34673l-0.44652,-0.37l-0.49724,-0.17077l-3.19231,-2.88647l-4.60733,-3.81774l-0.13833,-0.47326l-0.48457,-0.43814l-1.89367,-7.6984l-1.68377,-5.76061l0.13406,-0.5395l-0.13278,-0.53981l1.69739,-5.75661l1.91187,-7.6939l0.4856,-0.437l0.13945,-0.47293l4.61634,-3.80683l3.19913,-2.87892l0.49764,-0.1696l0.4474,-0.36894l4.55522,-1.33597l3.03592,-1.03465l0.83572,-0.10083l0.22692,-0.06655l0.89838,-0.06922l1.93645,-0.23364l49,-1l0.6782,0.05387l0.67887,-0.04472l43.09902,1.46098l-23.86147,-3.78386l-1.18052,-0.31017l-1.822,-0.15514l-4.39949,-2.3424l-4.45428,-2.23646l-1.17965,-1.39721l-0.93542,-0.78411l-78.89357,-80.79462l-102.10989,-7.74293l-2.31528,-0.4102l-1.28433,-0.21306l-0.06771,-0.02648l-0.19821,-0.03512l-3.34221,-1.34943l-4.79075,-1.87351l-0.10482,-0.10309l-0.12462,-0.05032l-3.31616,-3.33375l-4.55007,-4.47506l-0.02511,-0.12438l-0.11662,-0.11724l-1.55664,-8.1698l-1.2648,-6.26412l0.04572,-0.13406l-0.02651,-0.13914l2.12904,-6.02545l2.68471,-7.87154l0.13188,-0.09976l0.04227,-0.11964l3.28563,-2.42935l-1.41225,-0.63199l-3.95905,-1.36615l-0.88292,-0.80067l-0.97225,-0.43509l-2.53945,-2.74947l-4.01683,-3.64263l-0.23482,-0.96063l-0.91322,-0.98875l-1.11192,-7.29606l-1.29506,-5.29807l0.32206,-1.08644l-0.17072,-1.12024l2.00625,-5.07165l2.09759,-7.07594l0.92261,-0.75857l-206.52504,-20.39108l-167.88339,-14.98959l-1.98638,-0.37938l-0.96172,-0.14664l-0.20014,-0.07526l-0.70779,-0.13518l-3.02337,-1.26795l-4.50984,-1.69596l-0.3627,-0.3475l-0.42062,-0.1764l-3.04378,-3.14283l-4.37208,-4.18887l-0.09025,-0.41867l-0.39355,-0.40636l-1.39176,-7.87551l-1.27939,-5.93496l0.1496,-0.45816l-0.08387,-0.47461l2.09901,-5.69691l2.48239,-7.60252l0.44665,-0.34716l0.14807,-0.40187l4.91628,-3.53439l3.45442,-2.68495l0.4412,-0.11567l0.40784,-0.2932l4.7031,-1.04678l3.1713,-0.83145l0.71976,-0.03459l0.20871,-0.04645l0.97278,-0.01033l2.01996,-0.09708l503,26l0.83791,0.12776l0.84743,0.01665l52.49207,6.29313l0.46557,-0.40208l1.62568,-2.45066l2.31627,-0.95376l0.62454,-0.53937l3.01563,-0.95952l4.54332,-1.87078l1.75376,0.02402l3.1873,-0.31873h48l0.22983,0.02298l0.23021,-0.01875l151.86123,2.79499l0.95045,-4.27962l1.19471,-1.13048l0.38246,-1.12989l0.98761,-0.75069l-1055.3731,-107.63755l-2.36302,-0.48222l-1.33639,-0.26424l-0.03804,-0.01624l-0.10901,-0.02224l-3.36092,-1.45953l-4.78576,-2.04368l-0.05657,-0.05917l-0.06872,-0.02984l-3.26974,-3.46232l-4.45154,-4.65648l-0.01187,-0.0698l-0.0632,-0.06693l-1.35357,-8.26526l-1.08107,-6.35786l0.02777,-0.07388l-0.01275,-0.07788l2.30564,-6.02288l2.94652,-7.83994l0.07509,-0.05325l0.02531,-0.06612l5.27749,-3.69419l3.88466,-2.75468l0.07323,-0.0158l0.06707,-0.04695l5.09339,-1.06654l3.58172,-0.77284l0.11125,-0.00046l0.04048,-0.00848l1.36226,0.00268l2.4117,-0.00996l1246.36038,119.43907l115.2069,-9.46906l1.26492,0.02234l1.26102,-0.10179zM-647.40154,210.60615l26.08882,4.13706l0.7918,-0.50025l0.52141,-0.50732l3.31916,-2.09631l1.34451,-0.67225l0.71907,-0.4543l0.27915,-0.04481l6.65261,-3.32631l0.77036,-0.6021l1.63102,-0.43232l2.27181,-0.86545l2.43344,-0.38172l2.38098,-0.6311l2.42795,-0.12324l1.66696,-0.26148l0.94766,0.24068l11.31827,0.5545l-0.66161,-2.33455l0.38582,-1.49991l-0.23869,-1.53024l1.84326,-4.70771l1.73933,-6.76182l1.38991,-1.23028l0.48604,-1.24135l1.38549,-0.95424l-105.30135,-7.98494z" fill="#000000" stroke-width="0.5"/><text transform="translate(175.5,221) scale(0.46929,0.5)" font-size="40" xml:space="preserve" fill="#ffffff" fill-rule="nonzero" stroke="none" stroke-width="1" stroke-linecap="butt" stroke-linejoin="miter" stroke-miterlimit="10" stroke-dasharray="" stroke-dashoffset="0" font-family="Sans Serif" font-weight="normal" text-anchor="start" style="mix-blend-mode: normal"><tspan x="0" dy="0">Oh man my light went out again</tspan></text></g></g></svg>