<svg version="1.1" xmlns="http://www.w3.org/2000/svg" xmlns:xlink="http://www.w3.org/1999/xlink" width="899.9561" height="822.75931" viewBox="0,0,899.9561,822.75931"><g transform="translate(79.85288,155.34407)"><g data-paper-data="{&quot;isPaintingLayer&quot;:true}" fill-rule="nonzero" stroke="none" stroke-width="0.5" stroke-linecap="butt" stroke-linejoin="miter" stroke-miterlimit="10" stroke-dasharray="" stroke-dashoffset="0" style="mix-blend-mode: normal"><path d="M-11.75,-41c0,-0.13807 0.11193,-0.25 0.25,-0.25c0.13807,0 0.25,0.11193 0.25,0.25c0,0.13807 -0.11193,0.25 -0.25,0.25c-0.13807,0 -0.25,-0.11193 -0.25,-0.25z" fill="#000000"/><path d="M-19.00826,151.9272c-4.22604,-2.60867 -7.58118,-4.54942 -10.9194,-8.24953c-17.66629,-19.58143 -10.69777,-50.09166 1.45069,-70.72739c3.78553,-6.43022 9.92354,-12.27713 14.51035,-17.47299c0.43261,-0.49005 0.87369,-1.00272 1.32319,-1.53197c-5.99428,-1.36764 -12.74572,1.61583 -19.0471,2.00603c-13.65127,0.8453 -31.65211,4.43929 -41.71677,-6.96217c-0.8559,-0.96959 -2.30626,-1.40661 -2.93644,-2.53602c-1.78568,-3.2003 -2.66978,-7.9698 -3.10124,-11.47459c-0.43146,-3.50479 -0.73052,-8.3463 0.22565,-11.88414c0.33744,-1.24852 1.6385,-2.02426 2.23369,-3.17249c8.14074,-15.70491 29.09494,-13.98711 44.30658,-14.88168c10.19893,-0.59978 20.39457,-1.25825 30.58607,-1.97329c4.37321,-0.30683 8.77818,-0.39562 13.10645,-1.0922c0.33229,-0.05348 -0.27857,-0.6385 -0.26344,-0.97472c0.04144,-0.92074 -0.08757,-1.87104 0.15291,-2.76079c1.06799,-3.95155 2.25551,-7.88289 3.75334,-11.69234c1.99717,-5.07941 12.05083,-9.12892 17.1875,-10.15625c8.42351,-1.6847 17.75761,-0.70608 25.99218,-0.36703c7.66741,0.3157 15.33368,0.65886 23,1c0.2776,0.01235 1.37003,0.11816 1.38167,0.08185c9.53251,-29.74691 18.31866,-59.72827 27.66145,-89.53531c1.33202,-4.24964 5.86765,-26.87783 12.58486,-33.78163c3.83427,-3.94077 10.23892,-8.65077 15.79223,-9.11896c1.66119,-0.14005 3.24181,0.83914 4.90186,0.99204c9.34098,0.86035 19.81794,5.98231 22.35021,15.95316c2.19046,8.62493 0.63776,16.25639 -1.41602,25.08237c-3.64666,15.67133 -7.30833,31.33921 -11,47c-1.53218,6.49981 -4.25354,12.58537 -5.74357,19.22904c-0.10005,0.44611 0.91747,0.0291 1.37132,-0.02604c1.63814,-0.19902 3.24575,-0.70401 4.89564,-0.73533c3.01426,-0.05723 11.70955,4.30933 13.91011,5.53718c4.71459,2.63061 7.81377,12.9858 8.11921,18.23837c0.12308,2.11651 -1.31085,4.46665 -0.33961,6.35118c0.88599,1.7191 3.61457,1.58627 5.54469,1.70849c2.6225,0.16606 5.25205,0.09567 7.88155,0.04012c1.84022,-1.91751 3.93226,-3.39424 6.21376,-4.51642v-0.00005c3.74518,-2.23778 8.12476,-3.5237 12.80469,-3.5237c1.42158,0 2.81546,0.11865 4.17225,0.3466c10.90461,0.05459 22.6135,2.61651 31.48519,2.6534c48.44369,0.20147 96.91684,-0.48422 145.367,-0.32067c1.9409,-3.59162 4.56982,-6.31289 8.11699,-7.27158c3.70159,-2.16617 8.01009,-3.40772 12.60856,-3.40772c3.13655,0 6.13819,0.57762 8.90435,1.63228c1.99787,0.44467 3.89822,1.0954 5.54877,2.27397c2.81518,2.01016 4.91092,4.44801 6.45955,7.16361c12.2344,0.20025 24.46637,0.48643 36.69507,0.88654c3.30966,-12.51672 6.88041,-24.99981 10.25186,-37.45573c1.72463,-6.3717 5.59341,-16.96895 11.68727,-20.59441c7.79686,-4.63864 16.43627,-4.42574 24.5307,-1.18258c1.40247,0.56192 3.11654,0.34739 4.37555,1.18258c5.42123,3.59626 8.46459,10.05739 10.25217,16.15269c2.85862,9.74736 -1.69423,20.80578 -0.17475,30.62744c0.12158,0.78586 1.55088,0.36164 2.33822,0.47321c2.47919,0.35131 5.22387,-0.21998 7.45599,0.91468c3.12449,1.58827 6.52286,10.11654 7.92916,6.90604c4.90953,-11.20813 3.26885,-24.25334 4.97692,-36.36978c0.80271,-5.69413 3.62589,-14.62739 4.61329,-18.0521c1.9338,-6.70722 6.22796,-12.29274 12.19027,-15.32449c1.235,-0.62798 2.09805,-1.97801 3.43556,-2.33949c3.49537,-0.94469 8.24394,-0.49143 11.69407,-0.03931c3.45013,0.45212 8.15516,1.23768 11.28909,3.05111c1.1992,0.69391 1.68526,2.22073 2.71675,3.14572c13.59912,12.19497 3.21563,27.99357 10.21581,43.72009c0.37257,0.837 11.40258,-2.55053 12.61431,-2.77205c2.56771,-0.46943 14.79442,3.60404 16.15494,5.17938c13.1921,15.27507 7.8455,25.97674 8.84506,46.85633c0.05914,1.23538 0.581,-2.42499 1.125,-3.53571c1.10529,-2.25675 1.70975,-4.76812 2.02791,-7.26079c0.95563,-7.48711 4.97567,-13.3077 10.39397,-18.33296c2.24308,-2.08037 7.05556,-2.06855 9.4467,-2.55316c10.12059,-2.05113 18.23304,0.06166 24.61454,8.52209c1.11801,1.48223 2.91232,3.22757 3.51349,5.11696c2.66598,8.37879 3.37669,17.07781 3.25223,25.88996c25.71053,-0.35461 51.45308,-1.30966 77.15069,-1.88211c11.24427,-0.25048 24.33918,-3.10573 31.56924,9.54687c2.47601,4.33302 3.90625,9.46256 3.90625,14.45313c0,30.60753 -35.45682,25.45878 -54.96014,26c-4.00754,0.11121 -8.74651,0.9871 -13.03986,1c-11.14399,0.03348 -22.28983,-0.19785 -33.43211,0c-3.44305,0.06114 -8.28453,0.41505 -13.21613,0.68467c1.64072,17.7177 7.96054,51.73263 8.39698,54.7798c6.16818,43.06517 11.24398,85.941 15.14859,129.27214c2.52145,27.98162 1.10434,32.18969 2.10267,57.79786c0.1525,3.91171 -0.59577,8.27955 1.37219,11.66361c0.28949,0.4978 5.38925,1.17175 7.49584,1.76383c4.57963,1.28716 9.12978,2.67964 13.72214,3.92061c23.55655,6.36556 52.77663,10.1397 70.50358,28.66436c2.91213,3.04318 3.25252,7.79773 4.34527,11.86558c0.76047,2.83093 -1.32658,5.71098 -2.05087,8.55139c-0.72429,2.8404 -0.27119,6.36818 -2.2944,8.48929c-2.90721,3.04788 -5.48277,7.05888 -9.49655,8.336c-13.5982,4.3267 -27.80068,1.92771 -41.93976,2.21088c-6.12173,0.1226 -12.22791,0.66471 -18.34347,0.96545c-6.07278,0.29864 -14.38382,-0.00909 -18.68936,0.03455c-1.4747,0.01495 -4.48059,-1.25254 -4.41882,0.22094c1.08395,25.85659 5.08238,51.50849 7.66687,77.25841c0.95041,9.46916 1.86695,18.94235 2.93779,28.39864c1.6677,14.72692 5.96653,29.25022 6.18955,44.122c0.15885,10.59297 0.44418,24.81315 -10.54687,31.09375c-4.33302,2.47601 -9.46256,3.90625 -14.45312,3.90625c-10.76682,0 -16.75825,-3.84089 -21.875,-12.5c-3.27127,-5.536 -2.3206,-9.02057 -3.125,-14.43094c-2.3624,-15.88937 -3.35112,-29.01367 -5.75735,-45.43379c-2.57148,-17.54783 -5.92784,-34.97164 -8.89111,-52.45757c-0.8445,-4.98329 -1.41241,-19.99859 -2.53833,-15.07125c-2.91906,12.77467 -1.71255,26.15503 -2.92013,39.20321c-3.00361,32.45472 -5.18681,65.32496 -9.07319,97.68584c-2.322,19.3347 -4.60374,38.67437 -7,58c-1.16516,9.39691 -4.55794,20.96133 -10.51061,28.85413c-0.40564,0.53785 -1.23904,0.54169 -1.80972,0.89969c-2.83505,1.77847 -5.40063,4.01356 -8.39743,5.5034c-2.71004,1.34728 -6.05448,-0.00776 -9.07847,-0.13016c-3.02399,-0.12239 -6.46699,0.95793 -9.05929,-0.60395c-2.8666,-1.72716 -5.24315,-4.16228 -7.9252,-6.16405c-0.53988,-0.40294 -1.37024,-0.47412 -1.73109,-1.043c-3.39624,-5.35414 -4.39874,-10.13751 -5.74454,-16.0184c-0.24905,-1.08829 -5.84788,-21.64695 -7.31227,-31.75763c-2.62877,-18.15003 -1.24207,-37.33111 -7.78075,-54.46528c-2.48598,-6.51433 -3.41412,13.52206 -5.28008,20.24029c-1.48668,5.35268 -5.12424,11.60513 -9.73731,14.7832c-1.78626,1.23061 -3.84861,2.00282 -5.79256,2.96521c-0.39815,0.19711 -1.26434,-0.42727 -1.33276,0.0117c-1.94782,12.49644 0.75485,25.7024 -3.17316,38.04757c-1.57204,4.9407 -6.36589,14.7637 -11.67062,16.19741c-2.43238,0.6574 -8.8544,1.17922 -11.70507,2.47382c-1.67654,0.76139 -1.59678,5.2785 -2.68521,6.66365c-3.42668,4.36084 -9.68101,8.6951 -14.96738,10.3724c-2.85455,0.90571 -10.71022,0.26101 -13.12637,0.17448c-23.96087,-0.8582 -27.68636,-25.17262 -29.86103,-45.36766c-2.65933,-24.69576 8.81577,-55.68027 -7.84603,-74.10138c-12.66315,-14.00024 -5.84764,37.3005 -8.54009,55.98506c-2.90349,20.14911 -0.30598,58.1031 -28.25899,63.81443c-2.90567,0.59368 -12.09123,-2.09547 -14.6742,-2.96978c-3.10011,-1.04935 -10.30867,-7.71321 -11.18034,-9.95749c-8.04484,-20.71297 1.56108,-70.44382 1.32268,-76.57562c-0.08606,-2.21342 -4.63996,-0.40888 -6.41512,-1.73382c-3.03328,-2.26396 -5.49633,-5.33513 -7.42187,-8.59375c-3.35001,-5.66925 -2.34437,-7.47378 -3.125,-12.58817c-2.82772,-18.52606 -3.93549,-36.61706 -1.84709,-55.67262c1.77435,-16.19004 3.56728,-32.37803 5.36989,-48.56496c-0.56983,-0.70719 -1.10194,-1.44606 -1.59326,-2.21354c-3.87908,-5.4422 -6.48707,-11.95405 -7.06439,-17.72727c-1.14362,-11.43617 -2.1858,-22.86475 -2.90484,-34.34524c-17.27827,-0.30174 -34.80671,2.09701 -52.03645,0.52545c-17.31321,-1.57918 -34.46006,-5.15604 -51.51063,-8.31508c-3.59647,-0.66634 -24.98853,-3.43387 -27.71732,-3.81786c-4.08144,-0.57433 -8.71081,-1.93549 -12.57003,-2.8192c-1.31769,12.82248 -1.45287,25.20472 -1.12587,38.48205c0.24909,10.1142 2.31126,20.33495 0.60938,30.46269c-0.64471,3.83661 -2.58936,6.90248 -3.91713,10.33245c-0.27603,0.71306 -0.10213,1.63281 -0.59849,2.21443c-2.08731,2.44584 -4.68482,4.40834 -7.11833,6.51001c-2.02857,1.75194 -8.66972,3.9185 -10.48157,4.36732c-2.42703,0.6012 -4.99652,-0.20707 -7.49386,-0.33046c-14.10245,-0.69676 -25,-9.85577 -25,-25c0,-5.3964 3.14636,-10.32968 5,-15.39773c1.23917,-3.38802 -0.98132,-7.91281 -1,-11.60227c-0.04895,-9.66654 -0.03622,-19.3334 0,-29c0.02034,-5.42854 0.41432,-11.20826 1.02397,-17.10728c-3.25273,-0.0816 -6.58915,0.26672 -9.8254,-0.18343c-3.71131,-0.51623 -7.36897,-1.50431 -11.1104,-1.70929c-6.68603,-0.36631 -13.41862,0.59517 -20.08817,0c-0.87513,0 -1.73975,-0.04497 -2.59169,-0.13271c-0.59775,2.69299 -1.21541,5.38021 -1.87032,8.0566c-4.28929,17.52899 -10.53206,34.80511 -14.76194,52.32749c-0.65147,2.69872 -0.5225,5.54906 -1.19561,8.24247c-0.75341,3.01475 -2.8485,7.78812 -4.36732,10.48157c-0.56707,1.00563 -1.72961,1.65286 -2.11885,2.73976c-8.44006,23.56799 -16.81217,47.16038 -25.30635,70.70891c-2.02856,5.62382 -6.52242,12.01973 -11.08481,15.66965c-0.5638,0.45104 -1.43317,0.26759 -2.09102,0.56514c-3.84377,1.73856 -7.8205,3.77674 -12.03708,3.90932c-4.46203,0.1403 -8.41309,-4.76666 -12.80009,-3.93985c-0.93517,0.17625 -0.58221,1.81453 -0.95017,2.69214c-0.50597,1.2068 -1.09503,2.37729 -1.66843,3.55355c-1.36148,2.79288 -2.96808,5.06009 -5.43866,7.19377c-2.40504,2.07708 -6.90487,4.69375 -9.85893,5.63367c-5.23212,1.66476 -19.69849,-0.70301 -23.06186,-3.60774c-2.36917,-2.04611 -4.59452,-4.27145 -6.64062,-6.64062c-2.42218,-2.80463 -2.61684,-6.95173 -3.51562,-10.54687c-1.07798,-4.31191 -0.71713,-9.32803 -0.23076,-13.72899c0.65861,-5.9594 1.32854,-11.91754 2.00508,-17.87494c-0.23491,0.02982 -0.45962,0.04035 -0.67111,0.02812c-3.83131,-0.22165 -7.63809,-0.85213 -11.39955,-1.61338c-2.61672,-0.52957 -4.90643,-3.08112 -6.86477,-4.55386c-1.79393,-1.3491 -3.93521,-2.22956 -5.6114,-3.72242c-0.54209,-0.4828 -0.43295,-1.40549 -0.82918,-2.01373c-4.92172,-7.5552 -3.12622,-13.6067 -2.29858,-21.95511c0.58496,-5.90053 1.08039,-11.8096 1.61048,-17.71531c1.28798,-14.34926 3.97129,-28.64321 3.84371,-43.04959c-0.01257,-1.41935 -2.86359,-0.10852 -4.22933,-0.49514c-1.79146,-0.50713 -3.67996,-0.99961 -5.16836,-2.11817c-6.27878,-4.7186 -8.50693,-10.20584 -10.49969,-17.61196c-2.08167,-7.7366 2.38035,-23.48389 3.24556,-29.32964c0.12646,-0.85441 2.7418,-26.19185 5.2331,-38.25268c3.32094,-16.07729 6.69248,-32.14409 10.04808,-48.21419c1.542,-7.38471 4.58556,-14.54806 4.95439,-22.08303c0.06349,-1.29703 -2.49098,-0.74467 -3.76081,-1.01644c-0.88567,-0.18955 -7.82422,-1.31447 -9.22063,-2.49206c-5.88609,-4.96374 -9.88788,-11.33891 -10.6557,-19.01708c-0.74806,-7.48065 1.32334,-17.2237 2.68797,-23.99688c3.71346,-18.4313 10.1694,-39.82825 15.27572,-57.9325zM378.82233,84.67767c-8.05031,-7.597 -22.84272,-19.64968 -32.78373,-23.83584c-5.1941,-2.18724 -10.26073,0.106 -15.5386,0.15817c-14.45847,0.14292 -23.20766,-0.22959 -35.92363,2.58177c-1.50594,0.33295 -3.57288,-0.04255 -5.08153,0.43893c-4.1457,1.3231 -8.47314,3.72691 -12.46725,5.48908c-2.53431,1.11812 -8.78718,3.84778 -10.43443,6.30457c-3.58369,5.34488 -3.34655,14.24551 -4.57864,20.08855c-1.63087,7.73415 -2.88412,15.45352 -4.51452,23.17474c-1.33983,6.34514 -1.32962,13.18992 -3.24178,19.43415c-0.41704,1.36185 -0.89238,2.62233 -1.33825,3.88002c0.10764,0.47906 0.27672,1.791 -0.83994,2.58867c-0.24009,0.85376 -0.44174,1.7352 -0.58003,2.6723c-0.23527,1.59424 -0.1225,5.1827 -0.6932,6.97635c-0.5573,1.75153 -1.22052,3.47911 -1.8068,5.23171c0,12.71306 0,25.42611 0,38.13917c0,13.66667 0,27.33333 0,41c0,5.40554 -0.70252,11.33269 -0.01873,16.69454c0.17386,1.36333 0.81018,2.6388 1,4c0.86203,6.18175 0.01873,13.06222 0.01873,19.30546c-0.00002,3.77247 0.09769,6.69372 0.93909,10.45153c0.54117,2.41692 1.67032,4.6973 2.02862,7.14801c0.26562,1.81674 0.03352,3.75498 0.3055,5.55808c0.54386,1.22187 1.11462,2.42736 1.7225,3.60851c0.2805,0.36095 0.54857,0.72924 0.75006,1.13548c0.2033,0.4099 0.38808,0.8322 0.55969,1.26358c2.10987,3.63607 4.66609,6.97116 7.99773,9.75022c1.10908,0.92513 3.82801,0.53633 5.30048,0.92624c4.57581,1.21168 9.29282,2.25241 13.80255,3.54896c12.32198,3.54257 35.35356,7.39507 46.50999,2.28562c6.193,-2.83629 12.04525,-7.20224 17.65653,-11.10435c4.8825,-3.39531 9.87988,-7.03016 13.85955,-11.46632c0.06503,-0.07249 0.1298,-0.1462 0.19433,-0.22106c1.02656,-1.8494 2.28087,-3.55494 3.72503,-5.07873c0.36614,-5.20479 0.78999,-10.41318 1.21185,-15.58695c1.35274,-16.59034 2.62816,-33.5494 2.93647,-50.21882c0.10897,-5.89184 1.68895,-11.81233 2,-17.65277c0.73431,-13.78783 1.5632,-27.53772 2,-41.34723c0.20136,-6.36604 1.82066,-12.75708 2,-19.07764c0.23415,-8.25234 0.04716,-17.10921 1.38041,-25.26699c1.94373,-11.89313 3.97354,-23.65898 4.61959,-35.65537c0.0761,-1.41318 0.35073,-2.8485 0.67315,-4.28456c-1.1359,-0.99169 -2.25415,-2.00286 -3.35082,-3.03777zM492.3147,257.57744l3.50637,-3.50637c1.80964,-1.80964 2.92893,-4.30964 2.92893,-7.07107c0,-5.52285 -4.47715,-10 -10,-10c-0.27805,0 -0.55346,0.01135 -0.82577,0.03361c-0.17961,-0.18494 -0.36631,-0.36295 -0.55966,-0.53361c2.07605,-1.83236 3.38544,-4.51327 3.38544,-7.5c0,-2.27766 -0.76147,-4.37746 -2.04372,-6.05873c0.02893,-0.30987 0.04372,-0.62384 0.04372,-0.94127c0,-2.02531 -0.60209,-3.91 -1.63704,-5.48484c0.63829,-0.17691 1.25263,-0.41836 1.83092,-0.75879c0.07135,-0.042 0.14252,-0.08427 0.21352,-0.12679l0.01796,0.07184l7.79706,-1.94927c4.45321,-1.01058 7.77758,-4.99315 7.77758,-9.75216c0,-5.52285 -4.47715,-10 -10,-10h-4c-0.34666,0 -0.69629,0.00389 -1.04832,0.01067c-0.0708,-0.72088 -0.21814,-1.4193 -0.4338,-2.08701c3.25287,-1.65013 5.48212,-5.02656 5.48212,-8.92366c0,-3.47774 -1.7753,-6.54085 -4.46909,-8.3325c1.16558,-0.79581 2.31692,-1.65518 3.53944,-2.62733l1.15206,-0.28801c3.59004,-0.8147 6.44644,-3.56092 7.41888,-7.08834c4.37752,-4.11042 10.93902,-11.24464 10.33354,-16.37271c-0.97738,-8.27791 -9.39888,-12.72806 -17.37333,-14.006c2.65416,-1.79797 4.39849,-4.83784 4.39849,-8.28511c0,-4.7115 -3.25833,-8.66199 -7.64455,-9.72101c-0.29848,-0.24597 -0.61147,-0.47498 -0.9375,-0.68553l-1.34417,-0.89611c5.95073,-2.38076 11.17113,-7.25389 11.77949,-12.99063c0.41395,-3.90345 -0.77289,-8.0358 -2.67912,-11.46721c-0.1938,-0.34885 -0.41827,-0.6741 -0.66769,-0.97952c0.94689,-1.52806 1.49353,-3.33019 1.49353,-5.26c0,-2.76142 -1.11929,-5.26142 -2.92893,-7.07107l-2,-2l-0.28734,0.28734c-0.32521,-0.17749 -0.66137,-0.33745 -1.0072,-0.4786l-0.51921,-1.24419c-4.30596,-1.6836 -8.18484,-3.94281 -12.43048,-5.73229c-3.30544,-1.3932 -6.59948,-1.88223 -9.98836,-2.33298c-2.94017,-3.42822 -7.83848,-3.42822 -7.83848,-3.42822h-4c-2,0 -4.24847,-0.96547 -6,0h-3c-5.52285,0 -10,4.47715 -10,10c0,0.5856 0.05034,1.15944 0.14692,1.71743c-1.93732,1.82375 -3.14692,4.4119 -3.14692,7.28257c0,4.36925 2.80214,8.08403 6.70736,9.44526l4.12058,1.54522c0.08529,0.19575 0.17665,0.38825 0.27387,0.57724c-0.06709,0.46776 -0.1018,0.94596 -0.1018,1.43228c0,2.76142 1.11929,5.26142 2.92893,7.07107l2.56195,2.56195c-3.79188,1.42119 -6.49088,5.07889 -6.49088,9.36698c0,2.76142 1.11929,5.26142 2.92893,7.07107l1.37152,1.37152c0.66698,2.65698 2.39705,4.89201 4.71176,6.22664l1.01351,0.6081c-0.01704,0.23867 -0.02571,0.47966 -0.02571,0.72267c0,1.11739 0.18327,2.19198 0.52139,3.19535c-3.2956,1.29958 -6.57019,2.66544 -9.9149,3.8215l-0.78828,1.21045l-0.3652,-0.5478l-2.87095,1.91397c-2.75701,1.78054 -4.58205,4.88041 -4.58205,8.40654c0,1.62861 0.38932,3.16629 1.07998,4.52505c-1.14934,1.97723 -1.57518,4.75443 -0.81247,8.77248c0.82227,4.33181 6.2683,6.21241 10.38068,8.2007c-0.6143,0.93064 -1.07722,1.97 -1.35369,3.08302c-2.02327,1.82989 -3.2945,4.47587 -3.2945,7.41875c0,2.408 0.85112,4.61722 2.26894,6.34322c-1.05833,1.12613 -1.80049,2.3453 -2.06471,3.64612c-0.95878,4.72015 3.62939,9.1482 6.86879,12.71266c1.04912,1.15439 2.69732,1.38185 4.33556,1.6074c0.13296,0.36546 0.29074,0.72068 0.47048,1.0663c-3.99204,1.15949 -7.53024,2.00877 -12.34852,3.24545l-0.80088,0.83817l-0.2018,-0.40359l-5.80623,2.90312c-3.38246,1.60344 -5.72163,5.04913 -5.72163,9.04116c0,4.49839 2.97024,8.30305 7.05648,9.55975l2.78124,0.92708l0.0807,-0.24209c0.25645,0.16915 0.51763,0.33195 0.78405,0.48774c1.19906,0.70116 2.56173,0.96667 3.97383,1.07663c1.13654,1.22188 2.57518,2.15896 4.19704,2.69235c-1.88103,4.50591 -3.2074,10.11168 -0.98575,14.34562c0.22437,0.42759 0.50228,0.79644 0.82437,1.11634c-3.37724,1.60543 -5.71195,5.04834 -5.71195,9.03656c0,5.01934 3.69802,9.17497 8.51816,9.89096l0.95556,0.15926c0.37683,1.17788 0.96607,2.26077 1.72265,3.20362c-2.2941,3.80481 -11.61539,19.33303 -11.82554,19.69269c-1.53937,2.63462 -3.85992,4.98825 -4.49989,7.97176c-0.90387,4.21375 -2.75975,9.63269 0.01664,12.9288c7.81874,9.28234 17.41521,3.47677 22.54524,-2.8808c0.0736,-0.03646 0.14669,-0.0738 0.21926,-0.112l5.82006,-2.91003l-0.22995,-0.45989c0.53794,-0.10176 1.07304,-0.22476 1.60491,-0.37196c3.03876,-0.84097 4.79767,-3.91388 6.84286,-6.47837c1.68023,-0.46815 3.18218,-1.36406 4.38111,-2.56298l3,-3l-0.66582,-0.66582c0.02728,-0.07534 0.05369,-0.1511 0.0792,-0.22727c0.67402,-0.30689 1.34804,-0.61378 2.02206,-0.92067l1.08708,-2.79688c2.09114,-2.25503 4.06914,-4.57585 5.73725,-6.92897c1.23434,-1.74122 2.66808,-3.58381 2.90796,-5.70463c0.50446,-4.46 2.6552,-10.51143 -0.74201,-13.44486c-1.45125,-1.25312 -2.9454,-2.12989 -4.45501,-2.69214c1.03341,-1.05225 2.49397,-2.16172 2.52293,-3.1124zM222.26004,50.22011c0.0928,-0.18687 0.1866,-0.37282 0.2814,-0.55782c-0.15301,-0.00351 -0.30541,-0.00702 -0.45728,-0.01054c0.05872,0.18942 0.11735,0.37888 0.17588,0.56836z" fill="#000000"/><path d="M439.38933,59.81966c9.5189,-19.03781 24.90349,-15.15888 39.25429,-7.77519c0.10865,0.0559 0.21849,0.10964 0.32942,0.16137c2.43359,0.31323 4.75759,0.97638 6.91992,1.93737c0.82847,0.25122 1.62451,0.55976 2.35705,0.98179c0.97889,0.56395 1.85937,1.26647 2.70006,2.02501c1.372,1.05219 2.63177,2.24341 3.75824,3.55261c1.14348,0.98755 2.23977,2.23025 2.63397,3.68881c2.16617,3.70159 3.40772,8.01009 3.40772,12.60856c0,0.76642 -0.03449,1.52478 -0.102,2.27361c2.59313,3.93998 4.102,8.65698 4.102,13.72639c0,0.47769 -0.0134,0.95225 -0.03984,1.42333c-0.04128,5.25061 1.09635,9.61198 2.1956,15.17913c0.61803,3.12997 -2.37538,7.32168 -1.86856,10.14575c0.2002,1.11551 1.08771,2.03783 1.25967,3.15804c0.53222,3.46718 -2.69774,7.3101 -2.35808,10.80155c0.01625,0.16708 3.31793,1.10363 4.25202,1.91034c0.7419,0.64073 0.94922,1.74119 1.62568,2.45066c1.22402,1.28374 3.04674,1.99998 4.02726,3.47809c2.70457,4.07704 4.76453,16.77105 3.48802,21.49413c-1.70192,6.2971 -6.86516,11.19017 -12.08177,14.83399c-2.29559,1.60348 -6.56351,3.40865 -6.76157,6.58837c-0.15835,2.54224 1.11446,4.99372 1.26157,7.53663c0.13579,2.34722 -0.0867,4.71336 -0.41823,7.04101c-0.10954,0.76906 -1.23231,1.22706 -1.19155,2.00281c0.10792,2.05379 1.67451,3.90057 1.60978,5.95618c-0.0818,2.59778 -3.03857,5.12991 -2.03436,7.52714c1.38319,3.30192 6.07379,4.08791 8.12811,7.01973c1.47743,2.10851 1.26913,4.99216 2.01521,7.45629c0.74608,2.46414 2.39779,4.74798 2.45925,7.32185c0.06264,2.62358 -1.40575,5.0569 -2.10328,7.58683c-0.4996,1.81205 2.8856,4.68458 3.6705,6.39252c0.94374,2.05357 -0.30927,11.14072 -1.52864,13.49817c-4.28837,8.29084 -11.46897,14.5662 -16.07848,22.66944c-2.33765,4.10945 -3.36308,9.29605 -6.43457,12.98115c-6.48222,7.7772 -11.4657,7.92324 -20.19083,10.65786c-2.92992,0.91829 -8.93453,7.50401 -9.40292,7.76402c-11.74785,6.52148 -29.76934,3.5512 -37.59375,-7.42187c-1.49475,-2.09626 -1.26913,-4.99216 -2.01521,-7.45629c-0.74608,-2.46414 -2.54016,-4.74852 -2.45925,-7.32185c0.23505,-7.47551 3.56124,-13.42436 8.66719,-17.98442c1.8771,-1.67642 3.86657,-3.25832 6.03352,-4.49182c0.98235,-0.55919 2.91331,-0.46351 2.9947,-1.59094c0.0777,-1.07624 -5.98701,-5.88381 -6.22095,-6.15468c-1.6373,-1.89582 -2.99684,-8.03564 -3.51562,-10.54687c-1.23798,-5.99256 0.041,-12.96822 2.73438,-18.40625c0.9378,-1.89345 2.86174,-3.2986 3.42183,-5.33598c0.2522,-0.9174 -0.75913,-1.81672 -0.7026,-2.76647c0.18701,-3.14188 2.1857,-6.26769 1.45603,-9.32939c-0.34351,-1.44137 -1.5173,-2.591 -1.88203,-4.02715c-0.6486,-2.55387 0.13446,-5.79243 -1.25908,-8.35214c-0.45638,-0.8383 -1.63655,-1.23354 -1.88559,-2.15496c-0.98754,-3.65391 -2.24184,-7.57523 -1.40842,-11.26735c0.29186,-1.29297 2.42512,-9.95551 4.0411,-12.71969c1.28121,-2.19154 4.28918,-4.78471 6.02896,-6.44361c0.82567,-0.78729 2.57378,-1.15894 2.53534,-2.29915c-0.01043,-0.30928 -2.63207,-2.76932 -2.83122,-3.40092c-1.34901,-4.27823 -1.12043,-9.07601 -3.12235,-13.09041c-0.7921,-1.58838 -2.18931,-2.9037 -2.6524,-4.61715c-0.33463,-1.23811 0.7033,-10.86099 0.82864,-11.32476c0.43549,-1.61133 1.66646,-2.90367 2.30053,-4.44769c0.44287,-1.07842 0.29182,-2.38946 0.91252,-3.37631c0.74441,-1.18356 5.98259,-4.56676 6.18517,-5.99363c0.37708,-2.65604 -1.12016,-5.27112 -1.24718,-7.95079c-0.0376,-0.79329 1.48523,-5.98756 1.09922,-6.52629c-0.77912,-1.08739 -2.23351,-1.55369 -3.03721,-2.62304c-2.87745,-3.82859 -6.13699,-16.40211 -5.23671,-19.94698c0.77057,-3.0341 1.76577,-6.01971 2.96978,-8.90933c0.22098,-0.53034 1.35166,-1.01201 1.55854,-1.72888c0.56042,-1.94193 0.42526,-4.21021 1.44181,-5.92197c0.13168,-4.1838 1.14579,-8.41858 2.99965,-12.1263z" fill="#d2fbff"/></g></g></svg>