<svg version="1.1" xmlns="http://www.w3.org/2000/svg" xmlns:xlink="http://www.w3.org/1999/xlink" width="2014.24126" height="443.39623" viewBox="0,0,2014.24126,443.39623"><g transform="translate(925.04951,18.20563)"><g data-paper-data="{&quot;isPaintingLayer&quot;:true}" fill-rule="nonzero" stroke-linejoin="miter" stroke-miterlimit="10" stroke-dasharray="" stroke-dashoffset="0" style="mix-blend-mode: normal"><path d="M89.23139,-9.9893c9.03412,1.17125 18.3465,1.08204 27.5218,0.97239c27.13187,-0.32425 54.61301,-0.97892 81.74681,-0.98309c112.0122,-0.0172 223.99385,-2.10143 336,-2c15.94818,0.01444 32.29652,-0.17293 48.10997,2.34015c6.24031,0.99171 14.88434,1.93897 21.79572,3.94277c1.94231,0.56313 5.76192,3.21038 7.55606,3.31556c11.66865,0.68409 23.35321,1.10125 35.03804,1.40152c8.14499,0.20931 16.62287,-1.99821 24.44126,0.29471c2.58174,0.75715 5.07111,1.80589 7.55894,2.83029c0.9003,0.37071 3.1398,2.48133 3.61308,2.50656c27.69196,1.47633 55.49936,1.01078 83.12153,3.46851c26.00177,2.31355 52.01138,4.54317 78,7c3.54111,0.33476 7.16368,3.08458 10.44306,3.28792c34.46248,2.1368 69.15742,1.55244 103.4232,5.80507c32.0035,3.97187 64.0062,7.95071 96,12c7.39801,0.93633 17.88379,4.21715 23.5582,8.59228c3.32113,2.56069 8.513,11.84523 9.10396,13.84036c0.64901,2.19114 -0.53756,4.54625 -0.58072,6.83108c-0.04316,2.28483 1.05363,4.68307 0.32234,6.84814c-6.17115,18.27022 -29.5561,20.70224 -44.85441,25.49581c-23.23529,7.28055 -48.2757,6.40709 -72.43885,9.41162c-2.2062,0.27433 -2.45922,3.75689 -4.08858,5.26943c-3.34247,3.10282 -7.22837,4.87713 -11.46956,5.87068c-19.85871,4.65215 -39.33992,11.8732 -59.66569,13.56844c-16.30465,1.35987 -32.76076,1.39281 -48.92843,3.90227c-1.21279,0.18824 0.04395,2.45423 0.0699,3.68127c0.05928,2.80322 1.06972,5.74862 0.18578,8.40948c-1.41023,4.24509 -3.64954,8.71974 -7.35626,11.22369c-9.0063,6.0839 -21.85567,8.29506 -31.49252,11.19601c-0.40151,0.12086 2.28647,1.93261 2.5137,2.18786c2.5167,2.82711 5.59288,5.34223 7.23265,8.7536c1.14193,2.37565 0.44688,5.25372 0.75849,7.87109c0.31161,2.61736 1.66295,5.2518 1.11071,7.82915c-1.9886,9.2809 -8.77239,15.47807 -17.01197,18.7655c-3.28738,1.3116 -6.39383,2.83263 -9.83138,3.70428c-1.3096,0.33207 -5.3109,0.75491 -3.96315,0.84925c14.37032,1.0059 28.90192,-0.02102 43.17268,1.94457c26.33872,3.62779 52.6691,7.31592 79,11c8.29131,1.16008 14.86013,6.24513 19.43767,13.35514c0.89712,1.39344 1.13817,8.84565 1.18182,9.35894c0.04366,0.51329 1.06467,7.89916 0.41577,9.4241c-1.1347,2.66659 -3.11753,4.88917 -4.54706,7.41002c-0.43548,0.76793 -0.37125,1.85721 -1.037,2.43699c-2.64288,2.30161 -7.59962,5.40647 -11.31887,6.59908c-2.76398,0.8863 -18.63629,7.12782 -26.89305,8.03203c-25.02873,2.74094 -50.08997,5.19071 -75.09751,8.11865c-1.83088,0.21436 3.6873,-0.0204 5.53008,0.02646c0.96247,0.02447 1.92679,0.0657 2.88269,0.18065c66.38689,7.98272 132.71369,16.47326 199.14356,24.08995c8.80655,1.00974 17.6921,1.1389 26.53272,1.78554c3.24517,0.23737 5.9712,2.04618 9.12033,2.52733c11.59365,1.77139 22.02057,0.9039 29.3091,10.67717c2.72611,3.65548 4.72498,6.15251 5.39106,10.7596c0.50187,3.47136 -0.06858,7.1581 -0.66118,10.40768c-0.8501,4.66159 -1.6071,7.53854 -4.63251,11.45353c-2.95534,3.82432 -9.62661,6.6612 -14.22589,7.61736c-22.50418,4.67847 -45.3637,7.81751 -67.57438,13.73463c-0.70233,0.18711 -1.94605,9.31352 -2.86497,10.84029c-2.72049,4.52004 -8.54227,9.65709 -13.36579,11.79378c-1.99037,0.88168 -4.29356,0.73496 -6.45618,0.98402c-21.68858,2.49782 -43.33261,5.60952 -65.11957,7.01038c-51.77369,3.32897 -104.09153,3.64111 -155.8453,3.13661c-101.16111,-0.98612 -203.46346,0.30684 -304.57491,-3.01229c-172.33365,-5.6571 -344.66817,-11.2877 -517,-17c-35.9236,-1.19076 -71.18755,-10.00499 -106.74723,-15.24254c-1.64714,-0.24261 -3.37782,-0.31799 -4.89108,-1.01222c-2.35565,-1.08068 -7.83635,-3.57564 -9.76462,-5.7956c-0.71041,-0.81787 -1.57904,-4.66382 -3.19035,-4.88535c-8.04267,-1.1057 -10.1587,0.10579 -15.39717,-0.06399c-133.26336,-4.31899 -266.52617,-8.65513 -399.78892,-12.99314c-47.36747,-1.54192 -95.30052,-4.56598 -142.62929,-7.02396c-1.81351,-0.09418 -3.70537,-0.0313 -5.40711,-0.66517c-5.50637,-2.05103 -12.17907,-5.68996 -15.14206,-10.90698c-1.69623,-2.98659 -2.05139,-7.66885 -2.38433,-10.93254c-0.13845,-1.35716 0.6675,-4.01601 -0.6966,-4.0329c-23.5087,-0.29113 -50.20729,4.6186 -73.64746,-3.01929c-1.34376,-0.43786 -4.11047,-3.23344 -4.30165,-3.39095c-7.12449,-5.86953 -6.59064,-8.10601 -9.16543,-17.90233c-0.43096,-1.63966 1.86545,-6.17935 1.35345,-6.25445c-13.51936,-1.98321 -32.85979,3.9853 -46.79248,-2.94116c-6.15367,-3.05922 -10.0104,-9.18524 -11.80265,-15.71456c-0.51651,-1.88169 0.19759,-5.55245 -0.47867,-7.25577c-1.10468,-2.7824 -6.31012,-3.8764 -7.72801,-6.9936c-7.38137,-16.2277 -1.7307,-35.43893 17.36812,-38.62893c48.64593,-8.12515 97.32372,-16.05867 146,-24c5.16894,-0.84329 11.22107,-0.05109 16.04244,-0.54716c1.8525,-0.1906 2.66037,-2.61428 4.10365,-3.79114c2.19616,-1.79075 5.68973,-2.51523 8.39571,-3.29264c10.25198,-2.94532 21.31377,-1.20715 31.90299,-2.49035c0.5145,-0.06235 -0.45815,-0.99216 -0.38787,-1.50563c0.4669,-3.41121 0.74014,-6.87897 1.67772,-10.19187c1.7678,-6.24644 12.51908,-12.92207 18.89171,-14.11688c54.35091,-10.1903 76.72125,-13.97573 138.468,-16.37695c43.33262,-1.68513 86.66629,-3.34312 130,-5c6.38365,-0.24408 7.62276,1.06303 18.81044,-0.28632c2.40166,-0.28967 5.19588,-5.4004 7.65038,-6.60715c9.35691,-4.6003 21.30269,-5.58679 31.28784,-6.0956c16.86804,-0.85953 34.51605,2.66656 50.61016,-2.4568c4.13669,-1.31686 -3.47963,-8.23214 -3.398,-12.5726c0.09384,-4.98968 1.43024,-10.1201 3.90625,-14.45312c4.56693,-7.99212 12.59889,-8.73885 20.27796,-10.4653c1.76421,-0.39664 -1.42084,-3.32968 -1.99887,-5.04305c-0.07213,-0.2138 0.3214,-0.66284 0.09588,-0.67008c-13.04894,-0.4192 -37.01396,3.95818 -49.70974,-6.02263c-1.96159,-1.5421 -4.82786,-2.54222 -5.66523,-4.8927c-0.83943,-2.35627 -1.22504,-4.8525 -1.95786,-7.24407c-0.54471,-1.77767 -1.38676,-3.45942 -1.87185,-5.25427c-0.5182,-1.91734 1.22433,-6.64577 1.37874,-7.33933c0.54358,-2.44155 0.73282,-4.96029 1.38544,-7.37498c0.7988,-2.95554 5.64767,-6.05068 7.98711,-8.07111c8.67206,-7.48951 30.32599,-2.38263 37.0057,-6.037c9.28986,-5.08235 -14.62411,0.02081 -21.42861,-0.13944c-27.87373,-0.65643 -56.16763,-1.29651 -84.04008,-2.00497c-12.17578,-0.30949 -24.52609,-0.70945 -36.70263,-0.98794c-12.1685,-0.27831 -17.18898,-0.97153 -26.87086,-9.33315c-2.57015,-2.21967 -3.78679,-10.64148 -4.74823,-14.1988c-0.76502,-2.83056 2.42023,-12.32448 3.05079,-14.65757c0.63001,-2.33103 3.40648,-3.42621 5.19492,-5.04858c12.25914,-11.12086 37.76348,-8.75356 50.71115,-8.7619c37.59635,-0.02421 75.68527,-0.41556 113.27931,0.00156c59.77275,0.66319 119.82376,6.21445 179.45208,2.00914z" fill="#000000" stroke="none" stroke-width="0.5" stroke-linecap="butt"/><text transform="translate(305.5,218.98209) scale(0.81729,0.81729)" font-size="40" xml:space="preserve" fill="#ffffff" fill-rule="nonzero" stroke="none" stroke-width="1" stroke-linecap="butt" stroke-linejoin="miter" stroke-miterlimit="10" stroke-dasharray="" stroke-dashoffset="0" font-family="Sans Serif" font-weight="normal" text-anchor="start" style="mix-blend-mode: normal"><tspan x="0" dy="0">ZZZT</tspan></text><path d="M308.5,225l-26,35" fill="none" stroke="#ffffff" stroke-width="0.5" stroke-linecap="round"/><path d="M575.5,31h-11" fill="none" stroke="#ffffff" stroke-width="0.5" stroke-linecap="round"/></g></g></svg>