<svg version="1.1" xmlns="http://www.w3.org/2000/svg" xmlns:xlink="http://www.w3.org/1999/xlink" width="699.60323" height="763.07521" viewBox="0,0,699.60323,763.07521"><g transform="translate(83.5,108.66)"><g data-paper-data="{&quot;isPaintingLayer&quot;:true}" fill="#000000" fill-rule="nonzero" stroke="none" stroke-width="0.5" stroke-linecap="butt" stroke-linejoin="miter" stroke-miterlimit="10" stroke-dasharray="" stroke-dashoffset="0" style="mix-blend-mode: normal"><path d="M-11.75,-41c0,-0.13807 0.11193,-0.25 0.25,-0.25c0.13807,0 0.25,0.11193 0.25,0.25c0,0.13807 -0.11193,0.25 -0.25,0.25c-0.13807,0 -0.25,-0.11193 -0.25,-0.25z"/><path d="M-40.75,2c0,-0.13807 0.11193,-0.25 0.25,-0.25c0.13807,0 0.25,0.11193 0.25,0.25c0,0.13807 -0.11193,0.25 -0.25,0.25c-0.13807,0 -0.25,-0.11193 -0.25,-0.25z"/><path d="M174.82233,71.67767c-8.05031,-7.597 -22.84272,-19.64968 -32.78373,-23.83584c-5.1941,-2.18724 -10.26073,0.106 -15.5386,0.15817c-14.45847,0.14292 -23.20766,-0.22959 -35.92363,2.58177c-1.50594,0.33295 -3.57288,-0.04255 -5.08153,0.43893c-4.1457,1.3231 -8.47314,3.72691 -12.46725,5.48908c-2.53431,1.11812 -8.78718,3.84778 -10.43443,6.30457c-3.58369,5.34488 -3.34655,14.24551 -4.57864,20.08855c-1.63087,7.73415 -2.88412,15.45352 -4.51452,23.17474c-1.33983,6.34514 -1.32962,13.18992 -3.24178,19.43415c-0.41704,1.36185 -0.89238,2.62233 -1.33825,3.88002c0.10764,0.47906 0.27672,1.791 -0.83994,2.58867c-0.24009,0.85376 -0.44174,1.7352 -0.58003,2.6723c-0.23527,1.59424 -0.1225,5.1827 -0.6932,6.97635c-0.5573,1.75153 -1.22052,3.47911 -1.8068,5.23171c0,12.71306 0,25.42611 0,38.13917c0,13.66667 0,27.33333 0,41c0,5.40554 -0.70252,11.33269 -0.01873,16.69454c0.17386,1.36333 0.81018,2.6388 1,4c0.86203,6.18175 0.01873,13.06222 0.01873,19.30546c-0.00002,3.77247 0.09769,6.69372 0.93909,10.45153c0.54117,2.41692 1.67032,4.6973 2.02862,7.14801c0.26562,1.81674 0.03352,3.75498 0.3055,5.55808c0.54386,1.22187 1.11462,2.42736 1.7225,3.60851c0.2805,0.36095 0.54857,0.72924 0.75006,1.13548c0.2033,0.4099 0.38808,0.8322 0.55969,1.26358c2.10987,3.63607 4.66609,6.97116 7.99773,9.75022c1.10908,0.92513 3.82801,0.53633 5.30048,0.92624c4.57581,1.21168 9.29282,2.25241 13.80255,3.54896c12.32198,3.54257 35.35356,7.39507 46.50999,2.28562c6.193,-2.83629 12.04525,-7.20224 17.65653,-11.10435c4.8825,-3.39531 9.87988,-7.03016 13.85955,-11.46632c0.06503,-0.07249 0.1298,-0.1462 0.19433,-0.22106c1.02656,-1.8494 2.28087,-3.55494 3.72503,-5.07873c0.36614,-5.20479 0.78999,-10.41318 1.21185,-15.58695c1.35274,-16.59034 2.62816,-33.5494 2.93647,-50.21882c0.10897,-5.89184 1.68895,-11.81233 2,-17.65277c0.73431,-13.78783 1.5632,-27.53772 2,-41.34723c0.20136,-6.36604 1.82066,-12.75708 2,-19.07764c0.23415,-8.25234 0.04716,-17.10921 1.38041,-25.26699c1.94373,-11.89313 3.97354,-23.65898 4.61959,-35.65537c0.0761,-1.41318 0.35073,-2.8485 0.67315,-4.28456c-1.1359,-0.99169 -2.25415,-2.00286 -3.35082,-3.03777zM-7.10937,262.90625c-0.51411,-4.91779 -0.28561,-9.88514 -0.39062,-14.82861c-0.0497,-2.3397 -0.98749,-4.68899 -1,-7.07764c-0.0611,-11.66651 -0.11713,-23.33392 0,-35c-0.02859,-10.02115 -0.0457,-19.90048 -0.20049,-29.75937c-0.05191,-0.75423 -0.06143,-1.50268 -0.03773,-2.24667c-0.13841,-7.72648 -0.36839,-15.44608 -0.76179,-23.21726c-0.18166,-3.58847 -1.48049,-7.31011 -2.25356,-10.7133c-0.92514,-4.07264 -0.77966,-8.38298 -1.43079,-12.45725c-0.85519,-5.35118 -2.22437,-10.58338 -3.05934,-15.99921c-1.89865,-12.31511 -3.6466,-25.47556 -6.69814,-37.5851c-3.97273,-15.76517 -11.10147,-30.96629 -13.06311,-47.22503c-9.1131,-11.49476 -6.77812,-29.52726 7.00494,-37.67179c5.32147,-3.1445 13.17083,-3.24681 19.12288,-4.88729c3.56184,-0.9817 5.73066,-3.71631 8.87712,-5.11271c4.20649,-1.86684 8.28893,-4.13763 12.59431,-5.84208c10.44468,-4.13493 21.95545,-3.40747 32.90569,-3.28292c20.99657,0.23882 41.2903,5.70601 62.06906,8c4.27464,0.47192 8.56982,-0.29638 12.83384,0.48548c4.20377,0.77081 8.31178,2.18072 12.57258,2.51452c6.48829,0.5083 13.04304,-0.58888 19.52451,0c3.00196,0.27275 5.24284,0.5818 7.05594,1.00959c2.3335,0.55056 3.95843,1.29778 5.58536,2.41733c2.38744,1.402 4.52153,3.189 6.317,5.27571c0.71181,0.61475 1.58889,1.07882 2.13544,1.84425c0.14369,0.20123 0.29152,1.02143 0.49853,1.84456c0.23441,0.93208 0.54471,1.86792 1.01079,1.91303c1.79348,0.17359 3.59013,0.29665 5.38898,0.38448c0.00243,-0.89632 0.00507,-1.79263 0.00795,-2.68895c0.01075,-3.35433 0.23534,-8.14669 1.00025,-13.11193c0.02025,-4.6206 1.29401,-8.94522 3.49876,-12.65134c1.99816,-4.35243 4.8486,-7.73608 8.89244,-8.82901c3.70159,-2.16617 8.01009,-3.40772 12.60856,-3.40772c3.13655,0 6.13819,0.57762 8.90435,1.63228c1.99787,0.44467 3.89822,1.0954 5.54877,2.27397c3.34139,2.3859 5.66925,5.37432 7.27174,8.71454c0.08215,0.14386 0.16291,0.28861 0.24227,0.43424c13.10502,0.74818 19.64801,9.0618 22.64224,21.03872c0.67886,2.71545 0.82786,5.46692 0.72358,8.22596c1.59166,0.04236 3.18333,0.08457 4.775,0.12657c1.20229,-5.10505 2.41749,-10.20219 3.64361,-15.28999c4.24568,-17.6174 9.37338,-35.16329 14.10804,-52.65562c1.72463,-6.3717 5.59341,-16.96895 11.68727,-20.59441c7.79686,-4.63864 16.43627,-4.42574 24.5307,-1.18258c1.40247,0.56192 3.11654,0.34739 4.37555,1.18258c5.42123,3.59626 8.46459,10.05739 10.25217,16.15269c2.85862,9.74736 -1.69423,20.80578 -0.17475,30.62744c0.12158,0.78586 1.55088,0.36164 2.33822,0.47321c2.47919,0.35131 5.22387,-0.21998 7.45599,0.91468c3.12449,1.58827 6.52286,10.11654 7.92916,6.90604c4.90953,-11.20813 3.26885,-24.25334 4.97692,-36.36978c0.80271,-5.69413 3.62589,-14.62739 4.61329,-18.0521c1.9338,-6.70722 6.22796,-12.29274 12.19027,-15.32449c1.235,-0.62798 2.09805,-1.97801 3.43556,-2.33949c3.49537,-0.94469 8.24394,-0.49143 11.69407,-0.03931c3.45013,0.45212 8.15516,1.23768 11.28909,3.05111c1.1992,0.69391 1.68526,2.22073 2.71675,3.14572c13.59912,12.19497 3.21563,27.99357 10.21581,43.72009c0.37257,0.837 11.40258,-2.55053 12.61431,-2.77205c2.56771,-0.46943 14.79442,3.60404 16.15494,5.17938c13.1921,15.27507 7.8455,25.97674 8.84506,46.85633c0.05914,1.23538 0.581,-2.42499 1.125,-3.53571c1.10529,-2.25675 1.70975,-4.76812 2.02791,-7.26079c0.95563,-7.48711 4.97567,-13.3077 10.39397,-18.33296c2.24308,-2.08037 7.05556,-2.06855 9.4467,-2.55316c10.12059,-2.05113 18.23304,0.06166 24.61454,8.52209c1.11801,1.48223 2.91232,3.22757 3.51349,5.11696c2.66598,8.37879 3.37669,17.07781 3.25223,25.88996c25.71053,-0.35461 51.45308,-1.30966 77.15069,-1.88211c11.24427,-0.25048 24.33918,-3.10573 31.56924,9.54687c2.47601,4.33302 3.90625,9.46256 3.90625,14.45313c0,30.60753 -35.45682,25.45878 -54.96014,26c-4.00754,0.11121 -8.74651,0.9871 -13.03986,1c-11.14399,0.03348 -22.28983,-0.19785 -33.43211,0c-3.44305,0.06114 -8.28453,0.41505 -13.21613,0.68467c1.64072,17.7177 7.96054,51.73263 8.39698,54.7798c6.16818,43.06517 11.24398,85.941 15.14859,129.27214c2.52145,27.98162 1.10434,32.18969 2.10267,57.79786c0.1525,3.91171 -0.59577,8.27955 1.37219,11.66361c0.28949,0.4978 5.38925,1.17175 7.49584,1.76383c4.57963,1.28716 9.12978,2.67964 13.72214,3.92061c23.55655,6.36556 52.77663,10.1397 70.50358,28.66436c2.91213,3.04318 3.25252,7.79773 4.34527,11.86558c0.76047,2.83093 -1.32658,5.71098 -2.05087,8.55139c-0.72429,2.8404 -0.27119,6.36818 -2.2944,8.48929c-2.90721,3.04788 -5.48277,7.05888 -9.49655,8.336c-13.5982,4.3267 -27.80068,1.92771 -41.93976,2.21088c-6.12173,0.1226 -12.22791,0.66471 -18.34347,0.96545c-6.07278,0.29864 -14.38382,-0.00909 -18.68936,0.03455c-1.4747,0.01495 -4.48059,-1.25254 -4.41882,0.22094c1.08395,25.85659 5.08238,51.50849 7.66687,77.25841c0.95041,9.46916 1.86695,18.94235 2.93779,28.39864c1.6677,14.72692 5.96653,29.25022 6.18955,44.122c0.15885,10.59297 0.44418,24.81315 -10.54687,31.09375c-4.33302,2.47601 -9.46256,3.90625 -14.45312,3.90625c-10.76682,0 -16.75825,-3.84089 -21.875,-12.5c-3.27127,-5.536 -2.3206,-9.02057 -3.125,-14.43094c-2.3624,-15.88937 -3.35112,-29.01367 -5.75735,-45.43379c-2.57148,-17.54783 -5.92784,-34.97164 -8.89111,-52.45757c-0.8445,-4.98329 -1.41241,-19.99859 -2.53833,-15.07125c-2.91906,12.77467 -1.71255,26.15503 -2.92013,39.20321c-3.00361,32.45472 -5.18681,65.32496 -9.07319,97.68584c-2.322,19.3347 -4.60374,38.67437 -7,58c-1.16516,9.39691 -4.55794,20.96133 -10.51061,28.85413c-0.40564,0.53785 -1.23904,0.54169 -1.80972,0.89969c-2.83505,1.77847 -5.40063,4.01356 -8.39743,5.5034c-2.71004,1.34728 -6.05448,-0.00776 -9.07847,-0.13016c-3.02399,-0.12239 -6.46699,0.95793 -9.05929,-0.60395c-2.8666,-1.72716 -5.24315,-4.16228 -7.9252,-6.16405c-0.53988,-0.40294 -1.37024,-0.47412 -1.73109,-1.043c-3.39624,-5.35414 -4.39874,-10.13751 -5.74454,-16.0184c-0.24905,-1.08829 -5.84788,-21.64695 -7.31227,-31.75763c-2.62877,-18.15003 -1.24207,-37.33111 -7.78075,-54.46528c-2.48598,-6.51433 -3.41412,13.52206 -5.28008,20.24029c-1.48668,5.35268 -5.12424,11.60513 -9.73731,14.7832c-1.78626,1.23061 -3.84861,2.00282 -5.79256,2.96521c-0.39815,0.19711 -1.26434,-0.42727 -1.33276,0.0117c-1.94782,12.49644 0.75485,25.7024 -3.17316,38.04757c-1.57204,4.9407 -6.36589,14.7637 -11.67062,16.19741c-2.43238,0.6574 -8.8544,1.17922 -11.70507,2.47382c-1.67654,0.76139 -1.59678,5.2785 -2.68521,6.66365c-3.42668,4.36084 -9.68101,8.6951 -14.96738,10.3724c-2.85455,0.90571 -10.71022,0.26101 -13.12637,0.17448c-23.96087,-0.8582 -27.68636,-25.17262 -29.86103,-45.36766c-2.65933,-24.69576 8.81577,-55.68027 -7.84603,-74.10138c-12.66315,-14.00024 -5.84764,37.3005 -8.54009,55.98506c-2.90349,20.14911 -0.30598,58.1031 -28.25899,63.81443c-2.90567,0.59368 -12.09123,-2.09547 -14.6742,-2.96978c-3.10011,-1.04935 -10.30867,-7.71321 -11.18034,-9.95749c-8.04484,-20.71297 1.56108,-70.44382 1.32268,-76.57562c-0.08606,-2.21342 -4.63996,-0.40888 -6.41512,-1.73382c-3.03328,-2.26396 -5.49633,-5.33513 -7.42187,-8.59375c-3.35001,-5.66925 -2.34437,-7.47378 -3.125,-12.58817c-2.82772,-18.52606 -3.93549,-36.61706 -1.84709,-55.67262c1.77435,-16.19004 3.56728,-32.37803 5.36989,-48.56496c-0.56983,-0.70719 -1.10194,-1.44606 -1.59326,-2.21354c-3.87908,-5.4422 -6.48707,-11.95405 -7.06439,-17.72727c-1.14362,-11.43617 -2.1858,-22.86475 -2.90484,-34.34524c-17.27827,-0.30174 -34.80671,2.09701 -52.03645,0.52545c-17.31321,-1.57918 -34.46006,-5.15604 -51.51063,-8.31508c-3.59647,-0.66634 -24.98853,-3.43387 -27.71732,-3.81786c-4.08144,-0.57433 -8.71081,-1.93549 -12.57003,-2.8192c-1.31769,12.82248 -1.45287,25.20472 -1.12587,38.48205c0.24909,10.1142 2.31126,20.33495 0.60938,30.46269c-0.64471,3.83661 -2.58936,6.90248 -3.91713,10.33245c-0.27603,0.71306 -0.10213,1.63281 -0.59849,2.21443c-2.08731,2.44584 -4.68482,4.40834 -7.11833,6.51001c-2.02857,1.75194 -8.66972,3.9185 -10.48157,4.36732c-2.42703,0.6012 -4.99652,-0.20707 -7.49386,-0.33046c-14.10245,-0.69676 -25,-9.85577 -25,-25c0,-5.3964 3.14636,-10.32968 5,-15.39773c1.23917,-3.38802 -0.98132,-7.91281 -1,-11.60227c-0.04895,-9.66654 -0.03622,-19.3334 0,-29c0.02034,-5.42854 0.41432,-11.20826 1.02397,-17.10728c-3.25273,-0.0816 -6.58915,0.26672 -9.8254,-0.18343c-3.71131,-0.51623 -7.36897,-1.50431 -11.1104,-1.70929c-6.68603,-0.36631 -13.41862,0.59517 -20.08817,0c-4.49378,0 -8.71064,-1.18566 -12.35481,-3.26121c-4.34845,-2.00156 -8.11474,-4.97611 -9.23748,-9.13023c-2.16617,-3.70159 -3.40772,-8.01009 -3.40772,-12.60856c0,-3.13655 0.57762,-6.13819 1.63228,-8.90435c0.44467,-1.99787 1.0954,-3.89822 2.27397,-5.54877c2.33453,-3.26945 5.40406,-5.6647 8.852,-7.34966c3.61822,-2.03591 7.79437,-3.19721 12.24175,-3.19721c15.91822,-1.33956 29.43472,1.68501 45,2c1.101,0.02228 2.21158,0.11321 3.32541,0.24726c1.12236,-5.71483 2.43121,-11.26134 2.67459,-17.28713c0.34217,-8.47172 1.16251,-17.02965 1.68047,-25.56526c-0.51097,-2.49156 -1.02745,-4.97866 -1.28984,-7.48863zM18.08416,36.65175c0.05872,0.18942 0.11735,0.37888 0.17588,0.56836c0.0928,-0.18687 0.1866,-0.37282 0.2814,-0.55782c-0.15301,-0.00351 -0.30542,-0.00702 -0.45729,-0.01054z"/></g></g></svg>