<svg version="1.1" xmlns="http://www.w3.org/2000/svg" xmlns:xlink="http://www.w3.org/1999/xlink" width="1632.42154" height="457.99858" viewBox="0,0,1632.42154,457.99858"><g transform="translate(679.5,55)"><g data-paper-data="{&quot;isPaintingLayer&quot;:true}" fill-rule="nonzero" stroke="none" stroke-linecap="butt" stroke-linejoin="miter" stroke-miterlimit="10" stroke-dasharray="" stroke-dashoffset="0" style="mix-blend-mode: normal"><path d="M-190.19485,44.59375l-1.44641,-1.82999l-6.76481,-6.57425l-0.56071,-2.69395l-0.51185,-0.64758l-0.2139,-1.50772l-140.12145,-7.37481l-0.35389,-0.0543l-0.35797,0.00664l-123,-10l-0.53318,-0.09746l-0.54185,-0.01338l-40,-5l-0.34609,-0.07886l-0.35447,-0.0188l-26,-4l-1.57513,-0.40609l-1.71682,-0.12781l-8.58015,-4.45182l-0.00737,-0.00366l-0.00025,-0.0003l-1.49134,-0.77378l-1.46321,-2.69305l-4.41047,-5.17518l-0.41406,-3.70439l-0.85992,-1.5827l0.1454,-4.80976l-0.53454,-4.78218l0.72889,-1.64715l0.11263,-3.72576l3.97676,-5.51545l1.24025,-2.80273l1.42376,-0.89205l0.00023,-0.00032l0.00705,-0.00424l8.19133,-5.13222l1.70082,-0.26646l1.53706,-0.53235l21,-5l2.20526,-0.29745l2.1985,-0.3439l72,-4l0.59151,0.02614l0.58864,-0.06378l121,-1l0.10334,0.00947l0.10326,-0.01033h143l0.07483,0.00748l0.07487,-0.00703l167,1l0.07659,0.00812l0.07672,-0.00673l165,2l0.01403,0.00157l0.01406,-0.00122l149.98684,1.98658l0.23506,0.02665l0.23603,-0.01597l125.01316,4.01342l0.26362,0.03494l0.26564,-0.01233l75,4l0.74922,0.1155l0.758,0.01071l35,4l1.17989,0.25576l0.05782,0.00079l1.29822,0.29315l1.3007,0.28194l0.05275,0.02367l1.17764,0.26592l0.83363,0.27788l0.44994,0.0167l0.95764,0.45249l0.75879,0.25293l3.58227,1.60584l0.75065,0.54708l4.21731,1.9927l1.12731,1.90253l1.1928,0.86933l4.70474,7.90797l61.16924,5.93433l1.84385,-0.37316l10.48157,4.36732l0.24953,0.25646l0.32891,0.14091l7.83692,8.21702l0.31317,1.85498l0.65671,1.31342l1.39754,3.66855l0.49996,3.18723l1.2887,3.23081l-0.45498,2.08411l0.06387,0.40718l-1.08802,4.28408l-0.94274,4.31838l-0.23923,0.33563l-0.52509,2.06756l-2.59751,2.31341l-1.87255,2.62715l-2.89062,2.65625l-4,3l-2.64058,1.59663l-0.18642,0.14499l-0.27279,0.13267l-0.25958,0.15695l-0.22301,0.07775l-2.77498,1.34958l-13.6865,5.0424l5.06076,0.82384l3.34377,0.89325l0.15113,0.02371l0.14644,0.05579l0.15139,0.04044l0.13643,0.06921l3.23428,1.23211l4,2l0.21168,0.13369l2.82528,0.97358l1.99755,2.65803l4.74829,4.61995l1.58818,3.81164l0.6606,0.87902l0.11502,0.98246l2.00352,4.80845l-0.91264,4.50951l0.53499,4.56972l-2.39592,4.62546l-0.19621,0.96952l-0.73132,0.82113l-1.89923,3.66658l-5.11555,4.20967l-2.21139,2.48296l-2.89637,0.73559l-0.22205,0.11565l-10,4l-1.84474,0.53214l-1.81854,0.61573l-6.32602,1.45985l107.91003,5.20945l1.87994,0.2801l1.89106,0.19113l61.97925,12.58954l0.6073,-0.03119l0.93497,0.34446l0.47848,0.09719l3.75032,1.16039l1.59021,0.88627l1.70826,0.62936l3.32323,2.08986l0.3854,0.29976l0.87036,0.48508l0.37189,0.48112l3.50183,2.72365l0.36946,0.08418l0.69889,0.74676l2.80216,2.17946l2.84359,2.70655l2.95563,4.30451l0.93016,0.99387l0.12333,0.5404l1.09563,1.59565l2.22691,11.13453l-0.27027,0.64449l0.15549,0.68135l-4.04835,10.43434l41.30235,2.75349l1.37936,0.23144l1.39431,0.11002l60.24316,10.86352l1.06555,-0.00398l1.6565,0.70148l1.80971,0.51663l2.36969,1.25322l2.46847,1.04532l1.54371,1.07653l1.59021,0.84099l0.67004,0.82853l2.56776,2.20093l0.23793,0.06335l0.4815,0.55331l3.12891,2.68192l2.71163,2.83874l2.55041,4.12165l0.95587,1.09843l0.12279,0.64478l1.11627,1.80397l1.69477,11.22785l-0.23521,0.49362l0.10229,0.53714l-4.4875,10.43068l-1.53737,1.4618l-0.28234,0.59254l-1.20325,0.82002l-3.51253,3.33987l-3.34304,2.05803l-3.70689,1.80049l-0.60611,0.41307l-0.24622,0.00092l-30.44078,14.78552l-1.77121,0.65154l-0.20488,0.11673l-0.86045,0.27515l-0.84783,0.31187l-0.23335,0.03386l-1.79758,0.57482l-82.40087,17.54833l32.94849,0l48.66679,-0.95425l17.93687,-1.90582l1.32398,-0.00819l1.31743,-0.13174h2l3.90625,0.39063l8.59375,2.73438l8.59375,7.42188l3.90625,14.45313l-3.90625,14.45313l-8.59375,7.42188l-8.59375,2.73438l-3.90625,0.39063h-0.67559l-17.69261,1.87986l-1.07948,0.00668l-1.07183,0.12845l-49.99039,0.9802l-0.24527,-0.01968l-0.24483,0.02448l-78.89131,0l-114.89131,0.99905l-0.10874,-0.00992l-0.10865,0.01086h-22.48587l0.55941,0.20957l7.60792,4.84241l6.40842,9.37384l0.01079,2.07729l1.03476,1.80126l-0.82864,11.32476l-4.1432,8.01019l-2.48592,3.03835l-0.02304,0.02304l-0.96164,1.66894l-1.38006,0.67276l-1.59197,1.59197l-0.4624,0.72623l-1.17396,0.80231l-2.44528,2.00068l-1.98307,1.02572l-1.84329,1.25974l-2.92085,1.20447l-1.26298,0.65327l-0.85865,0.06283l-48.58678,14.57603l-1.80299,0.35009l-1.78221,0.44391l-110,16l-1.93532,0.08671l-1.92959,0.17221l-563,-6l-1.15501,-0.12795l-1.16207,-0.00448l-308,-32l-2.27135,-0.46798l-1.82025,-0.10396l-5.40857,-2.6888l-2.60998,-1.13928l-0.27969,-0.29729l-1.86962,-0.92946l-1.50209,-2.65436l-4.12935,-4.38911l-0.65905,-4.07251l-1.08314,-1.91403l0.05735,-4.42467l-0.70691,-4.36821l0.79013,-2.05241l0.05347,-4.12514l3.43958,-4.94825l1.09575,-2.84627l1.71275,-1.1941l0.23297,-0.33516l2.41424,-1.51043l4.95476,-3.45437l1.78521,-0.3703l2.17792,-0.79666l78,-20l1.18749,-0.18109l1.16247,-0.30261l34.72515,-5.4258l11.34789,-5.42725l2.22182,-0.80207l0.25166,-0.13448l0.61586,-0.17869l0.60316,-0.21774l0.28262,-0.03927l2.2686,-0.65822l12.59383,-2.32712l-197.70955,-13.14413l-0.67858,-0.11373l-1.56737,0.05899l-1.48605,-0.57073l-0.13973,-0.02342l-3.39137,-1.33273l-3.40159,-1.30641l-0.11889,-0.07706l-1.48158,-0.58223l-1.11644,-1.10168l-0.57738,-0.37423l-7.97174,-6.37739l-1.8517,-0.76246l-1.29897,-1.95815l-1.68384,-1.64724l-5.00244,-7.50366l-0.2396,-1.28961l-0.05142,-0.07751l-0.01674,-0.28933l-1.76643,-9.50753l1.07378,-2.46532l-0.1553,-2.68453l3.65445,-6.14258l-104.55196,2.17817l-0.2606,-0.02059l-0.26012,0.02601h-48l-3.90625,-0.39062l-0.5088,-0.16189l-2.07112,-0.10215l-3.28899,-1.60334l-2.72484,-0.867l-1.22645,-1.05921l-2.96654,-1.44615l-1.27984,-2.22118l-3.12092,-2.69534l-1.38512,-5.12495l-1.68876,-2.93086l0.0169,-3.25501l-0.84927,-3.14231l0.88255,-3.26542l0.02757,-5.30875l2.32729,-3.40421l0.66885,-2.47473l2.49771,-2.15712l0.91457,-1.33778l2.41226,-1.5354l2.7692,-2.39158l1.97602,-0.62873l0.45043,-0.2867l3.67623,-1.3772l34,-9l1.74768,-0.28043l1.72861,-0.3807l40.28111,-4.73895l-0.63641,-2.35471l-1.44075,-2.17188l-0.23252,-4.01921l-1.0504,-3.88648l0.68001,-2.51603l-0.26178,-4.52498l2.72073,-4.57313l0.76729,-2.83898l1.8958,-1.63728l0.42192,-0.70919l2.55745,-1.8639l3.71858,-3.2115l1.67136,-0.5318l2.92295,-1.31029l21,-7l1.71639,-0.38757l1.69078,-0.48728l82,-15l1.28367,-0.10454l1.26766,-0.22758l128,-10l0.63836,0.01386l0.6334,-0.08068l132.70414,-3.5866l-1.12247,-0.9694l-0.99176,-3.66951l-1.12641,-1.49885l-0.55123,-4.7084l-1.23686,-4.57636l0.48919,-1.80998l-0.442,-3.77538l3.05789,-5.90343l0.80117,-2.96433l1.32871,-1.14752l0.03491,-0.0674l0.91472,-0.75274l6.31541,-5.45422l1.66633,-0.53019l1.54891,-0.80672l3.38526,-1.3541zM780.52934,224.28497l44.68121,-9.51544l-71.93757,-4.79584l2.08644,0.32601l3.79912,0.98898l2.14874,1.07276l1.37306,0.27788l1.04152,0.92761l3.50528,1.75002l4.75754,5.60906l1.87599,1.67081l0.1961,0.77216l0.51532,0.60756l0.10367,0.94763z" fill="#000000" stroke-width="0.5"/><text transform="translate(183.5,224) scale(0.5,0.5)" font-size="40" xml:space="preserve" fill="#ffffff" fill-rule="nonzero" stroke="none" stroke-width="1" stroke-linecap="butt" stroke-linejoin="miter" stroke-miterlimit="10" stroke-dasharray="" stroke-dashoffset="0" font-family="Sans Serif" font-weight="normal" text-anchor="start" style="mix-blend-mode: normal"><tspan x="0" dy="0">Oh you! Yeah you! Can you do</tspan></text><text transform="translate(181.5,246) scale(0.5,0.5)" font-size="40" xml:space="preserve" fill="#ffffff" fill-rule="nonzero" stroke="none" stroke-width="1" stroke-linecap="butt" stroke-linejoin="miter" stroke-miterlimit="10" stroke-dasharray="" stroke-dashoffset="0" font-family="Sans Serif" font-weight="normal" text-anchor="start" style="mix-blend-mode: normal"><tspan x="0" dy="0">me a favor and press the L key</tspan></text><text transform="translate(182.5,270) scale(0.5,0.5)" font-size="40" xml:space="preserve" fill="#ffffff" fill-rule="nonzero" stroke="none" stroke-width="1" stroke-linecap="butt" stroke-linejoin="miter" stroke-miterlimit="10" stroke-dasharray="" stroke-dashoffset="0" font-family="Sans Serif" font-weight="normal" text-anchor="start" style="mix-blend-mode: normal"><tspan x="0" dy="0">to light up my torch?</tspan></text></g></g></svg>