<svg version="1.1" xmlns="http://www.w3.org/2000/svg" xmlns:xlink="http://www.w3.org/1999/xlink" width="1825.15396" height="549.90574" viewBox="0,0,1825.15396,549.90574"><g transform="translate(759.86072,135.93134)"><g data-paper-data="{&quot;isPaintingLayer&quot;:true}" fill-rule="nonzero" stroke="none" stroke-width="0.5" stroke-linecap="butt" stroke-linejoin="miter" stroke-miterlimit="10" stroke-dasharray="" stroke-dashoffset="0" style="mix-blend-mode: normal"><path d="M-36.24999,-2c0,-4.59847 1.24155,-8.90697 3.40772,-12.60856l0.49853,-1.84456l2.13544,-1.84425c1.6159,-1.87802 3.50609,-3.51328 5.60838,-4.8436l0.84993,-0.73403l0.94747,-0.30147c3.45536,-1.80371 7.38485,-2.82353 11.55253,-2.82353h1.24257l0.21906,-0.06636l0.59988,0.06636h1.93849l3.90625,0.39063l1.23296,0.39231l1.28603,0.14226l3.72822,1.22952l1.25458,0.55759l1.50092,-2.168l15.95043,-27.20956l0.2656,-0.83474l1.30362,-1.50946l1.31639,-1.8059l1.08995,-0.98039l3.71191,-4.298l1.52447,-0.41202l0.37863,-0.34057l10.74886,-3.66042l8.12462,2.21581l8.12967,2.19721l7.42188,8.59375l0.15441,0.48529l1.10679,1.1264l1.02867,5.58506l0.4445,1.39699l0.22237,2.22367l0.36127,1.96147l-0.19301,0.85444v3.29878l0.58632,12.89908l6.32902,-7.47975l0.74796,-0.72364l0.65902,-0.80547l8,-8l0.28287,-0.23144l0.8475,-1.08964l1.49644,-0.82813l0.41154,-0.33672l3.01381,-1.55887l2.96882,-1.64294l0.50845,-0.15565l1.51912,-0.78575l1.37674,-0.10074l0.34948,-0.10698l5,-1l2.45169,-0.24036l2.45122,-0.24512h3.03228l0.09539,-0.03029l0.3118,0.03029h2.56053l3.90625,0.39063l1.07482,0.34199l1.12263,0.10906l3.74428,1.17971l2.3535,1.00864l0.29852,0.09498l0.07574,0.06541l3.99205,1.71088l19.03486,7.61394l0.43493,0.14498l3.15452,-0.26288l1.52313,-0.60925l3.77194,-1.08806l0.8216,-0.05963l0.78498,-0.24977l3.90625,-0.39062h4l2.05208,0.20521l2.05789,0.13494l3.3529,0.55882l0.27057,-0.03382l0.65309,0.18776l1.72345,0.28724l3.78888,1.02749l1.20294,0.6159l1.29883,0.37341l3.46688,1.84178l1.45377,0.96918l0.60487,0.3097l0.17426,0.20972l3.841,2.56067l2.1529,-0.96509l9,-3l3.82932,-0.86469l0.08711,-0.00119l0.08302,-0.02641l3.90625,-0.39062h6l1.24556,0.12456l2.2483,-0.45501l5.98941,2.49559l3.01673,0.95987l0.23349,0.20165l3.26651,-0.32665h2.56053l0.3118,-0.03029l0.09539,0.03029h9.03228l3.90625,0.39063l0.78498,0.24977l0.8216,0.05963l1.6581,0.4783l2.2818,-1.2122l0.36693,-0.3268l0.40097,-0.08115l0.37874,-0.20121l8.66719,-2.49182l2.63393,0.32924l2.59336,-0.52485l2.91091,1.21288l3.12914,0.39114l1.99127,1.74236l2.45024,1.02094l6.28894,6.46363l0.22901,0.36261l0.30788,0.26939l0.15645,0.46579l0.42142,0.66725l8.58979,-8.58979l11.661,-12.63275l2.18708,-1.94042l0.172,-0.19519l0.2988,-0.22251l0.27868,-0.24725l0.22612,-0.12867l2.34501,-1.74628l4.527,-2.7162l0.8354,-0.72148l1.73751,-0.55284l1.45065,-0.68427l2.73114,-0.6463l2.67445,-0.85096l1.59598,-0.1596l1.77434,-0.41988l1.08754,0.18885h2.44839l3.90625,0.39063l1.25348,0.39884l2.94239,-0.04218l2.90167,1.90166l1.4962,0.47606l2.42233,2.09202l2.67699,1.75441l0.55156,0.83031l2.9125,-0.0553l3.10154,1.73057l5.28819,1.42924l2.53602,2.93644l2.14844,1.19876l1.56498,3.10098l1.17244,1.35756l0.83143,2.61308l1.54713,3.06561l0.04605,0.7292l7.15803,-5.85657l4.56094,-5.3211l1.01929,-0.97365l0.0715,-0.10032l0.88189,-0.81038l0.86606,-0.82728l0.10476,-0.06482l1.03792,-0.95376l4,-3l1.07118,-0.64769l1.52563,-1.71299l6.28888,-1.59718l2.98931,-1.04214l0.8762,0.06043l0.85126,-0.21619l3.12751,0.49059l6.47315,0.44642l1.80745,1.41245l1.16976,0.44562l1.43623,0.71812l1.86746,0.32692l7.54517,7.28387l2.62705,-2.85885l7.34375,-5.23437l11.09375,-2.42187l3.02578,1.20691l1.00547,-3.16004l7.42188,-8.59375l14.45313,-3.90625l14.45313,3.90625l7.42188,8.59375l2.73438,8.59375l0.39063,3.90625v8l-0.24512,2.45122l-0.24036,2.45169l-3,15l-0.53257,1.73971l-0.4384,1.76579l-5,14l-0.80758,1.7035l-0.72419,1.74059l-0.85025,1.57904l-0.42346,1.69385l-0.06306,0.73575l0.20559,0.71955l1.09484,0.45618l2.55597,2.62697l1.14627,0.6585l0.72881,1.26868l1.85788,1.90949l2.09631,3.31916l0.10071,0.20143l0.41361,0.47891l0.30476,0.95783l0.18092,0.36183l1.39754,3.66855l0.03442,0.21945l0.34279,0.59671l-0.07733,1.05683l0.55127,1.73255l0.39063,3.90625v0.40454l0.15576,0.993l-0.15576,0.61332v10.98913l-0.08296,0.82965l0.02759,0.83333l-1,15l-0.5634,3.35785l-0.00992,0.16754l-0.04692,0.17118l-0.02937,0.17504l-0.06141,0.15619l-0.89998,3.28369l-4.96229,12.90196l-1.50145,4.00386l0.74748,0.59798l0.98924,0.96773l1.07106,0.87632l7,7l0.60868,0.74394l0.69507,0.66394l6,7l1.44897,2.07776l0.37088,0.32452l0.13433,0.39992l0.2914,0.41786l3.51665,8.30437l-0.00965,2.58663l0.83423,2.48374l-0.85501,3.08414l-0.01194,3.20044l-1.47554,2.16511l-0.69103,2.49264l-5.63367,7.04209l-0.39365,0.32336l-0.21656,0.31777l0.70166,0.43853l0.27488,0.07621l0.54627,0.43701l1.43636,0.89772l3.10546,2.40156l0.88569,1.04273l1.06831,0.85465l2.49182,3.03352l0.68279,1.02418l1.60971,1.3902l0.62509,2.31284l0.92419,1.73966l2.49182,8.66719l-0.1908,1.52642l0.05595,0.20702l-0.15224,0.56328l-1.12133,8.97063l-1.88559,2.15496l-0.7471,2.76426l-6.84202,5.90902l-0.38423,0.43912l-0.20328,0.06828l-1.16422,1.00546l-4.28395,1.36307l5.46918,6.15283l1.86918,2.58l1.32059,1.5291l1.18736,3.73171l1.59177,3.57795l0.02886,2.02021l0.31701,3.17013v2l-0.21276,2.1276l0.02908,2.03593l-0.56129,0.85635l-2.38004,7.48012l-0.36879,0.42702l-0.37364,1.38248l0.08221,0.25838l0.67147,0.89718l1.24327,5.1206l0.47985,1.5081l0.07961,0.79613l0.87641,3.60963l-0.5654,1.5192v1.9813l-0.39062,3.90625l-0.86294,2.7121l-0.22782,3.41728l-1.45453,1.87011l-0.18908,0.59426l-2.74724,3.18101l-1.3767,1.77004l0.22256,3.33844l1.35683,6.70436l-4.36732,10.48157l-1.85739,1.80719l-1.25611,2.52666l-2.77252,1.56894l1.1348,2.83701l0.31521,1.09272l0.18996,0.28635l0.02693,0.46553l0.55596,1.92734l0.65284,8.99462l-0.49401,1.43361l0.12297,2.12562l-0.44218,0.74324l2.52481,2.52481l4.16319,2.60199l0.67241,0.21395l1.05271,0.90916l2.80273,2.16744l0.80689,0.94995l3.93143,3.39532l0.48883,1.80867l0.61113,0.71948l3.3539,10.84842l-2.34602,7.73069l-2.10784,7.799l-8.59375,7.42188l-0.89956,0.28622l-1.37312,1.27467l-5.13336,0.79558l-1.18771,0.37791l-3.52545,0.35254l-1.37455,0.21303l-0.6836,-0.17495h-1.32265l-2.2341,-0.22341l-2.23803,-0.17984l-0.47921,-0.08713l0.08678,1.18601l-2.6524,4.61715l-1.38928,5.14035l-3.10335,2.68017l-0.31273,0.54437l-0.94856,0.54492l-4.22911,3.65241l-4.77171,1.51827l-3.03266,1.74216l-3.49366,-0.25563l-1.20197,0.1202h-2l-3.90625,-0.39062l-0.08302,-0.02641l-0.08711,-0.00119l-3.82932,-0.86469l-2.08915,-0.69638l-6.60422,-1.65105l-2.90094,2.50536l-1.33597,0.42508l-1.63012,1.42635l-4.69857,0.58732l-0.92909,0.29562l-3.90625,0.39063h-0.65462l-1.07882,0.13485l-0.46905,-0.13485h-0.79751l-3.90625,-0.39062l-0.52594,-0.16734l-0.55121,-0.02798l-3.79469,-1.00582l-7.34574,-2.75465l-15.33305,-4.79158l-0.89414,-0.38073l-0.93375,-0.26935l-2.2876,-0.91504l-0.46909,0.8407l-4.98277,2.51467l-0.79543,0.70843l-1.01557,0.20553l-3.34345,1.68735l-7.25957,0.4585l-3.0556,0.6184l-2.60707,-1.08628l-3.96247,-0.99062l-2.47639,-0.88896l-0.27832,-0.05964l-0.46302,-0.20648l-0.47716,-0.17129l-0.24221,-0.14951l-2.403,-1.07161l-7,-4l-0.9335,-0.66477l-0.99958,-0.56051l-5.84779,-4.09346l-0.43378,1.05347l-4.43723,2.94351l-3.54145,3.97636l-3.97433,1.00935l-0.52316,0.34705l-1.09211,0.06318l-5.41604,1.3755l-4.94694,-0.77599l-3.49161,0.20199l-3.0105,-1.79106l-1.12883,-0.43003l-2,-1l-3.31916,-2.09631l-0.06244,-0.06075l-0.07738,-0.04002l-3.03835,-2.48592l-5,-5l-0.60868,-0.74394l-0.69507,-0.66394l-1.55739,-1.81696l-4.00807,4.64092l-5.74494,1.55269l-0.29996,1.13165l-2.8375,7.56666l-0.85365,2.56095l-1.60584,3.58227l-2.22236,3.04928l-1.45821,3.18702l-1.55504,0.94744l-0.07603,0.10432l-4.04573,2.40695l-4.02018,2.44938l-0.12776,0.01838l-1.56492,0.93103l-3.49893,-0.20242l-3.73473,0.53737l-3.91732,-0.25687l-6,-1l-1.88779,-0.51194l-1.90793,-0.43082l-9,-3l-2.02319,-0.90695l-2.04242,-0.86275l-11,-6l-0.42532,-0.29036l-0.46577,-0.2197l-10,-6l-0.70618,-0.52588l-0.76798,-0.43064l-2.11068,-1.47747l-4.09554,6.82589l-1.07536,2.61159l-2.59791,1.72337l-5.4575,4.80908l-3.55732,1.17104l-0.86345,0.57278l-1.06339,0.06152l-5.30149,1.74521l-4.21145,-1.19488l-4.37037,0.25283l-4.51807,-2.68797l-1.90283,0.60545l-1.73555,1.10755l-3.62956,0.59952l-1.26673,0.40305l-0.35703,0.0357l-0.85359,0.49036l-2.18128,-0.15961l-2.91504,0.4815l-1.38337,-0.63574l-2.12219,-0.21222l-0.4218,-0.13421l-2.30108,-0.16837l-2.83227,-1.46497l-3.0386,-0.96683l-1.74617,-1.50805l-0.39315,-0.20336l-3.03835,-2.48592l-2,-2l-0.00437,-0.00534l-1.41171,-1.21921l-0.20419,-0.75549l-1.50332,-1.83013l-3.33829,-5.00743l-0.10223,0.65172l-1.39754,3.66855l-0.18092,0.36183l-0.30476,0.95783l-0.41361,0.47891l-0.10071,0.20143l-0.13258,0.20992l-0.3531,1.10974l-1.29435,1.49872l-0.31628,0.50078l-1.03414,1.06286l-4.7771,5.53138l-2.25179,0.60859l-8.70748,3.62811l-2.69701,-0.54582l-0.79685,0.21537l-5.54774,-1.49939l-5.6326,-1.13993l-0.61641,-0.54899l-2.65637,-0.71794l-6.16566,-7.13919l-1.74189,-1.55137l-0.52148,-2.05333l-4.25992,5.5379l-2.70138,4.72742l-0.28154,0.88483l-1.35466,1.56856l-1.09146,1.53269l-1.12892,1.03827l-3.84684,4.45423l-1.41086,0.38131l-0.25118,0.23102l-10.70769,3.77918l-1.97376,-0.51489l-0.10964,0.02963l-6.19451,-1.67419l-6.20897,-1.61973l-0.08049,-0.08012l-1.96916,-0.53221l-7.37334,-8.53755l-0.13152,0.0926l-4.25333,3.53402l-0.89153,0.08838l-0.99155,0.69813l-7.4838,0.1421l-5.53178,0.54841l-0.93042,-0.42571l-1.023,0.01942l-4.85437,-2.7086l-6.80651,-3.1143l-0.63096,-1.03559l-0.78235,-0.43653l-2.4915,-4.93686l-2.00328,-3.28799l-0.13716,-0.95324l-0.48405,-0.95914l-0.27073,-4.28661l-0.39243,-2.72736l0.11215,-1.71031l-0.01744,-0.27606l0.06439,-0.44l0.09777,-1.49094l0.55832,-3.3499l-5.35159,-1.44638l-7.42187,-8.59375l-0.69647,-2.18892l-1.64728,-2.10795l-0.04888,-0.70873l-8.23237,-2.61939l-0.42702,-0.36879l-1.52611,-0.41246l-3.07736,-3.56326l-3.56326,-3.07736l-0.41246,-1.52611l-0.36879,-0.42702l-2.73437,-8.59375l-0.39062,-3.90625v-2l0.1377,-1.377l0.01521,-1.38379l1,-9l0.25296,-1.18491l0.13039,-1.20457l4,-19l0.39146,-1.23409l0.27157,-1.26588l5.19132,-16.15079l-0.18201,-0.07584l-5.42589,-1.86973l-1.77922,-2.36751l-1.77602,-1.82536l-0.51843,-0.22278l-0.58414,-0.91042l-1.38925,-1.42784l-2.09631,-3.31916l-1,-2l-0.22881,-0.60063l-0.83342,-1.29894l-0.26627,-1.58775l-0.06904,-0.18123l-0.55931,-3.5656l-0.59693,-3.55949l0.00819,-0.19377l-0.24949,-1.59048l0.37989,-1.49583l0.02713,-0.64216l1,-7l0.53711,-2.18005l0.49454,-2.19011l3,-9l0.37413,-0.83461l0.26603,-0.87508l5,-12l0.62063,-1.15117l0.5089,-1.20474l6,-11l0.62559,-0.91635l0.52054,-0.97985l3.44841,-5.17261l0.38971,-0.93531l1.24782,-1.2141l1.40587,-1.7115l1.98656,-1.58925l1.82338,-1.7741l1.0262,-0.64813l1.02018,-1.18126l0.00318,-0.00086l-0.80028,-0.80028l-1.47404,-0.67444l-1.93267,-3.17211l-0.50665,-0.61924l-0.72708,-1.40569l-2.74168,-4.49993l-0.1596,-1.10921l-0.51484,-0.99536l-0.38454,-5.25532l-0.22539,-1.56646l0.05235,-0.79838l-0.27107,-3.70459l0.80746,-1.40558l0.66813,-4.00876l0.87295,-3.219l0.02868,-0.18282l0.07254,-0.19041l0.05333,-0.19666l0.08434,-0.16472l1.18734,-3.11676l0.86861,-1.73722l0.066,-0.35525l0.44649,-0.66974l0.61889,-1.23778l2.09631,-3.31916l1.02524,-1.05371l0.81551,-1.22326l2.80625,-2.74524l1.08063,-0.86451l0.56132,-0.57691l0.33354,-0.13897l3.02451,-2.41961l0.31564,-0.20458l-5.69826,-4.2737l-0.79028,-0.72621l-0.00782,-0.00465l-1.04563,-0.96339l-1.04689,-0.96201l-0.00528,-0.00741l-0.78933,-0.72725l-8,-9l-1.23108,-1.69924l-1.28364,-1.65989l-3.49066,-5.58505l-1.40314,-1.2118l-0.58956,-2.18136l-1.25571,-2.54132l-2.23593,-8.7367l1.73906,-11.22107l1.69292,-1.82367l0.64922,-2.40213l3.0335,-2.61984l-2.34339,-3.67212l-0.95704,-1.07457l-0.12599,-0.62255l-1.12013,-1.75525l-1.85053,-11.20323l0.24168,-0.5259l-0.1148,-0.56727l3.97183,-9.53239l-0.3715,-0.30571l-0.03491,-0.0674l-1.32871,-1.14752l-0.80117,-2.96433l-3.05789,-5.90343l0.442,-3.77538l-0.48919,-1.80998l1.23686,-4.57636l0.55123,-4.7084l1.12641,-1.49885l0.98438,-3.64221c-1.22353,-2.9489 -1.89887,-6.18267 -1.89887,-9.57418zM53.26862,56.03563l-3.44619,4.43081l0.36838,0.15169l1.72337,2.59791l4.80908,5.4575l1.17104,3.55732l0.57278,0.86345l0.06152,1.06339l1.74521,5.30149l-1.19488,4.21145l0.25283,4.37037l-2.85371,4.79666l-0.29074,1.02473l-0.74645,0.71864l-1.91485,3.21857l-5.87846,4.2843l-1.2908,1.24269l4.55816,2.80502l13.01541,6.50771l0.20992,0.13258l1.10974,0.3531l1.49872,1.29435l0.50078,0.31628l1.06286,1.03414l5.53138,4.7771l0.60859,2.25179l3.62811,8.70748l-0.54582,2.69701l0.21537,0.79685l-1.49939,5.54774l-1.13993,5.6326l-0.54899,0.61641l-0.71794,2.65637l-1.65953,1.43323l0.28224,1.11132l0.71944,0.775l0.81824,5.2796l0.90163,3.55018l-0.03654,0.23296l0.99905,1.15679l1.65776,1.20819l1.36017,2.28625l1.7388,2.01335l0.62197,1.95475l2.0848,3.50424l-0.1492,2.57907l0.17681,0.55569l0.39063,3.90625v8l-0.39062,3.90625l-0.288,0.90513l-0.07832,0.94661l-1.1261,3.76075l-7,17l-1.09186,2.04567l-1.064,2.0603l-13,20l-0.92812,1.15705l1.69162,0.97178l3.69729,1.15492l1.86183,2.03862l2.39396,1.37525l1.92947,3.35871l3.91112,4.2825l0.49744,3.39167l1.11973,1.94916l-0.27754,3.79304l0.30814,2.10097l-0.63841,2.41269l-0.22083,3.01805l-1.18289,2.28691l-0.26476,1.00058l-1.76761,3.50527l-6.74056,10.5923l-4.72112,8.09335l2.4098,1.10745l3.99597,0.2664l4.93366,3.83729l1.03532,0.47579l0.50949,0.72573l2.48465,1.93251l4.19938,7.58834l0.2139,0.30468l1.72047,-1.14698l0.32277,-0.17147l1.04473,-0.90227l1.62979,-0.51857l0.46958,-0.24947l3.26101,-0.93754l3.23337,-1.0288l0.5291,-0.05291l1.64371,-0.47257l1.36976,0.17122l0.36368,-0.03637h2l3.88045,0.38804l2.24592,-0.21357l4.0518,2.21176l2.32183,0.73876l1.66368,1.43681l1.92948,1.05325l0.59696,0.75844l0.60612,-0.43913l0.20426,-0.19874l0.54627,-0.34501l0.52322,-0.37907l0.26038,-0.11584l1.98929,-1.25639l4.20143,-2.10071l0.47891,-0.41361l0.95783,-0.30476l0.36183,-0.18092l3.66855,-1.39754l1.83527,-0.28789l1.77027,-0.56327l0.35703,-0.0357l0.85359,-0.49036l2.33873,0.17113l0.3569,-0.03569h0.40454l0.993,-0.15576l0.62038,0.15756l3.88833,0.38883l0.4218,0.13421l2.30108,0.16837l2.83227,1.46497l3.0386,0.96683l1.74617,1.50805l0.39315,0.20336l3.03835,2.48592l2,2l0.00437,0.00534l1.41171,1.21921l0.2043,0.75593l0.86554,1.05788l0.04002,0.07738l0.06075,0.06244l2.09631,3.31916l3,6l0.307,0.80587l0.40924,0.75908l0.68981,1.65556l2.60414,-1.34697l0.56272,-0.04117l1.37077,-0.78747l4.69563,0.34358l4.69563,-0.34358l1.37077,0.78747l0.56272,0.04117l0.29446,0.15231l0.45904,-0.36723l0.32883,-0.21313l0.28854,-0.26515l4,-3l3.35938,-2.03125l0.08226,-0.02868l0.0704,-0.05131l3.58227,-1.60584l3,-1l3.82932,-0.86469l0.08711,-0.00119l0.08302,-0.02641l3.90625,-0.39062h2.00561l0.99439,-0.19456l1.70236,0.36479l2.20389,0.22039l2.42428,0.77136l2.48757,0.53305l2.02286,0.90208l1.65905,0.52788l0.76685,0.66228l6.13662,3.50664l0.9335,0.66477l0.99958,0.56051l9.27974,6.49582l4.88154,2.92892l0.84232,-5.05391l0.87295,-3.219l0.02868,-0.18282l0.07254,-0.19041l0.05333,-0.19666l0.08434,-0.16472l1.18734,-3.11676l2,-4l0.13369,-0.21168l0.97358,-2.82528l2.65803,-1.99755l4.61995,-4.74829l3.81164,-1.58818l0.87902,-0.6606l0.41194,-0.04823l1.07157,-1.60736l1.01847,-1.23988l1.00676,-1.69222l3.81878,-2.78318l3.6899,-2.95192l1.89748,-0.52604l0.03456,-0.01549l0.61509,-0.64988l2.51872,-0.55905l1.2958,-0.43193l3.82932,-0.86469l0.76377,-0.01046l2.67765,-0.59432l2.76391,0.51978l2.8121,-0.03852l2.53622,1.04433l0.75068,0.14117l3.62454,1.50802l1.20263,0.64757l2.38569,0.98234l0.31193,0.47022l4.96936,2.67581l1.27916,-2.31146l2.09528,-1.62966l1.46266,-2.20491l2.91596,-1.20069l2.48921,-1.93606l2.64008,-0.17601l2.4545,-1.01067l9.01743,0.12353l0.41834,0.09446l0.40819,-0.02721l0.43999,0.21874l2.5628,0.5787l0.06904,0.02301l0.02285,0.00015l0.07306,0.03182l2.83505,0.94502l3.58227,1.60584l0.83284,0.60699l0.94483,0.41153l3.19698,2.27831l2.249,1.96788l0.0644,0.04694l0.01168,0.01964l5.67491,4.96554l1.51188,1.61543l0.88149,0.90108l8.50906,-1.88865l1.77156,0.33316l2.35725,-0.47706l4.02598,1.67749l0.70812,0.13317l3.62454,1.50802l1.34724,0.72543l0.77569,0.32321l0.19308,0.19844l10.68399,5.75292l0.35487,0.23946l0.38941,0.17784l8.01015,4.67259l5.43851,-4.6969l1.55137,-1.74189l0.58108,-0.14758l1.19108,-2.91154l1.82977,-5.44771l0.62121,-0.54356l1.04188,-2.54681l7.84881,-5.23254l1.75545,-1.53602l7.25225,-0.90653l1.45799,-0.27088l0.59212,0.01462l1.96499,-0.24562l1.11923,0.32178l0.24821,0.00613l8,1l1.87485,0.42718l1.22109,0.22047l0.96722,-2.32134l-0.8417,-0.8417l-2.48592,-3.03835l-2.1542,-4.1648l-0.89412,-1.18976l-0.08154,-0.69653l-1.01333,-1.95911l-0.82864,-11.32476l0.23824,-0.41471l-0.05561,-0.47503l3.49172,-6.74096l-0.25599,-0.76798l-0.86469,-3.82932l-0.00119,-0.08711l-0.02641,-0.08302l-0.39062,-3.90625v-3l0.39063,-3.90625l0.02641,-0.08302l0.00119,-0.08711l0.86469,-3.82932l1,-3l0.31899,-0.71159l0.21527,-2.1714l1.38058,-1.66159l-0.3781,-0.18905l-0.20992,-0.13258l-1.10974,-0.3531l-1.49872,-1.29435l-0.50078,-0.31628l-1.06286,-1.03414l-5.53138,-4.7771l-0.60859,-2.25179l-3.62811,-8.70748l0.54582,-2.69701l-0.21537,-0.79685l1.49939,-5.54774l1.13993,-5.6326l0.54899,-0.61641l0.71794,-2.65637l5.51893,-4.76635l-2.10285,-2.10285l-0.71843,-0.87808l-0.80943,-0.79498l-5,-6l-0.9274,-1.37002l-0.13144,-0.13509l-0.55704,-0.88198l-0.10683,-0.15782l-1.16551,-1.00658l-0.43466,-1.60825l-0.83227,-1.66454l-1.39754,-3.66855l-1.09055,-6.95224l-0.15123,-0.55955l0.04015,-0.14857l-0.19592,-1.24898l2.79508,-11.00565l0.93889,-0.8362l0.32804,-1.21373l3.64626,-3.14904l-0.53827,-0.46673l-0.63162,-0.40938l-5,-4l-2.80625,-2.74524l-0.02724,-0.04086l-2.64289,-2.28249l-0.76447,-2.82854l-1.56784,-2.35176l-2.07418,-11.16398l2.66514,-6.11895l1.74135,-6.443l8.18586,-7.0696l-1.18586,-1.02415l-0.82917,-3.06793l-1.00428,-1.62693l-1.32637,-3.69488l-1,-4l-0.2815,-1.92359l-0.07431,-0.23355l-0.0866,-0.86604l-0.12603,-0.86118l0.01545,-0.2446l-0.19344,-1.93443v-19l0.20521,-2.05208l0.13494,-2.05789l2.72923,-16.37539l-4.46096,-1.91184l-5.47645,-1.5647l-0.93629,-0.37176l-0.97377,-0.25811l-2.43099,-0.91162l-1.44259,-0.25051l-0.49421,-0.47579l-2.29894,-0.8621l-3.63283,-0.90821h-10.26959l-2.5764,0.58177l-0.08711,0.00119l-0.08302,0.02641l-0.96776,0.09678l-0.03279,0.01093l-3.82932,0.86469l-0.08711,0.00119l-0.08302,0.02641l-0.51354,0.05135l-0.86918,0.33112l-1.61784,0.72524l-4.31448,1.43816l-2.41088,1.20544l-1.65681,0.63116l-1.61784,0.72524l-3,1l-0.93761,0.21172l-0.90469,0.32476l-4,1l-1.92359,0.2815l-0.23355,0.07431l-0.86604,0.0866l-0.86118,0.12603l-0.2446,-0.01545l-1.93443,0.19344h-7l-1.76416,-0.17642l-1.77138,-0.07485l-7,-1l-2.18005,-0.53711l-2.19011,-0.49454l-12,-4l-2.21895,-0.9947l-0.27599,-0.07935l-0.53477,-0.28409l-0.55257,-0.2477l-0.23207,-0.16914l-2.14747,-1.14084l-11.82667,-7.88445l-4.60526,-2.96052l-0.21261,0.15495l-0.55257,0.2477l-0.53477,0.28409l-0.27599,0.07935l-2.21895,0.9947l-15,5l-3.82932,0.86469l-0.08711,0.00119l-0.08302,0.02641l-3.90625,0.39063h-3l-3.90625,-0.39062l-0.08302,-0.02641l-0.08711,-0.00119l-3.82932,-0.86469l-1.09232,-0.36411l-0.63111,-0.04618l-0.89279,-0.46179l-0.38378,-0.12793l-3.58227,-1.60584l-0.84207,-0.61371l-4.66997,3.50247l-3.35937,2.03125l-0.08226,0.02868l-0.0704,0.05131l-3.58227,1.60584l-6,2l-3.82932,0.86469l-0.08711,0.00119l-0.08302,0.02641l-3.90625,0.39063h-2l-1.24556,-0.12456l-2.2483,0.45501l-5.98941,-2.49559l-3.01673,-0.95987l-0.6647,-0.57406l-0.81072,-0.3378l-2.20766,-2.26898l-0.9089,-0.78496l-0.90802,0.0908h-2.84467l-1.85096,0.13544l-0.23576,-0.13544h-0.06861l-3.90625,-0.39062l-0.78498,-0.24977l-0.8216,-0.05963l-3.77194,-1.08806l-2.24455,-0.89782l-0.09981,-0.0073l-0.27825,-0.14392l-2.37739,-0.95096l-2.24906,-1.17139l-5.76898,3.05417l-0.27017,0.11018l-0.24669,0.1558l-12,6l-3.66855,1.39754l-0.30394,0.04768l-0.27934,0.12893l-3.82763,0.87212l-8,1l-1.55405,0.03837l-1.54681,0.15468h-7.98913l-0.61332,0.15576l-0.993,-0.15576h-0.40454l-3.90625,-0.39062l-1.77027,-0.56327l-1.83527,-0.28789l-3.66855,-1.39754l-0.36183,-0.18092l-0.95783,-0.30476l-0.47891,-0.41361l-4.20143,-2.10071l-1.31434,-0.83011l-1.37283,-0.72932l-4.70496,-3.13664l-5.01875,-2.50937l-5.17591,-1.7253l-3.00957,-0.42994h-4.15424l-7.45963,1.24327l-5.65916,2.1766l-9.45177,10.39695l-2.88698,2.60088l-0.01028,0.01118l-0.01015,0.00723l-0.00926,0.00834l-0.01314,0.00761l-3.16522,2.25402l-6.13662,3.50664l-0.76685,0.66228l-1.65905,0.52788l-2.02286,0.90208l-2.48757,0.53305l-2.42428,0.77136l-2.20389,0.22039l-1.05171,0.22537z" fill="#797979"/><path d="M750.1779,118.30529c-0.48852,2.07545 -1.02629,4.13991 -1.46554,6.22634c-0.07146,0.33944 -0.41036,1.02057 -0.06395,1.03869c6.18845,0.32362 12.08021,-1.30295 18.11195,0.4327c29.70146,8.54667 59.36861,17.21347 89,26c2.68653,0.79663 5.80738,2.34028 7.79183,4.26394c0.15777,0.15294 0.32824,0.38957 0.54691,0.368c57.18596,-5.64217 114.35005,-11.50425 171.51613,-17.34432c8.76592,-0.89552 17.43045,0.99478 23.66735,8.20734c1.76848,2.04513 1.89363,5.06545 2.89333,7.57755c0.9997,2.5121 2.98402,4.79256 3.1043,7.49361c0.18076,4.05935 -1.55955,7.9939 -2.78941,11.86668c-0.18627,0.58656 0.05061,1.31591 -0.29994,1.82173c-2.04598,2.95218 -5.6245,6.35916 -8.46737,8.53649c-14.92864,11.4337 -29.8053,22.93516 -44.67908,34.44013c-2.42513,1.87586 -5.08108,3.71223 -7.96186,4.86961c-41.16848,16.5398 -86.38394,20.28509 -129.61294,30.26819c-0.50704,0.1171 0.98682,0.34403 1.49898,0.43622c1.77971,0.32035 3.52103,0.90163 5.16955,1.64486c3.3368,1.50437 9.04806,4.70702 10.70564,8.09384c6.15889,12.58403 4.62504,29.11976 -8.59375,36.32813c-10.19618,5.5601 -34.4378,7.87582 -38.97094,8.71133c-113.45094,20.91024 -216.47467,40.85678 -333.50437,55.16067c-10.60142,1.29575 -21.47468,2.00115 -31.99734,2.92282c-102.28282,8.95886 -204.54111,18.19577 -306.8171,27.23228c-31.37321,2.77195 -62.98912,-0.50056 -94.48197,-0.90358c-4.47182,-0.05723 -8.51676,-0.91377 -12.46529,-3.26068c-1.42697,-0.84816 -2.0862,-3.50169 -3.73338,-3.2958c-19.82266,2.4778 -39.2485,7.47508 -58.88943,11.12356c-21.72793,4.03616 -46.43226,3.74246 -69.10423,2.62325c-8.40958,-0.41514 -16.48348,-3.35391 -21.62968,-10.73573c-1.58189,-2.26909 -1.43914,-5.34169 -2.16508,-8.0108c-0.10604,-0.38987 0.06145,-1.26279 -0.33084,-1.16607c-17.53263,4.32287 -34.84979,9.5326 -52.48121,13.43302c-15.37116,3.40041 -23.17096,5.67187 -36.77875,-3.39999c-2.11902,-1.41268 -3.99125,-7.9909 -4.15373,-8.3552c-3.55518,-7.97152 -2.85916,-10.42611 -1.51525,-19.98971c0.34421,-2.44952 2.94444,-3.98096 4.55592,-5.85761c0.61783,-0.71949 2.66844,-2.0226 1.74671,-2.24577c-8.32071,-2.01462 -18.34804,2.13552 -26.1105,-4.39302c-3.77642,-3.17612 -5.03409,-5.82367 -6.8414,-10.1889c-0.34416,-0.83125 -1.23609,-1.38207 -1.50457,-2.24075c-0.32156,-1.02842 0.85794,-3.40416 -0.20476,-3.22606c-150.45336,25.21494 -300.53123,52.6215 -450.81745,78.81424c-6.01588,1.04848 -11.81852,-0.32898 -16.94546,-3.37573c-1.88663,-1.12115 -4.70989,-1.39762 -5.64946,-3.38094c-1.19648,-2.52562 -2.35984,-5.06681 -3.54864,-7.59606c-0.93408,-1.9873 -2.97581,-3.78058 -2.78827,-5.96843c0.42254,-4.92921 0.85316,-9.85777 1.30219,-14.78465c0.19919,-2.18556 2.7546,-3.41726 4.13981,-5.11948c3.76399,-4.62541 8.73789,-7.91797 14.74681,-9.00419c205.04222,-37.06502 410.11838,-73.94208 615.16931,-110.95892c3.25594,-0.58778 -1.10584,-8.71478 -4.40964,-8.89241c-14.72966,-0.79198 -29.20128,4.20223 -43.81533,6.20717c-16.19301,2.22157 -44.14351,3.8684 -61.5233,-4.36657c-0.8967,-0.42488 -1.10984,-1.66038 -1.81072,-2.36279c-1.7741,-1.77796 -4.06155,-3.05978 -5.58934,-5.05338c-1.44633,-1.8873 -0.9752,-5.68076 -2.09997,-7.57225c-1.00342,-1.68742 -2.9736,-2.64471 -4.01536,-4.30874c-0.50303,-0.8035 -0.08594,-1.93055 -0.44099,-2.80952c-0.35505,-0.87897 -1.48708,-1.39109 -1.63407,-2.3276c-1.26762,-8.07586 0.18847,-17.01644 5.19865,-23.59987c2.76413,-3.6321 7.18476,-8.02993 11.28622,-10.6314c7.58554,-4.81135 31.80444,-15.58269 22.93753,-14.14481c-195.04038,31.62825 -388.9112,70.08909 -583.3857,105.02853c-5.92796,1.06502 -11.64229,-0.24838 -16.73431,-3.15528c-1.9826,-1.13181 -4.86279,-1.45072 -5.89443,-3.48724c-1.22397,-2.41618 -2.28924,-4.90984 -3.47633,-7.34436c-1.00018,-2.0512 -3.06363,-3.90989 -2.92898,-6.18797c0.28171,-4.76621 0.60159,-9.53091 1.01093,-14.28786c0.19573,-2.27451 2.748,-3.64679 4.1639,-5.43757c3.63665,-4.59951 8.44583,-7.95302 14.34226,-9.18107c169.98551,-35.403 339.9928,-70.70134 510,-106c41.68421,-8.6549 116.26632,-13.05654 128.54664,-15.51757c3.69809,-0.74111 1.98004,-7.28923 3.291,-10.82568c0.32336,-0.87229 2.48608,-2.32399 1.55581,-2.31703c-15.57126,0.11643 -31.13364,0.78084 -46.70143,1.12987c-12.2422,0.27447 -43.23115,2.67592 -60.09126,-5.26825c-0.73923,-0.34831 -0.96027,-1.33127 -1.53859,-1.90861c-2.16428,-2.16063 -4.75714,-3.9117 -6.67646,-6.29259c-1.94424,-2.41181 -1.46135,-6.02389 -2.0328,-9.0686c-0.57145,-3.04471 -2.33122,-6.23587 -1.39381,-9.18852c0.92539,-2.9148 2.70685,-5.48687 3.94039,-8.28523c0.32962,-0.74775 0.1792,-1.74395 0.74183,-2.33661c9.71535,-10.23387 27.26346,-16.90598 39.50971,-19.92924c30.61652,-7.55837 60.79724,-17.30011 91.91944,-22.3902c42.9948,-7.03188 85.99596,-14.02489 129,-21c49.77559,-8.07343 100.33675,-10.18342 150.51277,-15.19909c14.32637,-1.43209 21.53778,2.21525 42.33005,-0.73668c38.90552,-5.52351 79.54616,-22.87973 117.70194,-29.9858c13.51558,-2.51712 21.11862,-5.22622 33.29345,-3.65682c2.94603,0.37976 7.81853,3.74961 10.13723,5.11599c1.35435,0.7981 1.05896,4.46046 2.55129,3.96634c39.74423,-13.15966 77.33362,-33.49984 118.26933,-42.27754c63.98842,-13.72082 127.9863,-27.39767 192,-41c8.62378,-1.83247 18.97334,-3.55183 27.29751,-1.66004c3.69089,0.83881 7.43789,1.62219 10.92611,3.09141c0.94141,0.39651 1.21221,1.66393 1.97559,2.34269c1.69561,1.50765 3.90459,2.45175 5.3673,4.18627c0.80025,0.94895 0.62225,2.41842 1.14994,3.54201c1.52671,3.25083 4.58481,12.19571 3.73119,16.1234c-0.48186,2.21718 -1.99299,4.08464 -2.7868,6.21019c-0.35738,0.95695 -0.0041,2.20389 -0.65083,2.99459c-7.48438,9.15055 -15.37302,11.3021 -26.21705,16.27286c-4.74752,2.1762 -19.95019,5.5945 -14.73457,5.32592c19.87306,-1.02336 39.53321,-4.59071 59.30767,-6.81697c8.8827,-1.00004 17.80039,-0.57344 26.07706,2.95018c0.88241,0.37566 1.13544,1.55944 1.83272,2.2179c1.93375,1.82608 4.34453,3.165 6.03873,5.21527c1.28132,1.55061 2.25288,8.08747 2.52362,9.33738c0.27075,1.24992 2.09124,7.60288 1.56642,9.54473c-0.69394,2.56756 -2.33459,4.78407 -3.33937,7.24665c-0.36231,0.88797 -0.10281,2.07035 -0.75068,2.77749c-3.05878,3.33864 -6.63094,6.42269 -10.74867,8.30604c-11.78166,5.38863 -23.15376,11.84592 -35.43938,15.95792c-33.14662,11.09418 -66.65591,21.14729 -99.48072,33.16025c-4.25063,1.55561 8.97726,-1.16881 13.47415,-1.68427c7.21803,-0.82738 21.01997,-2.02286 27.60087,2.93195c3.02378,2.27663 6.35567,4.36944 8.59375,7.42188c1.3901,1.89591 1.09671,4.57821 1.84014,6.8085c0.74343,2.23029 1.94034,4.29823 2.61299,6.55088c0.12405,0.41543 -0.71055,1.25158 -0.27742,1.27074c23.44529,1.0375 46.92206,1.16673 70.38088,1.83147c8.35991,0.23689 15.99232,4.36827 20.81225,11.09203c1.54983,2.16199 2.01246,7.57896 2.40157,9.90169c0.38911,2.32274 1.71714,7.59472 0.95652,10.14377c-6.84846,22.95129 -49.28662,29.57871 -62.98568,34.82372c-2.61619,1.00167 -5.94187,3.6492 -8.19547,5.00136z" fill="#b8b8b8"/><path d="M101.75001,273c-5,0 -5,-5 -5,-5l0.25658,0.58114c-0.77958,-2.34733 -1.96123,-5.61287 -2.21912,-7.97022c-0.09857,-0.90104 0.62261,-1.83525 0.34314,-2.6975c-0.21362,-0.65907 -1.28363,-0.68697 -1.63386,-1.28476c-1.06569,-1.81899 -0.86989,-4.22031 -2,-6c-0.5054,-0.7959 -1.58437,-1.15375 -2,-2c-0.86603,-1.76329 -1.605,-3.66929 -1.74675,-5.62866c-0.09494,-1.3123 0.86058,-2.50109 1.06456,-3.80091c0.43069,-2.74443 0.32448,-5.64521 1.36287,-8.22186c0.34838,-0.86446 1.05333,-1.53744 1.5895,-2.30389c-0.13413,-1.1898 -0.01271,-2.21623 0.51094,-2.90941c0.15809,-0.20927 0.32868,-0.40636 0.51039,-0.59206c-0.00959,-1.10575 -0.21388,-2.20416 -0.00079,-3.78279c0.43793,-3.24428 2.38702,-6.12932 3.05276,-9.33462c0.55687,-2.68115 -0.10857,-6.42923 -0.02566,-9.25355c-1.43691,-4.31073 0.1427,-8.72917 -0.97434,-12.85537c-0.46907,-1.73268 -1.59157,-3.25203 -2,-5c-0.70799,-3.02998 0.26457,-6.23925 -0.05276,-9.33462c-0.14016,-1.3672 -0.8356,-2.6355 -1,-4c-0.27153,-2.25372 0.42908,-4.57586 0.0271,-6.81001c-0.18666,-1.03743 -0.83699,-1.95859 -1,-3c-0.47976,-3.0649 -0.07465,-6.68797 -0.06456,-9.80091c0.01448,-4.46827 -1.09095,-8.55821 -1,-13c0.01891,-0.92372 0.98907,-2.0597 0.37134,-2.74675c-0.18587,-0.20672 -0.09993,0.68663 -0.37134,0.74675c-0.97634,0.21626 -2,0 -3,0c-0.6577,-0.01031 -1.3385,0.12778 -1.98517,0.04658c0.32477,1.05885 -0.01483,2.64015 -0.01483,2.95342c0,4.33333 0,8.66667 0,13c0,3.30099 0.69147,8.64942 -0.09022,11.94554c-0.64608,2.72431 -2.55972,5.08637 -2.97434,7.85537c-0.13871,0.92638 0.16274,1.88317 0.0271,2.81001c-0.39804,2.71976 -1.70871,5.26674 -2,8c-0.65927,6.18608 -0.96254,12.08639 -0.96254,18.38908c0,7.96874 1.01796,16.8684 -0.06456,24.80091c-0.14253,1.04441 -0.81334,1.96257 -1,3c-0.67913,3.77453 0.54892,7.9819 0.0271,11.81001c-0.82666,6.06447 -1.69103,12.55942 -1,18.77817c0.21523,1.93691 0.74062,3.82055 1.23935,5.70996c1.39439,0.42617 2.33365,1.36542 2.33365,1.36542l2.06143,3.7938c2.17074,0.23496 3.81772,2.15848 5.85196,2.95628c1.41387,0.55449 3.03237,-0.21454 4.55108,-0.21454c3.33334,0 6.66666,0 10,0c0,0 0.46124,0 1.10354,0.14009c-0.12843,-0.45637 -0.21599,-0.92802 -0.30276,-1.40053c-0.51345,0.16481 -1.1093,0.26044 -1.80078,0.26044zM68.8471,270.98058c-0.62625,-3.13587 -1.70652,-6.19143 -2.05963,-9.36966c-0.77435,-6.96955 -0.0254,-14.41545 1,-21.22183c0.59705,-3.96305 -0.59628,-8.20754 0.0271,-12.18999c0.16301,-1.04141 0.84272,-1.95771 1,-3c0.30834,-2.04334 -0.06456,-4.13261 -0.06456,-6.19909c0,-5.66667 0,-11.33333 0,-17c0,-6.65843 0.28672,-13.09698 1.03746,-19.61092c0.31471,-2.73066 1.62176,-5.27741 2,-8c0.14632,-1.05325 -0.15957,-2.14314 0.0271,-3.18999c0.50841,-2.85118 2.27103,-5.34851 3.02566,-8.14463c0.43907,-1.62688 -0.09022,-3.36937 -0.09022,-5.05446c0,-2.66667 0,-5.33333 0,-8c0,-4.22909 -0.44229,-8.79126 0,-13c0.24929,-2.37222 -0.47743,-5.25249 1.05897,-7.07706c2.75123,-3.26726 7.31679,-2.88534 10.94103,-2.92294c1.97808,0 7.52499,-0.13152 8.62866,0.74675c2.15764,1.71698 3.23914,4.53417 4.23759,7.10449c0.61998,1.59603 -0.13026,4.81183 0.10942,6.65608c0.21905,1.6855 0.83486,3.30837 1,5c0.42519,4.35539 -0.81541,9.3834 -0.04023,13.69178c0.18666,1.03743 0.83699,1.95859 1,3c0.37064,2.36785 -0.28249,4.81339 0.0271,7.18999c0.17753,1.36285 0.86626,2.63215 1,4c0.28108,2.8748 -0.80756,5.87723 -0.05276,8.66538c0.46907,1.73268 1.59157,3.25203 2,5c1.03912,4.44715 -0.45209,8.71139 1.02566,13.14463c0.06512,3.83391 0.68697,9.07981 -0.02566,12.74645c-0.97104,4.9962 -2.47882,4.49778 -2.94724,8.66538c-0.03285,0.29228 -0.06137,0.58601 -0.08702,0.88073c0.30206,0.39118 0.6253,0.7497 1.0379,0.88895c0.96201,0.32469 2.0433,-0.52086 3.03212,-0.29038c2.22334,0.51821 4.32813,1.4884 6.3822,2.48467c0.80409,0.39 1.2599,1.40121 2.12118,1.63965c1.01739,0.28165 2.11324,-0.29758 3.16199,-0.17708c1.36539,0.15688 2.64097,0.79525 4,1c3.38196,0.5095 6.60022,0.29715 9.87346,0.40717c2.68019,-2.66011 5.35658,-1.26807 6.48889,-0.44464c13.00892,0 26.01782,0 39.02674,0c0,0 2.20192,0 3.68331,1.46122c1.43254,-0.54955 2.87195,-1.07112 4.37115,-1.371c1.58751,-0.31754 3.23593,-0.00285 4.85723,-0.03628c2.04255,-1.7118 4.03514,-1.20503 5.29239,-0.5358c10.35889,-1.2645 20.61681,-3.3986 31.00879,-4.45889c0.06126,-0.00625 0.12253,-0.01245 0.18383,-0.01861c0.04087,-0.09126 0.08456,-0.1835 0.13117,-0.27671c2.23607,-4.47214 6.7082,-2.23606 6.7082,-2.23606c0.33517,0.16759 1.83911,0.91599 3.50494,1.75152c4.22565,-0.27034 8.45082,-0.57793 12.58765,-1.2341c3.35143,-0.5316 6.64096,-1.47587 10.01781,-1.80984c6.47893,-0.64076 13.07807,-0.05845 19.49964,-1.12578c1.51409,-1.30366 3.00478,-1.37734 4.1933,-1.05732c1.43764,-0.42253 2.87663,-0.83403 4.35871,-1.01598c2.84596,-0.34937 5.73457,-0.02968 8.60188,-0.03636c7.66656,-0.01787 15.33342,0 23,0c9.9115,0 19.79687,-0.41537 29.65206,0.95363c6.47217,0.89906 12.84753,2.60726 19.36872,3.02121c1.27591,0.081 2.55361,0.14288 3.83277,0.18896c0.17485,-0.23244 0.37747,-0.46589 0.61092,-0.69934c3.53553,-3.53554 7.07107,0 7.07107,0c0.25194,0.26106 0.49247,0.53121 0.72335,0.80906c9.30104,-0.05343 18.6413,-0.56006 27.89713,-0.27109c10.01256,0.31259 20.01405,1.79953 30.02221,2.00074c4.34857,0.08743 8.7093,-0.29878 13.04834,0.00196c6.05953,0.41998 12.05326,1.56697 18.11142,2.0063c2.35196,0.17057 4.72322,-0.17524 7.07442,0.0056c3.53394,0.27181 7.04324,0.99613 10.58759,0.98297c8.66667,0 17.33333,0 26,0h3c0,0 5,0 5,5c0,5 -5,5 -5,5c-8.66667,0 -20.33333,0 -29,0c-8.23025,-0.0259 -16.42178,-1.01165 -24.62633,-1.90806c1.11226,1.08952 2.28678,2.23729 3.49304,3.73811c1.50584,1.87356 2.49895,4.1226 4,6c3.11314,3.89369 7.67078,7.3333 10.38655,11.54129c1.96312,3.0418 2.83841,8.28281 4.30794,11.58038c1.49225,3.34855 3.01656,6.73808 4.42526,10.16394c1.45692,0.29026 4.01354,1.30899 4.01354,4.88434c0,1.09603 -0.24025,1.9518 -0.61543,2.61998c0.76232,1.32834 1.44458,3.62195 -0.84903,5.91555c-3.53553,3.53553 -7.07107,0 -7.07107,0l-2.20788,-2.95439c-0.06365,-0.19383 -0.12817,-0.38754 -0.19353,-0.58114c-2.18764,0 -4.38022,0 -6.06305,0c-6.32178,0 -12.37833,-0.06434 -18.5666,-0.68754c-2.24854,4.37014 -6.66947,2.15968 -6.66947,2.15968l-3.76889,-2.59184c-1.40407,0.05835 -2.76583,0.11971 -3.99504,0.11971c-6,0 -12,0 -18,0c-12.6897,0 -25.65161,0.78141 -38.31068,-0.00966c-5.36437,-0.33522 -10.63688,-1.64526 -16,-2c-4.37058,-0.28909 -8.78119,-0.28728 -13.10172,-1.00738c-19.89524,0.07389 -40.37403,1.25272 -60.08028,-1.0073c-1.40855,-0.16154 -2.82536,-0.17367 -4.24489,-0.13774c-0.2947,0.22555 -0.63482,0.43845 -1.02635,0.63421c-2.40319,1.20159 -4.16069,0.46609 -5.27248,-0.47162c-7.71928,0.00742 -15.44574,0.09066 -23.16269,-0.06508c-2.33436,0.77812 -4.86281,0.76695 -7.30822,1.04023c-6.67049,0.74545 -13.31124,1.37755 -20,2c-2.63446,0.24516 -5.07418,1.57423 -7.69178,1.95977c-1.38179,0.20352 -2.80416,-0.14669 -4.19,0.02711c-1.36369,0.17102 -2.63216,0.86626 -4,1c-3.73436,0.36512 -7.51772,-0.29212 -11.25647,0.02488c-2.34859,0.19914 -4.64882,0.83414 -7,1c-8.69676,0.61348 -17.62459,0.01258 -26.35445,0.01258c0,0 -1.61395,0 -3.00793,-0.91696c-5.20014,0.1845 -10.60468,0.56083 -15.60298,-0.1205c-1.36177,-0.18563 -2.64097,-0.79525 -4,-1c-4.97396,-0.74935 -10.4902,-0.3769 -15.78477,-0.12689c-0.96177,0.36347 -1.87191,0.32118 -2.65149,0.10992c-0.99902,0.03335 -1.9851,0.05444 -2.95283,0.05444h-1c0,0 -2.644,0 -4.08664,-1.92269c-3.64871,0.0846 -7.32003,0.177 -10.91335,-0.07731c-1.7928,-0.12689 -3.7931,0.28999 -5.35929,-0.59163c-1.69109,-0.95192 -2.51918,-2.95252 -3.7016,-4.49349c-0.56933,4.08512 -4.93911,4.08512 -4.93911,4.08512c-4.32779,0 -8.67464,0.12457 -13,0c-1.48408,-0.04275 -3.02922,0.21992 -4.44892,-0.21454c-1.40059,-0.42861 -2.43571,-1.64297 -3.74783,-2.29388c-2.79033,-1.38421 -5.47045,-0.31385 -7.85946,-3.56803c-0.61062,-0.83176 -0.75857,-1.85675 -0.802,-2.92541c-3.31976,-0.39293 -4.04469,-4.01756 -4.04469,-4.01756zM120.80898,268.07706c-2.008,-2.56871 -4.84067,-4.40051 -6.92569,-6.90712c-2.01606,-2.4237 -3.96498,-5.23492 -5.55209,-8.22595c0.58482,1.71113 1.2733,3.72683 1.35423,4.2551c0.20193,1.31795 -0.15386,2.67557 0,4c0.25625,2.20585 1.97812,3.98544 2.75399,6.06618c0.42853,1.14924 0.28074,2.48683 0.82527,3.58587c0.61415,1.23958 1.8552,2.0748 2.567,3.261c0.25818,0.43025 -0.08314,1.13071 0.2776,1.47949c0.20898,0.20206 0.35378,-0.545 0.64071,-0.59163c0.98705,-0.1604 2,0 3,0c1.60268,0 3.20535,0 4.80803,0c-1.21992,-2.33152 -2.13307,-4.85571 -3.74905,-6.92294zM104.75001,235c0,0 0,-0.44671 0.13352,-1.07308c-0.02631,-0.00587 -0.05267,-0.01158 -0.07906,-0.01713c-0.21628,-0.04549 -0.43515,-0.07479 -0.6558,-0.09265c0.19734,0.41608 0.39903,0.83022 0.60134,1.24408c0.00001,-0.02185 0.00001,-0.04227 0.00001,-0.06121zM114.71255,241.38909c0.5086,4.62197 3.93121,9.88182 6.90417,13.44097c2.1407,2.5628 5.02926,4.45314 7.07432,7.09288c2.14061,2.76308 3.21596,6.21927 5.11518,9.15351c1.37934,2.13103 3.53233,3.91131 5.22383,5.97595c5.50852,0.0875 10.97885,0.27187 16.44801,0.45493c-1.81432,-2.42665 -2.9595,-4.99498 -4.78427,-7.58378c-1.35796,-1.92653 -3.67246,-3.05239 -5,-5c-2.29217,-3.3628 -3.63367,-7.70291 -6,-11c-0.86435,-1.20433 -2.33269,-1.91379 -3.118,-3.1711c-1.0371,-1.66045 -1.39377,-3.66459 -2.2509,-5.42471c-0.88455,-1.81642 -2.80361,-2.95779 -3.82815,-4.69909c-0.26902,-0.45722 -0.47476,-0.94441 -0.65226,-1.44497c-2.8736,-0.03964 -5.73899,0.18321 -8.7054,-0.22115c-1.36177,-0.18562 -2.63766,-0.81856 -4,-1c-0.81566,-0.10863 -1.65454,-0.03526 -2.48631,0.00297c-0.04531,1.14459 -0.06522,2.28775 0.05976,3.42357zM143.17512,240.67226c0.7438,1.45349 0.88327,3.19102 1.74909,4.57529c0.71383,1.14128 2.1019,1.73186 2.88201,2.8289c2.37163,3.33517 3.7831,7.56582 6,11c1.27833,1.98025 3.62115,3.08837 5,5c2.19465,3.04266 2.79814,5.76211 5.47932,8.38801l2,2c0,0 1.44554,1.44553 1.56369,3.4123c3.288,0.07512 6.58561,0.12324 9.90077,0.12324c0,0 1.75765,0 3.18873,1.04211c3.09617,0.05603 6.21013,0.15399 9.32022,0.20543c-5.04493,-7.34436 -11.5243,-14.24302 -17.30523,-20.99358c-4.74162,-5.53692 -8.59123,-11.61869 -13.73925,-16.71842c0,0 -1.03067,-1.03068 -1.42256,-2.53554c-5.22006,0 -10.44011,0 -15.66017,0c0.36897,0.50153 0.72391,1.04797 1.04337,1.67226zM180.54629,251.74605c4.46753,5.20728 8.52579,10.78591 12.98099,15.97795c1.72547,2.01084 3.61967,3.90141 5.08944,6.10607l1.66882,1.63441c0,0 1.53097,1.53098 1.57057,3.58547c0.17992,-0.01191 0.35974,-0.02435 0.53945,-0.03735c2.35088,-0.17012 4.65086,-0.80746 7,-1c3.56922,-0.29253 7.18102,0.39009 10.74353,0.02488c5.46257,-0.56 10.59621,-2.42237 16.07859,-3.00891c-1.38809,-1.13849 -2.7696,-2.26698 -4.00321,-3.49302c-0.82496,-0.81989 -1.0353,-2.15591 -1.91489,-2.91689c-1.22374,-1.05872 -2.84117,-1.55212 -4.22332,-2.39359c-4.62982,-2.81869 -9.44524,-5.97958 -13.60226,-9.44779c-6.84985,-5.71484 -13.44004,-11.596 -19.82793,-17.83814c-0.16119,0.01487 -0.32241,0.02948 -0.48365,0.04384c-1.48329,0.132 -3.00662,-0.36518 -4.46686,-0.07318c-3.01196,0.60229 -5.75491,2.1883 -8.73286,2.94093c0,0 -4.30211,1.07553 -5.81615,-2.85072c-0.9205,0 -1.84101,0 -2.76152,0c3.47105,4.15473 6.56912,8.5591 10.16127,12.74605zM476.18881,271.04828c-1.15996,-2.61666 -2.32531,-5.66759 -3.18221,-8.46714c-0.19687,-0.64319 -0.12237,-1.40265 -0.50984,-1.95249c-2.63937,-3.74535 -6.74414,-6.87409 -9.61346,-10.45871c-1.5021,-1.87656 -2.50303,-4.11935 -4,-6c-1.28673,-1.61653 -5.96055,-5.52831 -7.1895,-7.2464c-0.87883,-1.22862 -1.43664,-2.65337 -2.08722,-4.02143c-3.67302,-0.10412 -7.35847,0.17146 -11.0348,0.09471c-6.0253,-0.12579 -12.04567,-0.71292 -18.06787,-1.22788c4.25894,5.08745 10.20031,8.87856 14.2461,14.23106c7.09112,9.38143 12.17063,19.79413 18.27838,29.71815c1.08117,0.07763 2.1534,0.17823 3.21431,0.30619c1.68745,0.20353 3.3114,0.80634 5,1c5.0209,0.57583 10.43873,-0.02434 15.50731,-0.02434c0.69547,0 1.39094,0 2.08641,0c-0.87728,-1.99838 -1.77465,-3.98247 -2.64761,-5.95172zM434.42546,263.50964c-2.88455,-5.04491 -6.08219,-10.88053 -10.26578,-15.02975c-5.86138,-5.81323 -12.01542,-9.74209 -15.88181,-17.24381c0,0 -0.04507,-0.09015 -0.10962,-0.25124c-6.93724,-0.19859 -13.91956,0.03563 -20.8967,0.18311c2.35555,3.03918 5.46642,5.94134 7.58362,8.97765c1.94687,2.79206 2.96403,6.16723 4.95105,8.93086c1.55518,2.163 3.6198,3.93776 5.10404,6.15005c2.38579,3.55607 4.25892,7.52419 7.02283,10.7811c0.90055,0.05849 4.81691,0.56726 4.81691,4.9924c0,5 -5,5 -5,5l-5.53553,-1.46447c-4.75126,-4.82141 -7.03553,-11.23293 -11.33118,-16.36559c-0.97363,-1.16334 -2.31085,-2.00974 -3.1895,-3.24639c-2.00399,-2.8205 -3.05894,-6.23875 -5.04895,-9.06914c-2.61645,-3.72137 -6.54322,-7.12114 -8.95105,-10.93086c-0.73174,-1.15778 -1.30558,-2.43961 -1.9321,-3.67759c-2.54142,-0.03853 -5.07846,-0.12682 -7.60865,-0.29021c-6.7773,-0.43763 -13.41242,-2.1498 -20.13722,-3.09867c-3.40725,-0.48076 -6.82555,-0.72528 -10.24958,-0.84177c0.60395,0.82914 0.94148,1.87827 1.66927,2.60577c1.45887,1.4583 3.39098,2.38529 4.85004,3.84339c1.49144,1.49047 2.45348,3.45417 3.94434,4.94521c1.17845,1.17857 2.8222,1.82078 4,3c2.63857,2.64175 5.01872,5.53369 7.38683,8.42038c2.52621,3.07941 3.52424,6.93585 6,10c1.36025,1.68352 3.13926,2.45734 4.3075,4.41749c1.20609,2.02366 1.60497,4.64687 3.36133,6.21692l1.21676,3.76839c4.52739,0.51146 9.01,1.49249 13.55839,1.77681c12.45038,0.77827 25.20791,-0.00966 37.68931,-0.00966c5.02881,0 10.28879,-0.2998 15.53518,-0.43891c-2.32653,-4.00026 -4.57271,-8.0516 -6.85973,-12.05145zM361.5758,269.75246c-0.81563,-1.50856 -2.62551,-2.23994 -3.69251,-3.58251c-2.46086,-3.09643 -3.46506,-7.01929 -6,-10c-2.17224,-2.55424 -4.2407,-5.2102 -6.61317,-7.57962c-1.17927,-1.17775 -2.82142,-1.82155 -4,-3c-1.5276,-1.52743 -2.52862,-3.5268 -4.05566,-5.05479c-1.55942,-1.56039 -3.59036,-2.59641 -5.14996,-4.15661c-0.83152,-0.83184 -1.12013,-2.10618 -1.94678,-2.94285c-0.97377,-0.98557 -2.24516,-1.62405 -3.36773,-2.43607c0,0 -2.13862,-1.60397 -2.11551,-4.03002c-1.6286,0.01615 -3.25695,0.03002 -4.88449,0.03002c-7.19907,0 -14.39843,0.01708 -21.59751,0.00313c2.05701,1.60553 3.89071,3.51596 5.87352,5.21961c1.60561,1.37954 6.96954,4.95175 8.25953,6.24173c0.24224,0.24224 6.45774,8.48649 6.71772,8.90688c1.33523,2.15908 1.69338,4.82349 3,7c1.47475,2.45657 4.49342,4.5174 6,7c0.86197,1.42039 0.36932,3.7801 1.78171,4.65512c0.76277,0.47255 1.72913,0.48019 2.59369,0.72028c1.3023,1.23924 2.60458,2.47848 3.90688,3.71772l2,2c0,0 0.19138,0.19139 0.44057,0.52963c6.81213,-0.0016 13.62426,0.00149 20.4363,0.02294c1.26369,0.21062 2.53522,0.35819 3.81122,0.46917c-0.47835,-1.23708 -0.76714,-2.56726 -1.39783,-3.73375zM319.49675,266.62865c-1.4504,-2.45902 -4.5113,-4.51801 -6,-7c-0.6787,-1.13155 -0.84638,-2.50244 -1.36615,-3.71524c-1.51818,-3.54243 -4.18948,-7.65123 -6.91613,-10.37788c-2.27391,-2.27391 -5.29656,-3.66813 -7.74048,-5.75827c-2.1326,-1.82388 -3.96483,-4.04994 -6.35264,-5.52401c-1.36834,-0.84472 -2.95689,-1.30505 -4.29489,-2.19705c-0.68826,-0.45883 -0.99447,-1.37961 -1.70511,-1.80295c-0.90558,-0.53948 -2.10789,-0.43852 -3,-1c-0.17021,-0.10713 -0.33337,-0.22343 -0.49106,-0.3468c-0.08031,0.01466 -0.16075,0.02869 -0.24131,0.04206c-6.6904,1.11042 -13.55908,0.57049 -20.30804,1.23834c-3.25743,0.32235 -6.42645,1.25646 -9.65959,1.76787c-0.43096,0.06817 -0.86278,0.13267 -1.29538,0.19384c1.65508,0.91626 3.34187,1.78653 4.79398,2.98472c7.85675,6.4829 15.9575,13.81083 22.60732,21.5907c0.97692,1.14294 1.59727,2.57893 2.65881,3.64374c0.76589,0.76826 1.89572,1.07686 2.73387,1.76556c1.77461,1.45819 2.74147,3.70706 4.36559,5.33118c1.64956,1.64956 3.6748,2.88706 5.40924,4.44414c2.18854,-0.06975 4.3761,-0.11863 6.54791,0.11572c1.68986,0.18235 3.30761,0.84285 5,1c5.69273,0.52861 11.7782,-0.02434 17.50731,-0.02434c0.35199,0 0.704,-0.00001 1.05599,-0.00005c-1.43947,-1.84772 -2.10303,-4.32628 -3.30925,-6.3713zM276.58006,269.86671c-1.04303,-0.80753 -2.33221,-1.30286 -3.26613,-2.23444c-1.29564,-1.29239 -2.14838,-2.96841 -3.3412,-4.35626c-6.33425,-7.36991 -14.00199,-14.17632 -21.39267,-20.4093c-2.3738,-2.00196 -5.45269,-3.02344 -7.90712,-4.92569c-1.44036,-1.11632 -2.39837,-2.77857 -3.84649,-3.88482c-0.31336,-0.23937 -0.63874,-0.45922 -0.9735,-0.66387c-2.63847,0.16992 -5.27065,0.3509 -7.87758,0.61552c-6.56629,0.66653 -13.04351,2.03018 -19.57935,2.94848c-0.9664,0.13578 -1.93286,0.27239 -2.89952,0.40795c4.39622,4.07234 8.89432,8.00137 13.5295,11.85845c5.58524,4.64765 12.69459,7.4959 18.17442,12.15863c0.9449,0.80401 1.21083,2.20283 2.08511,3.08311c0.73252,0.73755 1.83584,1.00335 2.63441,1.66882c0.24758,0.20632 4.51206,4.47764 5.36559,5.33118l1,1c0,0 0.58374,0.58375 1.03965,1.51405c2.30539,-0.34731 4.60901,-0.69765 6.93213,-0.95418c2.2398,-0.24732 4.554,-0.24717 6.69178,-0.95977c5.13907,-0.06911 10.27901,-0.07868 15.41895,-0.07519c-0.51185,-0.79165 -1.05202,-1.55288 -1.78798,-2.12267z" fill="#000000"/><path d="M96.75001,168c0,5 -5,5 -5,5h-1.15164c-0.07141,0.74282 -0.27007,1.4185 -0.79215,1.92355c-6.3363,6.12963 -7.04609,2.86575 -12.07898,0.64902c-1.73935,-0.76609 -4.38259,-0.28273 -5.37448,-1.90396c-1.69344,-2.76791 -3.3336,-6.81283 -1.65896,-9.59216c1.53171,-2.54212 5.70915,-1.79637 8.66713,-2.03899c0.78661,-0.06452 1.54072,0.20732 2.29762,0.48926c0.06156,-0.96563 0.09149,-1.93146 0.1043,-2.90334c-0.32649,-0.16111 -0.63952,-0.34963 -0.93639,-0.56717c-2.82107,-2.0672 -3.81947,-8.67784 -3.01189,-11.85712c0.55214,-2.17364 0.8881,-5.10092 2.82187,-6.15975c0.00522,-0.83867 0.26695,-1.78329 0.95331,-2.81284c2.7735,-4.16025 6.93375,-1.38675 6.93375,-1.38675c5.30822,3.58452 11.0315,9.82304 7.8459,17.07367c-0.78403,1.7845 -2.5047,3.43811 -4.59715,4.62647c0.00039,1.49654 -0.02069,2.9797 -0.10658,4.46011h0.08433c0,0 5,0 5,5z" fill="#fbff00"/></g></g></svg>