<svg version="1.1" xmlns="http://www.w3.org/2000/svg" xmlns:xlink="http://www.w3.org/1999/xlink" width="16.72631" height="38.62313" viewBox="0,0,16.72631,38.62313"><g transform="translate(-102.02369,-120.75)"><g data-paper-data="{&quot;isPaintingLayer&quot;:true}" fill="#000000" fill-rule="nonzero" stroke="none" stroke-width="0.5" stroke-linecap="butt" stroke-linejoin="miter" stroke-miterlimit="10" stroke-dasharray="" stroke-dashoffset="0" style="mix-blend-mode: normal"><path d="M118.25,121c0,-0.13807 0.11193,-0.25 0.25,-0.25c0.13807,0 0.25,0.11193 0.25,0.25c0,0.13807 -0.11193,0.25 -0.25,0.25c-0.13807,0 -0.25,-0.11193 -0.25,-0.25z"/><path d="M103.75,156c0,0.25 -0.25,0.25 -0.25,0.25h-0.5c-0.28467,-0.06449 -0.60941,2.28703 -0.32322,2.57322c0.10881,0.10881 0.90623,0.06744 1.63424,0.01311c0.04584,-0.05289 0.11351,-0.08634 0.18899,-0.08634c0.06152,0 0.11785,0.02222 0.1614,0.05907c0.38766,-0.03108 0.71307,-0.05907 0.8386,-0.05907c0,0 0.25,0 0.25,0.25c0,0.25 -0.25,0.25 -0.25,0.25c-0.56531,0 -2.78275,0.3208 -3.17678,-0.07322c-0.70841,-0.70841 -0.02852,-3.35047 0.67678,-3.42678h0.5c0,0 0.25,0 0.25,0.25z"/></g></g></svg>