<svg version="1.1" xmlns="http://www.w3.org/2000/svg" xmlns:xlink="http://www.w3.org/1999/xlink" width="641.77491" height="455" viewBox="0,0,641.77491,455"><g transform="translate(76.43915,50)"><g data-paper-data="{&quot;isPaintingLayer&quot;:true}" fill="#000000" fill-rule="nonzero" stroke="none" stroke-width="0.5" stroke-linecap="butt" stroke-linejoin="miter" stroke-miterlimit="10" stroke-dasharray="" stroke-dashoffset="0" style="mix-blend-mode: normal"><path d="M551.73414,75.94584c5.52051,17.70329 5.47228,20.20001 10.81034,39.2258c4.1917,14.93994 6.09967,28.59652 -12.50972,36.04027c-4.63362,1.85345 -9.92745,2.43057 -14.87013,1.74089c-5.84398,-0.81544 -10.23719,-4.10125 -13.62357,-8.66473c-2.33176,-0.56701 -4.6192,-1.48124 -6.79106,-2.76645v12.47837l-0.19344,1.93443l0.01545,0.2446l-0.12603,0.86118l-0.0866,0.86604l-0.07431,0.23355l-0.2815,1.92359l-0.25356,1.01425v4.92236l-0.39062,3.90625l-0.02641,0.08302l-0.00119,0.08711l-0.58177,2.5764v15.34723l-0.19344,1.93443l0.01545,0.2446l-0.12603,0.86118l-0.0866,0.86604l-0.07431,0.23355l-0.2815,1.92359l-0.25356,1.01425v1.92236l-0.24512,2.45122l-0.24036,2.45169l-0.51452,2.57258v2.52451l-0.24512,2.45122l-0.24036,2.45169l-1.51452,7.57258v3.52451l-0.17642,1.76416l-0.07485,1.77138l-0.74874,5.24116v3.2233l-0.19344,1.93443l0.01545,0.2446l-0.12603,0.86118l-0.0866,0.86604l-0.07431,0.23355l-0.2815,1.92359l-0.25356,1.01425v2.92236l-0.19344,1.93443l0.01545,0.2446l-0.12603,0.86118l-0.0866,0.86604l-0.07431,0.23355l-0.2815,1.92359l-1,4l-0.32476,0.90469l-0.04597,0.20356l-0.27346,2.73461l-0.02641,0.08302l-0.00119,0.08711l-0.86469,3.82932l-0.69638,2.08915l-0.0207,0.0828v1.92236l-0.24512,2.45122l-0.24036,2.45169l-1,5l-0.45503,1.48644l-0.3424,1.51635l-0.69638,2.08915l-0.03364,0.13456l-0.1805,1.80503l0.01545,0.2446l-0.12603,0.86118l-0.0866,0.86604l-0.07431,0.23355l-0.2815,1.92359l-1,4l-0.32476,0.90469l-0.04597,0.20356l-0.27346,2.73461l-0.02641,0.08302l-0.00119,0.08711l-0.86469,3.82932l-0.01093,0.03279l-0.09678,0.96776l-0.02641,0.08302l-0.00119,0.08711l-0.86469,3.82932l-0.5896,1.7688l0.00737,0.05895l-0.47257,1.64371l-0.05291,0.5291l-1.0288,3.23337l-0.91162,3.17086l-0.05958,0.59576l-0.56327,1.77027l-0.28789,1.83527l-1.09749,2.88092l-0.05135,0.51354l-0.02641,0.08302l-0.00119,0.08711l-0.86469,3.82932l-1,3l-0.9947,2.21895l-0.05343,0.18584l-0.05958,0.59576l-0.02641,0.08302l-0.00119,0.08711l-0.86469,3.82932l-1,3l-0.9947,2.21895l-0.07935,0.27599l-0.28409,0.53477l-0.2477,0.55257l-0.16914,0.23207l-0.66621,1.25404l-0.02233,0.08931l-0.47625,1.32669l-0.01909,0.12171l-0.42637,1.11922l-0.40466,1.12726l-0.06471,0.10483l-0.50181,1.31724l-0.77271,1.54542l-0.33441,1.33763l-0.32476,0.90469l-0.21172,0.93761l-1.36411,4.09232l-0.04618,0.63111l-0.46179,0.89279l-0.12793,0.38378l-1.60584,3.58227l-1.09417,1.5013l-0.85348,1.65006l-2.48592,3.03835l-0.24957,0.24957l-0.07526,0.11288l-0.38971,0.93531l-1.24782,1.2141l-1.20016,1.46107l-0.55201,1.32484l-2.28543,2.22366l-1.87811,2.57694l-1.98285,1.17967l-0.31725,0.30867l-3.31916,2.09631l-0.60787,0.30394l-1.70496,1.13664l-3.46688,1.84178l-0.3407,0.09795l-0.30166,0.18621l-3.69488,1.32637l-1.75089,0.43772l-2.80071,1.06694l-1.83527,0.28789l-1.77027,0.56327l-1.86947,0.18695l-0.17368,0.06616l-0.10483,0.06471l-1.12726,0.40466l-1.11922,0.42637l-0.12171,0.01909l-1.32669,0.47625l-4,1l-1.92359,0.2815l-0.23355,0.07431l-0.86604,0.0866l-0.86118,0.12603l-0.2446,-0.01545l-1.51502,0.1515l-3.13465,1.25386l-1.62731,0.46942l-1.59407,0.57223l-4,1l-1.92359,0.2815l-0.23355,0.07431l-0.86604,0.0866l-0.86118,0.12603l-0.2446,-0.01545l-1.93443,0.19344h-0.02954l-0.29394,0.04611l-1.77027,0.56327l-3.90625,0.39063h-0.34723l-2.5764,0.58177l-0.08711,0.00119l-0.08302,0.02641l-3.90625,0.39063l-0.92236,0l-1.01425,0.25356l-1.92359,0.2815l-0.23355,0.07431l-0.86604,0.0866l-0.86118,0.12603l-0.2446,-0.01545l-1.93443,0.19344h-0.92236l-1.01425,0.25356l-1.92359,0.2815l-0.23355,0.07431l-0.86604,0.0866l-0.86118,0.12603l-0.2446,-0.01545l-1.80503,0.1805l-1.06601,0.2665l-1.92359,0.2815l-0.23355,0.07431l-0.86604,0.0866l-0.86118,0.12603l-0.2446,-0.01545l-1.93443,0.19344h-6.52451l-2.57258,0.51452l-2.45169,0.24036l-2.45122,0.24512h-21l-1.93443,-0.19344l-0.2446,0.01545l-0.86118,-0.12603l-0.86604,-0.0866l-0.23355,-0.07431l-1.92359,-0.2815l-1.01425,-0.25356h-0.92236l-3.90625,-0.39062l-0.08302,-0.02641l-0.08711,-0.00119l-2.5764,-0.58177h-0.34723l-3.90625,-0.39062l-1.77027,-0.56327l-0.29394,-0.04611h-12.02954l-2.45122,-0.24512l-2.45169,-0.24036l-2.57258,-0.51452h-2.52451l-1.93443,-0.19344l-0.2446,0.01545l-0.86118,-0.12603l-0.86604,-0.0866l-0.23355,-0.07431l-1.92359,-0.2815l-3.42286,-0.85572l-2.02004,-0.40401c-7.80539,-0.01624 -15.61077,-0.02385 -23.41606,0.00616c-2.32142,0.00893 -4.70214,0.99369 -7.07764,1c-23.64356,0.06277 -47.28821,-0.20831 -70.93094,0c-2.64244,0.02328 -5.37685,0.97958 -8.06906,1c-8.33309,0.06321 -16.66691,0.06321 -25,0c-2.70156,-0.02049 -5.41215,-0.94975 -8.06906,-1c-10.30847,-0.19496 -20.62082,0.06415 -30.93094,0c-2.71453,-0.01689 -5.3924,-0.90127 -8.06906,-1c-5.48488,-0.2023 -12.19794,0.48282 -18.04091,-0.34015c-4.74624,-0.6685 -9.35785,-1.57494 -13.90793,-2.65985h-18.98209l-0.36368,-0.03637l-1.36976,0.17122l-1.64371,-0.47257l-0.5291,-0.05291l-3.23337,-1.0288l-3.26101,-0.93754l-0.46958,-0.24947l-1.62979,-0.51857l-0.42536,-0.36736l-0.94598,-0.28959l-0.99668,-0.17996l-7,-2l-1.18829,-0.47182l-1.22845,-0.35436l-4.31789,-1.72715l-5.30304,-1.76768l-1.61784,-0.72524l-0.07208,-0.02746l-0.04371,0.21596l-9.95749,11.18034l-11.00565,2.79508l-8.90933,-1.39754l-3.66855,-1.39754l-4,-2l-3.31916,-2.09631l-0.06244,-0.06075l-0.07738,-0.04002l-1.89644,-1.55164l-1.91736,-0.51821l-4.24103,-4.91067l-2.26898,-2.20766l-0.3378,-0.81072l-0.57406,-0.6647l-0.95987,-3.01673l-2.49559,-5.98941l0.45501,-2.2483l-0.12456,-1.24556v-10l0.24512,-2.45122l0.24036,-2.45169l0.51452,-2.57258v-11.52451l0.13484,-1.34835l-1.34675,-3.36688l-0.20403,-0.70732l-0.30113,-0.67175l-1,-3l-0.86469,-3.82932l-0.00119,-0.08711l-0.02641,-0.08302l-0.39062,-3.90625l0,-0.34723l-0.58177,-2.5764l-0.00119,-0.08711l-0.02641,-0.08302l-0.39062,-3.90625v-17.98913l-0.15576,-0.61332l0.15576,-0.993v-0.40454l0.39063,-3.90625l0.56327,-1.77027l0.28789,-1.83527l1.33051,-3.49259l0.42771,-1.497v-112.49863l0.17642,-1.76416l0.07485,-1.77138l0.56474,-3.9532c-2.78853,1.00696 -6.00277,1.48874 -9.81601,1.48874c-4.99056,0 -10.1201,-1.43024 -14.45312,-3.90625c-3.28631,-1.87789 -5.49633,-5.33513 -7.42187,-8.59375c-7.30344,-12.35966 -1.09878,-27.05464 4.81618,-38.26471c2.64445,-5.01178 5.33187,-10.00078 8,-15c6.57157,-12.31304 13.1873,-21.43931 21.55439,-30.42474c-0.97498,-1.07259 -1.85798,-2.23028 -2.63654,-3.46063l-0.73403,-0.84993l-0.30147,-0.94747c-1.80371,-3.45536 -2.82353,-7.38485 -2.82353,-11.55253v-2l0.24512,-2.45122l0.24036,-2.45169l1,-5l0.10698,-0.34948l0.10074,-1.37674l0.78575,-1.51912l0.15565,-0.50845l1.64294,-2.96882l1.55887,-3.01381l0.33672,-0.41154l0.43795,-0.79138l0.17701,-0.44252l0.92256,-1.77132l0.85203,-1.80631l3,-5l0.35624,-0.47838l0.27983,-0.52673l3.13664,-4.70496l2.30394,-4.60787l0.51328,-0.8127l0.41007,-0.86936l3,-5l0.77014,-1.03419l0.66718,-1.10342l4.661,-6.21467l0.64675,-1.02403l0.59849,-2.21443l4.91067,-4.24103l2.20766,-2.26898l0.81072,-0.3378l0.6647,-0.57406l2.33668,-0.74349l0.66382,-0.64588l1.87266,-1.18273l1.3595,-1.0876l0.97642,-0.27069l1.11059,-0.55529l1.31724,-0.50181l0.10483,-0.06471l1.12726,-0.40466l1.11922,-0.42637l0.0317,-0.00497l1.33361,-0.6898l2.38821,-1.4742l1.50962,-0.54191l1.61953,-0.83769l0.15531,-0.01136l2.83319,-1.71309l0.08226,-0.02868l0.0704,-0.05131l3.58227,-1.60584l6.36291,-2.12097l0.04278,-0.03695l0.95783,-0.30476l0.36183,-0.18092l3.66855,-1.39754l1.83527,-0.28789l1.77027,-0.56327l0.96776,-0.09678l0.03279,-0.01093l3.82932,-0.86469l0.08711,-0.00119l0.08302,-0.02641l0.59576,-0.05958l0.25056,-0.07204l0.30166,-0.18621l3.69488,-1.32637l4,-1l1.92359,-0.2815l0.23355,-0.07431l0.86604,-0.0866l0.86118,-0.12603l0.2446,0.01545l1.93443,-0.19344h4.34723l2.5764,-0.58177l0.08711,-0.00119l0.08302,-0.02641l3.90625,-0.39062l11.93094,0l3.95909,-0.65985l2.05789,-0.13494l2.05208,-0.20521h9.92236l1.01425,-0.25356l0.98886,-0.14471l0.96455,-0.26157l6,-1l2.05789,-0.13494l2.05208,-0.20521h4.44356l6.45558,-0.80695l1.55405,-0.03837l1.54681,-0.15468h26.92236l1.01425,-0.25356l1.92359,-0.2815l0.23355,-0.07431l0.86604,-0.0866l0.86118,-0.12603l0.2446,0.01545l1.93443,-0.19344h4.92236l5.01425,-1.25356l0.59016,-0.08637l0.57032,-0.17459l5,-1l1.08043,-0.10592l1.06169,-0.22665l8.82982,-0.98109l7.8301,-0.97876l1.55405,-0.03837l1.54681,-0.15468h5.2233l5.24116,-0.74874l1.77138,-0.07485l1.76416,-0.17642h39l1.93443,0.19344l0.2446,-0.01545l0.86118,0.12603l0.86604,0.0866l0.23355,0.07431l1.92359,0.2815l3.42286,0.85572l1.98924,0.39785h3.52451l1.54681,0.15468l1.55405,0.03837l23.58202,2.94775l2.36066,0.21461c11.91358,-10.66948 33.19972,-2.26156 46.44245,0.03163c14.13099,2.44701 28.05977,5.23772 42.11283,7.99326c4.76432,0.93419 9.57304,0.15551 14.30741,1.01033c5.02197,0.90674 7.55916,2.21295 13.59512,3.60938c2.00097,0.46293 4.54141,-0.03137 6.575,0.41823c12.89358,2.85063 26.11496,4.59006 38.79165,8.54367c0.04053,0.01264 0.08108,0.02534 0.12163,0.0381h4.01035l3.90625,0.39063l0.08302,0.02641l0.08711,0.00119l3.82932,0.86469l6,2l1.61784,0.72524l1.65681,0.63116l4,2l3.31916,2.09631l0.06244,0.06075l0.07738,0.04002l3.03835,2.48592l1.24957,1.24957l0.94027,0.62685l0.53738,0.44142l0.59511,0.35983l4,3l1.07822,0.9908l0.42178,0.1342l2.01335,1.7388l2.28625,1.36017l1.20819,1.65776l3.08596,2.66514l0.24966,0.92375l1.07801,1.10795l3.54172,3.446l0.41659,0.99981l0.29794,0.29794l2.48592,3.03835l0.04002,0.07738l0.06075,0.06244l2.09631,3.31916l1,2l0.63116,1.65681l0.44825,0.99993l0.7235,0.88428l0.20336,0.39315l1.50805,1.74617l0.96683,3.0386l1.46497,2.83227l0.00769,0.10508c4.32957,6.15941 8.04172,12.53794 10.97348,18.4254c0.04439,0.08913 0.08866,0.17838 0.13281,0.26775c9.83323,7.17308 18.82588,15.79131 22.56337,27.77674zM418.7572,39.71772c-1.8391,-1.251 -3.90732,-2.20401 -5.55207,-3.70138c-0.35215,-0.22743 -0.69822,-0.46346 -1.03791,-0.70781c-1.42696,-0.14828 -2.85585,-0.2759 -4.2869,-0.37768c-9.65129,-0.68648 -19.28875,-1.74966 -28.96272,-1.93085c-24.70491,-0.46271 -49.41968,-0.24349 -74.12773,0c-14.08095,0.13876 -27.94807,4.86887 -42.03986,5c-17.26435,0.16066 -20.6938,-0.86623 -36.78049,-1c-33.05874,-0.2749 -66.1209,-0.27422 -99.17965,0c-4.16596,0.03456 -8.72109,0.9937 -13.03986,1c-9.94784,0.0145 -19.89576,0.03905 -29.84366,0.05289c-8.92538,7.12279 -18.05129,13.40884 -27.57213,20.2524c-5.99204,4.30707 -11.96201,8.64475 -17.94695,12.96168c-3.3695,2.43042 -7.33521,5.2148 -10.88217,7.70135c-0.6981,6.25677 -1.92003,11.83295 -2.75509,18.50716c-1.45918,11.6624 -1.10895,27.93601 -1,38.44687c0.02413,2.32779 0.98786,4.69792 1,7.07764c0.06119,11.99984 0.11746,24.00057 0,36c-0.02195,2.2424 -0.94311,4.41099 -1,6.65277c-0.26596,10.47979 -0.53796,18.6901 -1,28.41629c-0.20428,4.30012 0.28931,9.05506 -0.25126,13.46647c-3.28826,26.83414 -8.07436,53.21797 -7.74874,80.35732c0.03181,2.65155 2.02461,6.47121 3.36068,8.9268c5.48923,10.08878 13.50651,18.14661 24.6074,21.25154c7.28154,2.03665 14.86847,2.79972 22.13561,4.77047c3.0391,0.82416 6.51154,2.03068 10.06327,3.15833l32.83304,0l1.93443,0.19344l0.2446,-0.01545l0.86118,0.12603l0.86604,0.0866l0.23355,0.07431l1.92359,0.2815l1.01425,0.25356h9.92236l2.05208,0.20521l2.05789,0.13494l6,1l1.88779,0.51194l0.65501,0.14791h24.87174l2.57258,-0.51452l2.45169,-0.24036l2.45122,-0.24512l45.93094,0l3.95909,-0.65985l2.05789,-0.13494l2.05208,-0.20521h4.52451l2.57258,-0.51452l2.45169,-0.24036l2.45122,-0.24512h29l2.45122,0.24512l2.45169,0.24036l2.57258,0.51452h1.52451l3.90625,0.39063l0.08302,0.02641l0.08711,0.00119l2.5764,0.58177h0.34723l1.93443,0.19344l0.2446,-0.01545l0.86118,0.12603l0.86604,0.0866l0.23355,0.07431l1.92359,0.2815l1.02862,0.25715c10.36451,0.01627 20.72901,0.03088 31.09343,-0.00359c1.85629,-0.00617 3.95802,-1.31944 5.90831,-1.60937c10.3,-1.53121 19.61211,-5.71336 29.82988,-7.97239c6.84629,-1.51364 14.45887,-0.56438 21.30663,-2.41823c12.40303,-3.3578 24.11073,-7.7286 34.76974,-15c1.99223,-1.35906 4.87813,-2.25979 6.57864,-3.93398c3.94498,-3.88391 7.75531,-7.90436 11.74369,-11.74369c3.85042,-3.70652 7.74752,-6.18384 11.36829,-10.36829c1.59377,-1.84189 1.97232,-7.17346 2.66634,-9.35467c1.17531,-3.69385 3.33383,-7.66948 5.00575,-11.2265c1.43359,-3.04997 1.47984,-6.57576 2.23944,-9.85913c0.06523,-0.28195 1.38761,-5.10316 1.39785,-6.59139c0.23592,-34.29497 -1.13791,-67.34797 -1,-101.92236c0.01003,-2.51327 0.93363,-5.01209 1,-7.47549c0.4273,-15.8598 0.74314,-31.67139 2.39063,-47.43076c0.23907,-2.2869 1.30695,-4.00217 1.60938,-6.15069c1.64293,-11.67173 2.53592,-22.06573 2.00889,-32.23851c-13.2555,-7.58172 -26.38257,-15.40301 -39.00169,-23.98683z"/></g></g></svg>